G04*
G04 #@! TF.GenerationSoftware,Altium Limited,Altium Designer,20.0.13 (296)*
G04*
G04 Layer_Color=8421504*
%FSLAX44Y44*%
%MOMM*%
G71*
G01*
G75*
%ADD17R,1.3000X0.9000*%
%ADD18R,0.9000X1.3000*%
%ADD19R,3.5000X2.2000*%
%ADD20R,0.6000X2.2000*%
%ADD21R,2.5000X2.6000*%
%ADD22R,2.6000X2.5000*%
%ADD23R,0.5588X0.6858*%
%ADD24R,0.6858X0.5588*%
%ADD25R,1.6000X3.0000*%
%ADD26R,1.0000X0.5500*%
%ADD27R,0.5500X1.0000*%
%ADD28R,2.7000X2.0000*%
%ADD29R,0.8000X0.8000*%
%ADD30R,1.3500X0.4000*%
%ADD31R,1.4000X1.6000*%
%ADD32R,1.9000X1.9000*%
%ADD33R,0.5500X1.5000*%
%ADD34R,1.5000X0.5500*%
%ADD35R,1.3000X0.7000*%
%ADD36R,0.7000X1.3000*%
%ADD37R,0.9000X0.6000*%
D17*
X205000Y195500D02*
D03*
Y176500D02*
D03*
X442000Y75000D02*
D03*
Y56000D02*
D03*
X197000Y235500D02*
D03*
Y216500D02*
D03*
X111000Y112500D02*
D03*
Y131500D02*
D03*
X208000Y98500D02*
D03*
Y117500D02*
D03*
X220000Y235500D02*
D03*
Y216500D02*
D03*
Y318500D02*
D03*
Y299500D02*
D03*
X174000Y216500D02*
D03*
Y235500D02*
D03*
X25000Y450500D02*
D03*
Y431500D02*
D03*
X636250Y453750D02*
D03*
Y472750D02*
D03*
X301750Y68500D02*
D03*
Y49500D02*
D03*
X356000Y68500D02*
D03*
Y49500D02*
D03*
X218000Y421500D02*
D03*
Y440500D02*
D03*
X228000Y195500D02*
D03*
Y176500D02*
D03*
X647000Y185500D02*
D03*
Y204500D02*
D03*
X231000Y117500D02*
D03*
Y98500D02*
D03*
D18*
X482500Y53000D02*
D03*
X463500D02*
D03*
X482500Y76000D02*
D03*
X463500D02*
D03*
X242500Y485000D02*
D03*
X261500D02*
D03*
X420500Y76000D02*
D03*
X401500D02*
D03*
X575500Y344000D02*
D03*
X594500D02*
D03*
X145250Y233000D02*
D03*
X126250D02*
D03*
X262500Y344000D02*
D03*
X243500D02*
D03*
X260500Y239000D02*
D03*
X241500D02*
D03*
X401500Y56000D02*
D03*
X382500D02*
D03*
X38500Y522000D02*
D03*
X19500D02*
D03*
X442500Y229000D02*
D03*
X461500D02*
D03*
X401500Y99000D02*
D03*
X420500D02*
D03*
X459000D02*
D03*
X440000D02*
D03*
X461500Y252000D02*
D03*
X442500D02*
D03*
X404500D02*
D03*
X423500D02*
D03*
X671500Y125750D02*
D03*
X652500D02*
D03*
X69500Y294000D02*
D03*
X50500D02*
D03*
X109500Y237000D02*
D03*
X90500D02*
D03*
D19*
X158000Y176000D02*
D03*
D20*
X183400Y114000D02*
D03*
X170700D02*
D03*
X158000D02*
D03*
X145300D02*
D03*
X132600D02*
D03*
D21*
X458500Y284000D02*
D03*
X409500D02*
D03*
D22*
X252000Y314500D02*
D03*
Y265500D02*
D03*
D23*
X603808Y242000D02*
D03*
X628192D02*
D03*
D24*
X10000Y296192D02*
D03*
Y271808D02*
D03*
D25*
X73000Y141500D02*
D03*
Y100500D02*
D03*
X72000Y61500D02*
D03*
Y20500D02*
D03*
D26*
X196500Y421500D02*
D03*
Y440500D02*
D03*
X169500Y421500D02*
D03*
Y431000D02*
D03*
Y440500D02*
D03*
X232500Y136500D02*
D03*
Y155500D02*
D03*
X205500Y136500D02*
D03*
Y146000D02*
D03*
Y155500D02*
D03*
D27*
X69500Y276500D02*
D03*
X50500D02*
D03*
X69500Y249500D02*
D03*
X60000D02*
D03*
X50500D02*
D03*
X652500Y143000D02*
D03*
X671500D02*
D03*
X652500Y170000D02*
D03*
X662000D02*
D03*
X671500D02*
D03*
D28*
X22000Y101000D02*
D03*
Y69000D02*
D03*
D29*
X591000Y382000D02*
D03*
X575000D02*
D03*
X256000Y420000D02*
D03*
X240000D02*
D03*
X255500Y395750D02*
D03*
X239500D02*
D03*
X255500Y380250D02*
D03*
X239500D02*
D03*
D30*
X48745Y188000D02*
D03*
Y194500D02*
D03*
Y201000D02*
D03*
Y207500D02*
D03*
Y214000D02*
D03*
D31*
X46495Y233000D02*
D03*
Y169000D02*
D03*
D32*
X21995Y189000D02*
D03*
Y213000D02*
D03*
D33*
X182000Y258000D02*
D03*
X174000D02*
D03*
X166000D02*
D03*
X158000D02*
D03*
X150000D02*
D03*
X142000D02*
D03*
X134000D02*
D03*
X126000D02*
D03*
Y342000D02*
D03*
X134000D02*
D03*
X142000D02*
D03*
X150000D02*
D03*
X158000D02*
D03*
X166000D02*
D03*
X174000D02*
D03*
X182000D02*
D03*
D34*
X112000Y272000D02*
D03*
Y280000D02*
D03*
Y288000D02*
D03*
Y296000D02*
D03*
Y304000D02*
D03*
Y312000D02*
D03*
Y320000D02*
D03*
Y328000D02*
D03*
X196000D02*
D03*
Y320000D02*
D03*
Y312000D02*
D03*
Y304000D02*
D03*
Y296000D02*
D03*
Y288000D02*
D03*
Y280000D02*
D03*
Y272000D02*
D03*
D35*
X173000Y383500D02*
D03*
Y402500D02*
D03*
X92000Y254500D02*
D03*
Y273500D02*
D03*
X220000Y262500D02*
D03*
Y281500D02*
D03*
X608500Y472500D02*
D03*
Y453500D02*
D03*
X586750D02*
D03*
Y472500D02*
D03*
X636000Y428500D02*
D03*
Y409500D02*
D03*
X667250Y205500D02*
D03*
Y186500D02*
D03*
X27000Y273500D02*
D03*
Y292500D02*
D03*
X667500Y219500D02*
D03*
Y238500D02*
D03*
X271000Y67500D02*
D03*
Y48500D02*
D03*
X253000Y157500D02*
D03*
Y138500D02*
D03*
X647000Y219750D02*
D03*
Y238750D02*
D03*
X331000Y68500D02*
D03*
Y87500D02*
D03*
Y68500D02*
D03*
Y49500D02*
D03*
D36*
X304500Y440000D02*
D03*
X285500D02*
D03*
Y420000D02*
D03*
X304500D02*
D03*
X107500Y358000D02*
D03*
X88500D02*
D03*
X105500Y214000D02*
D03*
X86500D02*
D03*
Y191000D02*
D03*
X105500D02*
D03*
Y170000D02*
D03*
X86500D02*
D03*
X383500Y99000D02*
D03*
X364500D02*
D03*
X625500Y226000D02*
D03*
X606500D02*
D03*
X258750Y438000D02*
D03*
X239750D02*
D03*
X424500Y229000D02*
D03*
X405500D02*
D03*
X574500Y364000D02*
D03*
X593500D02*
D03*
X9500Y256000D02*
D03*
X28500D02*
D03*
X286500Y87000D02*
D03*
X267500D02*
D03*
X144500Y212000D02*
D03*
X125500D02*
D03*
D37*
X71750Y225500D02*
D03*
Y210500D02*
D03*
X69000Y179500D02*
D03*
Y194500D02*
D03*
M02*
