G04*
G04 #@! TF.GenerationSoftware,Altium Limited,Altium Designer,20.0.13 (296)*
G04*
G04 Layer_Color=65535*
%FSLAX44Y44*%
%MOMM*%
G71*
G01*
G75*
%ADD10C,0.2000*%
%ADD11C,0.4000*%
%ADD12C,0.2540*%
%ADD13C,0.2032*%
%ADD14C,0.1500*%
%ADD15C,0.1750*%
%ADD16C,0.1600*%
D10*
X115313Y498087D02*
G03*
X184974Y493439I35647J9913D01*
G01*
X634350Y170180D02*
G03*
X634350Y157480I0J-6350D01*
G01*
X194840Y168220D02*
X215160D01*
X194840D02*
Y203780D01*
X215160D01*
Y168220D02*
Y203780D01*
X455220Y42840D02*
Y63160D01*
X490780D01*
Y42840D02*
Y63160D01*
X455220Y42840D02*
X490780D01*
X431840Y47720D02*
X452160D01*
X431840D02*
Y83280D01*
X452160D01*
Y47720D02*
Y83280D01*
X11430Y511810D02*
X90170D01*
Y458470D02*
Y511810D01*
X11430Y458470D02*
X90170D01*
X11430D02*
Y511810D01*
X11630Y423370D02*
X90370D01*
Y370030D02*
Y423370D01*
X11630Y370030D02*
X90370D01*
X11630D02*
Y423370D01*
X64770Y302628D02*
Y355968D01*
X12700D02*
X64770D01*
X12700Y302628D02*
Y355968D01*
Y302628D02*
X64770D01*
X634350Y170180D02*
Y215830D01*
Y111830D02*
Y157480D01*
X277550Y111830D02*
X633350D01*
X277550D02*
Y215830D01*
X633350D01*
X393000Y265000D02*
Y303000D01*
X475000D01*
Y265000D02*
Y303000D01*
X393000Y265000D02*
X475000D01*
X233000Y249000D02*
X271000D01*
X233000D02*
Y331000D01*
X271000D01*
Y249000D02*
Y331000D01*
X598000Y235000D02*
X634000D01*
Y249000D01*
X598000D02*
X634000D01*
X598000Y235000D02*
X634000D01*
Y249000D01*
X598000D02*
X634000D01*
X3000Y266000D02*
Y302000D01*
Y266000D02*
X17000D01*
Y302000D01*
X3000Y266000D02*
Y302000D01*
Y266000D02*
X17000D01*
Y302000D01*
X186840Y208220D02*
X207160D01*
X186840D02*
Y243780D01*
X207160D01*
Y208220D02*
Y243780D01*
X100840Y139780D02*
X121160D01*
Y104220D02*
Y139780D01*
X100840Y104220D02*
X121160D01*
X100840D02*
Y139780D01*
X197840Y125780D02*
X218160D01*
Y90220D02*
Y125780D01*
X197840Y90220D02*
X218160D01*
X197840D02*
Y125780D01*
X455220Y65840D02*
Y86160D01*
X490780D01*
Y65840D02*
Y86160D01*
X455220Y65840D02*
X490780D01*
X269780Y474840D02*
Y495160D01*
X234220Y474840D02*
X269780D01*
X234220D02*
Y495160D01*
X269780D01*
X393220Y65840D02*
Y86160D01*
X428780D01*
Y65840D02*
Y86160D01*
X393220Y65840D02*
X428780D01*
X602780Y333840D02*
Y354160D01*
X567220Y333840D02*
X602780D01*
X567220D02*
Y354160D01*
X602780D01*
X6000Y56000D02*
Y114000D01*
Y56000D02*
X38000D01*
Y114000D01*
X6000D02*
X38000D01*
X567760Y389620D02*
X598240D01*
X567760Y374380D02*
Y389620D01*
Y374380D02*
X598240D01*
Y389620D01*
X232760Y427620D02*
X263240D01*
X232760Y412380D02*
Y427620D01*
Y412380D02*
X263240D01*
Y427620D01*
X232260Y403370D02*
X262740D01*
X232260Y388130D02*
Y403370D01*
Y388130D02*
X262740D01*
Y403370D01*
X232260Y387870D02*
X262740D01*
X232260Y372630D02*
Y387870D01*
Y372630D02*
X262740D01*
Y387870D01*
X119000Y265000D02*
X121000D01*
X119000D02*
Y267000D01*
Y333000D02*
Y335000D01*
X121000D01*
X187000D02*
X189000D01*
Y333000D02*
Y335000D01*
X170300Y270850D02*
X183150Y283700D01*
X124850Y270850D02*
X170300D01*
X124850D02*
Y329150D01*
X183150D01*
Y283700D02*
Y329150D01*
X209840Y208220D02*
Y243780D01*
Y208220D02*
X230160D01*
Y243780D01*
X209840D02*
X230160D01*
X209840Y291220D02*
Y326780D01*
Y291220D02*
X230160D01*
Y326780D01*
X209840D02*
X230160D01*
X184160Y208220D02*
Y243780D01*
X163840D02*
X184160D01*
X163840Y208220D02*
Y243780D01*
Y208220D02*
X184160D01*
X117970Y243160D02*
X153530D01*
X117970Y222840D02*
Y243160D01*
Y222840D02*
X153530D01*
Y243160D01*
X14840Y423220D02*
Y458780D01*
Y423220D02*
X35160D01*
Y458780D01*
X14840D02*
X35160D01*
X235220Y354160D02*
X270780D01*
X235220Y333840D02*
Y354160D01*
Y333840D02*
X270780D01*
Y354160D01*
X233220Y249160D02*
X268780D01*
X233220Y228840D02*
Y249160D01*
Y228840D02*
X268780D01*
Y249160D01*
X646410Y445470D02*
Y481030D01*
X626090D02*
X646410D01*
X626090Y445470D02*
Y481030D01*
Y445470D02*
X646410D01*
X374220Y66160D02*
X409780D01*
X374220Y45840D02*
Y66160D01*
Y45840D02*
X409780D01*
Y66160D01*
X291590Y41220D02*
Y76780D01*
Y41220D02*
X311910D01*
Y76780D01*
X291590D02*
X311910D01*
X345840Y41220D02*
Y76780D01*
Y41220D02*
X366160D01*
Y76780D01*
X345840D02*
X366160D01*
X11220Y532160D02*
X46780D01*
X11220Y511840D02*
Y532160D01*
Y511840D02*
X46780D01*
Y532160D01*
X434220Y218840D02*
X469780D01*
Y239160D01*
X434220D02*
X469780D01*
X434220Y218840D02*
Y239160D01*
X393220Y88840D02*
X428780D01*
Y109160D01*
X393220D02*
X428780D01*
X393220Y88840D02*
Y109160D01*
X431720D02*
X467280D01*
X431720Y88840D02*
Y109160D01*
Y88840D02*
X467280D01*
Y109160D01*
X434220Y262160D02*
X469780D01*
X434220Y241840D02*
Y262160D01*
Y241840D02*
X469780D01*
Y262160D01*
X228160Y413220D02*
Y448780D01*
X207840D02*
X228160D01*
X207840Y413220D02*
Y448780D01*
Y413220D02*
X228160D01*
X396220Y241840D02*
X431780D01*
Y262160D01*
X396220D02*
X431780D01*
X396220Y241840D02*
Y262160D01*
X644220Y135910D02*
X679780D01*
X644220Y115590D02*
Y135910D01*
Y115590D02*
X679780D01*
Y135910D01*
X217840Y168220D02*
Y203780D01*
Y168220D02*
X238160D01*
Y203780D01*
X217840D02*
X238160D01*
X42220Y304160D02*
X77780D01*
X42220Y283840D02*
Y304160D01*
Y283840D02*
X77780D01*
Y304160D01*
X82220Y247160D02*
X117780D01*
X82220Y226840D02*
Y247160D01*
Y226840D02*
X117780D01*
Y247160D01*
X657160Y177220D02*
Y212780D01*
X636840D02*
X657160D01*
X636840Y177220D02*
Y212780D01*
Y177220D02*
X657160D01*
X220840Y90220D02*
Y125780D01*
Y90220D02*
X241160D01*
Y125780D01*
X220840D02*
X241160D01*
X183160Y376490D02*
Y409510D01*
X162840D02*
X183160D01*
X162840Y376490D02*
Y409510D01*
Y376490D02*
X183160D01*
X278490Y429840D02*
Y450160D01*
X311510D01*
Y429840D02*
Y450160D01*
X278490Y429840D02*
X311510D01*
X278490Y409840D02*
X311510D01*
Y430160D01*
X278490D02*
X311510D01*
X278490Y409840D02*
Y430160D01*
X81840Y280510D02*
X102160D01*
Y247490D02*
Y280510D01*
X81840Y247490D02*
X102160D01*
X81840D02*
Y280510D01*
X81490Y368160D02*
X114510D01*
X81490Y347840D02*
Y368160D01*
Y347840D02*
X114510D01*
Y368160D01*
X79490Y203840D02*
Y224160D01*
X112510D01*
Y203840D02*
Y224160D01*
X79490Y203840D02*
X112510D01*
X79490Y180840D02*
X112510D01*
Y201160D01*
X79490D02*
X112510D01*
X79490Y180840D02*
Y201160D01*
Y159840D02*
Y180160D01*
X112510D01*
Y159840D02*
Y180160D01*
X79490Y159840D02*
X112510D01*
X230160Y255490D02*
Y288510D01*
X209840D02*
X230160D01*
X209840Y255490D02*
Y288510D01*
Y255490D02*
X230160D01*
X598340Y446490D02*
X618660D01*
X598340D02*
Y479510D01*
X618660D01*
Y446490D02*
Y479510D01*
X596910Y446490D02*
Y479510D01*
X576590D02*
X596910D01*
X576590Y446490D02*
Y479510D01*
Y446490D02*
X596910D01*
X625840Y402490D02*
X646160D01*
X625840D02*
Y435510D01*
X646160D01*
Y402490D02*
Y435510D01*
X357490Y109160D02*
X390510D01*
X357490Y88840D02*
Y109160D01*
Y88840D02*
X390510D01*
Y109160D01*
X599490Y215840D02*
Y236160D01*
X632510D01*
Y215840D02*
Y236160D01*
X599490Y215840D02*
X632510D01*
X232740Y448160D02*
X265760D01*
X232740Y427840D02*
Y448160D01*
Y427840D02*
X265760D01*
Y448160D01*
X398490Y218840D02*
Y239160D01*
X431510D01*
Y218840D02*
Y239160D01*
X398490Y218840D02*
X431510D01*
X567490Y353840D02*
X600510D01*
Y374160D01*
X567490D02*
X600510D01*
X567490Y353840D02*
Y374160D01*
X657090Y179490D02*
X677410D01*
X657090D02*
Y212510D01*
X677410D01*
Y179490D02*
Y212510D01*
X37160Y266490D02*
Y299510D01*
X16840D02*
X37160D01*
X16840Y266490D02*
Y299510D01*
Y266490D02*
X37160D01*
X657340Y245510D02*
X677660D01*
Y212490D02*
Y245510D01*
X657340Y212490D02*
X677660D01*
X657340D02*
Y245510D01*
X260840Y41490D02*
Y74510D01*
Y41490D02*
X281160D01*
Y74510D01*
X260840D02*
X281160D01*
X242840Y131490D02*
X263160D01*
X242840D02*
Y164510D01*
X263160D01*
Y131490D02*
Y164510D01*
X2490Y245840D02*
X35510D01*
Y266160D01*
X2490D02*
X35510D01*
X2490Y245840D02*
Y266160D01*
X636840Y245760D02*
X657160D01*
Y212740D02*
Y245760D01*
X636840Y212740D02*
X657160D01*
X636840D02*
Y245760D01*
X260490Y97160D02*
X293510D01*
X260490Y76840D02*
Y97160D01*
Y76840D02*
X293510D01*
Y97160D01*
X320840Y94510D02*
X341160D01*
Y61490D02*
Y94510D01*
X320840Y61490D02*
X341160D01*
X320840D02*
Y94510D01*
Y42490D02*
Y75510D01*
Y42490D02*
X341160D01*
Y75510D01*
X320840D02*
X341160D01*
X118490Y201840D02*
Y222160D01*
X151510D01*
Y201840D02*
Y222160D01*
X118490Y201840D02*
X151510D01*
X64130Y204030D02*
Y231970D01*
Y204030D02*
X79370D01*
Y231970D01*
X64130D02*
X79370D01*
X76620Y173030D02*
Y200970D01*
X61380D02*
X76620D01*
X61380Y173030D02*
Y200970D01*
Y173030D02*
X76620D01*
X307665Y339127D02*
X305998Y340793D01*
X302666D01*
X301000Y339127D01*
Y337461D01*
X302666Y335794D01*
X305998D01*
X307665Y334128D01*
Y332462D01*
X305998Y330796D01*
X302666D01*
X301000Y332462D01*
X315995Y330796D02*
X312663D01*
X310997Y332462D01*
Y335794D01*
X312663Y337461D01*
X315995D01*
X317661Y335794D01*
Y334128D01*
X310997D01*
X327658Y337461D02*
X322660D01*
X320994Y335794D01*
Y332462D01*
X322660Y330796D01*
X327658D01*
X332657D02*
X335989D01*
X337655Y332462D01*
Y335794D01*
X335989Y337461D01*
X332657D01*
X330990Y335794D01*
Y332462D01*
X332657Y330796D01*
X340987D02*
Y337461D01*
X345985D01*
X347652Y335794D01*
Y330796D01*
X357648Y340793D02*
Y330796D01*
X352650D01*
X350984Y332462D01*
Y335794D01*
X352650Y337461D01*
X357648D01*
X370978Y340793D02*
Y339127D01*
X374310Y335794D01*
X377642Y339127D01*
Y340793D01*
X374310Y335794D02*
Y330796D01*
X385973D02*
X382640D01*
X380974Y332462D01*
Y335794D01*
X382640Y337461D01*
X385973D01*
X387639Y335794D01*
Y334128D01*
X380974D01*
X392637Y337461D02*
X395969D01*
X397635Y335794D01*
Y330796D01*
X392637D01*
X390971Y332462D01*
X392637Y334128D01*
X397635D01*
X400968Y337461D02*
Y330796D01*
Y334128D01*
X402634Y335794D01*
X404300Y337461D01*
X405966D01*
X420961Y335794D02*
X427626D01*
X307665Y323997D02*
X301000D01*
Y314000D01*
X307665D01*
X301000Y318998D02*
X304332D01*
X310997Y314000D02*
X314329D01*
X312663D01*
Y323997D01*
X310997D01*
X324326Y314000D02*
X320994D01*
X319327Y315666D01*
Y318998D01*
X320994Y320664D01*
X324326D01*
X325992Y318998D01*
Y317332D01*
X319327D01*
X335989Y320664D02*
X330990D01*
X329324Y318998D01*
Y315666D01*
X330990Y314000D01*
X335989D01*
X340987Y322331D02*
Y320664D01*
X339321D01*
X342653D01*
X340987D01*
Y315666D01*
X342653Y314000D01*
X347652Y320664D02*
Y314000D01*
Y317332D01*
X349318Y318998D01*
X350984Y320664D01*
X352650D01*
X359314Y314000D02*
X362647D01*
X364313Y315666D01*
Y318998D01*
X362647Y320664D01*
X359314D01*
X357648Y318998D01*
Y315666D01*
X359314Y314000D01*
X367645D02*
Y320664D01*
X372644D01*
X374310Y318998D01*
Y314000D01*
X377642D02*
X380974D01*
X379308D01*
Y320664D01*
X377642D01*
X392637D02*
X387639D01*
X385973Y318998D01*
Y315666D01*
X387639Y314000D01*
X392637D01*
X395969D02*
X400968D01*
X402634Y315666D01*
X400968Y317332D01*
X397635D01*
X395969Y318998D01*
X397635Y320664D01*
X402634D01*
X415963Y314000D02*
Y320664D01*
X419295Y323997D01*
X422627Y320664D01*
Y314000D01*
Y318998D01*
X415963D01*
X425960Y314000D02*
Y320664D01*
X430958D01*
X432624Y318998D01*
Y314000D01*
X442621Y323997D02*
Y314000D01*
X437623D01*
X435956Y315666D01*
Y318998D01*
X437623Y320664D01*
X442621D01*
X455950Y323997D02*
X462615D01*
X459282D01*
Y314000D01*
X470945D02*
X467613D01*
X465947Y315666D01*
Y318998D01*
X467613Y320664D01*
X470945D01*
X472611Y318998D01*
Y317332D01*
X465947D01*
X475944Y314000D02*
X479276D01*
X477610D01*
Y323997D01*
X475944D01*
X489273Y314000D02*
X485940D01*
X484274Y315666D01*
Y318998D01*
X485940Y320664D01*
X489273D01*
X490939Y318998D01*
Y317332D01*
X484274D01*
X500936Y320664D02*
X495937D01*
X494271Y318998D01*
Y315666D01*
X495937Y314000D01*
X500936D01*
X505934D02*
X509266D01*
X510932Y315666D01*
Y318998D01*
X509266Y320664D01*
X505934D01*
X504268Y318998D01*
Y315666D01*
X505934Y314000D01*
X514265D02*
Y320664D01*
X515931D01*
X517597Y318998D01*
Y314000D01*
Y318998D01*
X519263Y320664D01*
X520929Y318998D01*
Y314000D01*
X524261D02*
Y320664D01*
X525928D01*
X527594Y318998D01*
Y314000D01*
Y318998D01*
X529260Y320664D01*
X530926Y318998D01*
Y314000D01*
X534258D02*
Y315666D01*
X535924D01*
Y314000D01*
X534258D01*
X4000Y465000D02*
X8232D01*
X6116D01*
Y477696D01*
X4000Y475580D01*
Y376000D02*
X8232D01*
X6116D01*
Y388696D01*
X4000Y386580D01*
X69000Y336000D02*
X73232D01*
X71116D01*
Y348696D01*
X69000Y346580D01*
X331000Y431333D02*
X333333D01*
X332166D01*
Y438330D01*
X331000Y437164D01*
X336832D02*
X337998Y438330D01*
X340330D01*
X341497Y437164D01*
Y435998D01*
X340330Y434831D01*
X339164D01*
X340330D01*
X341497Y433665D01*
Y432499D01*
X340330Y431333D01*
X337998D01*
X336832Y432499D01*
X350827Y431333D02*
Y435998D01*
X351993D01*
X353159Y434831D01*
Y431333D01*
Y434831D01*
X354326Y435998D01*
X355492Y434831D01*
Y431333D01*
X358991Y435998D02*
X361324D01*
X362490Y434831D01*
Y431333D01*
X358991D01*
X357825Y432499D01*
X358991Y433665D01*
X362490D01*
X364823Y435998D02*
Y432499D01*
X365989Y431333D01*
X369488D01*
Y430166D01*
X368321Y429000D01*
X367155D01*
X369488Y431333D02*
Y435998D01*
X383483Y431333D02*
X378818D01*
X383483Y435998D01*
Y437164D01*
X382317Y438330D01*
X379984D01*
X378818Y437164D01*
X385816D02*
X386982Y438330D01*
X389315D01*
X390481Y437164D01*
Y432499D01*
X389315Y431333D01*
X386982D01*
X385816Y432499D01*
Y437164D01*
X397479Y431333D02*
X392813D01*
X397479Y435998D01*
Y437164D01*
X396312Y438330D01*
X393980D01*
X392813Y437164D01*
X399811D02*
X400978Y438330D01*
X403310D01*
X404476Y437164D01*
Y432499D01*
X403310Y431333D01*
X400978D01*
X399811Y432499D01*
Y437164D01*
X337664Y419997D02*
X335998Y421663D01*
X332666D01*
X331000Y419997D01*
Y413332D01*
X332666Y411666D01*
X335998D01*
X337664Y413332D01*
Y416665D01*
X334332D01*
X340997Y421663D02*
X344329D01*
X342663D01*
Y411666D01*
X340997D01*
X344329D01*
X349327Y421663D02*
X355992D01*
X352660D01*
Y411666D01*
X359324Y421663D02*
Y411666D01*
Y416665D01*
X365989D01*
Y421663D01*
Y411666D01*
X369321Y421663D02*
Y413332D01*
X370987Y411666D01*
X374319D01*
X375985Y413332D01*
Y421663D01*
X379318D02*
Y411666D01*
X384316D01*
X385982Y413332D01*
Y414998D01*
X384316Y416665D01*
X379318D01*
X384316D01*
X385982Y418331D01*
Y419997D01*
X384316Y421663D01*
X379318D01*
X399311D02*
X402644D01*
X400978D01*
Y411666D01*
X399311D01*
X402644D01*
X407642Y421663D02*
Y411666D01*
X412640D01*
X414306Y413332D01*
Y419997D01*
X412640Y421663D01*
X407642D01*
X427635Y416665D02*
X434300D01*
X447629Y411666D02*
Y418331D01*
X450961Y421663D01*
X454294Y418331D01*
Y411666D01*
Y416665D01*
X447629D01*
X457626Y421663D02*
Y411666D01*
X462624D01*
X464290Y413332D01*
Y414998D01*
Y416665D01*
X462624Y418331D01*
X457626D01*
X467623Y421663D02*
Y411666D01*
Y416665D01*
X469289Y418331D01*
X472621D01*
X474287Y416665D01*
Y411666D01*
X477619D02*
X480952D01*
X479286D01*
Y418331D01*
X477619D01*
X485950Y411666D02*
X490948D01*
X492615Y413332D01*
X490948Y414998D01*
X487616D01*
X485950Y416665D01*
X487616Y418331D01*
X492615D01*
X495947Y421663D02*
Y411666D01*
Y416665D01*
X497613Y418331D01*
X500945D01*
X502611Y416665D01*
Y411666D01*
X510942D02*
X507610D01*
X505944Y413332D01*
Y416665D01*
X507610Y418331D01*
X510942D01*
X512608Y416665D01*
Y414998D01*
X505944D01*
X515940Y411666D02*
Y421663D01*
Y414998D02*
X520939Y418331D01*
X515940Y414998D02*
X520939Y411666D01*
X532602Y419997D02*
X530936Y421663D01*
X527603D01*
X525937Y419997D01*
Y418331D01*
X527603Y416665D01*
X530936D01*
X532602Y414998D01*
Y413332D01*
X530936Y411666D01*
X527603D01*
X525937Y413332D01*
X535934Y410000D02*
X542598D01*
X545931Y419997D02*
X547597Y421663D01*
X550929D01*
X552595Y419997D01*
Y418331D01*
X550929Y416665D01*
X549263D01*
X550929D01*
X552595Y414998D01*
Y413332D01*
X550929Y411666D01*
X547597D01*
X545931Y413332D01*
X555928Y419997D02*
X557594Y421663D01*
X560926D01*
X562592Y419997D01*
Y413332D01*
X560926Y411666D01*
X557594D01*
X555928Y413332D01*
Y419997D01*
X565924D02*
X567590Y421663D01*
X570923D01*
X572589Y419997D01*
Y413332D01*
X570923Y411666D01*
X567590D01*
X565924Y413332D01*
Y419997D01*
X575921Y413332D02*
X577587Y411666D01*
X580919D01*
X582586Y413332D01*
Y419997D01*
X580919Y421663D01*
X577587D01*
X575921Y419997D01*
Y418331D01*
X577587Y416665D01*
X582586D01*
X270000Y400997D02*
X276665D01*
X273332D01*
Y391000D01*
X270000Y375000D02*
Y384997D01*
X274998D01*
X276665Y383331D01*
Y379998D01*
X274998Y378332D01*
X270000D01*
X273332D02*
X276665Y375000D01*
X550000Y98665D02*
Y92000D01*
X543335Y98665D01*
X541669D01*
X540003Y96998D01*
Y93666D01*
X541669Y92000D01*
X540003Y108661D02*
Y101997D01*
X545002D01*
X543335Y105329D01*
Y106995D01*
X545002Y108661D01*
X548334D01*
X550000Y106995D01*
Y103663D01*
X548334Y101997D01*
X293000Y219000D02*
Y222332D01*
Y220666D01*
X283003D01*
X284669Y219000D01*
X293000Y232329D02*
X283003D01*
X288002Y227331D01*
Y233995D01*
X395000Y219000D02*
Y222332D01*
Y220666D01*
X385003D01*
X386669Y219000D01*
Y227331D02*
X385003Y228997D01*
Y232329D01*
X386669Y233995D01*
X393334D01*
X395000Y232329D01*
Y228997D01*
X393334Y227331D01*
X386669D01*
X514003Y226665D02*
Y220000D01*
X519002D01*
X517335Y223332D01*
Y224998D01*
X519002Y226665D01*
X522334D01*
X524000Y224998D01*
Y221666D01*
X522334Y220000D01*
X74665Y312000D02*
X68000D01*
X74665Y318664D01*
Y320331D01*
X72998Y321997D01*
X69666D01*
X68000Y320331D01*
X7998Y312000D02*
Y321997D01*
X3000Y316998D01*
X9664D01*
X3000Y345331D02*
X4666Y346997D01*
X7998D01*
X9664Y345331D01*
Y343665D01*
X7998Y341998D01*
X6332D01*
X7998D01*
X9664Y340332D01*
Y338666D01*
X7998Y337000D01*
X4666D01*
X3000Y338666D01*
X43000Y436997D02*
X46332D01*
X44666D01*
Y427000D01*
X43000D01*
X46332D01*
X57995Y435331D02*
X56329Y436997D01*
X52997D01*
X51331Y435331D01*
Y428666D01*
X52997Y427000D01*
X56329D01*
X57995Y428666D01*
X67992Y435331D02*
X66326Y436997D01*
X62993D01*
X61327Y435331D01*
Y433665D01*
X62993Y431998D01*
X66326D01*
X67992Y430332D01*
Y428666D01*
X66326Y427000D01*
X62993D01*
X61327Y428666D01*
X71324Y427000D02*
Y436997D01*
X76323D01*
X77989Y435331D01*
Y431998D01*
X76323Y430332D01*
X71324D01*
X81321Y427000D02*
X84653D01*
X82987D01*
Y436997D01*
X81321Y435331D01*
X51000Y524997D02*
X54332D01*
X52666D01*
Y515000D01*
X51000D01*
X54332D01*
X65995Y523331D02*
X64329Y524997D01*
X60997D01*
X59331Y523331D01*
Y516666D01*
X60997Y515000D01*
X64329D01*
X65995Y516666D01*
X75992Y523331D02*
X74326Y524997D01*
X70994D01*
X69327Y523331D01*
Y521665D01*
X70994Y519998D01*
X74326D01*
X75992Y518332D01*
Y516666D01*
X74326Y515000D01*
X70994D01*
X69327Y516666D01*
X79324Y515000D02*
Y524997D01*
X84323D01*
X85989Y523331D01*
Y519998D01*
X84323Y518332D01*
X79324D01*
X582000Y261000D02*
X572003D01*
Y265998D01*
X573669Y267665D01*
X577002D01*
X578668Y265998D01*
Y261000D01*
Y264332D02*
X582000Y267665D01*
X572003Y277661D02*
Y270997D01*
X582000D01*
Y277661D01*
X577002Y270997D02*
Y274329D01*
X573669Y287658D02*
X572003Y285992D01*
Y282660D01*
X573669Y280993D01*
X575336D01*
X577002Y282660D01*
Y285992D01*
X578668Y287658D01*
X580334D01*
X582000Y285992D01*
Y282660D01*
X580334Y280993D01*
X572003Y297655D02*
Y290990D01*
X582000D01*
Y297655D01*
X577002Y290990D02*
Y294323D01*
X572003Y300987D02*
Y307652D01*
Y304319D01*
X582000D01*
X169335Y363998D02*
X166003D01*
X167669D01*
Y355668D01*
X166003Y354002D01*
X164337D01*
X162671Y355668D01*
X172668Y354002D02*
Y363998D01*
X177666D01*
X179332Y362332D01*
Y359000D01*
X177666Y357334D01*
X172668D01*
X182665Y362332D02*
X184331Y363998D01*
X187663D01*
X189329Y362332D01*
Y360666D01*
X187663Y359000D01*
X185997D01*
X187663D01*
X189329Y357334D01*
Y355668D01*
X187663Y354002D01*
X184331D01*
X182665Y355668D01*
X661002Y497998D02*
X657669D01*
X659335D01*
Y489668D01*
X657669Y488002D01*
X656003D01*
X654337Y489668D01*
X664334Y488002D02*
Y497998D01*
X669332D01*
X670998Y496332D01*
Y493000D01*
X669332Y491334D01*
X664334D01*
X674331Y488002D02*
X677663D01*
X675997D01*
Y497998D01*
X674331Y496332D01*
X64334Y168998D02*
X61002D01*
X62668D01*
Y160668D01*
X61002Y159002D01*
X59335D01*
X57669Y160668D01*
X67666Y168998D02*
X74331D01*
Y167332D01*
X67666Y160668D01*
Y159002D01*
X101334Y414998D02*
X98002D01*
X99668D01*
Y406668D01*
X98002Y405002D01*
X96335D01*
X94669Y406668D01*
X111331Y414998D02*
X107998Y413332D01*
X104666Y410000D01*
Y406668D01*
X106332Y405002D01*
X109664D01*
X111331Y406668D01*
Y408334D01*
X109664Y410000D01*
X104666D01*
X101334Y488998D02*
X98002D01*
X99668D01*
Y480668D01*
X98002Y479002D01*
X96335D01*
X94669Y480668D01*
X111331Y488998D02*
X104666D01*
Y484000D01*
X107998Y485666D01*
X109664D01*
X111331Y484000D01*
Y480668D01*
X109664Y479002D01*
X106332D01*
X104666Y480668D01*
X309334Y490998D02*
X306002D01*
X307668D01*
Y482668D01*
X306002Y481002D01*
X304335D01*
X302669Y482668D01*
X317665Y481002D02*
Y490998D01*
X312666Y486000D01*
X319331D01*
X545334Y490998D02*
X542002D01*
X543668D01*
Y482668D01*
X542002Y481002D01*
X540336D01*
X538669Y482668D01*
X548666Y489332D02*
X550332Y490998D01*
X553665D01*
X555331Y489332D01*
Y487666D01*
X553665Y486000D01*
X551998D01*
X553665D01*
X555331Y484334D01*
Y482668D01*
X553665Y481002D01*
X550332D01*
X548666Y482668D01*
X566334Y53998D02*
X563002D01*
X564668D01*
Y45668D01*
X563002Y44002D01*
X561335D01*
X559669Y45668D01*
X576331Y44002D02*
X569666D01*
X576331Y50666D01*
Y52332D01*
X574664Y53998D01*
X571332D01*
X569666Y52332D01*
X421000Y51998D02*
X417668D01*
X419334D01*
Y43668D01*
X417668Y42002D01*
X416002D01*
X414336Y43668D01*
X424332Y42002D02*
X427664D01*
X425998D01*
Y51998D01*
X424332Y50332D01*
D11*
X200000Y264000D02*
G03*
X200000Y264000I-1000J0D01*
G01*
X596000Y239000D02*
Y245000D01*
Y239000D02*
Y245000D01*
X7000Y304000D02*
X13000D01*
X7000D02*
X13000D01*
X312997Y396087D02*
X310498Y398586D01*
X305499D01*
X303000Y396087D01*
Y386090D01*
X305499Y383591D01*
X310498D01*
X312997Y386090D01*
X320494Y383591D02*
X325493D01*
X327992Y386090D01*
Y391088D01*
X325493Y393588D01*
X320494D01*
X317995Y391088D01*
Y386090D01*
X320494Y383591D01*
X332990D02*
X337989D01*
X335490D01*
Y398586D01*
X332990D01*
X345486Y383591D02*
X350485D01*
X347985D01*
Y398586D01*
X345486D01*
X365480Y383591D02*
X360481D01*
X357982Y386090D01*
Y391088D01*
X360481Y393588D01*
X365480D01*
X367979Y391088D01*
Y388589D01*
X357982D01*
X377976Y378592D02*
X380475D01*
X382974Y381092D01*
Y393588D01*
X375476D01*
X372977Y391088D01*
Y386090D01*
X375476Y383591D01*
X382974D01*
X395470D02*
X390472D01*
X387972Y386090D01*
Y391088D01*
X390472Y393588D01*
X395470D01*
X397969Y391088D01*
Y388589D01*
X387972D01*
X425460Y398586D02*
X420462D01*
X417963Y396087D01*
Y386090D01*
X420462Y383591D01*
X425460D01*
X427960Y386090D01*
Y396087D01*
X425460Y398586D01*
X435457Y383591D02*
Y396087D01*
Y391088D01*
X432958D01*
X437956D01*
X435457D01*
Y396087D01*
X437956Y398586D01*
X312997Y365993D02*
X303000D01*
Y350998D01*
X312997D01*
X303000Y358496D02*
X307998D01*
X317995Y350998D02*
Y360995D01*
X325493D01*
X327992Y358496D01*
Y350998D01*
X337989Y346000D02*
X340488D01*
X342987Y348499D01*
Y360995D01*
X335490D01*
X332990Y358496D01*
Y353498D01*
X335490Y350998D01*
X342987D01*
X347985D02*
X352984D01*
X350485D01*
Y360995D01*
X347985D01*
X360481Y350998D02*
Y360995D01*
X367979D01*
X370478Y358496D01*
Y350998D01*
X382974D02*
X377976D01*
X375476Y353498D01*
Y358496D01*
X377976Y360995D01*
X382974D01*
X385473Y358496D01*
Y355997D01*
X375476D01*
X397969Y350998D02*
X392971D01*
X390472Y353498D01*
Y358496D01*
X392971Y360995D01*
X397969D01*
X400468Y358496D01*
Y355997D01*
X390472D01*
X405467Y360995D02*
Y350998D01*
Y355997D01*
X407966Y358496D01*
X410465Y360995D01*
X412964D01*
X420462Y350998D02*
X425460D01*
X422961D01*
Y360995D01*
X420462D01*
X432958Y350998D02*
Y360995D01*
X440456D01*
X442955Y358496D01*
Y350998D01*
X452952Y346000D02*
X455451D01*
X457950Y348499D01*
Y360995D01*
X450452D01*
X447953Y358496D01*
Y353498D01*
X450452Y350998D01*
X457950D01*
X477943D02*
Y365993D01*
X485441D01*
X487940Y363494D01*
Y358496D01*
X485441Y355997D01*
X477943D01*
X492938Y360995D02*
Y353498D01*
X495438Y350998D01*
X502935D01*
Y360995D01*
X507934Y350998D02*
Y360995D01*
X515431D01*
X517930Y358496D01*
Y350998D01*
X530426D02*
X525428D01*
X522929Y353498D01*
Y358496D01*
X525428Y360995D01*
X530426D01*
X532926Y358496D01*
Y355997D01*
X522929D01*
X331000Y450000D02*
Y459997D01*
X335998Y464995D01*
X340997Y459997D01*
Y450000D01*
Y457498D01*
X331000D01*
X345995Y464995D02*
Y450000D01*
X353493D01*
X355992Y452499D01*
Y454998D01*
Y457498D01*
X353493Y459997D01*
X345995D01*
X360990Y464995D02*
Y450000D01*
Y457498D01*
X363489Y459997D01*
X368488D01*
X370987Y457498D01*
Y450000D01*
X375985D02*
X380984D01*
X378485D01*
Y459997D01*
X375985D01*
X388481Y450000D02*
X395979D01*
X398478Y452499D01*
X395979Y454998D01*
X390981D01*
X388481Y457498D01*
X390981Y459997D01*
X398478D01*
X403476Y464995D02*
Y450000D01*
Y457498D01*
X405976Y459997D01*
X410974D01*
X413473Y457498D01*
Y450000D01*
X425969D02*
X420971D01*
X418472Y452499D01*
Y457498D01*
X420971Y459997D01*
X425969D01*
X428468Y457498D01*
Y454998D01*
X418472D01*
X433467Y450000D02*
Y464995D01*
Y454998D02*
X440964Y459997D01*
X433467Y454998D02*
X440964Y450000D01*
X473454Y462496D02*
X470955Y464995D01*
X465956D01*
X463457Y462496D01*
Y459997D01*
X465956Y457498D01*
X470955D01*
X473454Y454998D01*
Y452499D01*
X470955Y450000D01*
X465956D01*
X463457Y452499D01*
X480951Y459997D02*
X485950D01*
X488449Y457498D01*
Y450000D01*
X480951D01*
X478452Y452499D01*
X480951Y454998D01*
X488449D01*
X493447Y450000D02*
X498446D01*
X495947D01*
Y464995D01*
X493447D01*
X505943Y459997D02*
Y452499D01*
X508442Y450000D01*
X515940D01*
Y459997D01*
X520938Y450000D02*
Y459997D01*
X528436D01*
X530935Y457498D01*
Y450000D01*
X535934D02*
Y464995D01*
Y454998D02*
X543431Y459997D01*
X535934Y454998D02*
X543431Y450000D01*
X558426D02*
X553428D01*
X550929Y452499D01*
Y457498D01*
X553428Y459997D01*
X558426D01*
X560925Y457498D01*
Y454998D01*
X550929D01*
D12*
X431800Y495300D02*
Y520700D01*
X172720Y495300D02*
X431800D01*
X172720D02*
Y520700D01*
X431800D01*
X264160Y12700D02*
Y38100D01*
X472440D01*
Y12700D02*
Y38100D01*
X264160Y12700D02*
X472440D01*
X650240Y495300D02*
Y520700D01*
X441960Y495300D02*
X650240D01*
X441960D02*
Y520700D01*
X650240D01*
X492760Y12700D02*
X650240D01*
Y38100D01*
X492760D02*
X650240D01*
X492760Y12700D02*
Y38100D01*
X133300Y458700D02*
X158700D01*
Y357100D02*
Y458700D01*
X133300Y357100D02*
X158700D01*
X133300D02*
Y458700D01*
X649300Y484240D02*
X674700D01*
Y402960D02*
Y484240D01*
X649300Y402960D02*
Y484240D01*
Y402960D02*
X674700D01*
X100960Y75300D02*
Y100700D01*
X182240D01*
X100960Y75300D02*
X182240D01*
Y100700D01*
X173000Y447000D02*
X193000D01*
X173000Y415000D02*
X193000D01*
Y427000D02*
Y435000D01*
X44000Y253000D02*
Y273000D01*
X76000Y253000D02*
Y273000D01*
X56000D02*
X64000D01*
X678000Y146500D02*
Y166500D01*
X646000Y146500D02*
Y166500D01*
X658000Y146500D02*
X666000D01*
X209000Y162000D02*
X229000D01*
X209000Y130000D02*
X229000D01*
Y142000D02*
Y150000D01*
X188000Y264000D02*
X190000Y266000D01*
X211000Y74000D02*
X231000D01*
X211000Y14000D02*
X231000D01*
X251000Y22000D02*
Y64000D01*
X191000Y22000D02*
Y66000D01*
X661952Y273718D02*
Y293718D01*
X601952Y273718D02*
Y293718D01*
X609952Y253718D02*
X651952D01*
X609952Y313718D02*
X653952D01*
X410100Y529460D02*
Y526128D01*
Y527794D01*
X420097D01*
X418431Y529460D01*
X285860Y3940D02*
Y7272D01*
Y5606D01*
X275863D01*
X277529Y3940D01*
X628540Y529460D02*
Y526128D01*
Y527794D01*
X638537D01*
X636871Y529460D01*
X514460Y3940D02*
Y7272D01*
Y5606D01*
X504463D01*
X506129Y3940D01*
X124540Y439540D02*
X127872D01*
X126206D01*
Y449537D01*
X124540Y447871D01*
X679540Y463540D02*
X682872D01*
X681206D01*
Y473537D01*
X679540Y471871D01*
X122660Y66540D02*
Y69872D01*
Y68206D01*
X112663D01*
X114329Y66540D01*
D13*
X124000Y126000D02*
X127000D01*
X189000D02*
X192000D01*
Y164000D01*
X178000D02*
X192000D01*
X124000D02*
X138000D01*
X124000Y126000D02*
Y164000D01*
X90500Y93500D02*
X100500Y103500D01*
X85500Y93500D02*
X90500D01*
X45500Y103500D02*
X55500Y93500D01*
X60500D01*
X45500Y148500D02*
X60500D01*
X45500Y103500D02*
Y148500D01*
X85500Y148500D02*
X100500D01*
Y103500D02*
Y148500D01*
X89500Y13500D02*
X99500Y23500D01*
X84500Y13500D02*
X89500D01*
X44500Y23500D02*
X54500Y13500D01*
X59500D01*
X44500Y68500D02*
X59500D01*
X44500Y23500D02*
Y68500D01*
X84500Y68500D02*
X99500D01*
Y23500D02*
Y68500D01*
X598240Y389620D02*
X600780D01*
Y374380D02*
Y389620D01*
X598240Y374380D02*
X600780D01*
X263240Y427620D02*
X265780D01*
Y412380D02*
Y427620D01*
X263240Y412380D02*
X265780D01*
X262740Y403370D02*
X265280D01*
Y388130D02*
Y403370D01*
X262740Y388130D02*
X265280D01*
X262740Y387870D02*
X265280D01*
Y372630D02*
Y387870D01*
X262740Y372630D02*
X265280D01*
X7370Y162000D02*
Y240000D01*
X370Y162000D02*
Y240000D01*
X33370D02*
X37370D01*
X33370Y162000D02*
X37370D01*
X52370Y219000D02*
Y222000D01*
Y180000D02*
Y183000D01*
X-5630Y240000D02*
X10370D01*
X-5630Y162000D02*
Y240000D01*
Y162000D02*
X10370D01*
X-14630Y146000D02*
Y256000D01*
X-26630Y146000D02*
X-14630D01*
X-26630Y256000D02*
X-14630D01*
Y236000D02*
X-9630D01*
X-14630Y166000D02*
X-9630D01*
X-26630Y201000D02*
X-14630D01*
X-19630Y206000D02*
X-14630Y201000D01*
X-19630Y206000D02*
X-14630Y201000D01*
Y200000D02*
Y201000D01*
X-19630Y196000D02*
X-14630Y201000D01*
D14*
X269500Y422497D02*
Y415833D01*
X270833Y414500D01*
X273499D01*
X274832Y415833D01*
Y422497D01*
X319500Y98500D02*
Y100833D01*
Y99666D01*
X312502D01*
X313668Y98500D01*
X312502Y108997D02*
X313668Y106664D01*
X316001Y104331D01*
X318334D01*
X319500Y105498D01*
Y107830D01*
X318334Y108997D01*
X317167D01*
X316001Y107830D01*
Y104331D01*
X33335Y366499D02*
X31002D01*
X32169D01*
Y360667D01*
X31002Y359501D01*
X29836D01*
X28670Y360667D01*
X35667Y359501D02*
Y366499D01*
X39166D01*
X40333Y365333D01*
Y363000D01*
X39166Y361834D01*
X35667D01*
X47330Y359501D02*
X42665D01*
X47330Y364166D01*
Y365333D01*
X46164Y366499D01*
X43832D01*
X42665Y365333D01*
D15*
X180252Y40750D02*
X185250D01*
X186250Y41750D01*
Y43749D01*
X185250Y44749D01*
X180252D01*
X181252Y50747D02*
X180252Y49747D01*
Y47748D01*
X181252Y46748D01*
X182251D01*
X183251Y47748D01*
Y49747D01*
X184251Y50747D01*
X185250D01*
X186250Y49747D01*
Y47748D01*
X185250Y46748D01*
X180252Y56745D02*
Y52746D01*
X186250D01*
Y56745D01*
X183251Y52746D02*
Y54745D01*
X186250Y58744D02*
X180252D01*
Y61743D01*
X181252Y62743D01*
X183251D01*
X184251Y61743D01*
Y58744D01*
Y60743D02*
X186250Y62743D01*
D16*
X138001Y70999D02*
X136002D01*
X137002D01*
Y66001D01*
X136002Y65001D01*
X135002D01*
X134003Y66001D01*
X140001Y65001D02*
Y70999D01*
X143000D01*
X143999Y69999D01*
Y68000D01*
X143000Y67000D01*
X140001D01*
X148998Y65001D02*
Y70999D01*
X145999Y68000D01*
X149997D01*
M02*
