G04*
G04 #@! TF.GenerationSoftware,Altium Limited,Altium Designer,20.0.13 (296)*
G04*
G04 Layer_Color=16777215*
%FSLAX44Y44*%
%MOMM*%
G71*
G01*
G75*
%ADD12C,0.2540*%
D12*
X-5000Y-550000D02*
X920000D01*
Y-549250D02*
Y-449250D01*
X-5000Y-549250D02*
Y-449250D01*
Y-450000D02*
X920000D01*
X12446Y-804938D02*
X14985Y-802399D01*
X20064D01*
X22603Y-804938D01*
Y-807477D01*
X20064Y-810016D01*
X17524D01*
X20064D01*
X22603Y-812555D01*
Y-815095D01*
X20064Y-817634D01*
X14985D01*
X12446Y-815095D01*
X27681Y-817634D02*
Y-815095D01*
X30220D01*
Y-817634D01*
X27681D01*
X65769Y-804938D02*
X63230Y-802399D01*
X58151D01*
X55612Y-804938D01*
Y-807477D01*
X58151Y-810016D01*
X63230D01*
X65769Y-812555D01*
Y-815095D01*
X63230Y-817634D01*
X58151D01*
X55612Y-815095D01*
X78465Y-802399D02*
X73386D01*
X70847Y-804938D01*
Y-815095D01*
X73386Y-817634D01*
X78465D01*
X81004Y-815095D01*
Y-804938D01*
X78465Y-802399D01*
X86082D02*
Y-817634D01*
X96239D01*
X101317Y-802399D02*
Y-817634D01*
X108935D01*
X111474Y-815095D01*
Y-804938D01*
X108935Y-802399D01*
X101317D01*
X126709D02*
X116552D01*
Y-817634D01*
X126709D01*
X116552Y-810016D02*
X121631D01*
X131787Y-817634D02*
Y-802399D01*
X139405D01*
X141944Y-804938D01*
Y-810016D01*
X139405Y-812555D01*
X131787D01*
X136866D02*
X141944Y-817634D01*
X162257D02*
Y-802399D01*
X169875D01*
X172414Y-804938D01*
Y-810016D01*
X169875Y-812555D01*
X162257D01*
X167336D02*
X172414Y-817634D01*
X187649Y-802399D02*
X177493D01*
Y-817634D01*
X187649D01*
X177493Y-810016D02*
X182571D01*
X202884Y-804938D02*
X200345Y-802399D01*
X195267D01*
X192728Y-804938D01*
Y-807477D01*
X195267Y-810016D01*
X200345D01*
X202884Y-812555D01*
Y-815095D01*
X200345Y-817634D01*
X195267D01*
X192728Y-815095D01*
X207963Y-802399D02*
X213041D01*
X210502D01*
Y-817634D01*
X207963D01*
X213041D01*
X230815Y-804938D02*
X228276Y-802399D01*
X223198D01*
X220659Y-804938D01*
Y-807477D01*
X223198Y-810016D01*
X228276D01*
X230815Y-812555D01*
Y-815095D01*
X228276Y-817634D01*
X223198D01*
X220659Y-815095D01*
X235894Y-802399D02*
X246050D01*
X240972D01*
Y-817634D01*
X251129Y-807477D02*
X253668D01*
Y-810016D01*
X251129D01*
Y-807477D01*
Y-815095D02*
X253668D01*
Y-817634D01*
X251129D01*
Y-815095D01*
X279060Y-817634D02*
Y-807477D01*
X284138Y-802399D01*
X289216Y-807477D01*
Y-817634D01*
Y-810016D01*
X279060D01*
X294295Y-817634D02*
Y-802399D01*
X301912D01*
X304452Y-804938D01*
Y-810016D01*
X301912Y-812555D01*
X294295D01*
X309530Y-817634D02*
Y-802399D01*
X317147D01*
X319687Y-804938D01*
Y-810016D01*
X317147Y-812555D01*
X309530D01*
X324765Y-802399D02*
Y-817634D01*
X334922D01*
X340000Y-802399D02*
Y-804938D01*
X345078Y-810016D01*
X350157Y-804938D01*
Y-802399D01*
X345078Y-810016D02*
Y-817634D01*
X370470Y-802399D02*
X380627D01*
X375549D01*
Y-817634D01*
X393323Y-802399D02*
X388244D01*
X385705Y-804938D01*
Y-815095D01*
X388244Y-817634D01*
X393323D01*
X395862Y-815095D01*
Y-804938D01*
X393323Y-802399D01*
X416175D02*
X426332D01*
X421254D01*
Y-817634D01*
X433950D02*
X439028D01*
X441567Y-815095D01*
Y-810016D01*
X439028Y-807477D01*
X433950D01*
X431410Y-810016D01*
Y-815095D01*
X433950Y-817634D01*
X446646Y-822712D02*
Y-807477D01*
X454263D01*
X456802Y-810016D01*
Y-815095D01*
X454263Y-817634D01*
X446646D01*
X477116Y-810016D02*
X487272D01*
X517743Y-804938D02*
X515203Y-802399D01*
X510125D01*
X507586Y-804938D01*
Y-807477D01*
X510125Y-810016D01*
X515203D01*
X517743Y-812555D01*
Y-815095D01*
X515203Y-817634D01*
X510125D01*
X507586Y-815095D01*
X532978Y-802399D02*
X522821D01*
Y-817634D01*
X532978D01*
X522821Y-810016D02*
X527899D01*
X538056Y-817634D02*
Y-807477D01*
X543134Y-802399D01*
X548213Y-807477D01*
Y-817634D01*
Y-810016D01*
X538056D01*
X578683Y-804938D02*
X576144Y-802399D01*
X571065D01*
X568526Y-804938D01*
Y-815095D01*
X571065Y-817634D01*
X576144D01*
X578683Y-815095D01*
Y-810016D01*
X573605D01*
X583761Y-817634D02*
Y-802399D01*
X591379D01*
X593918Y-804938D01*
Y-810016D01*
X591379Y-812555D01*
X583761D01*
X588839D02*
X593918Y-817634D01*
X609153Y-802399D02*
X598996D01*
Y-817634D01*
X609153D01*
X598996Y-810016D02*
X604075D01*
X624388Y-802399D02*
X614231D01*
Y-817634D01*
X624388D01*
X614231Y-810016D02*
X619310D01*
X629466Y-817634D02*
Y-802399D01*
X639623Y-817634D01*
Y-802399D01*
X214311Y-831855D02*
X224467D01*
X219389D01*
Y-847090D01*
X237163Y-831855D02*
X232085D01*
X229546Y-834394D01*
Y-844551D01*
X232085Y-847090D01*
X237163D01*
X239702Y-844551D01*
Y-834394D01*
X237163Y-831855D01*
X260016D02*
Y-847090D01*
X267633D01*
X270173Y-844551D01*
Y-842012D01*
X267633Y-839473D01*
X260016D01*
X267633D01*
X270173Y-836933D01*
Y-834394D01*
X267633Y-831855D01*
X260016D01*
X275251Y-847090D02*
Y-836933D01*
X280329Y-831855D01*
X285408Y-836933D01*
Y-847090D01*
Y-839473D01*
X275251D01*
X300643Y-834394D02*
X298104Y-831855D01*
X293025D01*
X290486Y-834394D01*
Y-844551D01*
X293025Y-847090D01*
X298104D01*
X300643Y-844551D01*
X305721Y-831855D02*
Y-847090D01*
Y-842012D01*
X315878Y-831855D01*
X308260Y-839473D01*
X315878Y-847090D01*
X336191Y-839473D02*
X346348D01*
X366661Y-831855D02*
Y-847090D01*
X374279D01*
X376818Y-844551D01*
Y-842012D01*
X374279Y-839473D01*
X366661D01*
X374279D01*
X376818Y-836933D01*
Y-834394D01*
X374279Y-831855D01*
X366661D01*
X381897D02*
Y-847090D01*
X392053D01*
X397132D02*
Y-836933D01*
X402210Y-831855D01*
X407288Y-836933D01*
Y-847090D01*
Y-839473D01*
X397132D01*
X422523Y-834394D02*
X419984Y-831855D01*
X414906D01*
X412367Y-834394D01*
Y-844551D01*
X414906Y-847090D01*
X419984D01*
X422523Y-844551D01*
X427602Y-831855D02*
Y-847090D01*
Y-842012D01*
X437758Y-831855D01*
X430141Y-839473D01*
X437758Y-847090D01*
X-454406Y670164D02*
X-444249Y660007D01*
X-454406D02*
X-444249Y670164D01*
X-454406Y665086D02*
X-444249D01*
X-449328Y660007D02*
Y670164D01*
X-439171Y657468D02*
Y660007D01*
X-436632D01*
Y657468D01*
X-439171D01*
X-416318Y670164D02*
X-418857Y672703D01*
X-423936D01*
X-426475Y670164D01*
Y660007D01*
X-423936Y657468D01*
X-418857D01*
X-416318Y660007D01*
Y665086D01*
X-421397D01*
X-411240Y657468D02*
Y672703D01*
X-406162Y667625D01*
X-401083Y672703D01*
Y657468D01*
X-396005Y670164D02*
X-393466Y672703D01*
X-388387D01*
X-385848Y670164D01*
Y667625D01*
X-388387Y665086D01*
X-390927D01*
X-388387D01*
X-385848Y662546D01*
Y660007D01*
X-388387Y657468D01*
X-393466D01*
X-396005Y660007D01*
X-365535Y665086D02*
X-355378D01*
X-335065Y657468D02*
Y672703D01*
X-329986Y667625D01*
X-324908Y672703D01*
Y657468D01*
X-317290Y667625D02*
X-312212D01*
X-309673Y665086D01*
Y657468D01*
X-317290D01*
X-319830Y660007D01*
X-317290Y662546D01*
X-309673D01*
X-304594Y657468D02*
Y667625D01*
X-296977D01*
X-294438Y665086D01*
Y657468D01*
X-289359Y667625D02*
Y660007D01*
X-286820Y657468D01*
X-279203D01*
Y667625D01*
X-271585Y657468D02*
Y670164D01*
Y665086D01*
X-274124D01*
X-269046D01*
X-271585D01*
Y670164D01*
X-269046Y672703D01*
X-258889Y667625D02*
X-253811D01*
X-251272Y665086D01*
Y657468D01*
X-258889D01*
X-261428Y660007D01*
X-258889Y662546D01*
X-251272D01*
X-236037Y667625D02*
X-243654D01*
X-246193Y665086D01*
Y660007D01*
X-243654Y657468D01*
X-236037D01*
X-228419Y670164D02*
Y667625D01*
X-230958D01*
X-225880D01*
X-228419D01*
Y660007D01*
X-225880Y657468D01*
X-218262Y667625D02*
Y660007D01*
X-215723Y657468D01*
X-208106D01*
Y667625D01*
X-203027D02*
Y657468D01*
Y662546D01*
X-200488Y665086D01*
X-197949Y667625D01*
X-195410D01*
X-187792Y657468D02*
X-182714D01*
X-185253D01*
Y667625D01*
X-187792D01*
X-175096Y657468D02*
Y667625D01*
X-167479D01*
X-164940Y665086D01*
Y657468D01*
X-154783Y652390D02*
X-152244D01*
X-149705Y654929D01*
Y667625D01*
X-157322D01*
X-159861Y665086D01*
Y660007D01*
X-157322Y657468D01*
X-149705D01*
X-129391D02*
Y672703D01*
X-119234Y657468D01*
Y672703D01*
X-111617Y657468D02*
X-106538D01*
X-103999Y660007D01*
Y665086D01*
X-106538Y667625D01*
X-111617D01*
X-114156Y665086D01*
Y660007D01*
X-111617Y657468D01*
X-96382Y670164D02*
Y667625D01*
X-98921D01*
X-93843D01*
X-96382D01*
Y660007D01*
X-93843Y657468D01*
X-78608D02*
X-83686D01*
X-86225Y660007D01*
Y665086D01*
X-83686Y667625D01*
X-78608D01*
X-76068Y665086D01*
Y662546D01*
X-86225D01*
X-70990Y657468D02*
X-63373D01*
X-60833Y660007D01*
X-63373Y662546D01*
X-68451D01*
X-70990Y665086D01*
X-68451Y667625D01*
X-60833D01*
X197539Y-489843D02*
X202618D01*
X205157Y-492383D01*
Y-500000D01*
X197539D01*
X195000Y-497461D01*
X197539Y-494922D01*
X205157D01*
X210235Y-484765D02*
Y-500000D01*
X217853D01*
X220392Y-497461D01*
Y-494922D01*
Y-492383D01*
X217853Y-489843D01*
X210235D01*
X225470Y-484765D02*
Y-500000D01*
Y-492383D01*
X228009Y-489843D01*
X233088D01*
X235627Y-492383D01*
Y-500000D01*
X240705D02*
X245784D01*
X243244D01*
Y-489843D01*
X240705D01*
X253401Y-500000D02*
X261019D01*
X263558Y-497461D01*
X261019Y-494922D01*
X255940D01*
X253401Y-492383D01*
X255940Y-489843D01*
X263558D01*
X268636Y-484765D02*
Y-500000D01*
Y-492383D01*
X271175Y-489843D01*
X276254D01*
X278793Y-492383D01*
Y-500000D01*
X291489D02*
X286411D01*
X283871Y-497461D01*
Y-492383D01*
X286411Y-489843D01*
X291489D01*
X294028Y-492383D01*
Y-494922D01*
X283871D01*
X299106Y-500000D02*
Y-484765D01*
Y-494922D02*
X306724Y-489843D01*
X299106Y-494922D02*
X306724Y-500000D01*
X314341D02*
X321959D01*
X324498Y-497461D01*
X321959Y-494922D01*
X316881D01*
X314341Y-492383D01*
X316881Y-489843D01*
X324498D01*
X332116D02*
X337194D01*
X339733Y-492383D01*
Y-500000D01*
X332116D01*
X329576Y-497461D01*
X332116Y-494922D01*
X339733D01*
X344812Y-500000D02*
X349890D01*
X347351D01*
Y-484765D01*
X344812D01*
X357507Y-489843D02*
Y-497461D01*
X360047Y-500000D01*
X367664D01*
Y-489843D01*
X372743Y-500000D02*
Y-489843D01*
X380360D01*
X382899Y-492383D01*
Y-500000D01*
X387978D02*
Y-484765D01*
Y-494922D02*
X395595Y-489843D01*
X387978Y-494922D02*
X395595Y-500000D01*
X410830D02*
X405752D01*
X403213Y-497461D01*
Y-492383D01*
X405752Y-489843D01*
X410830D01*
X413369Y-492383D01*
Y-494922D01*
X403213D01*
X418448Y-500000D02*
X423526D01*
X420987D01*
Y-484765D01*
X418448Y-487304D01*
X431144Y-500000D02*
X436222D01*
X433683D01*
Y-484765D01*
X431144Y-487304D01*
X443839Y-500000D02*
X448918D01*
X446379D01*
Y-484765D01*
X443839Y-487304D01*
X464153Y-494922D02*
Y-492383D01*
X461614D01*
Y-494922D01*
X464153D01*
X466692Y-492383D01*
Y-487304D01*
X464153Y-484765D01*
X459075D01*
X456535Y-487304D01*
Y-497461D01*
X459075Y-500000D01*
X466692D01*
X476849Y-505078D02*
X479388D01*
X481927Y-502539D01*
Y-489843D01*
X474310D01*
X471771Y-492383D01*
Y-497461D01*
X474310Y-500000D01*
X481927D01*
X487006D02*
Y-489843D01*
X489545D01*
X492084Y-492383D01*
Y-500000D01*
Y-492383D01*
X494623Y-489843D01*
X497162Y-492383D01*
Y-500000D01*
X504780Y-489843D02*
X509858D01*
X512397Y-492383D01*
Y-500000D01*
X504780D01*
X502241Y-497461D01*
X504780Y-494922D01*
X512397D01*
X517476Y-500000D02*
X522554D01*
X520015D01*
Y-489843D01*
X517476D01*
X530172Y-500000D02*
X535250D01*
X532711D01*
Y-484765D01*
X530172D01*
X542867Y-500000D02*
Y-497461D01*
X545407D01*
Y-500000D01*
X542867D01*
X565720Y-489843D02*
X558102D01*
X555563Y-492383D01*
Y-497461D01*
X558102Y-500000D01*
X565720D01*
X573338D02*
X578416D01*
X580955Y-497461D01*
Y-492383D01*
X578416Y-489843D01*
X573338D01*
X570798Y-492383D01*
Y-497461D01*
X573338Y-500000D01*
X586034D02*
Y-489843D01*
X588573D01*
X591112Y-492383D01*
Y-500000D01*
Y-492383D01*
X593651Y-489843D01*
X596190Y-492383D01*
Y-500000D01*
X55157Y-487304D02*
X52618Y-484765D01*
X47539D01*
X45000Y-487304D01*
Y-497461D01*
X47539Y-500000D01*
X52618D01*
X55157Y-497461D01*
X62774Y-500000D02*
X67853D01*
X70392Y-497461D01*
Y-492383D01*
X67853Y-489843D01*
X62774D01*
X60235Y-492383D01*
Y-497461D01*
X62774Y-500000D01*
X75470D02*
Y-489843D01*
X83088D01*
X85627Y-492383D01*
Y-500000D01*
X93244Y-487304D02*
Y-489843D01*
X90705D01*
X95784D01*
X93244D01*
Y-497461D01*
X95784Y-500000D01*
X105940Y-489843D02*
X111019D01*
X113558Y-492383D01*
Y-500000D01*
X105940D01*
X103401Y-497461D01*
X105940Y-494922D01*
X113558D01*
X128793Y-489843D02*
X121175D01*
X118636Y-492383D01*
Y-497461D01*
X121175Y-500000D01*
X128793D01*
X136410Y-487304D02*
Y-489843D01*
X133871D01*
X138950D01*
X136410D01*
Y-497461D01*
X138950Y-500000D01*
X146567Y-489843D02*
X149106D01*
Y-492383D01*
X146567D01*
Y-489843D01*
Y-497461D02*
X149106D01*
Y-500000D01*
X146567D01*
Y-497461D01*
X-454406Y645164D02*
X-444249Y635007D01*
X-454406D02*
X-444249Y645164D01*
X-454406Y640086D02*
X-444249D01*
X-449328Y635007D02*
Y645164D01*
X-439171Y632468D02*
Y635007D01*
X-436632D01*
Y632468D01*
X-439171D01*
X-416318Y645164D02*
X-418857Y647703D01*
X-423936D01*
X-426475Y645164D01*
Y635007D01*
X-423936Y632468D01*
X-418857D01*
X-416318Y635007D01*
Y640086D01*
X-421397D01*
X-411240Y632468D02*
Y647703D01*
X-406162Y642625D01*
X-401083Y647703D01*
Y632468D01*
X-388387D02*
Y647703D01*
X-396005Y640086D01*
X-385848D01*
X-365535D02*
X-355378D01*
X-335065Y647703D02*
Y632468D01*
X-324908D01*
X-319830D02*
X-314751D01*
X-317290D01*
Y642625D01*
X-319830D01*
X-296977D02*
X-304594D01*
X-307134Y640086D01*
Y635007D01*
X-304594Y632468D01*
X-296977D01*
X-284281D02*
X-289359D01*
X-291899Y635007D01*
Y640086D01*
X-289359Y642625D01*
X-284281D01*
X-281742Y640086D01*
Y637546D01*
X-291899D01*
X-276663Y632468D02*
Y642625D01*
X-269046D01*
X-266507Y640086D01*
Y632468D01*
X-251272Y642625D02*
X-258889D01*
X-261428Y640086D01*
Y635007D01*
X-258889Y632468D01*
X-251272D01*
X-238576D02*
X-243654D01*
X-246193Y635007D01*
Y640086D01*
X-243654Y642625D01*
X-238576D01*
X-236037Y640086D01*
Y637546D01*
X-246193D01*
X-454406Y695164D02*
X-444249Y685007D01*
X-454406D02*
X-444249Y695164D01*
X-454406Y690086D02*
X-444249D01*
X-449328Y685007D02*
Y695164D01*
X-439171Y682468D02*
Y685007D01*
X-436632D01*
Y682468D01*
X-439171D01*
X-416318Y695164D02*
X-418857Y697703D01*
X-423936D01*
X-426475Y695164D01*
Y685007D01*
X-423936Y682468D01*
X-418857D01*
X-416318Y685007D01*
Y690086D01*
X-421397D01*
X-411240Y682468D02*
Y697703D01*
X-406162Y692625D01*
X-401083Y697703D01*
Y682468D01*
X-385848D02*
X-396005D01*
X-385848Y692625D01*
Y695164D01*
X-388387Y697703D01*
X-393466D01*
X-396005Y695164D01*
X-365535Y690086D02*
X-355378D01*
X-335065Y682468D02*
Y697703D01*
X-329986Y692625D01*
X-324908Y697703D01*
Y682468D01*
X-312212D02*
X-317290D01*
X-319830Y685007D01*
Y690086D01*
X-317290Y692625D01*
X-312212D01*
X-309673Y690086D01*
Y687546D01*
X-319830D01*
X-294438Y692625D02*
X-302055D01*
X-304594Y690086D01*
Y685007D01*
X-302055Y682468D01*
X-294438D01*
X-289359Y697703D02*
Y682468D01*
Y690086D01*
X-286820Y692625D01*
X-281742D01*
X-279203Y690086D01*
Y682468D01*
X-271585Y692625D02*
X-266507D01*
X-263968Y690086D01*
Y682468D01*
X-271585D01*
X-274124Y685007D01*
X-271585Y687546D01*
X-263968D01*
X-258889Y682468D02*
Y692625D01*
X-251272D01*
X-248732Y690086D01*
Y682468D01*
X-243654D02*
X-238576D01*
X-241115D01*
Y692625D01*
X-243654D01*
X-220802D02*
X-228419D01*
X-230958Y690086D01*
Y685007D01*
X-228419Y682468D01*
X-220802D01*
X-213184Y692625D02*
X-208106D01*
X-205567Y690086D01*
Y682468D01*
X-213184D01*
X-215723Y685007D01*
X-213184Y687546D01*
X-205567D01*
X-200488Y682468D02*
X-195410D01*
X-197949D01*
Y697703D01*
X-200488D01*
X-172557D02*
Y682468D01*
X-164940D01*
X-162400Y685007D01*
Y695164D01*
X-164940Y697703D01*
X-172557D01*
X-157322Y692625D02*
Y682468D01*
Y687546D01*
X-154783Y690086D01*
X-152244Y692625D01*
X-149705D01*
X-139548D02*
X-134469D01*
X-131930Y690086D01*
Y682468D01*
X-139548D01*
X-142087Y685007D01*
X-139548Y687546D01*
X-131930D01*
X-126852Y692625D02*
Y685007D01*
X-124313Y682468D01*
X-121774Y685007D01*
X-119234Y682468D01*
X-116695Y685007D01*
Y692625D01*
X-111617Y682468D02*
X-106538D01*
X-109078D01*
Y692625D01*
X-111617D01*
X-98921Y682468D02*
Y692625D01*
X-91304D01*
X-88764Y690086D01*
Y682468D01*
X-78608Y677390D02*
X-76068D01*
X-73529Y679929D01*
Y692625D01*
X-81147D01*
X-83686Y690086D01*
Y685007D01*
X-81147Y682468D01*
X-73529D01*
X-454406Y720164D02*
X-444249Y710007D01*
X-454406D02*
X-444249Y720164D01*
X-454406Y715086D02*
X-444249D01*
X-449328Y710007D02*
Y720164D01*
X-439171Y707468D02*
Y710007D01*
X-436632D01*
Y707468D01*
X-439171D01*
X-416318Y720164D02*
X-418857Y722703D01*
X-423936D01*
X-426475Y720164D01*
Y710007D01*
X-423936Y707468D01*
X-418857D01*
X-416318Y710007D01*
Y715086D01*
X-421397D01*
X-411240Y722703D02*
Y707468D01*
X-403622D01*
X-401083Y710007D01*
Y712546D01*
X-403622Y715086D01*
X-411240D01*
X-403622D01*
X-401083Y717625D01*
Y720164D01*
X-403622Y722703D01*
X-411240D01*
X-388387D02*
X-393466D01*
X-396005Y720164D01*
Y710007D01*
X-393466Y707468D01*
X-388387D01*
X-385848Y710007D01*
Y720164D01*
X-388387Y722703D01*
X-365535Y715086D02*
X-355378D01*
X-335065Y722703D02*
Y707468D01*
X-327447D01*
X-324908Y710007D01*
Y712546D01*
X-327447Y715086D01*
X-335065D01*
X-327447D01*
X-324908Y717625D01*
Y720164D01*
X-327447Y722703D01*
X-335065D01*
X-317290Y707468D02*
X-312212D01*
X-309673Y710007D01*
Y715086D01*
X-312212Y717625D01*
X-317290D01*
X-319830Y715086D01*
Y710007D01*
X-317290Y707468D01*
X-302055Y720164D02*
Y717625D01*
X-304594D01*
X-299516D01*
X-302055D01*
Y710007D01*
X-299516Y707468D01*
X-289359Y720164D02*
Y717625D01*
X-291899D01*
X-286820D01*
X-289359D01*
Y710007D01*
X-286820Y707468D01*
X-276663D02*
X-271585D01*
X-269046Y710007D01*
Y715086D01*
X-271585Y717625D01*
X-276663D01*
X-279203Y715086D01*
Y710007D01*
X-276663Y707468D01*
X-263968D02*
Y717625D01*
X-261428D01*
X-258889Y715086D01*
Y707468D01*
Y715086D01*
X-256350Y717625D01*
X-253811Y715086D01*
Y707468D01*
X-225880Y722703D02*
X-230958D01*
X-233498Y720164D01*
Y710007D01*
X-230958Y707468D01*
X-225880D01*
X-223341Y710007D01*
Y720164D01*
X-225880Y722703D01*
X-218262Y717625D02*
X-213184Y707468D01*
X-208106Y717625D01*
X-195410Y707468D02*
X-200488D01*
X-203027Y710007D01*
Y715086D01*
X-200488Y717625D01*
X-195410D01*
X-192871Y715086D01*
Y712546D01*
X-203027D01*
X-187792Y717625D02*
Y707468D01*
Y712546D01*
X-185253Y715086D01*
X-182714Y717625D01*
X-180175D01*
X-172557Y707468D02*
X-167479D01*
X-170018D01*
Y722703D01*
X-172557D01*
X-157322Y717625D02*
X-152244D01*
X-149705Y715086D01*
Y707468D01*
X-157322D01*
X-159861Y710007D01*
X-157322Y712546D01*
X-149705D01*
X-144626Y717625D02*
Y710007D01*
X-142087Y707468D01*
X-134469D01*
Y704929D01*
X-137009Y702390D01*
X-139548D01*
X-134469Y707468D02*
Y717625D01*
X-454406Y745164D02*
X-444249Y735007D01*
X-454406D02*
X-444249Y745164D01*
X-454406Y740086D02*
X-444249D01*
X-449328Y735007D02*
Y745164D01*
X-439171Y732468D02*
Y735007D01*
X-436632D01*
Y732468D01*
X-439171D01*
X-416318Y745164D02*
X-418857Y747703D01*
X-423936D01*
X-426475Y745164D01*
Y735007D01*
X-423936Y732468D01*
X-418857D01*
X-416318Y735007D01*
Y740086D01*
X-421397D01*
X-411240Y747703D02*
Y732468D01*
X-403622D01*
X-401083Y735007D01*
Y737546D01*
X-403622Y740086D01*
X-411240D01*
X-403622D01*
X-401083Y742625D01*
Y745164D01*
X-403622Y747703D01*
X-411240D01*
X-385848Y745164D02*
X-388387Y747703D01*
X-393466D01*
X-396005Y745164D01*
Y742625D01*
X-393466Y740086D01*
X-388387D01*
X-385848Y737546D01*
Y735007D01*
X-388387Y732468D01*
X-393466D01*
X-396005Y735007D01*
X-365535Y740086D02*
X-355378D01*
X-335065Y747703D02*
Y732468D01*
X-327447D01*
X-324908Y735007D01*
Y737546D01*
X-327447Y740086D01*
X-335065D01*
X-327447D01*
X-324908Y742625D01*
Y745164D01*
X-327447Y747703D01*
X-335065D01*
X-317290Y732468D02*
X-312212D01*
X-309673Y735007D01*
Y740086D01*
X-312212Y742625D01*
X-317290D01*
X-319830Y740086D01*
Y735007D01*
X-317290Y732468D01*
X-302055Y745164D02*
Y742625D01*
X-304594D01*
X-299516D01*
X-302055D01*
Y735007D01*
X-299516Y732468D01*
X-289359Y745164D02*
Y742625D01*
X-291899D01*
X-286820D01*
X-289359D01*
Y735007D01*
X-286820Y732468D01*
X-276663D02*
X-271585D01*
X-269046Y735007D01*
Y740086D01*
X-271585Y742625D01*
X-276663D01*
X-279203Y740086D01*
Y735007D01*
X-276663Y732468D01*
X-263968D02*
Y742625D01*
X-261428D01*
X-258889Y740086D01*
Y732468D01*
Y740086D01*
X-256350Y742625D01*
X-253811Y740086D01*
Y732468D01*
X-223341Y745164D02*
X-225880Y747703D01*
X-230958D01*
X-233498Y745164D01*
Y742625D01*
X-230958Y740086D01*
X-225880D01*
X-223341Y737546D01*
Y735007D01*
X-225880Y732468D01*
X-230958D01*
X-233498Y735007D01*
X-215723Y732468D02*
X-210645D01*
X-208106Y735007D01*
Y740086D01*
X-210645Y742625D01*
X-215723D01*
X-218262Y740086D01*
Y735007D01*
X-215723Y732468D01*
X-203027D02*
X-197949D01*
X-200488D01*
Y747703D01*
X-203027D01*
X-180175D02*
Y732468D01*
X-187792D01*
X-190331Y735007D01*
Y740086D01*
X-187792Y742625D01*
X-180175D01*
X-167479Y732468D02*
X-172557D01*
X-175096Y735007D01*
Y740086D01*
X-172557Y742625D01*
X-167479D01*
X-164940Y740086D01*
Y737546D01*
X-175096D01*
X-159861Y742625D02*
Y732468D01*
Y737546D01*
X-157322Y740086D01*
X-154783Y742625D01*
X-152244D01*
X-454406Y770164D02*
X-444249Y760007D01*
X-454406D02*
X-444249Y770164D01*
X-454406Y765086D02*
X-444249D01*
X-449328Y760007D02*
Y770164D01*
X-439171Y757468D02*
Y760007D01*
X-436632D01*
Y757468D01*
X-439171D01*
X-416318Y770164D02*
X-418857Y772703D01*
X-423936D01*
X-426475Y770164D01*
Y760007D01*
X-423936Y757468D01*
X-418857D01*
X-416318Y760007D01*
Y765086D01*
X-421397D01*
X-411240Y772703D02*
Y757468D01*
X-403622D01*
X-401083Y760007D01*
Y762546D01*
X-403622Y765086D01*
X-411240D01*
X-403622D01*
X-401083Y767625D01*
Y770164D01*
X-403622Y772703D01*
X-411240D01*
X-396005D02*
Y757468D01*
X-385848D01*
X-365535Y765086D02*
X-355378D01*
X-335065Y772703D02*
Y757468D01*
X-324908D01*
X-309673D02*
X-319830D01*
X-309673Y767625D01*
Y770164D01*
X-312212Y772703D01*
X-317290D01*
X-319830Y770164D01*
X-284281Y757468D02*
X-289359Y762546D01*
Y767625D01*
X-284281Y772703D01*
X-276663Y757468D02*
Y772703D01*
X-269046D01*
X-266507Y770164D01*
Y765086D01*
X-269046Y762546D01*
X-276663D01*
X-258889Y757468D02*
X-253811D01*
X-251272Y760007D01*
Y765086D01*
X-253811Y767625D01*
X-258889D01*
X-261428Y765086D01*
Y760007D01*
X-258889Y757468D01*
X-246193D02*
X-238576D01*
X-236037Y760007D01*
X-238576Y762546D01*
X-243654D01*
X-246193Y765086D01*
X-243654Y767625D01*
X-236037D01*
X-230958Y757468D02*
X-225880D01*
X-228419D01*
Y767625D01*
X-230958D01*
X-215723Y770164D02*
Y767625D01*
X-218262D01*
X-213184D01*
X-215723D01*
Y760007D01*
X-213184Y757468D01*
X-205567D02*
X-200488D01*
X-203027D01*
Y767625D01*
X-205567D01*
X-192871D02*
X-187792Y757468D01*
X-182714Y767625D01*
X-170018Y757468D02*
X-175096D01*
X-177636Y760007D01*
Y765086D01*
X-175096Y767625D01*
X-170018D01*
X-167479Y765086D01*
Y762546D01*
X-177636D01*
X-162400Y757468D02*
X-157322Y762546D01*
Y767625D01*
X-162400Y772703D01*
X-454406Y795164D02*
X-444249Y785007D01*
X-454406D02*
X-444249Y795164D01*
X-454406Y790086D02*
X-444249D01*
X-449328Y785007D02*
Y795164D01*
X-439171Y782468D02*
Y785007D01*
X-436632D01*
Y782468D01*
X-439171D01*
X-416318Y795164D02*
X-418857Y797703D01*
X-423936D01*
X-426475Y795164D01*
Y785007D01*
X-423936Y782468D01*
X-418857D01*
X-416318Y785007D01*
Y790086D01*
X-421397D01*
X-411240Y797703D02*
X-401083D01*
X-406162D01*
Y782468D01*
X-396005Y797703D02*
Y782468D01*
X-385848D01*
X-365535Y790086D02*
X-355378D01*
X-335065Y797703D02*
Y782468D01*
X-324908D01*
X-319830D02*
X-314751D01*
X-317290D01*
Y797703D01*
X-319830Y795164D01*
X-286820Y782468D02*
X-291899Y787546D01*
Y792625D01*
X-286820Y797703D01*
X-279203Y782468D02*
Y797703D01*
X-271585D01*
X-269046Y795164D01*
Y790086D01*
X-271585Y787546D01*
X-279203D01*
X-261428Y782468D02*
X-256350D01*
X-253811Y785007D01*
Y790086D01*
X-256350Y792625D01*
X-261428D01*
X-263968Y790086D01*
Y785007D01*
X-261428Y782468D01*
X-248732D02*
X-241115D01*
X-238576Y785007D01*
X-241115Y787546D01*
X-246193D01*
X-248732Y790086D01*
X-246193Y792625D01*
X-238576D01*
X-233498Y782468D02*
X-228419D01*
X-230958D01*
Y792625D01*
X-233498D01*
X-218262Y795164D02*
Y792625D01*
X-220802D01*
X-215723D01*
X-218262D01*
Y785007D01*
X-215723Y782468D01*
X-208106D02*
X-203027D01*
X-205567D01*
Y792625D01*
X-208106D01*
X-195410D02*
X-190331Y782468D01*
X-185253Y792625D01*
X-172557Y782468D02*
X-177636D01*
X-180175Y785007D01*
Y790086D01*
X-177636Y792625D01*
X-172557D01*
X-170018Y790086D01*
Y787546D01*
X-180175D01*
X-164940Y782468D02*
X-159861Y787546D01*
Y792625D01*
X-164940Y797703D01*
X-454406Y820164D02*
X-444249Y810007D01*
X-454406D02*
X-444249Y820164D01*
X-454406Y815086D02*
X-444249D01*
X-449328Y810007D02*
Y820164D01*
X-439171Y807468D02*
Y810007D01*
X-436632D01*
Y807468D01*
X-439171D01*
X-416318Y820164D02*
X-418857Y822703D01*
X-423936D01*
X-426475Y820164D01*
Y810007D01*
X-423936Y807468D01*
X-418857D01*
X-416318Y810007D01*
Y815086D01*
X-421397D01*
X-411240Y822703D02*
X-401083D01*
X-406162D01*
Y807468D01*
X-385848Y820164D02*
X-388387Y822703D01*
X-393466D01*
X-396005Y820164D01*
Y817625D01*
X-393466Y815086D01*
X-388387D01*
X-385848Y812546D01*
Y810007D01*
X-388387Y807468D01*
X-393466D01*
X-396005Y810007D01*
X-365535Y815086D02*
X-355378D01*
X-335065Y822703D02*
X-324908D01*
X-329986D01*
Y807468D01*
X-317290D02*
X-312212D01*
X-309673Y810007D01*
Y815086D01*
X-312212Y817625D01*
X-317290D01*
X-319830Y815086D01*
Y810007D01*
X-317290Y807468D01*
X-304594Y802390D02*
Y817625D01*
X-296977D01*
X-294438Y815086D01*
Y810007D01*
X-296977Y807468D01*
X-304594D01*
X-263968Y820164D02*
X-266507Y822703D01*
X-271585D01*
X-274124Y820164D01*
Y817625D01*
X-271585Y815086D01*
X-266507D01*
X-263968Y812546D01*
Y810007D01*
X-266507Y807468D01*
X-271585D01*
X-274124Y810007D01*
X-256350Y807468D02*
X-251272D01*
X-248732Y810007D01*
Y815086D01*
X-251272Y817625D01*
X-256350D01*
X-258889Y815086D01*
Y810007D01*
X-256350Y807468D01*
X-243654D02*
X-238576D01*
X-241115D01*
Y822703D01*
X-243654D01*
X-220802D02*
Y807468D01*
X-228419D01*
X-230958Y810007D01*
Y815086D01*
X-228419Y817625D01*
X-220802D01*
X-208106Y807468D02*
X-213184D01*
X-215723Y810007D01*
Y815086D01*
X-213184Y817625D01*
X-208106D01*
X-205567Y815086D01*
Y812546D01*
X-215723D01*
X-200488Y817625D02*
Y807468D01*
Y812546D01*
X-197949Y815086D01*
X-195410Y817625D01*
X-192871D01*
X-454406Y845164D02*
X-444249Y835007D01*
X-454406D02*
X-444249Y845164D01*
X-454406Y840086D02*
X-444249D01*
X-449328Y835007D02*
Y845164D01*
X-439171Y832468D02*
Y835007D01*
X-436632D01*
Y832468D01*
X-439171D01*
X-416318Y845164D02*
X-418857Y847703D01*
X-423936D01*
X-426475Y845164D01*
Y835007D01*
X-423936Y832468D01*
X-418857D01*
X-416318Y835007D01*
Y840086D01*
X-421397D01*
X-411240Y847703D02*
X-401083D01*
X-406162D01*
Y832468D01*
X-396005D02*
Y847703D01*
X-388387D01*
X-385848Y845164D01*
Y840086D01*
X-388387Y837546D01*
X-396005D01*
X-365535Y840086D02*
X-355378D01*
X-335065Y847703D02*
X-324908D01*
X-329986D01*
Y832468D01*
X-317290D02*
X-312212D01*
X-309673Y835007D01*
Y840086D01*
X-312212Y842625D01*
X-317290D01*
X-319830Y840086D01*
Y835007D01*
X-317290Y832468D01*
X-304594Y827390D02*
Y842625D01*
X-296977D01*
X-294438Y840086D01*
Y835007D01*
X-296977Y832468D01*
X-304594D01*
X-274124D02*
Y847703D01*
X-266507D01*
X-263968Y845164D01*
Y840086D01*
X-266507Y837546D01*
X-274124D01*
X-256350Y842625D02*
X-251272D01*
X-248732Y840086D01*
Y832468D01*
X-256350D01*
X-258889Y835007D01*
X-256350Y837546D01*
X-248732D01*
X-243654Y832468D02*
X-236037D01*
X-233498Y835007D01*
X-236037Y837546D01*
X-241115D01*
X-243654Y840086D01*
X-241115Y842625D01*
X-233498D01*
X-225880Y845164D02*
Y842625D01*
X-228419D01*
X-223341D01*
X-225880D01*
Y835007D01*
X-223341Y832468D01*
X-208106D02*
X-213184D01*
X-215723Y835007D01*
Y840086D01*
X-213184Y842625D01*
X-208106D01*
X-205567Y840086D01*
Y837546D01*
X-215723D01*
X-454406Y870164D02*
X-444249Y860007D01*
X-454406D02*
X-444249Y870164D01*
X-454406Y865086D02*
X-444249D01*
X-449328Y860007D02*
Y870164D01*
X-439171Y857468D02*
Y860007D01*
X-436632D01*
Y857468D01*
X-439171D01*
X-416318Y870164D02*
X-418857Y872703D01*
X-423936D01*
X-426475Y870164D01*
Y860007D01*
X-423936Y857468D01*
X-418857D01*
X-416318Y860007D01*
Y865086D01*
X-421397D01*
X-411240Y872703D02*
X-401083D01*
X-406162D01*
Y857468D01*
X-388387Y872703D02*
X-393466D01*
X-396005Y870164D01*
Y860007D01*
X-393466Y857468D01*
X-388387D01*
X-385848Y860007D01*
Y870164D01*
X-388387Y872703D01*
X-365535Y865086D02*
X-355378D01*
X-335065Y872703D02*
X-324908D01*
X-329986D01*
Y857468D01*
X-317290D02*
X-312212D01*
X-309673Y860007D01*
Y865086D01*
X-312212Y867625D01*
X-317290D01*
X-319830Y865086D01*
Y860007D01*
X-317290Y857468D01*
X-304594Y852390D02*
Y867625D01*
X-296977D01*
X-294438Y865086D01*
Y860007D01*
X-296977Y857468D01*
X-304594D01*
X-266507Y872703D02*
X-271585D01*
X-274124Y870164D01*
Y860007D01*
X-271585Y857468D01*
X-266507D01*
X-263968Y860007D01*
Y870164D01*
X-266507Y872703D01*
X-258889Y867625D02*
X-253811Y857468D01*
X-248732Y867625D01*
X-236037Y857468D02*
X-241115D01*
X-243654Y860007D01*
Y865086D01*
X-241115Y867625D01*
X-236037D01*
X-233498Y865086D01*
Y862546D01*
X-243654D01*
X-228419Y867625D02*
Y857468D01*
Y862546D01*
X-225880Y865086D01*
X-223341Y867625D01*
X-220802D01*
X-213184Y857468D02*
X-208106D01*
X-210645D01*
Y872703D01*
X-213184D01*
X-197949Y867625D02*
X-192871D01*
X-190331Y865086D01*
Y857468D01*
X-197949D01*
X-200488Y860007D01*
X-197949Y862546D01*
X-190331D01*
X-185253Y867625D02*
Y860007D01*
X-182714Y857468D01*
X-175096D01*
Y854929D01*
X-177635Y852390D01*
X-180175D01*
X-175096Y857468D02*
Y867625D01*
X-444249Y897703D02*
X-454406D01*
Y890086D01*
X-449328D01*
X-454406D01*
Y882468D01*
X-439171D02*
X-434093D01*
X-436632D01*
Y892625D01*
X-439171D01*
X-426475Y882468D02*
X-421397D01*
X-423936D01*
Y897703D01*
X-426475D01*
X-406162Y882468D02*
X-411240D01*
X-413779Y885007D01*
Y890086D01*
X-411240Y892625D01*
X-406162D01*
X-403622Y890086D01*
Y887546D01*
X-413779D01*
X-398544Y882468D02*
X-390927D01*
X-388387Y885007D01*
X-390927Y887546D01*
X-396005D01*
X-398544Y890086D01*
X-396005Y892625D01*
X-388387D01*
X-454406Y620164D02*
X-444249Y610007D01*
X-454406D02*
X-444249Y620164D01*
X-454406Y615085D02*
X-444249D01*
X-449328Y610007D02*
Y620164D01*
X-439171Y607468D02*
Y610007D01*
X-436632D01*
Y607468D01*
X-439171D01*
X-416318Y620164D02*
X-418857Y622703D01*
X-423936D01*
X-426475Y620164D01*
Y610007D01*
X-423936Y607468D01*
X-418857D01*
X-416318Y610007D01*
Y615085D01*
X-421397D01*
X-411240Y607468D02*
Y622703D01*
X-406162Y617625D01*
X-401083Y622703D01*
Y607468D01*
X-385848D02*
X-396005D01*
X-385848Y617625D01*
Y620164D01*
X-388387Y622703D01*
X-393466D01*
X-396005Y620164D01*
X-380770D02*
X-378231Y622703D01*
X-373152D01*
X-370613Y620164D01*
Y617625D01*
X-373152Y615085D01*
X-370613Y612546D01*
Y610007D01*
X-373152Y607468D01*
X-378231D01*
X-380770Y610007D01*
Y612546D01*
X-378231Y615085D01*
X-380770Y617625D01*
Y620164D01*
X-378231Y615085D02*
X-373152D01*
X-350300D02*
X-340143D01*
X-319830Y622703D02*
Y607468D01*
X-312212D01*
X-309673Y610007D01*
Y612546D01*
X-312212Y615085D01*
X-319830D01*
X-312212D01*
X-309673Y617625D01*
Y620164D01*
X-312212Y622703D01*
X-319830D01*
X-302055Y607468D02*
X-296977D01*
X-294438Y610007D01*
Y615085D01*
X-296977Y617625D01*
X-302055D01*
X-304594Y615085D01*
Y610007D01*
X-302055Y607468D01*
X-286820Y617625D02*
X-281742D01*
X-279203Y615085D01*
Y607468D01*
X-286820D01*
X-289359Y610007D01*
X-286820Y612546D01*
X-279203D01*
X-274124Y617625D02*
Y607468D01*
Y612546D01*
X-271585Y615085D01*
X-269046Y617625D01*
X-266507D01*
X-248732Y622703D02*
Y607468D01*
X-256350D01*
X-258889Y610007D01*
Y615085D01*
X-256350Y617625D01*
X-248732D01*
X-220802Y622703D02*
X-225880D01*
X-228419Y620164D01*
Y610007D01*
X-225880Y607468D01*
X-220802D01*
X-218262Y610007D01*
Y620164D01*
X-220802Y622703D01*
X-213184Y617625D02*
Y610007D01*
X-210645Y607468D01*
X-203027D01*
Y617625D01*
X-195410Y620164D02*
Y617625D01*
X-197949D01*
X-192871D01*
X-195410D01*
Y610007D01*
X-192871Y607468D01*
X-185253D02*
X-180175D01*
X-182714D01*
Y622703D01*
X-185253D01*
X-172557Y607468D02*
X-167479D01*
X-170018D01*
Y617625D01*
X-172557D01*
X-159861Y607468D02*
Y617625D01*
X-152244D01*
X-149705Y615085D01*
Y607468D01*
X-137009D02*
X-142087D01*
X-144626Y610007D01*
Y615085D01*
X-142087Y617625D01*
X-137009D01*
X-134469Y615085D01*
Y612546D01*
X-144626D01*
X60486Y-1022084D02*
X70643D01*
X90956Y-1029702D02*
Y-1014467D01*
X98574D01*
X101113Y-1017006D01*
Y-1022084D01*
X98574Y-1024624D01*
X90956D01*
X106191Y-1014467D02*
Y-1029702D01*
X116348D01*
X121426D02*
Y-1019545D01*
X126505Y-1014467D01*
X131583Y-1019545D01*
Y-1029702D01*
Y-1022084D01*
X121426D01*
X146818Y-1017006D02*
X144279Y-1014467D01*
X139200D01*
X136661Y-1017006D01*
Y-1027163D01*
X139200Y-1029702D01*
X144279D01*
X146818Y-1027163D01*
X162053Y-1014467D02*
X151896D01*
Y-1029702D01*
X162053D01*
X151896Y-1022084D02*
X156975D01*
X189984Y-1014467D02*
X184906D01*
X182367Y-1017006D01*
Y-1027163D01*
X184906Y-1029702D01*
X189984D01*
X192523Y-1027163D01*
Y-1017006D01*
X189984Y-1014467D01*
X197602Y-1029702D02*
Y-1014467D01*
X207758Y-1029702D01*
Y-1014467D01*
X222993D02*
X212837D01*
Y-1029702D01*
X222993D01*
X212837Y-1022084D02*
X217915D01*
X253464Y-1014467D02*
X243307D01*
Y-1022084D01*
X248385D01*
X243307D01*
Y-1029702D01*
X258542Y-1014467D02*
X263620D01*
X261081D01*
Y-1029702D01*
X258542D01*
X263620D01*
X271238Y-1014467D02*
Y-1029702D01*
X278855D01*
X281395Y-1027163D01*
Y-1017006D01*
X278855Y-1014467D01*
X271238D01*
X286473D02*
Y-1027163D01*
X289012Y-1029702D01*
X294090D01*
X296630Y-1027163D01*
Y-1014467D01*
X311865Y-1017006D02*
X309326Y-1014467D01*
X304247D01*
X301708Y-1017006D01*
Y-1027163D01*
X304247Y-1029702D01*
X309326D01*
X311865Y-1027163D01*
X316943Y-1014467D02*
X322021D01*
X319482D01*
Y-1029702D01*
X316943D01*
X322021D01*
X329639D02*
Y-1019545D01*
X334717Y-1014467D01*
X339796Y-1019545D01*
Y-1029702D01*
Y-1022084D01*
X329639D01*
X344874Y-1014467D02*
Y-1029702D01*
X355031D01*
X375344Y-1014467D02*
X380423D01*
X377883D01*
Y-1029702D01*
X375344D01*
X380423D01*
X388040D02*
Y-1014467D01*
X398197Y-1029702D01*
Y-1014467D01*
X403275D02*
X413432D01*
X408353D01*
Y-1029702D01*
X426128Y-1014467D02*
X421049D01*
X418510Y-1017006D01*
Y-1027163D01*
X421049Y-1029702D01*
X426128D01*
X428667Y-1027163D01*
Y-1017006D01*
X426128Y-1014467D01*
X459137D02*
X448980D01*
Y-1029702D01*
X459137D01*
X448980Y-1022084D02*
X454059D01*
X464215Y-1029702D02*
Y-1019545D01*
X469294Y-1014467D01*
X474372Y-1019545D01*
Y-1029702D01*
Y-1022084D01*
X464215D01*
X489607Y-1017006D02*
X487068Y-1014467D01*
X481990D01*
X479450Y-1017006D01*
Y-1027163D01*
X481990Y-1029702D01*
X487068D01*
X489607Y-1027163D01*
X494686Y-1014467D02*
Y-1029702D01*
Y-1022084D01*
X504842D01*
Y-1014467D01*
Y-1029702D01*
X525156D02*
Y-1014467D01*
X532773D01*
X535312Y-1017006D01*
Y-1022084D01*
X532773Y-1024624D01*
X525156D01*
X540391Y-1029702D02*
Y-1019545D01*
X545469Y-1014467D01*
X550547Y-1019545D01*
Y-1029702D01*
Y-1022084D01*
X540391D01*
X555626Y-1029702D02*
Y-1014467D01*
X565783Y-1029702D01*
Y-1014467D01*
X581018D02*
X570861D01*
Y-1029702D01*
X581018D01*
X570861Y-1022084D02*
X575939D01*
X586096Y-1014467D02*
Y-1029702D01*
X596253D01*
X626723Y-1017006D02*
X624184Y-1014467D01*
X619105D01*
X616566Y-1017006D01*
Y-1027163D01*
X619105Y-1029702D01*
X624184D01*
X626723Y-1027163D01*
X639419Y-1014467D02*
X634340D01*
X631801Y-1017006D01*
Y-1027163D01*
X634340Y-1029702D01*
X639419D01*
X641958Y-1027163D01*
Y-1017006D01*
X639419Y-1014467D01*
X647036Y-1029702D02*
Y-1014467D01*
X654654D01*
X657193Y-1017006D01*
Y-1022084D01*
X654654Y-1024624D01*
X647036D01*
X652115D02*
X657193Y-1029702D01*
X662271D02*
Y-1014467D01*
X672428Y-1029702D01*
Y-1014467D01*
X687663D02*
X677506D01*
Y-1029702D01*
X687663D01*
X677506Y-1022084D02*
X682585D01*
X692741Y-1029702D02*
Y-1014467D01*
X700359D01*
X702898Y-1017006D01*
Y-1022084D01*
X700359Y-1024624D01*
X692741D01*
X697820D02*
X702898Y-1029702D01*
X728290D02*
X723212Y-1024624D01*
Y-1019545D01*
X728290Y-1014467D01*
X746064D02*
X735908D01*
Y-1022084D01*
X740986D01*
X735908D01*
Y-1029702D01*
X758760Y-1014467D02*
X753682D01*
X751143Y-1017006D01*
Y-1027163D01*
X753682Y-1029702D01*
X758760D01*
X761299Y-1027163D01*
Y-1017006D01*
X758760Y-1014467D01*
X766378D02*
Y-1027163D01*
X768917Y-1029702D01*
X773995D01*
X776534Y-1027163D01*
Y-1014467D01*
X781613Y-1029702D02*
Y-1014467D01*
X789230D01*
X791769Y-1017006D01*
Y-1022084D01*
X789230Y-1024624D01*
X781613D01*
X786691D02*
X791769Y-1029702D01*
X819700Y-1014467D02*
X814622D01*
X812083Y-1017006D01*
Y-1027163D01*
X814622Y-1029702D01*
X819700D01*
X822240Y-1027163D01*
Y-1017006D01*
X819700Y-1014467D01*
X827318Y-1029702D02*
Y-1014467D01*
X837475Y-1029702D01*
Y-1014467D01*
X857788D02*
X867945D01*
X862866D01*
Y-1029702D01*
X873023Y-1014467D02*
Y-1029702D01*
Y-1022084D01*
X883180D01*
Y-1014467D01*
Y-1029702D01*
X898415Y-1014467D02*
X888258D01*
Y-1029702D01*
X898415D01*
X888258Y-1022084D02*
X893337D01*
X918728Y-1014467D02*
X928885D01*
X923807D01*
Y-1029702D01*
X941581Y-1014467D02*
X936503D01*
X933963Y-1017006D01*
Y-1027163D01*
X936503Y-1029702D01*
X941581D01*
X944120Y-1027163D01*
Y-1017006D01*
X941581Y-1014467D01*
X949199Y-1029702D02*
Y-1014467D01*
X956816D01*
X959355Y-1017006D01*
Y-1022084D01*
X956816Y-1024624D01*
X949199D01*
X979669Y-1014467D02*
Y-1029702D01*
X989825D01*
X994904D02*
Y-1019545D01*
X999982Y-1014467D01*
X1005060Y-1019545D01*
Y-1029702D01*
Y-1022084D01*
X994904D01*
X1010139Y-1014467D02*
Y-1017006D01*
X1015217Y-1022084D01*
X1020295Y-1017006D01*
Y-1014467D01*
X1015217Y-1022084D02*
Y-1029702D01*
X1035531Y-1014467D02*
X1025374D01*
Y-1029702D01*
X1035531D01*
X1025374Y-1022084D02*
X1030452D01*
X1040609Y-1029702D02*
Y-1014467D01*
X1048226D01*
X1050766Y-1017006D01*
Y-1022084D01*
X1048226Y-1024624D01*
X1040609D01*
X1045687D02*
X1050766Y-1029702D01*
X1055844D02*
X1060922Y-1024624D01*
Y-1019545D01*
X1055844Y-1014467D01*
X60486Y-997084D02*
X70643D01*
X90956Y-992006D02*
X93495Y-989467D01*
X98574D01*
X101113Y-992006D01*
Y-994545D01*
X98574Y-997084D01*
X96034D01*
X98574D01*
X101113Y-999624D01*
Y-1002163D01*
X98574Y-1004702D01*
X93495D01*
X90956Y-1002163D01*
X131583Y-989467D02*
X121426D01*
Y-997084D01*
X126505D01*
X121426D01*
Y-1004702D01*
X136661Y-989467D02*
X141740D01*
X139200D01*
Y-1004702D01*
X136661D01*
X141740D01*
X149357Y-989467D02*
Y-1004702D01*
X156975D01*
X159514Y-1002163D01*
Y-992006D01*
X156975Y-989467D01*
X149357D01*
X164592D02*
Y-1002163D01*
X167132Y-1004702D01*
X172210D01*
X174749Y-1002163D01*
Y-989467D01*
X189984Y-992006D02*
X187445Y-989467D01*
X182367D01*
X179827Y-992006D01*
Y-1002163D01*
X182367Y-1004702D01*
X187445D01*
X189984Y-1002163D01*
X195062Y-989467D02*
X200141D01*
X197602D01*
Y-1004702D01*
X195062D01*
X200141D01*
X207758D02*
Y-994545D01*
X212837Y-989467D01*
X217915Y-994545D01*
Y-1004702D01*
Y-997084D01*
X207758D01*
X222993Y-989467D02*
Y-1004702D01*
X233150D01*
X248385Y-992006D02*
X245846Y-989467D01*
X240768D01*
X238228Y-992006D01*
Y-994545D01*
X240768Y-997084D01*
X245846D01*
X248385Y-999624D01*
Y-1002163D01*
X245846Y-1004702D01*
X240768D01*
X238228Y-1002163D01*
X278855Y-992006D02*
X276316Y-989467D01*
X271238D01*
X268699Y-992006D01*
Y-994545D01*
X271238Y-997084D01*
X276316D01*
X278855Y-999624D01*
Y-1002163D01*
X276316Y-1004702D01*
X271238D01*
X268699Y-1002163D01*
X283934Y-989467D02*
Y-1004702D01*
Y-997084D01*
X294090D01*
Y-989467D01*
Y-1004702D01*
X306786Y-989467D02*
X301708D01*
X299169Y-992006D01*
Y-1002163D01*
X301708Y-1004702D01*
X306786D01*
X309326Y-1002163D01*
Y-992006D01*
X306786Y-989467D01*
X314404D02*
Y-1002163D01*
X316943Y-1004702D01*
X322021D01*
X324561Y-1002163D01*
Y-989467D01*
X329639D02*
Y-1004702D01*
X339796D01*
X344874Y-989467D02*
Y-1004702D01*
X352491D01*
X355031Y-1002163D01*
Y-992006D01*
X352491Y-989467D01*
X344874D01*
X375344D02*
Y-1004702D01*
X385501D01*
X390579Y-989467D02*
X395658D01*
X393118D01*
Y-1004702D01*
X390579D01*
X395658D01*
X413432Y-989467D02*
X403275D01*
Y-1004702D01*
X413432D01*
X403275Y-997084D02*
X408353D01*
X441363Y-989467D02*
X436284D01*
X433745Y-992006D01*
Y-1002163D01*
X436284Y-1004702D01*
X441363D01*
X443902Y-1002163D01*
Y-992006D01*
X441363Y-989467D01*
X448980Y-1004702D02*
Y-989467D01*
X459137Y-1004702D01*
Y-989467D01*
X479450D02*
X489607D01*
X484529D01*
Y-1004702D01*
X494686Y-989467D02*
Y-1004702D01*
X499764Y-999624D01*
X504842Y-1004702D01*
Y-989467D01*
X517538D02*
X512460D01*
X509921Y-992006D01*
Y-1002163D01*
X512460Y-1004702D01*
X517538D01*
X520077Y-1002163D01*
Y-992006D01*
X517538Y-989467D01*
X540391D02*
Y-1004702D01*
X550547D01*
X555626Y-989467D02*
X560704D01*
X558165D01*
Y-1004702D01*
X555626D01*
X560704D01*
X568322D02*
Y-989467D01*
X578478Y-1004702D01*
Y-989467D01*
X593713D02*
X583557D01*
Y-1004702D01*
X593713D01*
X583557Y-997084D02*
X588635D01*
X608949Y-992006D02*
X606409Y-989467D01*
X601331D01*
X598792Y-992006D01*
Y-994545D01*
X601331Y-997084D01*
X606409D01*
X608949Y-999624D01*
Y-1002163D01*
X606409Y-1004702D01*
X601331D01*
X598792Y-1002163D01*
X629262Y-989467D02*
X639419D01*
X634340D01*
Y-1004702D01*
X644497Y-989467D02*
Y-1004702D01*
Y-997084D01*
X654654D01*
Y-989467D01*
Y-1004702D01*
X659732D02*
Y-994545D01*
X664810Y-989467D01*
X669889Y-994545D01*
Y-1004702D01*
Y-997084D01*
X659732D01*
X674967Y-989467D02*
X685124D01*
X680046D01*
Y-1004702D01*
X705437Y-989467D02*
X710516D01*
X707977D01*
Y-1004702D01*
X705437D01*
X710516D01*
X718133D02*
Y-989467D01*
X728290Y-1004702D01*
Y-989467D01*
X733368D02*
X743525D01*
X738447D01*
Y-1004702D01*
X758760Y-989467D02*
X748603D01*
Y-1004702D01*
X758760D01*
X748603Y-997084D02*
X753682D01*
X763839Y-1004702D02*
Y-989467D01*
X771456D01*
X773995Y-992006D01*
Y-997084D01*
X771456Y-999624D01*
X763839D01*
X768917D02*
X773995Y-1004702D01*
X789230Y-992006D02*
X786691Y-989467D01*
X781613D01*
X779073Y-992006D01*
Y-994545D01*
X781613Y-997084D01*
X786691D01*
X789230Y-999624D01*
Y-1002163D01*
X786691Y-1004702D01*
X781613D01*
X779073Y-1002163D01*
X804465Y-989467D02*
X794309D01*
Y-1004702D01*
X804465D01*
X794309Y-997084D02*
X799387D01*
X819700Y-992006D02*
X817161Y-989467D01*
X812083D01*
X809544Y-992006D01*
Y-1002163D01*
X812083Y-1004702D01*
X817161D01*
X819700Y-1002163D01*
X824779Y-989467D02*
X834936D01*
X829857D01*
Y-1004702D01*
X855249D02*
Y-994545D01*
X860327Y-989467D01*
X865406Y-994545D01*
Y-1004702D01*
Y-997084D01*
X855249D01*
X870484Y-989467D02*
X880641D01*
X875562D01*
Y-1004702D01*
X900954D02*
Y-994545D01*
X906032Y-989467D01*
X911111Y-994545D01*
Y-1004702D01*
Y-997084D01*
X900954D01*
X931424Y-1004702D02*
Y-989467D01*
X939042D01*
X941581Y-992006D01*
Y-997084D01*
X939042Y-999624D01*
X931424D01*
X936503D02*
X941581Y-1004702D01*
X946659Y-989467D02*
X951738D01*
X949199D01*
Y-1004702D01*
X946659D01*
X951738D01*
X969512Y-992006D02*
X966973Y-989467D01*
X961894D01*
X959355Y-992006D01*
Y-1002163D01*
X961894Y-1004702D01*
X966973D01*
X969512Y-1002163D01*
Y-997084D01*
X964434D01*
X974590Y-989467D02*
Y-1004702D01*
Y-997084D01*
X984747D01*
Y-989467D01*
Y-1004702D01*
X989825Y-989467D02*
X999982D01*
X994904D01*
Y-1004702D01*
X1020295D02*
Y-994545D01*
X1025374Y-989467D01*
X1030452Y-994545D01*
Y-1004702D01*
Y-997084D01*
X1020295D01*
X1035531Y-1004702D02*
Y-989467D01*
X1045687Y-1004702D01*
Y-989467D01*
X1060922Y-992006D02*
X1058383Y-989467D01*
X1053305D01*
X1050766Y-992006D01*
Y-1002163D01*
X1053305Y-1004702D01*
X1058383D01*
X1060922Y-1002163D01*
Y-997084D01*
X1055844D01*
X1066001Y-989467D02*
Y-1004702D01*
X1076157D01*
X1091393Y-989467D02*
X1081236D01*
Y-1004702D01*
X1091393D01*
X1081236Y-997084D02*
X1086314D01*
X60486Y-972084D02*
X70643D01*
X90956Y-979702D02*
Y-964467D01*
X96034Y-969545D01*
X101113Y-964467D01*
Y-979702D01*
X106191Y-964467D02*
X111270D01*
X108730D01*
Y-979702D01*
X106191D01*
X111270D01*
X118887D02*
Y-964467D01*
X129044Y-979702D01*
Y-964467D01*
X134122D02*
X139200D01*
X136661D01*
Y-979702D01*
X134122D01*
X139200D01*
X146818D02*
Y-964467D01*
X151896Y-969545D01*
X156975Y-964467D01*
Y-979702D01*
X162053Y-964467D02*
Y-977163D01*
X164592Y-979702D01*
X169671D01*
X172210Y-977163D01*
Y-964467D01*
X177288Y-979702D02*
Y-964467D01*
X182367Y-969545D01*
X187445Y-964467D01*
Y-979702D01*
X215376D02*
Y-964467D01*
X207758Y-972084D01*
X217915D01*
X222993Y-979702D02*
Y-964467D01*
X228072Y-969545D01*
X233150Y-964467D01*
Y-979702D01*
X238228D02*
Y-964467D01*
X243307Y-969545D01*
X248385Y-964467D01*
Y-979702D01*
X268699Y-964467D02*
Y-979702D01*
X276316D01*
X278855Y-977163D01*
Y-967006D01*
X276316Y-964467D01*
X268699D01*
X283934D02*
X289012D01*
X286473D01*
Y-979702D01*
X283934D01*
X289012D01*
X306786Y-967006D02*
X304247Y-964467D01*
X299169D01*
X296630Y-967006D01*
Y-969545D01*
X299169Y-972084D01*
X304247D01*
X306786Y-974624D01*
Y-977163D01*
X304247Y-979702D01*
X299169D01*
X296630Y-977163D01*
X311865Y-964467D02*
X322021D01*
X316943D01*
Y-979702D01*
X327100D02*
Y-969545D01*
X332178Y-964467D01*
X337257Y-969545D01*
Y-979702D01*
Y-972084D01*
X327100D01*
X342335Y-979702D02*
Y-964467D01*
X352491Y-979702D01*
Y-964467D01*
X367727Y-967006D02*
X365187Y-964467D01*
X360109D01*
X357570Y-967006D01*
Y-977163D01*
X360109Y-979702D01*
X365187D01*
X367727Y-977163D01*
X382962Y-964467D02*
X372805D01*
Y-979702D01*
X382962D01*
X372805Y-972084D02*
X377883D01*
X413432Y-964467D02*
X403275D01*
Y-972084D01*
X408353D01*
X403275D01*
Y-979702D01*
X418510D02*
Y-964467D01*
X426128D01*
X428667Y-967006D01*
Y-972084D01*
X426128Y-974624D01*
X418510D01*
X423588D02*
X428667Y-979702D01*
X441363Y-964467D02*
X436284D01*
X433745Y-967006D01*
Y-977163D01*
X436284Y-979702D01*
X441363D01*
X443902Y-977163D01*
Y-967006D01*
X441363Y-964467D01*
X448980Y-979702D02*
Y-964467D01*
X454059Y-969545D01*
X459137Y-964467D01*
Y-979702D01*
X479450Y-964467D02*
X489607D01*
X484529D01*
Y-979702D01*
X494686Y-964467D02*
Y-979702D01*
Y-972084D01*
X504842D01*
Y-964467D01*
Y-979702D01*
X520077Y-964467D02*
X509921D01*
Y-979702D01*
X520077D01*
X509921Y-972084D02*
X514999D01*
X540391Y-979702D02*
Y-964467D01*
X548008D01*
X550547Y-967006D01*
Y-972084D01*
X548008Y-974624D01*
X540391D01*
X555626Y-979702D02*
Y-969545D01*
X560704Y-964467D01*
X565783Y-969545D01*
Y-979702D01*
Y-972084D01*
X555626D01*
X570861Y-979702D02*
Y-964467D01*
X581018Y-979702D01*
Y-964467D01*
X596253D02*
X586096D01*
Y-979702D01*
X596253D01*
X586096Y-972084D02*
X591174D01*
X601331Y-964467D02*
Y-979702D01*
X611488D01*
X641958Y-964467D02*
X631801D01*
Y-979702D01*
X641958D01*
X631801Y-972084D02*
X636880D01*
X647036Y-964467D02*
Y-979702D01*
X654654D01*
X657193Y-977163D01*
Y-967006D01*
X654654Y-964467D01*
X647036D01*
X672428Y-967006D02*
X669889Y-964467D01*
X664810D01*
X662271Y-967006D01*
Y-977163D01*
X664810Y-979702D01*
X669889D01*
X672428Y-977163D01*
Y-972084D01*
X667350D01*
X687663Y-964467D02*
X677506D01*
Y-979702D01*
X687663D01*
X677506Y-972084D02*
X682585D01*
X60486Y-947084D02*
X70643D01*
X101113Y-939467D02*
X90956D01*
Y-947084D01*
X96034D01*
X90956D01*
Y-954702D01*
X106191Y-939467D02*
X111270D01*
X108730D01*
Y-954702D01*
X106191D01*
X111270D01*
X118887Y-939467D02*
Y-954702D01*
X126505D01*
X129044Y-952163D01*
Y-942006D01*
X126505Y-939467D01*
X118887D01*
X134122D02*
Y-952163D01*
X136661Y-954702D01*
X141740D01*
X144279Y-952163D01*
Y-939467D01*
X159514Y-942006D02*
X156975Y-939467D01*
X151896D01*
X149357Y-942006D01*
Y-952163D01*
X151896Y-954702D01*
X156975D01*
X159514Y-952163D01*
X164592Y-939467D02*
X169671D01*
X167132D01*
Y-954702D01*
X164592D01*
X169671D01*
X177288D02*
Y-944545D01*
X182367Y-939467D01*
X187445Y-944545D01*
Y-954702D01*
Y-947084D01*
X177288D01*
X192523Y-939467D02*
Y-954702D01*
X202680D01*
X222993Y-939467D02*
Y-954702D01*
X230611D01*
X233150Y-952163D01*
Y-942006D01*
X230611Y-939467D01*
X222993D01*
X238228D02*
X243307D01*
X240768D01*
Y-954702D01*
X238228D01*
X243307D01*
X250924D02*
Y-944545D01*
X256003Y-939467D01*
X261081Y-944545D01*
Y-954702D01*
Y-947084D01*
X250924D01*
X266159Y-954702D02*
Y-939467D01*
X271238Y-944545D01*
X276316Y-939467D01*
Y-954702D01*
X281395Y-939467D02*
X291551D01*
X286473D01*
Y-954702D01*
X306786Y-939467D02*
X296630D01*
Y-954702D01*
X306786D01*
X296630Y-947084D02*
X301708D01*
X311865Y-954702D02*
Y-939467D01*
X319482D01*
X322021Y-942006D01*
Y-947084D01*
X319482Y-949624D01*
X311865D01*
X316943D02*
X322021Y-954702D01*
X342335D02*
X347413D01*
X344874D01*
Y-939467D01*
X342335Y-942006D01*
X355031Y-947084D02*
X365187D01*
X370266Y-954702D02*
X375344D01*
X372805D01*
Y-939467D01*
X370266Y-942006D01*
X382962Y-954702D02*
Y-952163D01*
X385501D01*
Y-954702D01*
X382962D01*
X405814Y-939467D02*
X395658D01*
Y-947084D01*
X400736Y-944545D01*
X403275D01*
X405814Y-947084D01*
Y-952163D01*
X403275Y-954702D01*
X398197D01*
X395658Y-952163D01*
X410893Y-954702D02*
Y-939467D01*
X415971Y-944545D01*
X421049Y-939467D01*
Y-954702D01*
X426128D02*
Y-939467D01*
X431206Y-944545D01*
X436284Y-939467D01*
Y-954702D01*
X443902Y-957241D02*
X446441Y-954702D01*
Y-952163D01*
X443902D01*
Y-954702D01*
X446441D01*
X443902Y-957241D01*
X441363Y-959780D01*
X481990Y-942006D02*
X479450Y-939467D01*
X474372D01*
X471833Y-942006D01*
Y-944545D01*
X474372Y-947084D01*
X479450D01*
X481990Y-949624D01*
Y-952163D01*
X479450Y-954702D01*
X474372D01*
X471833Y-952163D01*
X494686Y-939467D02*
X489607D01*
X487068Y-942006D01*
Y-952163D01*
X489607Y-954702D01*
X494686D01*
X497225Y-952163D01*
Y-942006D01*
X494686Y-939467D01*
X502303D02*
Y-954702D01*
X512460D01*
X517538Y-939467D02*
Y-954702D01*
X525156D01*
X527695Y-952163D01*
Y-942006D01*
X525156Y-939467D01*
X517538D01*
X542930D02*
X532773D01*
Y-954702D01*
X542930D01*
X532773Y-947084D02*
X537851D01*
X548008Y-954702D02*
Y-939467D01*
X555626D01*
X558165Y-942006D01*
Y-947084D01*
X555626Y-949624D01*
X548008D01*
X553087D02*
X558165Y-954702D01*
X578478D02*
Y-939467D01*
X583557Y-944545D01*
X588635Y-939467D01*
Y-954702D01*
X593713D02*
Y-944545D01*
X598792Y-939467D01*
X603870Y-944545D01*
Y-954702D01*
Y-947084D01*
X593713D01*
X619105Y-942006D02*
X616566Y-939467D01*
X611488D01*
X608949Y-942006D01*
Y-944545D01*
X611488Y-947084D01*
X616566D01*
X619105Y-949624D01*
Y-952163D01*
X616566Y-954702D01*
X611488D01*
X608949Y-952163D01*
X624184Y-939467D02*
Y-954702D01*
Y-949624D01*
X634340Y-939467D01*
X626723Y-947084D01*
X634340Y-954702D01*
X662271Y-939467D02*
X657193D01*
X654654Y-942006D01*
Y-952163D01*
X657193Y-954702D01*
X662271D01*
X664810Y-952163D01*
Y-942006D01*
X662271Y-939467D01*
X669889Y-954702D02*
Y-939467D01*
X677506D01*
X680046Y-942006D01*
Y-947084D01*
X677506Y-949624D01*
X669889D01*
X695281Y-939467D02*
X685124D01*
Y-954702D01*
X695281D01*
X685124Y-947084D02*
X690202D01*
X700359Y-954702D02*
Y-939467D01*
X710516Y-954702D01*
Y-939467D01*
X715594D02*
X720672D01*
X718133D01*
Y-954702D01*
X715594D01*
X720672D01*
X728290D02*
Y-939467D01*
X738447Y-954702D01*
Y-939467D01*
X753682Y-942006D02*
X751143Y-939467D01*
X746064D01*
X743525Y-942006D01*
Y-952163D01*
X746064Y-954702D01*
X751143D01*
X753682Y-952163D01*
Y-947084D01*
X748603D01*
X773995Y-954702D02*
Y-944545D01*
X779073Y-939467D01*
X784152Y-944545D01*
Y-954702D01*
Y-947084D01*
X773995D01*
X789230Y-939467D02*
X799387D01*
X794309D01*
Y-954702D01*
X819700Y-939467D02*
Y-954702D01*
X829857D01*
X845092Y-939467D02*
X834935D01*
Y-954702D01*
X845092D01*
X834935Y-947084D02*
X840014D01*
X850171Y-954702D02*
Y-944545D01*
X855249Y-939467D01*
X860327Y-944545D01*
Y-954702D01*
Y-947084D01*
X850171D01*
X875562Y-942006D02*
X873023Y-939467D01*
X867945D01*
X865406Y-942006D01*
Y-944545D01*
X867945Y-947084D01*
X873023D01*
X875562Y-949624D01*
Y-952163D01*
X873023Y-954702D01*
X867945D01*
X865406Y-952163D01*
X880641Y-939467D02*
X890797D01*
X885719D01*
Y-954702D01*
X911111D02*
X916189D01*
X913650D01*
Y-939467D01*
X911111Y-942006D01*
X923807Y-954702D02*
Y-939467D01*
X928885Y-944545D01*
X933963Y-939467D01*
Y-954702D01*
X939042D02*
Y-939467D01*
X944120Y-944545D01*
X949199Y-939467D01*
Y-954702D01*
X979669Y-942006D02*
X977129Y-939467D01*
X972051D01*
X969512Y-942006D01*
Y-952163D01*
X972051Y-954702D01*
X977129D01*
X979669Y-952163D01*
Y-947084D01*
X974590D01*
X984747Y-954702D02*
Y-939467D01*
X992365D01*
X994904Y-942006D01*
Y-947084D01*
X992365Y-949624D01*
X984747D01*
X989825D02*
X994904Y-954702D01*
X1010139Y-939467D02*
X999982D01*
Y-954702D01*
X1010139D01*
X999982Y-947084D02*
X1005060D01*
X1015217Y-954702D02*
Y-944545D01*
X1020295Y-939467D01*
X1025374Y-944545D01*
Y-954702D01*
Y-947084D01*
X1015217D01*
X1030452Y-939467D02*
X1040609D01*
X1035530D01*
Y-954702D01*
X1055844Y-939467D02*
X1045687D01*
Y-954702D01*
X1055844D01*
X1045687Y-947084D02*
X1050766D01*
X1060922Y-954702D02*
Y-939467D01*
X1068540D01*
X1071079Y-942006D01*
Y-947084D01*
X1068540Y-949624D01*
X1060922D01*
X1066001D02*
X1071079Y-954702D01*
X1091393Y-939467D02*
X1101549D01*
X1096471D01*
Y-954702D01*
X1106628Y-939467D02*
Y-954702D01*
Y-947084D01*
X1116784D01*
Y-939467D01*
Y-954702D01*
X1121863D02*
Y-944545D01*
X1126941Y-939467D01*
X1132019Y-944545D01*
Y-954702D01*
Y-947084D01*
X1121863D01*
X1137098Y-954702D02*
Y-939467D01*
X1147254Y-954702D01*
Y-939467D01*
X1177725D02*
X1167568D01*
Y-947084D01*
X1172646D01*
X1167568D01*
Y-954702D01*
X1182803Y-939467D02*
X1187881D01*
X1185342D01*
Y-954702D01*
X1182803D01*
X1187881D01*
X1195499Y-939467D02*
Y-954702D01*
X1203116D01*
X1205656Y-952163D01*
Y-942006D01*
X1203116Y-939467D01*
X1195499D01*
X1210734D02*
Y-952163D01*
X1213273Y-954702D01*
X1218351D01*
X1220891Y-952163D01*
Y-939467D01*
X1236126Y-942006D02*
X1233587Y-939467D01*
X1228508D01*
X1225969Y-942006D01*
Y-952163D01*
X1228508Y-954702D01*
X1233587D01*
X1236126Y-952163D01*
X1241204Y-939467D02*
X1246282D01*
X1243743D01*
Y-954702D01*
X1241204D01*
X1246282D01*
X1253900D02*
Y-944545D01*
X1258978Y-939467D01*
X1264057Y-944545D01*
Y-954702D01*
Y-947084D01*
X1253900D01*
X1269135Y-939467D02*
Y-954702D01*
X1279292D01*
X20643Y-914467D02*
X10486D01*
Y-922084D01*
X15564Y-919545D01*
X18103D01*
X20643Y-922084D01*
Y-927163D01*
X18103Y-929702D01*
X13025D01*
X10486Y-927163D01*
X25721Y-929702D02*
Y-927163D01*
X28260D01*
Y-929702D01*
X25721D01*
X53652D02*
Y-914467D01*
X61270D01*
X63809Y-917006D01*
Y-922084D01*
X61270Y-924624D01*
X53652D01*
X68887Y-929702D02*
Y-919545D01*
X73966Y-914467D01*
X79044Y-919545D01*
Y-929702D01*
Y-922084D01*
X68887D01*
X84122Y-929702D02*
Y-914467D01*
X94279Y-929702D01*
Y-914467D01*
X109514D02*
X99357D01*
Y-929702D01*
X109514D01*
X99357Y-922084D02*
X104436D01*
X114592Y-914467D02*
Y-929702D01*
X124749D01*
X129827Y-914467D02*
X134906D01*
X132367D01*
Y-929702D01*
X129827D01*
X134906D01*
X142523Y-914467D02*
X152680D01*
Y-917006D01*
X142523Y-927163D01*
Y-929702D01*
X152680D01*
X167915Y-914467D02*
X157758D01*
Y-929702D01*
X167915D01*
X157758Y-922084D02*
X162837D01*
X188228Y-914467D02*
X198385D01*
X193307D01*
Y-929702D01*
X203464Y-914467D02*
Y-929702D01*
Y-922084D01*
X213620D01*
Y-914467D01*
Y-929702D01*
X228855Y-914467D02*
X218699D01*
Y-929702D01*
X228855D01*
X218699Y-922084D02*
X223777D01*
X249169Y-914467D02*
Y-929702D01*
X256786D01*
X259326Y-927163D01*
Y-924624D01*
X256786Y-922084D01*
X249169D01*
X256786D01*
X259326Y-919545D01*
Y-917006D01*
X256786Y-914467D01*
X249169D01*
X272021D02*
X266943D01*
X264404Y-917006D01*
Y-927163D01*
X266943Y-929702D01*
X272021D01*
X274561Y-927163D01*
Y-917006D01*
X272021Y-914467D01*
X279639Y-929702D02*
Y-919545D01*
X284717Y-914467D01*
X289796Y-919545D01*
Y-929702D01*
Y-922084D01*
X279639D01*
X294874Y-929702D02*
Y-914467D01*
X302491D01*
X305031Y-917006D01*
Y-922084D01*
X302491Y-924624D01*
X294874D01*
X299952D02*
X305031Y-929702D01*
X310109Y-914467D02*
Y-929702D01*
X317727D01*
X320266Y-927163D01*
Y-917006D01*
X317727Y-914467D01*
X310109D01*
X345658Y-929702D02*
X340579Y-924624D01*
Y-919545D01*
X345658Y-914467D01*
X360893Y-929702D02*
Y-914467D01*
X353275Y-922084D01*
X363432D01*
X368510Y-929702D02*
Y-914467D01*
X376128D01*
X378667Y-917006D01*
Y-922084D01*
X376128Y-924624D01*
X368510D01*
X393902Y-917006D02*
X391363Y-914467D01*
X386284D01*
X383745Y-917006D01*
Y-927163D01*
X386284Y-929702D01*
X391363D01*
X393902Y-927163D01*
X409137Y-917006D02*
X406598Y-914467D01*
X401520D01*
X398980Y-917006D01*
Y-919545D01*
X401520Y-922084D01*
X406598D01*
X409137Y-924624D01*
Y-927163D01*
X406598Y-929702D01*
X401520D01*
X398980Y-927163D01*
X429450Y-929702D02*
Y-914467D01*
X437068D01*
X439607Y-917006D01*
Y-922084D01*
X437068Y-924624D01*
X429450D01*
X454842Y-914467D02*
X444686D01*
Y-929702D01*
X454842D01*
X444686Y-922084D02*
X449764D01*
X459921Y-929702D02*
Y-914467D01*
X467538D01*
X470077Y-917006D01*
Y-922084D01*
X467538Y-924624D01*
X459921D01*
X464999D02*
X470077Y-929702D01*
X490391D02*
Y-914467D01*
X498008D01*
X500547Y-917006D01*
Y-922084D01*
X498008Y-924624D01*
X490391D01*
X505626Y-929702D02*
Y-919545D01*
X510704Y-914467D01*
X515783Y-919545D01*
Y-929702D01*
Y-922084D01*
X505626D01*
X520861Y-929702D02*
Y-914467D01*
X531018Y-929702D01*
Y-914467D01*
X546253D02*
X536096D01*
Y-929702D01*
X546253D01*
X536096Y-922084D02*
X541174D01*
X551331Y-914467D02*
Y-929702D01*
X561488D01*
X566566D02*
X571645Y-924624D01*
Y-919545D01*
X566566Y-914467D01*
X579262Y-929702D02*
Y-927163D01*
X581801D01*
Y-929702D01*
X579262D01*
X607193D02*
Y-914467D01*
X614810D01*
X617350Y-917006D01*
Y-922084D01*
X614810Y-924624D01*
X607193D01*
X622428Y-914467D02*
Y-929702D01*
X632585D01*
X637663D02*
Y-919545D01*
X642741Y-914467D01*
X647820Y-919545D01*
Y-929702D01*
Y-922084D01*
X637663D01*
X663055Y-917006D02*
X660516Y-914467D01*
X655437D01*
X652898Y-917006D01*
Y-927163D01*
X655437Y-929702D01*
X660516D01*
X663055Y-927163D01*
X678290Y-914467D02*
X668133D01*
Y-929702D01*
X678290D01*
X668133Y-922084D02*
X673212D01*
X708760Y-914467D02*
X698603D01*
Y-922084D01*
X703682D01*
X698603D01*
Y-929702D01*
X713839Y-914467D02*
X718917D01*
X716378D01*
Y-929702D01*
X713839D01*
X718917D01*
X726534Y-914467D02*
Y-929702D01*
X734152D01*
X736691Y-927163D01*
Y-917006D01*
X734152Y-914467D01*
X726534D01*
X741769D02*
Y-927163D01*
X744309Y-929702D01*
X749387D01*
X751926Y-927163D01*
Y-914467D01*
X767161Y-917006D02*
X764622Y-914467D01*
X759544D01*
X757004Y-917006D01*
Y-927163D01*
X759544Y-929702D01*
X764622D01*
X767161Y-927163D01*
X772240Y-914467D02*
X777318D01*
X774779D01*
Y-929702D01*
X772240D01*
X777318D01*
X784936D02*
Y-919545D01*
X790014Y-914467D01*
X795092Y-919545D01*
Y-929702D01*
Y-922084D01*
X784936D01*
X800171Y-914467D02*
Y-929702D01*
X810327D01*
X825562Y-917006D02*
X823023Y-914467D01*
X817945D01*
X815406Y-917006D01*
Y-919545D01*
X817945Y-922084D01*
X823023D01*
X825562Y-924624D01*
Y-927163D01*
X823023Y-929702D01*
X817945D01*
X815406Y-927163D01*
X853493Y-914467D02*
X848415D01*
X845876Y-917006D01*
Y-927163D01*
X848415Y-929702D01*
X853493D01*
X856032Y-927163D01*
Y-917006D01*
X853493Y-914467D01*
X861111Y-929702D02*
Y-914467D01*
X871267Y-929702D01*
Y-914467D01*
X891581D02*
X901738D01*
X896659D01*
Y-929702D01*
X906816Y-914467D02*
Y-929702D01*
Y-922084D01*
X916973D01*
Y-914467D01*
Y-929702D01*
X932208Y-914467D02*
X922051D01*
Y-929702D01*
X932208D01*
X922051Y-922084D02*
X927130D01*
X952521Y-929702D02*
Y-914467D01*
X960139D01*
X962678Y-917006D01*
Y-922084D01*
X960139Y-924624D01*
X952521D01*
X967756Y-929702D02*
Y-919545D01*
X972835Y-914467D01*
X977913Y-919545D01*
Y-929702D01*
Y-922084D01*
X967756D01*
X982991Y-929702D02*
Y-914467D01*
X993148Y-929702D01*
Y-914467D01*
X1008383D02*
X998226D01*
Y-929702D01*
X1008383D01*
X998226Y-922084D02*
X1003305D01*
X1013462Y-914467D02*
Y-929702D01*
X1023618D01*
X1054088Y-917006D02*
X1051549Y-914467D01*
X1046471D01*
X1043932Y-917006D01*
Y-919545D01*
X1046471Y-922084D01*
X1051549D01*
X1054088Y-924624D01*
Y-927163D01*
X1051549Y-929702D01*
X1046471D01*
X1043932Y-927163D01*
X1059167Y-914467D02*
X1069324D01*
X1064245D01*
Y-929702D01*
X1074402D02*
Y-914467D01*
X1082019D01*
X1084559Y-917006D01*
Y-922084D01*
X1082019Y-924624D01*
X1074402D01*
X1079480D02*
X1084559Y-929702D01*
X1089637Y-914467D02*
X1094715D01*
X1092176D01*
Y-929702D01*
X1089637D01*
X1094715D01*
X1102333D02*
Y-914467D01*
X1109950D01*
X1112489Y-917006D01*
Y-922084D01*
X1109950Y-924624D01*
X1102333D01*
X1127725Y-917006D02*
X1125185Y-914467D01*
X1120107D01*
X1117568Y-917006D01*
Y-919545D01*
X1120107Y-922084D01*
X1125185D01*
X1127725Y-924624D01*
Y-927163D01*
X1125185Y-929702D01*
X1120107D01*
X1117568Y-927163D01*
X1148038Y-929702D02*
Y-919545D01*
X1153116Y-914467D01*
X1158195Y-919545D01*
Y-929702D01*
Y-922084D01*
X1148038D01*
X1173430Y-917006D02*
X1170891Y-914467D01*
X1165812D01*
X1163273Y-917006D01*
Y-919545D01*
X1165812Y-922084D01*
X1170891D01*
X1173430Y-924624D01*
Y-927163D01*
X1170891Y-929702D01*
X1165812D01*
X1163273Y-927163D01*
X1203900Y-914467D02*
X1193743D01*
Y-922084D01*
X1198822D01*
X1193743D01*
Y-929702D01*
X1216596Y-914467D02*
X1211517D01*
X1208978Y-917006D01*
Y-927163D01*
X1211517Y-929702D01*
X1216596D01*
X1219135Y-927163D01*
Y-917006D01*
X1216596Y-914467D01*
X1224213D02*
Y-929702D01*
X1234370D01*
X1239448Y-914467D02*
Y-929702D01*
X1249605D01*
X1262301Y-914467D02*
X1257223D01*
X1254684Y-917006D01*
Y-927163D01*
X1257223Y-929702D01*
X1262301D01*
X1264840Y-927163D01*
Y-917006D01*
X1262301Y-914467D01*
X1269919D02*
Y-929702D01*
X1274997Y-924624D01*
X1280075Y-929702D01*
Y-914467D01*
X1295310Y-917006D02*
X1292771Y-914467D01*
X1287693D01*
X1285154Y-917006D01*
Y-919545D01*
X1287693Y-922084D01*
X1292771D01*
X1295310Y-924624D01*
Y-927163D01*
X1292771Y-929702D01*
X1287693D01*
X1285154Y-927163D01*
X1300389Y-919545D02*
X1302928D01*
Y-922084D01*
X1300389D01*
Y-919545D01*
Y-927163D02*
X1302928D01*
Y-929702D01*
X1300389D01*
Y-927163D01*
X10486Y-589467D02*
Y-604702D01*
X18103D01*
X20643Y-602163D01*
Y-599624D01*
X18103Y-597085D01*
X10486D01*
X18103D01*
X20643Y-594545D01*
Y-592006D01*
X18103Y-589467D01*
X10486D01*
X28260Y-604702D02*
X33339D01*
X35878Y-602163D01*
Y-597085D01*
X33339Y-594545D01*
X28260D01*
X25721Y-597085D01*
Y-602163D01*
X28260Y-604702D01*
X43495Y-594545D02*
X48574D01*
X51113Y-597085D01*
Y-604702D01*
X43495D01*
X40956Y-602163D01*
X43495Y-599624D01*
X51113D01*
X56191Y-594545D02*
Y-604702D01*
Y-599624D01*
X58730Y-597085D01*
X61270Y-594545D01*
X63809D01*
X81583Y-589467D02*
Y-604702D01*
X73966D01*
X71426Y-602163D01*
Y-597085D01*
X73966Y-594545D01*
X81583D01*
X101896Y-604702D02*
X106975D01*
X104436D01*
Y-594545D01*
X101896D01*
X114592Y-604702D02*
Y-594545D01*
X122210D01*
X124749Y-597085D01*
Y-604702D01*
X132367D02*
Y-592006D01*
Y-597085D01*
X129827D01*
X134906D01*
X132367D01*
Y-592006D01*
X134906Y-589467D01*
X145063Y-604702D02*
X150141D01*
X152680Y-602163D01*
Y-597085D01*
X150141Y-594545D01*
X145063D01*
X142523Y-597085D01*
Y-602163D01*
X145063Y-604702D01*
X10486Y-629702D02*
Y-614467D01*
X15564Y-619545D01*
X20643Y-614467D01*
Y-629702D01*
X25721D02*
X30799D01*
X28260D01*
Y-619545D01*
X25721D01*
X38417Y-629702D02*
Y-619545D01*
X46034D01*
X48574Y-622085D01*
Y-629702D01*
X53652D02*
X58730D01*
X56191D01*
Y-619545D01*
X53652D01*
X66348Y-629702D02*
Y-619545D01*
X68887D01*
X71426Y-622085D01*
Y-629702D01*
Y-622085D01*
X73966Y-619545D01*
X76505Y-622085D01*
Y-629702D01*
X81583Y-619545D02*
Y-627163D01*
X84122Y-629702D01*
X91740D01*
Y-619545D01*
X96818Y-629702D02*
Y-619545D01*
X99357D01*
X101896Y-622085D01*
Y-629702D01*
Y-622085D01*
X104436Y-619545D01*
X106975Y-622085D01*
Y-629702D01*
X127288Y-614467D02*
X137445D01*
X132367D01*
Y-629702D01*
X142523Y-619545D02*
Y-629702D01*
Y-624624D01*
X145063Y-622085D01*
X147602Y-619545D01*
X150141D01*
X160298D02*
X165376D01*
X167915Y-622085D01*
Y-629702D01*
X160298D01*
X157758Y-627163D01*
X160298Y-624624D01*
X167915D01*
X183150Y-619545D02*
X175533D01*
X172993Y-622085D01*
Y-627163D01*
X175533Y-629702D01*
X183150D01*
X188228D02*
Y-614467D01*
Y-624624D02*
X195846Y-619545D01*
X188228Y-624624D02*
X195846Y-629702D01*
X203464Y-619545D02*
X206003D01*
Y-622085D01*
X203464D01*
Y-619545D01*
Y-627163D02*
X206003D01*
Y-629702D01*
X203464D01*
Y-627163D01*
X241551Y-629702D02*
X231395D01*
X241551Y-619545D01*
Y-617006D01*
X239012Y-614467D01*
X233934D01*
X231395Y-617006D01*
X246630D02*
X249169Y-614467D01*
X254247D01*
X256786Y-617006D01*
Y-627163D01*
X254247Y-629702D01*
X249169D01*
X246630Y-627163D01*
Y-617006D01*
X261865D02*
X264404Y-614467D01*
X269482D01*
X272021Y-617006D01*
Y-627163D01*
X269482Y-629702D01*
X264404D01*
X261865Y-627163D01*
Y-617006D01*
X277100Y-619545D02*
Y-627163D01*
X279639Y-629702D01*
X287257D01*
Y-619545D01*
X292335Y-629702D02*
Y-619545D01*
X294874D01*
X297413Y-622085D01*
Y-629702D01*
Y-622085D01*
X299952Y-619545D01*
X302491Y-622085D01*
Y-629702D01*
X10486Y-654702D02*
Y-639467D01*
X15564Y-644545D01*
X20643Y-639467D01*
Y-654702D01*
X25721D02*
X30799D01*
X28260D01*
Y-644545D01*
X25721D01*
X38417Y-654702D02*
Y-644545D01*
X46034D01*
X48574Y-647085D01*
Y-654702D01*
X53652D02*
X58730D01*
X56191D01*
Y-644545D01*
X53652D01*
X66348Y-654702D02*
Y-644545D01*
X68887D01*
X71426Y-647085D01*
Y-654702D01*
Y-647085D01*
X73966Y-644545D01*
X76505Y-647085D01*
Y-654702D01*
X81583Y-644545D02*
Y-652163D01*
X84122Y-654702D01*
X91740D01*
Y-644545D01*
X96818Y-654702D02*
Y-644545D01*
X99357D01*
X101896Y-647085D01*
Y-654702D01*
Y-647085D01*
X104436Y-644545D01*
X106975Y-647085D01*
Y-654702D01*
X137445Y-642006D02*
X134906Y-639467D01*
X129827D01*
X127288Y-642006D01*
Y-652163D01*
X129827Y-654702D01*
X134906D01*
X137445Y-652163D01*
Y-647085D01*
X132367D01*
X145063Y-644545D02*
X150141D01*
X152680Y-647085D01*
Y-654702D01*
X145063D01*
X142523Y-652163D01*
X145063Y-649624D01*
X152680D01*
X157758Y-659780D02*
Y-644545D01*
X165376D01*
X167915Y-647085D01*
Y-652163D01*
X165376Y-654702D01*
X157758D01*
X172993Y-644545D02*
X175533D01*
Y-647085D01*
X172993D01*
Y-644545D01*
Y-652163D02*
X175533D01*
Y-654702D01*
X172993D01*
Y-652163D01*
X211081Y-654702D02*
X200924D01*
X211081Y-644545D01*
Y-642006D01*
X208542Y-639467D01*
X203464D01*
X200924Y-642006D01*
X216159D02*
X218699Y-639467D01*
X223777D01*
X226316Y-642006D01*
Y-652163D01*
X223777Y-654702D01*
X218699D01*
X216159Y-652163D01*
Y-642006D01*
X231395D02*
X233934Y-639467D01*
X239012D01*
X241551Y-642006D01*
Y-652163D01*
X239012Y-654702D01*
X233934D01*
X231395Y-652163D01*
Y-642006D01*
X246630Y-644545D02*
Y-652163D01*
X249169Y-654702D01*
X256786D01*
Y-644545D01*
X261865Y-654702D02*
Y-644545D01*
X264404D01*
X266943Y-647085D01*
Y-654702D01*
Y-647085D01*
X269482Y-644545D01*
X272021Y-647085D01*
Y-654702D01*
X10486Y-679702D02*
Y-664467D01*
X15564Y-669545D01*
X20643Y-664467D01*
Y-679702D01*
X25721D02*
X30799D01*
X28260D01*
Y-669545D01*
X25721D01*
X38417Y-679702D02*
Y-669545D01*
X46034D01*
X48574Y-672085D01*
Y-679702D01*
X53652D02*
X58730D01*
X56191D01*
Y-669545D01*
X53652D01*
X66348Y-679702D02*
Y-669545D01*
X68887D01*
X71426Y-672085D01*
Y-679702D01*
Y-672085D01*
X73966Y-669545D01*
X76505Y-672085D01*
Y-679702D01*
X81583Y-669545D02*
Y-677163D01*
X84122Y-679702D01*
X91740D01*
Y-669545D01*
X96818Y-679702D02*
Y-669545D01*
X99357D01*
X101896Y-672085D01*
Y-679702D01*
Y-672085D01*
X104436Y-669545D01*
X106975Y-672085D01*
Y-679702D01*
X127288Y-664467D02*
X137445D01*
X132367D01*
Y-679702D01*
X142523Y-664467D02*
Y-679702D01*
Y-672085D01*
X145063Y-669545D01*
X150141D01*
X152680Y-672085D01*
Y-679702D01*
X157758Y-669545D02*
Y-679702D01*
Y-674624D01*
X160298Y-672085D01*
X162837Y-669545D01*
X165376D01*
X175533Y-679702D02*
X180611D01*
X183150Y-677163D01*
Y-672085D01*
X180611Y-669545D01*
X175533D01*
X172993Y-672085D01*
Y-677163D01*
X175533Y-679702D01*
X188228Y-669545D02*
Y-677163D01*
X190768Y-679702D01*
X198385D01*
Y-669545D01*
X208542Y-684780D02*
X211081D01*
X213620Y-682241D01*
Y-669545D01*
X206003D01*
X203464Y-672085D01*
Y-677163D01*
X206003Y-679702D01*
X213620D01*
X218699Y-664467D02*
Y-679702D01*
Y-672085D01*
X221238Y-669545D01*
X226316D01*
X228855Y-672085D01*
Y-679702D01*
X249169Y-664467D02*
Y-679702D01*
Y-672085D01*
X259326D01*
Y-664467D01*
Y-679702D01*
X266943D02*
X272021D01*
X274561Y-677163D01*
Y-672085D01*
X272021Y-669545D01*
X266943D01*
X264404Y-672085D01*
Y-677163D01*
X266943Y-679702D01*
X279639D02*
X284717D01*
X282178D01*
Y-664467D01*
X279639D01*
X299952Y-679702D02*
X294874D01*
X292335Y-677163D01*
Y-672085D01*
X294874Y-669545D01*
X299952D01*
X302491Y-672085D01*
Y-674624D01*
X292335D01*
X322805Y-664467D02*
Y-674624D01*
X327883Y-679702D01*
X332962Y-674624D01*
Y-664467D01*
X338040D02*
X343118D01*
X340579D01*
Y-679702D01*
X338040D01*
X343118D01*
X350736D02*
Y-669545D01*
X355814Y-664467D01*
X360893Y-669545D01*
Y-679702D01*
Y-672085D01*
X350736D01*
X365971Y-669545D02*
X368510D01*
Y-672085D01*
X365971D01*
Y-669545D01*
Y-677163D02*
X368510D01*
Y-679702D01*
X365971D01*
Y-677163D01*
X393902Y-682241D02*
X404059D01*
X409137D02*
X419294D01*
X424372Y-679702D02*
Y-669545D01*
X426911D01*
X429450Y-672085D01*
Y-679702D01*
Y-672085D01*
X431990Y-669545D01*
X434529Y-672085D01*
Y-679702D01*
X439607D02*
Y-669545D01*
X442146D01*
X444686Y-672085D01*
Y-679702D01*
Y-672085D01*
X447225Y-669545D01*
X449764Y-672085D01*
Y-679702D01*
X475156D02*
X470077Y-674624D01*
Y-669545D01*
X475156Y-664467D01*
X482773Y-684780D02*
Y-669545D01*
X490391D01*
X492930Y-672085D01*
Y-677163D01*
X490391Y-679702D01*
X482773D01*
X500547Y-669545D02*
X505626D01*
X508165Y-672085D01*
Y-679702D01*
X500547D01*
X498008Y-677163D01*
X500547Y-674624D01*
X508165D01*
X523400Y-664467D02*
Y-679702D01*
X515783D01*
X513243Y-677163D01*
Y-672085D01*
X515783Y-669545D01*
X523400D01*
X528478Y-679702D02*
X533557Y-674624D01*
Y-669545D01*
X528478Y-664467D01*
X556409Y-679702D02*
X566566Y-669545D01*
X586880Y-682241D02*
X597036D01*
X602115D02*
X612271D01*
X617350Y-679702D02*
Y-669545D01*
X619889D01*
X622428Y-672085D01*
Y-679702D01*
Y-672085D01*
X624967Y-669545D01*
X627506Y-672085D01*
Y-679702D01*
X632585D02*
Y-669545D01*
X635124D01*
X637663Y-672085D01*
Y-679702D01*
Y-672085D01*
X640202Y-669545D01*
X642741Y-672085D01*
Y-679702D01*
X668133D02*
X663055Y-674624D01*
Y-669545D01*
X668133Y-664467D01*
X685908D02*
Y-679702D01*
X678290D01*
X675751Y-677163D01*
Y-672085D01*
X678290Y-669545D01*
X685908D01*
X690986D02*
Y-679702D01*
Y-674624D01*
X693525Y-672085D01*
X696064Y-669545D01*
X698603D01*
X706221Y-679702D02*
X711299D01*
X708760D01*
Y-669545D01*
X706221D01*
X718917Y-679702D02*
X723995D01*
X721456D01*
Y-664467D01*
X718917D01*
X731613Y-679702D02*
X736691D01*
X734152D01*
Y-664467D01*
X731613D01*
X744309Y-679702D02*
X749387Y-674624D01*
Y-669545D01*
X744309Y-664467D01*
X757004Y-679702D02*
Y-677163D01*
X759544D01*
Y-679702D01*
X757004D01*
X784935Y-664467D02*
Y-679702D01*
X792553D01*
X795092Y-677163D01*
Y-667006D01*
X792553Y-664467D01*
X784935D01*
X800171Y-669545D02*
Y-679702D01*
Y-674624D01*
X802710Y-672085D01*
X805249Y-669545D01*
X807788D01*
X815406Y-679702D02*
X820484D01*
X817945D01*
Y-669545D01*
X815406D01*
X828101Y-679702D02*
X833180D01*
X830641D01*
Y-664467D01*
X828101D01*
X840797Y-679702D02*
X845876D01*
X843336D01*
Y-664467D01*
X840797D01*
X853493Y-679702D02*
X858572D01*
X856032D01*
Y-669545D01*
X853493D01*
X866189Y-679702D02*
Y-669545D01*
X873807D01*
X876346Y-672085D01*
Y-679702D01*
X886503Y-684780D02*
X889042D01*
X891581Y-682241D01*
Y-669545D01*
X883963D01*
X881424Y-672085D01*
Y-677163D01*
X883963Y-679702D01*
X891581D01*
X896659Y-669545D02*
X899198D01*
Y-672085D01*
X896659D01*
Y-669545D01*
Y-677163D02*
X899198D01*
Y-679702D01*
X896659D01*
Y-677163D01*
X924590Y-664467D02*
Y-679702D01*
X934747D01*
X939825D02*
X944904D01*
X942365D01*
Y-664467D01*
X939825Y-667006D01*
X952521Y-672085D02*
X962678D01*
X967756Y-664467D02*
Y-679702D01*
X977913D01*
X993148D02*
X982991D01*
X993148Y-669545D01*
Y-667006D01*
X990609Y-664467D01*
X985530D01*
X982991Y-667006D01*
X10486Y-729702D02*
X15564D01*
X13025D01*
Y-714467D01*
X10486Y-717006D01*
X23182Y-729702D02*
Y-727163D01*
X25721D01*
Y-729702D01*
X23182D01*
X61270Y-714467D02*
X51113D01*
Y-722085D01*
X56191D01*
X51113D01*
Y-729702D01*
X66348Y-714467D02*
X71426D01*
X68887D01*
Y-729702D01*
X66348D01*
X71426D01*
X79044D02*
Y-714467D01*
X89200Y-729702D01*
Y-714467D01*
X94279D02*
X99357D01*
X96818D01*
Y-729702D01*
X94279D01*
X99357D01*
X117132Y-717006D02*
X114592Y-714467D01*
X109514D01*
X106975Y-717006D01*
Y-719545D01*
X109514Y-722085D01*
X114592D01*
X117132Y-724624D01*
Y-727163D01*
X114592Y-729702D01*
X109514D01*
X106975Y-727163D01*
X122210Y-714467D02*
Y-729702D01*
Y-722085D01*
X132367D01*
Y-714467D01*
Y-729702D01*
X147602Y-714467D02*
X137445D01*
Y-729702D01*
X147602D01*
X137445Y-722085D02*
X142523D01*
X152680Y-714467D02*
Y-729702D01*
X160298D01*
X162837Y-727163D01*
Y-717006D01*
X160298Y-714467D01*
X152680D01*
X183150Y-729702D02*
Y-714467D01*
X190768D01*
X193307Y-717006D01*
Y-722085D01*
X190768Y-724624D01*
X183150D01*
X198385Y-729702D02*
Y-719545D01*
X203464Y-714467D01*
X208542Y-719545D01*
Y-729702D01*
Y-722085D01*
X198385D01*
X213620Y-729702D02*
Y-714467D01*
X223777Y-729702D01*
Y-714467D01*
X239012D02*
X228855D01*
Y-729702D01*
X239012D01*
X228855Y-722085D02*
X233934D01*
X244090Y-714467D02*
Y-729702D01*
X254247D01*
X274561Y-714467D02*
X284717D01*
X279639D01*
Y-729702D01*
X289796Y-714467D02*
Y-729702D01*
Y-722085D01*
X299952D01*
Y-714467D01*
Y-729702D01*
X305031Y-714467D02*
X310109D01*
X307570D01*
Y-729702D01*
X305031D01*
X310109D01*
X327883Y-717006D02*
X325344Y-714467D01*
X320266D01*
X317727Y-717006D01*
Y-727163D01*
X320266Y-729702D01*
X325344D01*
X327883Y-727163D01*
X332962Y-714467D02*
Y-729702D01*
Y-724624D01*
X343118Y-714467D01*
X335501Y-722085D01*
X343118Y-729702D01*
X348197D02*
Y-714467D01*
X358354Y-729702D01*
Y-714467D01*
X373588D02*
X363432D01*
Y-729702D01*
X373588D01*
X363432Y-722085D02*
X368510D01*
X388824Y-717006D02*
X386284Y-714467D01*
X381206D01*
X378667Y-717006D01*
Y-719545D01*
X381206Y-722085D01*
X386284D01*
X388824Y-724624D01*
Y-727163D01*
X386284Y-729702D01*
X381206D01*
X378667Y-727163D01*
X404059Y-717006D02*
X401520Y-714467D01*
X396441D01*
X393902Y-717006D01*
Y-719545D01*
X396441Y-722085D01*
X401520D01*
X404059Y-724624D01*
Y-727163D01*
X401520Y-729702D01*
X396441D01*
X393902Y-727163D01*
X424372Y-714467D02*
X429450D01*
X426911D01*
Y-729702D01*
X424372D01*
X429450D01*
X447225Y-717006D02*
X444686Y-714467D01*
X439607D01*
X437068Y-717006D01*
Y-719545D01*
X439607Y-722085D01*
X444686D01*
X447225Y-724624D01*
Y-727163D01*
X444686Y-729702D01*
X439607D01*
X437068Y-727163D01*
X467538Y-729702D02*
Y-714467D01*
X477695Y-729702D01*
Y-714467D01*
X490391D02*
X485312D01*
X482773Y-717006D01*
Y-727163D01*
X485312Y-729702D01*
X490391D01*
X492930Y-727163D01*
Y-717006D01*
X490391Y-714467D01*
X498008D02*
X508165D01*
X503087D01*
Y-729702D01*
X538635Y-717006D02*
X536096Y-714467D01*
X531018D01*
X528478Y-717006D01*
Y-727163D01*
X531018Y-729702D01*
X536096D01*
X538635Y-727163D01*
X543713Y-729702D02*
Y-714467D01*
X551331D01*
X553870Y-717006D01*
Y-722085D01*
X551331Y-724624D01*
X543713D01*
X548792D02*
X553870Y-729702D01*
X558949Y-714467D02*
X564027D01*
X561488D01*
Y-729702D01*
X558949D01*
X564027D01*
X571644Y-714467D02*
X581801D01*
X576723D01*
Y-729702D01*
X586880Y-714467D02*
X591958D01*
X589419D01*
Y-729702D01*
X586880D01*
X591958D01*
X609732Y-717006D02*
X607193Y-714467D01*
X602115D01*
X599575Y-717006D01*
Y-727163D01*
X602115Y-729702D01*
X607193D01*
X609732Y-727163D01*
X614810Y-729702D02*
Y-719545D01*
X619889Y-714467D01*
X624967Y-719545D01*
Y-729702D01*
Y-722085D01*
X614810D01*
X630046Y-714467D02*
Y-729702D01*
X640202D01*
X645281Y-719545D02*
X647820D01*
Y-722085D01*
X645281D01*
Y-719545D01*
Y-727163D02*
X647820D01*
Y-729702D01*
X645281D01*
Y-727163D01*
X673212Y-714467D02*
X683368D01*
X678290D01*
Y-729702D01*
X696064Y-714467D02*
X690986D01*
X688447Y-717006D01*
Y-727163D01*
X690986Y-729702D01*
X696064D01*
X698603Y-727163D01*
Y-717006D01*
X696064Y-714467D01*
X718917D02*
Y-729702D01*
X726534D01*
X729073Y-727163D01*
Y-724624D01*
X726534Y-722085D01*
X718917D01*
X726534D01*
X729073Y-719545D01*
Y-717006D01*
X726534Y-714467D01*
X718917D01*
X744309D02*
X734152D01*
Y-729702D01*
X744309D01*
X734152Y-722085D02*
X739230D01*
X764622Y-729702D02*
Y-719545D01*
X769700Y-714467D01*
X774779Y-719545D01*
Y-729702D01*
Y-722085D01*
X764622D01*
X779857Y-729702D02*
Y-714467D01*
X787475D01*
X790014Y-717006D01*
Y-722085D01*
X787475Y-724624D01*
X779857D01*
X795092Y-729702D02*
Y-714467D01*
X802710D01*
X805249Y-717006D01*
Y-722085D01*
X802710Y-724624D01*
X795092D01*
X810327Y-729702D02*
Y-714467D01*
X817945D01*
X820484Y-717006D01*
Y-722085D01*
X817945Y-724624D01*
X810327D01*
X815406D02*
X820484Y-729702D01*
X833180Y-714467D02*
X828102D01*
X825562Y-717006D01*
Y-727163D01*
X828102Y-729702D01*
X833180D01*
X835719Y-727163D01*
Y-717006D01*
X833180Y-714467D01*
X840797D02*
X850954Y-729702D01*
Y-714467D02*
X840797Y-729702D01*
X856032Y-714467D02*
X861111D01*
X858572D01*
Y-729702D01*
X856032D01*
X861111D01*
X868728D02*
Y-714467D01*
X873807Y-719545D01*
X878885Y-714467D01*
Y-729702D01*
X883963D02*
Y-719545D01*
X889042Y-714467D01*
X894120Y-719545D01*
Y-729702D01*
Y-722085D01*
X883963D01*
X899199Y-714467D02*
X909355D01*
X904277D01*
Y-729702D01*
X924590Y-714467D02*
X914434D01*
Y-729702D01*
X924590D01*
X914434Y-722085D02*
X919512D01*
X929669Y-714467D02*
Y-729702D01*
X939825D01*
X944904Y-714467D02*
Y-717006D01*
X949982Y-722085D01*
X955060Y-717006D01*
Y-714467D01*
X949982Y-722085D02*
Y-729702D01*
X975374D02*
X980452D01*
X977913D01*
Y-714467D01*
X975374Y-717006D01*
X988070Y-729702D02*
Y-727163D01*
X990609D01*
Y-729702D01*
X988070D01*
X1010922Y-714467D02*
X1005844Y-717006D01*
X1000766Y-722085D01*
Y-727163D01*
X1003305Y-729702D01*
X1008383D01*
X1010922Y-727163D01*
Y-724624D01*
X1008383Y-722085D01*
X1000766D01*
X1016001Y-729702D02*
Y-719545D01*
X1018540D01*
X1021079Y-722085D01*
Y-729702D01*
Y-722085D01*
X1023618Y-719545D01*
X1026157Y-722085D01*
Y-729702D01*
X1031236D02*
Y-719545D01*
X1033775D01*
X1036314Y-722085D01*
Y-729702D01*
Y-722085D01*
X1038853Y-719545D01*
X1041393Y-722085D01*
Y-729702D01*
X20643Y-779702D02*
X10486D01*
X20643Y-769545D01*
Y-767006D01*
X18103Y-764467D01*
X13025D01*
X10486Y-767006D01*
X25721Y-779702D02*
Y-777163D01*
X28260D01*
Y-779702D01*
X25721D01*
X53652Y-764467D02*
Y-779702D01*
X61270D01*
X63809Y-777163D01*
Y-774624D01*
X61270Y-772085D01*
X53652D01*
X61270D01*
X63809Y-769545D01*
Y-767006D01*
X61270Y-764467D01*
X53652D01*
X76505D02*
X71426D01*
X68887Y-767006D01*
Y-777163D01*
X71426Y-779702D01*
X76505D01*
X79044Y-777163D01*
Y-767006D01*
X76505Y-764467D01*
X84122Y-779702D02*
Y-769545D01*
X89200Y-764467D01*
X94279Y-769545D01*
Y-779702D01*
Y-772085D01*
X84122D01*
X99357Y-779702D02*
Y-764467D01*
X106975D01*
X109514Y-767006D01*
Y-772085D01*
X106975Y-774624D01*
X99357D01*
X104436D02*
X109514Y-779702D01*
X114592Y-764467D02*
Y-779702D01*
X122210D01*
X124749Y-777163D01*
Y-767006D01*
X122210Y-764467D01*
X114592D01*
X155219D02*
X145063D01*
Y-772085D01*
X150141D01*
X145063D01*
Y-779702D01*
X160298Y-764467D02*
X165376D01*
X162837D01*
Y-779702D01*
X160298D01*
X165376D01*
X172993D02*
Y-764467D01*
X183150Y-779702D01*
Y-764467D01*
X188228D02*
X193307D01*
X190768D01*
Y-779702D01*
X188228D01*
X193307D01*
X211081Y-767006D02*
X208542Y-764467D01*
X203464D01*
X200924Y-767006D01*
Y-769545D01*
X203464Y-772085D01*
X208542D01*
X211081Y-774624D01*
Y-777163D01*
X208542Y-779702D01*
X203464D01*
X200924Y-777163D01*
X216159Y-764467D02*
Y-779702D01*
Y-772085D01*
X226316D01*
Y-764467D01*
Y-779702D01*
X231395Y-769545D02*
X233934D01*
Y-772085D01*
X231395D01*
Y-769545D01*
Y-777163D02*
X233934D01*
Y-779702D01*
X231395D01*
Y-777163D01*
X259326Y-764467D02*
X264404D01*
X261865D01*
Y-779702D01*
X259326D01*
X264404D01*
X272021D02*
Y-764467D01*
X277100Y-769545D01*
X282178Y-764467D01*
Y-779702D01*
X287256D02*
Y-764467D01*
X292335Y-769545D01*
X297413Y-764467D01*
Y-779702D01*
X312648Y-764467D02*
X302491D01*
Y-779702D01*
X312648D01*
X302491Y-772085D02*
X307570D01*
X317727Y-779702D02*
Y-764467D01*
X325344D01*
X327883Y-767006D01*
Y-772085D01*
X325344Y-774624D01*
X317727D01*
X322805D02*
X327883Y-779702D01*
X343118Y-767006D02*
X340579Y-764467D01*
X335501D01*
X332962Y-767006D01*
Y-769545D01*
X335501Y-772085D01*
X340579D01*
X343118Y-774624D01*
Y-777163D01*
X340579Y-779702D01*
X335501D01*
X332962Y-777163D01*
X348197Y-764467D02*
X353275D01*
X350736D01*
Y-779702D01*
X348197D01*
X353275D01*
X368510Y-764467D02*
X363432D01*
X360893Y-767006D01*
Y-777163D01*
X363432Y-779702D01*
X368510D01*
X371049Y-777163D01*
Y-767006D01*
X368510Y-764467D01*
X376128Y-779702D02*
Y-764467D01*
X386284Y-779702D01*
Y-764467D01*
X406598Y-779702D02*
Y-769545D01*
X411676Y-764467D01*
X416755Y-769545D01*
Y-779702D01*
Y-772085D01*
X406598D01*
X421833Y-769545D02*
Y-777163D01*
X424372Y-779702D01*
X431990D01*
Y-769545D01*
X437068Y-779702D02*
X447225Y-769545D01*
X462460Y-764467D02*
X452303D01*
Y-779702D01*
X462460D01*
X452303Y-772085D02*
X457381D01*
X467538Y-764467D02*
Y-779702D01*
X477695D01*
X492930Y-764467D02*
X482773D01*
Y-779702D01*
X492930D01*
X482773Y-772085D02*
X487852D01*
X508165Y-767006D02*
X505626Y-764467D01*
X500547D01*
X498008Y-767006D01*
Y-777163D01*
X500547Y-779702D01*
X505626D01*
X508165Y-777163D01*
X513243Y-764467D02*
X523400D01*
X518322D01*
Y-779702D01*
X528478D02*
Y-764467D01*
X536096D01*
X538635Y-767006D01*
Y-772085D01*
X536096Y-774624D01*
X528478D01*
X533557D02*
X538635Y-779702D01*
X551331Y-764467D02*
X546253D01*
X543713Y-767006D01*
Y-777163D01*
X546253Y-779702D01*
X551331D01*
X553870Y-777163D01*
Y-767006D01*
X551331Y-764467D01*
X558949D02*
Y-779702D01*
X569105D01*
X584340Y-764467D02*
X574184D01*
Y-779702D01*
X584340D01*
X574184Y-772085D02*
X579262D01*
X599575Y-767006D02*
X597036Y-764467D01*
X591958D01*
X589419Y-767006D01*
Y-769545D01*
X591958Y-772085D01*
X597036D01*
X599575Y-774624D01*
Y-777163D01*
X597036Y-779702D01*
X591958D01*
X589419Y-777163D01*
X614810Y-767006D02*
X612271Y-764467D01*
X607193D01*
X604654Y-767006D01*
Y-769545D01*
X607193Y-772085D01*
X612271D01*
X614810Y-774624D01*
Y-777163D01*
X612271Y-779702D01*
X607193D01*
X604654Y-777163D01*
X635124Y-779702D02*
Y-764467D01*
X645281Y-779702D01*
Y-764467D01*
X650359Y-779702D02*
X655437D01*
X652898D01*
Y-769545D01*
X650359D01*
X663055Y-772085D02*
Y-769545D01*
X665594D01*
Y-772085D01*
X663055D01*
Y-777163D02*
X665594D01*
Y-779702D01*
X663055Y-782241D01*
X665594Y-779702D02*
X663055D01*
Y-777163D01*
X690986Y-767006D02*
X693525Y-764467D01*
X698603D01*
X701143Y-767006D01*
Y-777163D01*
X698603Y-779702D01*
X693525D01*
X690986Y-777163D01*
Y-767006D01*
X706221Y-779702D02*
Y-777163D01*
X708760D01*
Y-779702D01*
X706221D01*
X718917Y-767006D02*
X721456Y-764467D01*
X726534D01*
X729073Y-767006D01*
Y-777163D01*
X726534Y-779702D01*
X721456D01*
X718917Y-777163D01*
Y-767006D01*
X744309Y-764467D02*
X734152D01*
Y-772085D01*
X739230Y-769545D01*
X741769D01*
X744309Y-772085D01*
Y-777163D01*
X741769Y-779702D01*
X736691D01*
X734152Y-777163D01*
X749387Y-772085D02*
X759544D01*
X764622Y-767006D02*
X767161Y-764467D01*
X772240D01*
X774779Y-767006D01*
Y-777163D01*
X772240Y-779702D01*
X767161D01*
X764622Y-777163D01*
Y-767006D01*
X779857Y-779702D02*
Y-777163D01*
X782396D01*
Y-779702D01*
X779857D01*
X792553D02*
X797631D01*
X795092D01*
Y-764467D01*
X792553Y-767006D01*
X815406Y-779702D02*
X805249D01*
X815406Y-769545D01*
Y-767006D01*
X812866Y-764467D01*
X807788D01*
X805249Y-767006D01*
X835719Y-769545D02*
Y-777163D01*
X838258Y-779702D01*
X845876D01*
Y-769545D01*
X850954Y-779702D02*
Y-769545D01*
X853493D01*
X856032Y-772085D01*
Y-779702D01*
Y-772085D01*
X858572Y-769545D01*
X861111Y-772085D01*
Y-779702D01*
X891581Y-767006D02*
X889042Y-764467D01*
X883963D01*
X881424Y-767006D01*
Y-777163D01*
X883963Y-779702D01*
X889042D01*
X891581Y-777163D01*
Y-772085D01*
X886503D01*
X904277Y-764467D02*
X899199D01*
X896659Y-767006D01*
Y-777163D01*
X899199Y-779702D01*
X904277D01*
X906816Y-777163D01*
Y-767006D01*
X904277Y-764467D01*
X911894D02*
Y-779702D01*
X922051D01*
X927129Y-764467D02*
Y-779702D01*
X934747D01*
X937286Y-777163D01*
Y-767006D01*
X934747Y-764467D01*
X927129D01*
X942365Y-772085D02*
Y-769545D01*
X944904D01*
Y-772085D01*
X942365D01*
Y-777163D02*
X944904D01*
Y-779702D01*
X942365Y-782241D01*
X944904Y-779702D02*
X942365D01*
Y-777163D01*
X970295Y-767006D02*
X972835Y-764467D01*
X977913D01*
X980452Y-767006D01*
Y-769545D01*
X977913Y-772085D01*
X975374D01*
X977913D01*
X980452Y-774624D01*
Y-777163D01*
X977913Y-779702D01*
X972835D01*
X970295Y-777163D01*
X985530Y-772085D02*
X995687D01*
X1010922Y-764467D02*
X1005844Y-767006D01*
X1000766Y-772085D01*
Y-777163D01*
X1003305Y-779702D01*
X1008383D01*
X1010922Y-777163D01*
Y-774624D01*
X1008383Y-772085D01*
X1000766D01*
X1016001Y-769545D02*
Y-777163D01*
X1018540Y-779702D01*
X1026157D01*
Y-769545D01*
X1031236Y-779702D02*
Y-769545D01*
X1033775D01*
X1036314Y-772085D01*
Y-779702D01*
Y-772085D01*
X1038853Y-769545D01*
X1041393Y-772085D01*
Y-779702D01*
X1061706D02*
Y-764467D01*
X1071863Y-779702D01*
Y-764467D01*
X1076941D02*
X1082019D01*
X1079480D01*
Y-779702D01*
X1076941D01*
X1082019D01*
X1099794Y-767006D02*
X1097254Y-764467D01*
X1092176D01*
X1089637Y-767006D01*
Y-777163D01*
X1092176Y-779702D01*
X1097254D01*
X1099794Y-777163D01*
X1104872Y-764467D02*
Y-779702D01*
Y-774624D01*
X1115029Y-764467D01*
X1107411Y-772085D01*
X1115029Y-779702D01*
X1130264Y-764467D02*
X1120107D01*
Y-779702D01*
X1130264D01*
X1120107Y-772085D02*
X1125185D01*
X1135342Y-764467D02*
Y-779702D01*
X1145499D01*
X18103Y-879702D02*
Y-864467D01*
X10486Y-872084D01*
X20643D01*
X25721Y-879702D02*
Y-877163D01*
X28260D01*
Y-879702D01*
X25721D01*
X63809Y-867006D02*
X61270Y-864467D01*
X56191D01*
X53652Y-867006D01*
Y-877163D01*
X56191Y-879702D01*
X61270D01*
X63809Y-877163D01*
X76505Y-864467D02*
X71426D01*
X68887Y-867006D01*
Y-877163D01*
X71426Y-879702D01*
X76505D01*
X79044Y-877163D01*
Y-867006D01*
X76505Y-864467D01*
X84122Y-879702D02*
Y-864467D01*
X89200Y-869545D01*
X94279Y-864467D01*
Y-879702D01*
X99357D02*
Y-864467D01*
X106975D01*
X109514Y-867006D01*
Y-872084D01*
X106975Y-874624D01*
X99357D01*
X122210Y-864467D02*
X117132D01*
X114592Y-867006D01*
Y-877163D01*
X117132Y-879702D01*
X122210D01*
X124749Y-877163D01*
Y-867006D01*
X122210Y-864467D01*
X129827Y-879702D02*
Y-864467D01*
X139984Y-879702D01*
Y-864467D01*
X155219D02*
X145063D01*
Y-879702D01*
X155219D01*
X145063Y-872084D02*
X150141D01*
X160298Y-879702D02*
Y-864467D01*
X170454Y-879702D01*
Y-864467D01*
X175533D02*
X185689D01*
X180611D01*
Y-879702D01*
X206003Y-864467D02*
X211081D01*
X208542D01*
Y-879702D01*
X206003D01*
X211081D01*
X218699Y-864467D02*
Y-879702D01*
X226316D01*
X228855Y-877163D01*
Y-867006D01*
X226316Y-864467D01*
X218699D01*
X244090D02*
X233934D01*
Y-879702D01*
X244090D01*
X233934Y-872084D02*
X239012D01*
X249169Y-879702D02*
Y-864467D01*
X259326Y-879702D01*
Y-864467D01*
X264404D02*
X274561D01*
X269482D01*
Y-879702D01*
X279639Y-869545D02*
X282178D01*
Y-872084D01*
X279639D01*
Y-869545D01*
Y-877163D02*
X282178D01*
Y-879702D01*
X279639D01*
Y-877163D01*
X317727Y-867006D02*
X315187Y-864467D01*
X310109D01*
X307570Y-867006D01*
Y-877163D01*
X310109Y-879702D01*
X315187D01*
X317727Y-877163D01*
X330423Y-864467D02*
X325344D01*
X322805Y-867006D01*
Y-877163D01*
X325344Y-879702D01*
X330423D01*
X332962Y-877163D01*
Y-867006D01*
X330423Y-864467D01*
X338040D02*
Y-879702D01*
X348197D01*
X360893Y-864467D02*
X355814D01*
X353275Y-867006D01*
Y-877163D01*
X355814Y-879702D01*
X360893D01*
X363432Y-877163D01*
Y-867006D01*
X360893Y-864467D01*
X368510D02*
Y-877163D01*
X371049Y-879702D01*
X376128D01*
X378667Y-877163D01*
Y-864467D01*
X383745Y-879702D02*
Y-864467D01*
X391363D01*
X393902Y-867006D01*
Y-872084D01*
X391363Y-874624D01*
X383745D01*
X388824D02*
X393902Y-879702D01*
X414215Y-864467D02*
X424372D01*
X419294D01*
Y-879702D01*
X437068Y-864467D02*
X431990D01*
X429450Y-867006D01*
Y-877163D01*
X431990Y-879702D01*
X437068D01*
X439607Y-877163D01*
Y-867006D01*
X437068Y-864467D01*
X459921D02*
Y-879702D01*
X467538D01*
X470077Y-877163D01*
Y-874624D01*
X467538Y-872084D01*
X459921D01*
X467538D01*
X470077Y-869545D01*
Y-867006D01*
X467538Y-864467D01*
X459921D01*
X485312D02*
X475156D01*
Y-879702D01*
X485312D01*
X475156Y-872084D02*
X480234D01*
X505626Y-864467D02*
Y-879702D01*
X510704Y-874624D01*
X515783Y-879702D01*
Y-864467D01*
X520861D02*
Y-879702D01*
Y-872084D01*
X531018D01*
Y-864467D01*
Y-879702D01*
X536096Y-864467D02*
X541174D01*
X538635D01*
Y-879702D01*
X536096D01*
X541174D01*
X548792Y-864467D02*
X558949D01*
X553870D01*
Y-879702D01*
X574184Y-864467D02*
X564027D01*
Y-879702D01*
X574184D01*
X564027Y-872084D02*
X569105D01*
M02*
