G04*
G04 #@! TF.GenerationSoftware,Altium Limited,Altium Designer,20.0.13 (296)*
G04*
G04 Layer_Physical_Order=1*
G04 Layer_Color=255*
%FSLAX44Y44*%
%MOMM*%
G71*
G01*
G75*
%ADD10C,0.2000*%
%ADD11C,0.4000*%
%ADD17R,1.3000X0.9000*%
%ADD18R,0.9000X1.3000*%
%ADD19R,3.5000X2.2000*%
%ADD20R,0.6000X2.2000*%
%ADD21R,2.5000X2.6000*%
%ADD22R,2.6000X2.5000*%
%ADD23R,0.5588X0.6858*%
%ADD24R,0.6858X0.5588*%
%ADD25R,1.6000X3.0000*%
%ADD26R,1.0000X0.5500*%
%ADD27R,0.5500X1.0000*%
%ADD28R,2.7000X2.0000*%
%ADD29R,0.8000X0.8000*%
%ADD30R,1.3500X0.4000*%
%ADD31R,1.4000X1.6000*%
%ADD32R,1.9000X1.9000*%
%ADD33R,0.5500X1.5000*%
%ADD34R,1.5000X0.5500*%
%ADD35R,1.3000X0.7000*%
%ADD36R,0.7000X1.3000*%
%ADD37R,0.9000X0.6000*%
%ADD67C,1.9000*%
%ADD68R,1.9000X1.9000*%
%ADD73C,1.0160*%
%ADD74C,0.6000*%
%ADD75C,0.5000*%
%ADD76C,0.8000*%
%ADD77C,1.0000*%
%ADD78C,3.2000*%
%ADD79O,1.6000X2.0000*%
%ADD80R,1.6000X2.0000*%
%ADD81C,4.0000*%
%ADD82C,7.4000*%
%ADD83O,2.0000X1.6000*%
%ADD84R,2.0000X1.6000*%
%ADD85C,1.7000*%
%ADD86R,1.7000X1.7000*%
G04:AMPARAMS|DCode=87|XSize=2mm|YSize=1.2mm|CornerRadius=0.36mm|HoleSize=0mm|Usage=FLASHONLY|Rotation=0.000|XOffset=0mm|YOffset=0mm|HoleType=Round|Shape=RoundedRectangle|*
%AMROUNDEDRECTD87*
21,1,2.0000,0.4800,0,0,0.0*
21,1,1.2800,1.2000,0,0,0.0*
1,1,0.7200,0.6400,-0.2400*
1,1,0.7200,-0.6400,-0.2400*
1,1,0.7200,-0.6400,0.2400*
1,1,0.7200,0.6400,0.2400*
%
%ADD87ROUNDEDRECTD87*%
%ADD88C,0.6000*%
G36*
X87356Y430116D02*
X87356Y430116D01*
X88240Y429525D01*
X88679Y429232D01*
X90240Y428922D01*
X90240Y428922D01*
X96078D01*
X105000Y420000D01*
X127000D01*
Y403000D01*
X90000D01*
Y416000D01*
X83000Y423000D01*
X40000D01*
X35000Y418000D01*
Y400000D01*
X16000D01*
Y437000D01*
X80472D01*
X87356Y430116D01*
D02*
G37*
G36*
X377000Y381000D02*
X362000D01*
Y488000D01*
X377000D01*
Y381000D01*
D02*
G37*
G36*
X646000Y406000D02*
X653000D01*
X683000Y406000D01*
X683000Y296000D01*
X590060D01*
Y334500D01*
X590000Y334959D01*
Y345000D01*
X599500Y354500D01*
X600000D01*
Y361041D01*
X600060Y361500D01*
X600000Y361959D01*
Y373500D01*
Y389000D01*
X583000D01*
X580000Y386000D01*
Y377000D01*
X570000Y377000D01*
X560078D01*
Y398000D01*
X623000D01*
Y416000D01*
X646000D01*
Y406000D01*
D02*
G37*
G36*
X53000Y224000D02*
X39000D01*
Y219000D01*
X38995D01*
Y209000D01*
Y202500D01*
Y196000D01*
Y189500D01*
X53500D01*
X61000Y182000D01*
X74000Y182000D01*
X74000Y167000D01*
X80000Y161000D01*
Y160500D01*
X80500D01*
X81000Y160000D01*
X100000D01*
Y179000D01*
X120000D01*
X127182Y186182D01*
X148752Y186182D01*
X150257Y185882D01*
X171426D01*
X172932Y186182D01*
X178633Y186182D01*
Y166632D01*
X171000Y159000D01*
X155000Y159000D01*
X139000Y143000D01*
Y130059D01*
X128000D01*
X127704Y130000D01*
X124000D01*
Y125000D01*
X103000D01*
Y120000D01*
X101500D01*
Y105000D01*
X102941D01*
Y78000D01*
X103000Y77705D01*
Y73000D01*
X181000D01*
Y76704D01*
X181059Y77000D01*
Y89941D01*
X212000D01*
Y3000D01*
X90000Y3000D01*
X90000Y46000D01*
X51898Y46000D01*
X51000Y46898D01*
X51000Y82000D01*
X84000Y82000D01*
Y82500D01*
X84000D01*
Y88674D01*
X93163Y97837D01*
X93819Y98819D01*
X95000Y100000D01*
X95000Y125000D01*
X91296D01*
X91000Y125059D01*
X50000D01*
X48829Y124826D01*
X47837Y124163D01*
X47837Y124163D01*
X38733Y115059D01*
X2000D01*
X2000Y115059D01*
X2000Y241000D01*
X53000D01*
X53000Y224000D01*
D02*
G37*
G36*
X150000Y101000D02*
X142321D01*
X141600Y101095D01*
X140879Y101000D01*
X126000D01*
Y78000D01*
X106000D01*
Y119000D01*
X128000D01*
Y127000D01*
X150000D01*
Y101000D01*
D02*
G37*
G36*
X91000Y100000D02*
X80000Y89000D01*
X2000D01*
Y112000D01*
X40000D01*
X50000Y122000D01*
X91000D01*
Y100000D01*
D02*
G37*
G36*
X190000Y117000D02*
Y105000D01*
X190000Y105000D01*
X215000D01*
Y93000D01*
X178000D01*
Y77000D01*
X158000D01*
Y100000D01*
X164000D01*
Y113409D01*
X164118Y114000D01*
Y122118D01*
X168000Y126000D01*
X190000D01*
X190000Y117000D01*
D02*
G37*
G36*
X430000Y85000D02*
X434000Y81000D01*
X451000D01*
Y70521D01*
X415000D01*
Y108000D01*
X407000Y116000D01*
Y135000D01*
X430000D01*
Y85000D01*
D02*
G37*
G36*
X432000Y43000D02*
X439000Y36000D01*
Y16000D01*
X398000Y16000D01*
X395049Y18951D01*
X395059Y19000D01*
X395059Y19000D01*
Y40000D01*
X395059Y40000D01*
X395000Y40295D01*
X395000Y67000D01*
X413000D01*
Y66500D01*
X428000D01*
Y67000D01*
X432000D01*
X432000Y43000D01*
D02*
G37*
G36*
X338000Y63898D02*
X337102Y63000D01*
X328000Y63000D01*
X321000Y56000D01*
Y38000D01*
X315000Y32000D01*
Y14000D01*
X294000D01*
Y59000D01*
X311000Y59000D01*
X311000Y60750D01*
X311250Y61000D01*
X311250D01*
Y69250D01*
X315000Y73000D01*
X338000D01*
Y63898D01*
D02*
G37*
G36*
X489000Y92000D02*
Y46000D01*
X487000Y44000D01*
X477000D01*
X475000Y46000D01*
Y95000D01*
X477000Y97000D01*
X484000D01*
X489000Y92000D01*
D02*
G37*
G36*
X365000Y15000D02*
X347000D01*
X345000Y17000D01*
Y40000D01*
X324059D01*
Y53000D01*
X365000D01*
Y15000D01*
D02*
G37*
G36*
X344000Y90000D02*
X358000D01*
Y89500D01*
X371000D01*
Y90000D01*
X374000D01*
X386000Y78000D01*
Y69000D01*
X389000Y66000D01*
Y43000D01*
X392000Y40000D01*
Y19000D01*
X387078Y14078D01*
X373922D01*
X371000Y17000D01*
Y38000D01*
X375000Y42000D01*
Y74000D01*
X371638Y77362D01*
X370326Y79326D01*
X368362Y80638D01*
X367000Y82000D01*
X323000D01*
Y93000D01*
X341000D01*
X344000Y90000D01*
D02*
G37*
G36*
X39000Y47000D02*
X49000Y37000D01*
X80000D01*
Y4000D01*
Y3000D01*
X5000D01*
Y73000D01*
X39000D01*
Y47000D01*
D02*
G37*
D10*
X76150Y241000D02*
X78150Y243000D01*
X90500Y237000D02*
Y239000D01*
X87500Y242000D02*
X90500Y239000D01*
X86743Y242000D02*
X87500D01*
X85743Y243000D02*
X86743Y242000D01*
X78150Y243000D02*
X85743D01*
X61250Y243750D02*
Y248250D01*
X64000Y241000D02*
X76150D01*
X61250Y243750D02*
X64000Y241000D01*
X60625Y248875D02*
X61250Y248250D01*
X602500Y261500D02*
X667500D01*
X602500Y259500D02*
Y261500D01*
Y259500D02*
X607000Y255000D01*
X600782Y261218D02*
X602500Y259500D01*
X599452Y261218D02*
X600782D01*
X108458Y371856D02*
X140388D01*
X142928Y369316D01*
X144706Y371094D01*
X146000Y369800D01*
X255500Y380250D02*
X285500Y410250D01*
Y420000D01*
X322000Y388000D02*
Y420000D01*
X291000Y357000D02*
X322000Y388000D01*
X269250Y423750D02*
X282500Y437000D01*
X255500Y395750D02*
X269250Y409500D01*
X282500Y437000D02*
Y440000D01*
X269250Y409500D02*
Y423750D01*
X328500Y320500D02*
X383000Y375000D01*
X365760Y508000D02*
X383000Y490760D01*
Y375000D02*
Y490760D01*
X340360Y508000D02*
Y510000D01*
X322860Y527500D02*
X340360Y510000D01*
X213000Y527500D02*
X322860D01*
X408000Y316000D02*
X449000D01*
X474250Y341250D02*
Y443500D01*
X449000Y316000D02*
X474250Y341250D01*
X406000Y331000D02*
X430000D01*
X458250Y359250D02*
Y453250D01*
X430000Y331000D02*
X458250Y359250D01*
X405000Y346000D02*
X417000D01*
X439000Y368000D02*
Y462500D01*
X417000Y346000D02*
X439000Y368000D01*
Y462500D02*
X457200Y480700D01*
X416000Y507440D02*
X416560Y508000D01*
X416000Y373000D02*
Y507440D01*
X345000Y302000D02*
X416000Y373000D01*
X356000Y297000D02*
X405000Y346000D01*
X367000Y292000D02*
X406000Y331000D01*
X377000Y285000D02*
X408000Y316000D01*
X356000Y248000D02*
Y297000D01*
X315850Y201930D02*
Y207448D01*
X319729Y211327D01*
Y211729D01*
X356000Y248000D01*
X303000Y140280D02*
Y180250D01*
X290450Y127730D02*
X303000Y140280D01*
X299417Y206417D02*
X345000Y252000D01*
Y302000D01*
X290450Y201930D02*
X294937Y206417D01*
X299417D01*
X335500Y252808D02*
Y308500D01*
X304692Y222000D02*
X335500Y252808D01*
X304000Y222000D02*
X304692D01*
X256000Y214000D02*
X278000Y236000D01*
X285000Y251000D02*
Y327000D01*
X278000Y236000D02*
Y244000D01*
X285000Y251000D01*
Y327000D02*
X333000Y375000D01*
X256000Y186000D02*
Y214000D01*
X242000Y237500D02*
Y255500D01*
X241500Y255000D02*
X242000Y255500D01*
X241500Y239000D02*
Y255000D01*
X268000Y451000D02*
X289560Y472560D01*
X179500Y440500D02*
X190000Y451000D01*
X268000D01*
X289560Y472560D02*
Y506000D01*
X333000Y375000D02*
Y462560D01*
X272450Y215450D02*
X307000Y250000D01*
Y329000D02*
X347000Y369000D01*
X307000Y250000D02*
Y329000D01*
X347000Y369000D02*
Y464000D01*
X315743Y495257D02*
X347000Y464000D01*
X315000Y398000D02*
Y429000D01*
X285000Y368000D02*
X315000Y398000D01*
X278450Y211450D02*
X315000Y248000D01*
Y326750D02*
X354000Y365750D01*
X315000Y248000D02*
Y326750D01*
X278450Y192550D02*
Y211450D01*
X272450Y122550D02*
Y215450D01*
X283070Y187930D02*
X329570D01*
X278450Y192550D02*
X283070Y187930D01*
X265000Y116000D02*
Y177000D01*
X256000Y186000D02*
X265000Y177000D01*
X245000Y172000D02*
X253000Y164000D01*
Y157500D02*
Y164000D01*
X543000Y254180D02*
Y425407D01*
X578593Y461000D01*
X529000Y242780D02*
Y422000D01*
X577500Y470500D02*
X584750D01*
X529000Y422000D02*
X577500Y470500D01*
X367000Y245250D02*
Y292000D01*
X529000Y242780D02*
X569850Y201930D01*
X543000Y254180D02*
X595250Y201930D01*
X515000Y231380D02*
X544450Y201930D01*
X515000Y424000D02*
X566000Y475000D01*
X515000Y231380D02*
Y424000D01*
X501000Y219980D02*
X519050Y201930D01*
X501000Y428000D02*
X551000Y478000D01*
X501000Y219980D02*
Y428000D01*
X487000Y214098D02*
X493650Y207448D01*
X487000Y434000D02*
X533400Y480400D01*
X487000Y214098D02*
Y434000D01*
X335500Y308500D02*
X397000Y370000D01*
X391160Y503583D02*
Y508000D01*
X397000Y370000D02*
Y497743D01*
X391160Y503583D02*
X397000Y497743D01*
X377000Y212280D02*
Y285000D01*
X341250Y219500D02*
X367000Y245250D01*
X366650Y201930D02*
X377000Y212280D01*
X328500Y255000D02*
Y320500D01*
X581000Y231000D02*
X604500D01*
X556000Y256000D02*
X581000Y231000D01*
X556000Y256000D02*
Y401000D01*
X569850Y201930D02*
Y201930D01*
X493650Y201930D02*
Y207448D01*
X584750Y470500D02*
X586750Y472500D01*
X566000Y475000D02*
Y487800D01*
X584200Y506000D01*
X558800Y506408D02*
Y508000D01*
X551000Y498608D02*
X558800Y506408D01*
X551000Y478000D02*
Y498608D01*
X533400Y480400D02*
Y508000D01*
X634500Y452000D02*
X636250Y453750D01*
X622500Y452000D02*
X634500D01*
X622250Y451750D02*
X622500Y452000D01*
X636000Y428500D02*
X636500Y428000D01*
X652200D02*
X662000Y418200D01*
X636500Y428000D02*
X652200D01*
X583000Y374000D02*
X583000D01*
X574500Y364000D02*
Y367000D01*
X576500Y369000D02*
X578000D01*
X574500Y367000D02*
X576500Y369000D01*
X578000D02*
X583000Y374000D01*
X583000D02*
X591000Y382000D01*
X606500Y226000D02*
Y229000D01*
X604500Y231000D02*
X606500Y229000D01*
Y223000D02*
Y226000D01*
X628192Y241365D02*
Y242000D01*
Y242635D01*
X645375Y240375D02*
X647000Y238750D01*
X607000Y255000D02*
X615827D01*
X628192Y242635D01*
X647000Y238750D02*
Y238750D01*
X629182Y240375D02*
X645375D01*
X628192Y241365D02*
X629182Y240375D01*
X647000Y238750D02*
X649000D01*
X669375Y238625D02*
X669500Y238500D01*
X667250Y186500D02*
X669500D01*
X671500Y170000D02*
Y184500D01*
X669500Y186500D02*
X671500Y184500D01*
X671000Y161000D02*
X671250Y161250D01*
Y169750D01*
X600000Y59979D02*
X634579Y25400D01*
X635000D01*
X600000Y59979D02*
Y90750D01*
X649125Y238625D02*
X669375D01*
X671250Y169750D02*
X671500Y170000D01*
X657000Y181800D02*
X660750Y178050D01*
Y171250D02*
X662000Y170000D01*
X660750Y171250D02*
Y178050D01*
X649000Y204500D02*
Y219750D01*
X649000Y204500D02*
X657000Y196500D01*
Y181800D02*
Y196500D01*
X647000Y204500D02*
X649000D01*
X287000Y108000D02*
X350920D01*
X272450Y122550D02*
X287000Y108000D01*
X350920D02*
X366650Y123730D01*
X481993Y137993D02*
X489000Y145000D01*
X651250D01*
X632000Y152000D02*
X645750D01*
X620650Y163350D02*
X632000Y152000D01*
X512000Y29400D02*
Y97000D01*
X493650Y125730D02*
X495299Y124081D01*
Y113701D02*
Y124081D01*
Y113701D02*
X512000Y97000D01*
X481993Y107007D02*
X496000Y93000D01*
X481993Y107007D02*
Y137993D01*
X496000Y46000D02*
Y93000D01*
X508000Y25400D02*
X512000Y29400D01*
X533400Y25400D02*
Y92600D01*
X519050Y106950D02*
Y125730D01*
Y106950D02*
X533400Y92600D01*
X162000Y207000D02*
Y243946D01*
X164750Y246696D01*
Y256750D01*
X166000Y258000D01*
X289560Y506000D02*
X333000Y462560D01*
X314960Y508000D02*
X315743Y507217D01*
Y495257D02*
Y507217D01*
X340360Y490640D02*
X354000Y477000D01*
Y365750D02*
Y477000D01*
X340360Y490640D02*
Y508000D01*
X424500Y208980D02*
Y229000D01*
X417450Y201930D02*
X424500Y208980D01*
Y229000D02*
X426500Y231000D01*
X265000Y116000D02*
X282000Y99000D01*
X483000Y21000D02*
Y33000D01*
X343600Y10000D02*
X472000D01*
X483000Y21000D01*
Y33000D02*
X496000Y46000D01*
X330200Y23400D02*
X343600Y10000D01*
X330200Y23400D02*
Y25400D01*
X547000Y56000D02*
Y115473D01*
X558800Y25400D02*
Y44200D01*
X547000Y56000D02*
X558800Y44200D01*
X569850Y54150D02*
Y125730D01*
Y54150D02*
X584200Y39800D01*
X544450Y125730D02*
X546937Y123243D01*
Y115535D02*
Y123243D01*
Y115535D02*
X547000Y115473D01*
X589000Y55000D02*
Y115473D01*
X607261Y27739D02*
X609600Y25400D01*
X589000Y55000D02*
X607261Y36739D01*
Y27739D02*
Y36739D01*
X595250Y121723D02*
Y125730D01*
X589000Y115473D02*
X595250Y121723D01*
X600000Y90750D02*
X620650Y111400D01*
X584200Y25400D02*
Y39800D01*
X224000Y108000D02*
X226568Y105432D01*
Y101500D02*
Y105432D01*
Y101500D02*
X229568Y98500D01*
X224000Y108000D02*
X224000D01*
X220000Y112000D02*
X224000Y108000D01*
X229568Y98500D02*
X250750D01*
X220000Y112000D02*
Y143000D01*
X217500Y145500D02*
X220000Y143000D01*
X49245Y194000D02*
X57050D01*
X48745Y194500D02*
X49245Y194000D01*
X57050D02*
X64050Y187000D01*
X75550D01*
X86500Y176050D01*
X89000Y342000D02*
X126000D01*
X66000Y365000D02*
X89000Y342000D01*
X49000Y365000D02*
X66000D01*
X50800Y341998D02*
X68002D01*
X90000Y320000D01*
X112000D01*
X65000Y356000D02*
X93000Y328000D01*
X112000D01*
X60002Y329998D02*
X68000Y322000D01*
X78179D01*
X88179Y312000D01*
X80000Y313000D02*
X89000Y304000D01*
X50800Y316598D02*
X53479Y313920D01*
X58638D01*
X59557Y313000D01*
X80000D01*
X89000Y304000D02*
X112000D01*
X78500Y304250D02*
X86750Y296000D01*
X37748Y304250D02*
X78500D01*
X37400Y329998D02*
X60002D01*
X50800Y472440D02*
X90240Y433000D01*
X167250Y431000D02*
X169500D01*
X165250Y433000D02*
X167250Y431000D01*
X90240Y433000D02*
X165250D01*
X169500Y440500D02*
X179500D01*
X218000Y403000D02*
X227000D01*
X200432Y385432D02*
X218000Y403000D01*
X220750Y395750D02*
X239500D01*
X179000Y366000D02*
X191000D01*
X220750Y395750D01*
X166807Y342807D02*
Y353807D01*
X179000Y366000D01*
X256000Y420000D02*
X258000Y422000D01*
Y437250D02*
X258750Y438000D01*
X258000Y422000D02*
Y437250D01*
X223000Y368000D02*
X285000D01*
X225000Y357000D02*
X291000D01*
X203000Y348000D02*
X223000Y368000D01*
X183250Y348000D02*
X203000D01*
X180050Y355250D02*
X192250D01*
X217250Y380250D01*
X239500D01*
X201307Y333307D02*
X225000Y357000D01*
X196000Y328000D02*
X200057D01*
X201307Y329250D01*
Y333307D01*
X38500Y375500D02*
Y396900D01*
Y375500D02*
X49000Y365000D01*
X39000Y356000D02*
X65000D01*
X25600Y369400D02*
X39000Y356000D01*
X25600Y369400D02*
Y384000D01*
X115000Y459000D02*
X267250D01*
X89500Y484500D02*
X115000Y459000D01*
X267250D02*
X282000Y473750D01*
X126750Y465250D02*
X177750D01*
X199813Y487313D01*
X82160Y509840D02*
X126750Y465250D01*
X206000Y145500D02*
X217500D01*
X205500Y146000D02*
X206000Y145500D01*
X157000Y257000D02*
X158000Y258000D01*
X157000Y233000D02*
Y257000D01*
X154000Y230000D02*
X157000Y233000D01*
X154000Y200000D02*
Y230000D01*
X578000Y434000D02*
X600250D01*
X608500Y442250D01*
X571250Y438000D02*
X582250Y449000D01*
X571250Y421250D02*
Y438000D01*
X582000Y409000D02*
X595000D01*
X629600Y443600D01*
X556000Y401000D02*
X566000Y411000D01*
X199813Y514313D02*
X213000Y527500D01*
X28500Y255000D02*
Y256000D01*
Y255000D02*
X30500Y253000D01*
X49250D02*
X50500Y251750D01*
Y249500D02*
Y251750D01*
X30500Y253000D02*
X49250D01*
X50500Y248250D02*
X60000D01*
X9500Y256000D02*
X9750Y256250D01*
Y270923D01*
X8750Y256750D02*
X9500Y256000D01*
X14327Y275500D02*
X29000D01*
X9750Y270923D02*
X14327Y275500D01*
X110750Y272000D02*
X112000D01*
X86500Y167000D02*
Y176050D01*
X645750Y152000D02*
X652500Y145250D01*
X620650Y163350D02*
Y201930D01*
X652500Y143000D02*
Y145250D01*
X200000Y413257D02*
Y420250D01*
Y413257D02*
X201757Y411500D01*
X231500D01*
X282000Y473750D02*
Y487000D01*
X174932Y385432D02*
X200432D01*
X198750Y421500D02*
X200000Y420250D01*
X196500Y421500D02*
X198750D01*
X173000Y383500D02*
X174932Y385432D01*
X50800Y497840D02*
X62800Y509840D01*
X82160D01*
X251500Y314500D02*
X252000D01*
X243500Y323000D02*
Y344000D01*
Y323000D02*
X252000Y314500D01*
X199813Y487313D02*
Y514313D01*
X231500Y411500D02*
X240000Y420000D01*
X25400Y472440D02*
X37460Y484500D01*
X89500D01*
X620650Y111400D02*
Y125730D01*
X649000Y238750D02*
X649125Y238625D01*
X107500Y358000D02*
X125200D01*
X132750Y350450D01*
Y343250D02*
Y350450D01*
Y343250D02*
X134000Y342000D01*
X51000Y384000D02*
X62750Y372250D01*
X71179D01*
X80429Y363000D01*
X86500D01*
X88500Y361000D01*
Y358000D02*
Y361000D01*
X98500Y375000D02*
X98750Y375250D01*
X98500Y374250D02*
Y375000D01*
X98750Y375250D02*
X105875Y382375D01*
X153375D02*
X160500Y389500D01*
X105875Y382375D02*
X153375D01*
X160500Y389500D02*
Y408100D01*
X146000Y420600D02*
X148000D01*
X160500Y408100D01*
X87150Y394750D02*
X145550D01*
X76400Y384000D02*
X87150Y394750D01*
X145550D02*
X146000Y395200D01*
X150750Y351750D02*
X173000Y374000D01*
X150000Y342000D02*
X150750Y342750D01*
Y351750D01*
X173000Y374000D02*
Y383500D01*
X166000Y342000D02*
X166807Y342807D01*
X110750Y270750D02*
X112000Y272000D01*
X110750Y262750D02*
Y270750D01*
X232500Y136500D02*
X248000D01*
X250000Y138500D01*
X253000D01*
X205500Y146000D02*
Y155500D01*
X267500Y87000D02*
Y88500D01*
X265500Y90500D02*
X267500Y88500D01*
X258750Y90500D02*
X265500D01*
X250750Y98500D02*
X258750Y90500D01*
X271000Y67500D02*
X274000D01*
X284500Y78000D01*
Y85000D01*
X286500Y87000D01*
X243500Y76500D02*
X259000D01*
X268000Y67500D01*
X271000D01*
X243500Y11500D02*
Y76500D01*
X392050Y123152D02*
Y125730D01*
X383500Y114602D02*
X392050Y123152D01*
X383500Y99000D02*
Y114602D01*
X68750Y209000D02*
X84500D01*
X66750Y207000D02*
X68750Y209000D01*
X49245Y207000D02*
X66750D01*
X86500Y211000D02*
Y214000D01*
X84500Y209000D02*
X86500Y211000D01*
X60500Y201500D02*
X67500Y194500D01*
X84500Y194250D02*
X86500Y192250D01*
Y191000D02*
Y192250D01*
X69250Y194250D02*
X84500D01*
X69000Y194500D02*
X69250Y194250D01*
X105500Y191000D02*
X106000Y190500D01*
X115250D01*
X105500Y214000D02*
X105750Y214250D01*
X113750D01*
X48745Y207500D02*
X49245Y207000D01*
X55752Y201500D02*
X55752Y201500D01*
X60500D01*
X48745Y201000D02*
X49245Y201500D01*
X55752D01*
X69500Y276500D02*
X70500Y275500D01*
X91000D01*
X97500Y272000D02*
X110750D01*
X94000Y275500D02*
X97500Y272000D01*
X91000Y275500D02*
X94000D01*
X249000Y262500D02*
X252000Y265500D01*
X242000Y255500D02*
X249000Y262500D01*
X242000Y237500D02*
X243500Y236000D01*
X220000Y262500D02*
X249000D01*
X196000Y272000D02*
X208000D01*
X215000Y265000D01*
Y264500D02*
Y265000D01*
Y264500D02*
X217000Y262500D01*
X220000D01*
Y281500D02*
X223000D01*
X240500Y299000D01*
Y303500D01*
X251500Y314500D01*
X196000Y280000D02*
X196750Y280750D01*
X219250D01*
X220000Y281500D01*
X175250Y350450D02*
X180050Y355250D01*
X174000Y342000D02*
X175250Y343250D01*
Y350450D01*
X182000Y342000D02*
Y346750D01*
X183250Y348000D01*
X25400Y316598D02*
X37748Y304250D01*
X86750Y296000D02*
X112000D01*
X88179Y312000D02*
X112000D01*
X25400Y341998D02*
X37400Y329998D01*
X38500Y396900D02*
X51000Y409400D01*
X289560Y506000D02*
Y508000D01*
X169500Y431000D02*
Y440500D01*
X442500Y252000D02*
Y267500D01*
X458500Y283500D01*
Y284000D01*
X442500Y250000D02*
Y252000D01*
X426500Y234000D02*
X442500Y250000D01*
X426500Y231000D02*
Y234000D01*
X405500Y217380D02*
Y229000D01*
X392050Y203930D02*
X405500Y217380D01*
X392050Y201930D02*
Y203930D01*
X423500Y250000D02*
Y252000D01*
X407500Y234000D02*
X423500Y250000D01*
X407500Y231000D02*
Y234000D01*
X405500Y229000D02*
X407500Y231000D01*
X409500Y266500D02*
Y284000D01*
Y266500D02*
X419000Y257000D01*
X420500D01*
X423500Y254000D01*
Y252000D02*
Y254000D01*
X636500Y472750D02*
X658250D01*
X662000Y469000D01*
X611500Y473250D02*
Y482500D01*
X599250Y461000D02*
X611500Y473250D01*
X629600Y443600D02*
X662000D01*
X606500Y223000D02*
X614150Y215350D01*
Y208430D02*
Y215350D01*
Y208430D02*
X620650Y201930D01*
X458250Y453250D02*
X482600Y477600D01*
X608500Y442250D02*
Y453500D01*
X582250Y449000D02*
Y452000D01*
X578593Y461000D02*
X599250D01*
X582250Y452000D02*
X583750Y453500D01*
X586750D01*
X341250Y201930D02*
Y219500D01*
X315850Y125730D02*
Y127730D01*
X328750Y140630D01*
Y171750D01*
X341250Y125730D02*
Y176250D01*
X329570Y187930D02*
X341250Y176250D01*
X290450Y125730D02*
Y127730D01*
X282000Y99000D02*
X364500D01*
X366650Y123730D02*
Y125730D01*
X457200Y480700D02*
Y508000D01*
X482600Y477600D02*
Y508000D01*
X474250Y443500D02*
X508000Y477250D01*
Y508000D01*
X586750Y472500D02*
Y483150D01*
X609600Y506000D01*
X635000D02*
Y508000D01*
X611500Y482500D02*
X635000Y506000D01*
X609600D02*
Y508000D01*
X584200Y506000D02*
Y508000D01*
D11*
X125500Y212000D02*
X125875Y212375D01*
Y232625D01*
X126250Y233000D01*
X135078Y243172D02*
X135078D01*
X126250Y235000D02*
X128750Y237500D01*
X129407D01*
X126250Y233000D02*
Y235000D01*
X129407Y237500D02*
X135078Y243172D01*
X135078D02*
X141250Y249343D01*
Y257250D01*
X142000Y258000D01*
X442850Y126850D02*
X501000Y185000D01*
X442850Y125730D02*
Y126850D01*
X501000Y185000D02*
X597000D01*
X174000Y286635D02*
X183615Y296250D01*
X196000D01*
X205571D01*
X174000Y273907D02*
X181250Y266657D01*
X174000Y273907D02*
Y286635D01*
X181250Y258750D02*
X182000Y258000D01*
X181250Y258750D02*
Y266657D01*
X208500Y299500D02*
X220000D01*
X205571Y296250D02*
X208500Y299179D01*
Y299500D01*
X174000Y235500D02*
Y258000D01*
X441425Y124305D02*
X442850Y125730D01*
X440000Y99000D02*
X441425Y100425D01*
Y124305D01*
D17*
X205000Y195500D02*
D03*
Y176500D02*
D03*
X442000Y75000D02*
D03*
Y56000D02*
D03*
X197000Y235500D02*
D03*
Y216500D02*
D03*
X111000Y112500D02*
D03*
Y131500D02*
D03*
X208000Y98500D02*
D03*
Y117500D02*
D03*
X220000Y235500D02*
D03*
Y216500D02*
D03*
Y318500D02*
D03*
Y299500D02*
D03*
X174000Y216500D02*
D03*
Y235500D02*
D03*
X25000Y450500D02*
D03*
Y431500D02*
D03*
X636250Y453750D02*
D03*
Y472750D02*
D03*
X301750Y68500D02*
D03*
Y49500D02*
D03*
X356000Y68500D02*
D03*
Y49500D02*
D03*
X218000Y421500D02*
D03*
Y440500D02*
D03*
X228000Y195500D02*
D03*
Y176500D02*
D03*
X647000Y185500D02*
D03*
Y204500D02*
D03*
X231000Y117500D02*
D03*
Y98500D02*
D03*
D18*
X482500Y53000D02*
D03*
X463500D02*
D03*
X482500Y76000D02*
D03*
X463500D02*
D03*
X242500Y485000D02*
D03*
X261500D02*
D03*
X420500Y76000D02*
D03*
X401500D02*
D03*
X575500Y344000D02*
D03*
X594500D02*
D03*
X145250Y233000D02*
D03*
X126250D02*
D03*
X262500Y344000D02*
D03*
X243500D02*
D03*
X260500Y239000D02*
D03*
X241500D02*
D03*
X401500Y56000D02*
D03*
X382500D02*
D03*
X38500Y522000D02*
D03*
X19500D02*
D03*
X442500Y229000D02*
D03*
X461500D02*
D03*
X401500Y99000D02*
D03*
X420500D02*
D03*
X459000D02*
D03*
X440000D02*
D03*
X461500Y252000D02*
D03*
X442500D02*
D03*
X404500D02*
D03*
X423500D02*
D03*
X671500Y125750D02*
D03*
X652500D02*
D03*
X69500Y294000D02*
D03*
X50500D02*
D03*
X109500Y237000D02*
D03*
X90500D02*
D03*
D19*
X158000Y176000D02*
D03*
D20*
X183400Y114000D02*
D03*
X170700D02*
D03*
X158000D02*
D03*
X145300D02*
D03*
X132600D02*
D03*
D21*
X458500Y284000D02*
D03*
X409500D02*
D03*
D22*
X252000Y314500D02*
D03*
Y265500D02*
D03*
D23*
X603808Y242000D02*
D03*
X628192D02*
D03*
D24*
X10000Y296192D02*
D03*
Y271808D02*
D03*
D25*
X73000Y141500D02*
D03*
Y100500D02*
D03*
X72000Y61500D02*
D03*
Y20500D02*
D03*
D26*
X196500Y421500D02*
D03*
Y440500D02*
D03*
X169500Y421500D02*
D03*
Y431000D02*
D03*
Y440500D02*
D03*
X232500Y136500D02*
D03*
Y155500D02*
D03*
X205500Y136500D02*
D03*
Y146000D02*
D03*
Y155500D02*
D03*
D27*
X69500Y276500D02*
D03*
X50500D02*
D03*
X69500Y249500D02*
D03*
X60000D02*
D03*
X50500D02*
D03*
X652500Y143000D02*
D03*
X671500D02*
D03*
X652500Y170000D02*
D03*
X662000D02*
D03*
X671500D02*
D03*
D28*
X22000Y101000D02*
D03*
Y69000D02*
D03*
D29*
X591000Y382000D02*
D03*
X575000D02*
D03*
X256000Y420000D02*
D03*
X240000D02*
D03*
X255500Y395750D02*
D03*
X239500D02*
D03*
X255500Y380250D02*
D03*
X239500D02*
D03*
D30*
X48745Y188000D02*
D03*
Y194500D02*
D03*
Y201000D02*
D03*
Y207500D02*
D03*
Y214000D02*
D03*
D31*
X46495Y233000D02*
D03*
Y169000D02*
D03*
D32*
X21995Y189000D02*
D03*
Y213000D02*
D03*
X243500Y76500D02*
D03*
D33*
X182000Y258000D02*
D03*
X174000D02*
D03*
X166000D02*
D03*
X158000D02*
D03*
X150000D02*
D03*
X142000D02*
D03*
X134000D02*
D03*
X126000D02*
D03*
Y342000D02*
D03*
X134000D02*
D03*
X142000D02*
D03*
X150000D02*
D03*
X158000D02*
D03*
X166000D02*
D03*
X174000D02*
D03*
X182000D02*
D03*
D34*
X112000Y272000D02*
D03*
Y280000D02*
D03*
Y288000D02*
D03*
Y296000D02*
D03*
Y304000D02*
D03*
Y312000D02*
D03*
Y320000D02*
D03*
Y328000D02*
D03*
X196000D02*
D03*
Y320000D02*
D03*
Y312000D02*
D03*
Y304000D02*
D03*
Y296000D02*
D03*
Y288000D02*
D03*
Y280000D02*
D03*
Y272000D02*
D03*
D35*
X173000Y383500D02*
D03*
Y402500D02*
D03*
X92000Y254500D02*
D03*
Y273500D02*
D03*
X220000Y262500D02*
D03*
Y281500D02*
D03*
X608500Y472500D02*
D03*
Y453500D02*
D03*
X586750D02*
D03*
Y472500D02*
D03*
X636000Y428500D02*
D03*
Y409500D02*
D03*
X667250Y205500D02*
D03*
Y186500D02*
D03*
X27000Y273500D02*
D03*
Y292500D02*
D03*
X667500Y219500D02*
D03*
Y238500D02*
D03*
X271000Y67500D02*
D03*
Y48500D02*
D03*
X253000Y157500D02*
D03*
Y138500D02*
D03*
X647000Y219750D02*
D03*
Y238750D02*
D03*
X331000Y68500D02*
D03*
Y87500D02*
D03*
Y68500D02*
D03*
Y49500D02*
D03*
D36*
X304500Y440000D02*
D03*
X285500D02*
D03*
Y420000D02*
D03*
X304500D02*
D03*
X107500Y358000D02*
D03*
X88500D02*
D03*
X105500Y214000D02*
D03*
X86500D02*
D03*
Y191000D02*
D03*
X105500D02*
D03*
Y170000D02*
D03*
X86500D02*
D03*
X383500Y99000D02*
D03*
X364500D02*
D03*
X625500Y226000D02*
D03*
X606500D02*
D03*
X258750Y438000D02*
D03*
X239750D02*
D03*
X424500Y229000D02*
D03*
X405500D02*
D03*
X574500Y364000D02*
D03*
X593500D02*
D03*
X9500Y256000D02*
D03*
X28500D02*
D03*
X286500Y87000D02*
D03*
X267500D02*
D03*
X144500Y212000D02*
D03*
X125500D02*
D03*
D37*
X71750Y225500D02*
D03*
Y210500D02*
D03*
X69000Y179500D02*
D03*
Y194500D02*
D03*
D67*
X243500Y11500D02*
D03*
X198500D02*
D03*
Y76500D02*
D03*
X599452Y261218D02*
D03*
Y306218D02*
D03*
X664452D02*
D03*
D68*
Y261218D02*
D03*
D73*
X107500Y515250D02*
D03*
X668000Y511000D02*
D03*
X669000Y18000D02*
D03*
X221000Y45000D02*
D03*
D74*
X645500Y184000D02*
X647000Y185500D01*
X632000Y184000D02*
X645500D01*
X630000Y182000D02*
X632000Y184000D01*
X366000Y386000D02*
X375000Y395000D01*
Y487000D01*
X73250Y227000D02*
X81000Y234750D01*
X71750Y225500D02*
X73250D01*
X81000Y234750D02*
Y235000D01*
X73250Y225500D02*
Y227000D01*
X69500Y249500D02*
Y250750D01*
X69750Y251000D01*
X79000D01*
X150257Y192000D02*
X171426D01*
X144500Y197757D02*
X150257Y192000D01*
X144500Y197757D02*
Y212000D01*
X171426Y192000D02*
X172720Y193294D01*
X457630Y80870D02*
X463000Y75500D01*
X457630Y97630D02*
X459000Y99000D01*
X457630Y85834D02*
Y97630D01*
Y80870D02*
Y85834D01*
X250444Y226944D02*
X260500Y237000D01*
X250444Y226822D02*
Y226944D01*
X304500Y420000D02*
Y440000D01*
Y419500D02*
Y420000D01*
X304000Y419000D02*
X304500Y419500D01*
X295000Y419000D02*
X304000D01*
X217867Y438633D02*
X228367D01*
X233250Y432000D02*
X239500Y438250D01*
X216000Y440500D02*
X217867Y438633D01*
X26000Y294500D02*
X50000D01*
X49750Y277117D02*
X50500Y276367D01*
X41117Y277117D02*
X49750D01*
X41000Y277000D02*
X41117Y277117D01*
X158000Y152000D02*
X173000D01*
X145393Y139393D02*
X158000Y152000D01*
X173000D02*
X184750Y163750D01*
X260500Y237000D02*
Y239000D01*
X228250Y195750D02*
X240750D01*
X670000Y85800D02*
Y124500D01*
X660400Y76200D02*
X670000Y85800D01*
Y124500D02*
X671500Y126000D01*
X631000Y170000D02*
X652500D01*
X653250Y169250D01*
X463000Y75500D02*
X463500Y76000D01*
X455000Y149000D02*
Y165000D01*
X468250Y178250D01*
Y207177D01*
X401500Y76000D02*
Y87500D01*
Y99000D01*
X356000Y68500D02*
X362500Y75000D01*
X366000D01*
X443000Y43000D02*
Y55000D01*
X442000Y56000D02*
X443000Y55000D01*
X242500Y483000D02*
Y485000D01*
X241000Y481500D02*
X242500Y483000D01*
X239000Y481500D02*
X241000D01*
X233500Y476000D02*
X239000Y481500D01*
X222000Y476000D02*
X233500D01*
X274000Y48500D02*
X286250Y60750D01*
Y68500D01*
X271000Y48500D02*
X274000D01*
X194000Y135000D02*
X204000D01*
X168000D02*
X194000D01*
X158000Y125000D02*
X168000Y135000D01*
X204000D02*
X205500Y136500D01*
X150000Y258000D02*
Y272000D01*
X150000Y258000D02*
X150000Y258000D01*
X150000Y239750D02*
Y258000D01*
X146750Y234500D02*
Y236500D01*
X150000Y239750D01*
X145250Y233000D02*
X146750Y234500D01*
X459000Y99000D02*
Y114500D01*
X468250Y123750D01*
Y125730D01*
X405000Y251000D02*
X405250Y251250D01*
X404000Y252000D02*
X405000Y251000D01*
X442675Y199755D02*
Y228825D01*
X196750Y216750D02*
X197000Y217000D01*
Y216500D02*
Y217000D01*
Y206000D02*
Y216500D01*
X205000Y176500D02*
X228000D01*
X203000D02*
X205000D01*
X50500Y276500D02*
Y294000D01*
Y276367D02*
Y276500D01*
X92000Y254500D02*
X92000D01*
X89000D02*
X92000D01*
X92000Y254500D01*
X81500Y265000D02*
X92000Y254500D01*
X182000Y253750D02*
Y258000D01*
Y253750D02*
X192500Y243250D01*
Y238000D02*
Y243250D01*
X182750Y284071D02*
X186679Y288000D01*
X196000D01*
X182750Y276500D02*
Y284071D01*
X185500Y209929D02*
Y226000D01*
X174000Y235500D02*
X175500Y234000D01*
X184750Y209179D02*
X185500Y209929D01*
X175500Y234000D02*
X177500D01*
X185500Y226000D01*
X184750Y163750D02*
Y209179D01*
X145393Y114093D02*
Y139393D01*
X145300Y114000D02*
X145393Y114093D01*
X201500Y167500D02*
Y175000D01*
X162000Y143000D02*
X177000D01*
X201500Y167500D01*
X158000Y114000D02*
Y125000D01*
X201500Y175000D02*
X203000Y176500D01*
X238760Y490740D02*
X242500Y487000D01*
Y485000D02*
Y487000D01*
X238760Y490740D02*
Y508000D01*
X230000Y432000D02*
X233250D01*
X230000D02*
Y437000D01*
X228367Y438633D02*
X230000Y437000D01*
X196500Y440500D02*
X216000D01*
X50500Y273000D02*
Y276367D01*
X50000Y294500D02*
X50500Y294000D01*
X10000Y296192D02*
X24308D01*
X26000Y294500D01*
X58500Y265000D02*
X81500D01*
X50500Y273000D02*
X58500Y265000D01*
X174000Y205000D02*
Y216500D01*
X196750Y216750D02*
X197000Y216500D01*
X391000Y252000D02*
X404000D01*
X404500D02*
X405250Y251250D01*
X247125Y117375D02*
X247250Y117250D01*
X231125Y117375D02*
X247125D01*
X231000Y117500D02*
X231125Y117375D01*
X302000Y68750D02*
Y84000D01*
X301750Y68500D02*
X302000Y68750D01*
X205500Y120000D02*
Y136500D01*
Y120000D02*
X208000Y117500D01*
X100000Y237000D02*
X109500D01*
X262500Y344000D02*
X279000D01*
X220000Y309000D02*
Y318500D01*
X217750Y421250D02*
X218000Y421500D01*
X208250Y421250D02*
X217750D01*
X208000Y421000D02*
X208250Y421250D01*
X216000Y421500D02*
X218000D01*
X264000Y507840D02*
X264160Y508000D01*
X261500Y485000D02*
X264000Y487500D01*
Y507840D01*
X38500Y522000D02*
X55000D01*
X180500Y421500D02*
X200000Y402000D01*
X205000D01*
X169500Y421500D02*
X180500D01*
X173000Y402500D02*
X187500D01*
X187750Y402750D01*
X25000Y450500D02*
X27500Y448000D01*
X63000D01*
X228000Y195500D02*
X228250Y195750D01*
X220000Y226000D02*
Y235500D01*
X264160Y508000D02*
Y510000D01*
X239500Y438250D02*
X239750Y438000D01*
X38000Y521500D02*
X38500Y522000D01*
X442500Y229000D02*
Y231000D01*
X459000Y247500D01*
Y249500D01*
X461500Y252000D01*
X442500Y229000D02*
X442675Y228825D01*
X220000Y235500D02*
X222000D01*
X72000Y291000D02*
X82500D01*
X69500Y293500D02*
Y294000D01*
Y293500D02*
X72000Y291000D01*
X19500Y520000D02*
Y522000D01*
Y520000D02*
X25400Y514100D01*
Y497840D02*
Y514100D01*
X228000Y176500D02*
X228000Y176500D01*
X232500Y155500D02*
Y174000D01*
X230000Y176500D02*
X232500Y174000D01*
X228000Y176500D02*
X230000D01*
X463375Y52875D02*
X463500Y53000D01*
X463375Y43375D02*
Y52875D01*
X463250Y43250D02*
X463375Y43375D01*
X461500Y213927D02*
Y229000D01*
Y213927D02*
X468250Y207177D01*
X207000Y195500D02*
X214867Y203367D01*
X205000Y195500D02*
X207000D01*
X214867Y203367D02*
Y204867D01*
X215250Y205250D01*
X215500Y205500D02*
Y214000D01*
X218000Y216500D02*
X220000D01*
X215500Y214000D02*
X218000Y216500D01*
X215250Y205250D02*
X215500Y205500D01*
X197000Y235500D02*
X199000D01*
X215500Y219000D01*
Y219000D02*
Y219000D01*
Y219000D02*
X218000Y216500D01*
X192500Y238000D02*
X195000Y235500D01*
X197000D01*
D75*
X60000Y221798D02*
Y233000D01*
X59690Y221488D02*
X60000Y221798D01*
X48745Y214000D02*
X54742D01*
X59499Y218757D01*
Y221297D01*
X59690Y221488D01*
D76*
X667996Y286004D02*
X680250Y273750D01*
X583000Y286004D02*
X667996D01*
X583000D02*
Y334500D01*
Y246686D02*
Y286004D01*
X680250Y220000D02*
Y273750D01*
X587314Y357814D02*
X587314D01*
X591000Y361500D02*
X593000D01*
X575500Y344000D02*
X576000Y344500D01*
Y346500D01*
X587314Y357814D01*
X587314D02*
X591000Y361500D01*
X575500Y342000D02*
Y344000D01*
Y342000D02*
X583000Y334500D01*
X603808Y242000D02*
X613484D01*
X587686D02*
X603808D01*
X583000Y246686D02*
X587686Y242000D01*
X613484D02*
X625500Y229984D01*
Y226000D02*
Y229984D01*
X680250Y206000D02*
Y220000D01*
Y151500D02*
Y206000D01*
X667250Y205500D02*
X667750Y206000D01*
X680250D01*
X667500Y219500D02*
X668000Y220000D01*
X680250D01*
X671500Y143000D02*
X671750D01*
X680250Y151500D01*
X656750Y132000D02*
X658265D01*
X671250Y143000D02*
X671500D01*
X666500Y138250D02*
X671250Y143000D01*
X664515Y138250D02*
X666500D01*
X658265Y132000D02*
X664515Y138250D01*
X652500Y125750D02*
Y127750D01*
X656750Y132000D01*
D77*
X611000Y71000D02*
Y89025D01*
Y61000D02*
Y71000D01*
Y89025D02*
X646225Y124250D01*
D78*
X152400Y508000D02*
D03*
D79*
X187960D02*
D03*
X213360D02*
D03*
X238760D02*
D03*
X264160D02*
D03*
X289560D02*
D03*
X314960D02*
D03*
X340360D02*
D03*
X365760D02*
D03*
X391160D02*
D03*
X457200Y25400D02*
D03*
X431800D02*
D03*
X406400D02*
D03*
X381000D02*
D03*
X355600D02*
D03*
X330200D02*
D03*
X304800D02*
D03*
X457200Y508000D02*
D03*
X482600D02*
D03*
X508000D02*
D03*
X533400D02*
D03*
X558800D02*
D03*
X584200D02*
D03*
X609600D02*
D03*
X533400Y25400D02*
D03*
X558800D02*
D03*
X584200D02*
D03*
X609600D02*
D03*
X635000D02*
D03*
X167000Y88000D02*
D03*
X141600D02*
D03*
X595250Y201930D02*
D03*
X569850D02*
D03*
X544450D02*
D03*
X519050D02*
D03*
X493650D02*
D03*
X468250D02*
D03*
X442850D02*
D03*
X417450D02*
D03*
X392050D02*
D03*
X366650D02*
D03*
X341250D02*
D03*
X315850D02*
D03*
X290450D02*
D03*
X620650Y125730D02*
D03*
X595250D02*
D03*
X569850D02*
D03*
X544450D02*
D03*
X519050D02*
D03*
X493650D02*
D03*
X468250D02*
D03*
X442850D02*
D03*
X417450D02*
D03*
X392050D02*
D03*
X366650D02*
D03*
X341250D02*
D03*
X315850D02*
D03*
X290450D02*
D03*
D80*
X416560Y508000D02*
D03*
X279400Y25400D02*
D03*
X635000Y508000D02*
D03*
X508000Y25400D02*
D03*
X116200Y88000D02*
D03*
X620650Y201930D02*
D03*
D81*
X22000Y138000D02*
D03*
X21000Y31000D02*
D03*
D82*
X139700Y25400D02*
D03*
X660400Y76200D02*
D03*
Y355600D02*
D03*
D83*
X146000Y369800D02*
D03*
Y395200D02*
D03*
Y420600D02*
D03*
X662000Y418200D02*
D03*
Y443600D02*
D03*
D84*
X146000Y446000D02*
D03*
X662000Y469000D02*
D03*
D85*
X76200Y497840D02*
D03*
X50800D02*
D03*
X25400D02*
D03*
X76200Y472440D02*
D03*
X50800D02*
D03*
X76400Y409400D02*
D03*
X51000D02*
D03*
X25600D02*
D03*
X76400Y384000D02*
D03*
X51000D02*
D03*
X25400Y341998D02*
D03*
X50800Y316598D02*
D03*
X25400D02*
D03*
D86*
Y472440D02*
D03*
X25600Y384000D02*
D03*
X50800Y341998D02*
D03*
D87*
X21995Y234000D02*
D03*
Y168000D02*
D03*
D88*
X630000Y182000D02*
D03*
X376000Y477000D02*
D03*
X375000Y487000D02*
D03*
X136000Y164000D02*
D03*
Y181000D02*
D03*
X60000Y233000D02*
D03*
X81000Y235000D02*
D03*
X79000Y251000D02*
D03*
X172720Y193294D02*
D03*
X108458Y371856D02*
D03*
X59690Y221488D02*
D03*
X457630Y85834D02*
D03*
X250444Y226822D02*
D03*
X295000Y419000D02*
D03*
X322000Y420000D02*
D03*
X41000Y277000D02*
D03*
X101000Y154000D02*
D03*
X111000D02*
D03*
X121000D02*
D03*
X127000Y173000D02*
D03*
X144000Y172000D02*
D03*
X87000Y106000D02*
D03*
X364000Y477000D02*
D03*
Y487000D02*
D03*
X373000Y386000D02*
D03*
Y394000D02*
D03*
X366000D02*
D03*
Y386000D02*
D03*
X304000Y222000D02*
D03*
X315000Y429000D02*
D03*
X240750Y195750D02*
D03*
X245000Y172000D02*
D03*
X563000Y380000D02*
D03*
Y387000D02*
D03*
Y394000D02*
D03*
X611000Y71000D02*
D03*
X671000Y161000D02*
D03*
X631000Y170000D02*
D03*
X611000Y61000D02*
D03*
X396000Y66000D02*
D03*
X430000Y64000D02*
D03*
X409000Y66000D02*
D03*
X366000Y75000D02*
D03*
X326000Y68000D02*
D03*
X443000Y43000D02*
D03*
X117000Y403000D02*
D03*
Y418000D02*
D03*
X222000Y476000D02*
D03*
X286250Y68500D02*
D03*
X194000Y135000D02*
D03*
X455000Y149000D02*
D03*
X578000Y434000D02*
D03*
X571250Y421250D02*
D03*
X582000Y409000D02*
D03*
X566000Y411000D02*
D03*
X597000Y185000D02*
D03*
X230000Y432000D02*
D03*
X162000Y207000D02*
D03*
X154000Y200000D02*
D03*
X174000Y205000D02*
D03*
X197000Y206000D02*
D03*
X391000Y252000D02*
D03*
X247250Y117250D02*
D03*
X302000Y84000D02*
D03*
X162000Y143000D02*
D03*
X100000Y237000D02*
D03*
X150000Y272000D02*
D03*
X401500Y87500D02*
D03*
X208000Y421000D02*
D03*
X227000Y403000D02*
D03*
X279000Y344000D02*
D03*
X282000Y487000D02*
D03*
X111000Y144000D02*
D03*
X205000Y402000D02*
D03*
X187750Y402750D02*
D03*
X63000Y448000D02*
D03*
X55000Y522000D02*
D03*
X220000Y309000D02*
D03*
X662250Y152500D02*
D03*
X182750Y276500D02*
D03*
X220000Y226000D02*
D03*
X82500Y291000D02*
D03*
X124968Y411226D02*
D03*
X316000Y68000D02*
D03*
X463250Y43250D02*
D03*
X98000Y320000D02*
D03*
X98750Y375250D02*
D03*
X110750Y262750D02*
D03*
X480000Y93000D02*
D03*
X215250Y205250D02*
D03*
X87000Y117000D02*
D03*
X115250Y190500D02*
D03*
X113750Y214250D02*
D03*
X622250Y451750D02*
D03*
X328500Y255000D02*
D03*
X328750Y171750D02*
D03*
X303000Y180250D02*
D03*
M02*
