G04*
G04 #@! TF.GenerationSoftware,Altium Limited,Altium Designer,20.0.13 (296)*
G04*
G04 Layer_Color=32896*
%FSLAX44Y44*%
%MOMM*%
G71*
G01*
G75*
%ADD12C,0.2540*%
D12*
X831642Y-218871D02*
Y-234106D01*
X839259D01*
X841799Y-231567D01*
Y-229028D01*
X839259Y-226488D01*
X831642D01*
X839259D01*
X841799Y-223949D01*
Y-221410D01*
X839259Y-218871D01*
X831642D01*
X849416Y-223949D02*
X854495D01*
X857034Y-226488D01*
Y-234106D01*
X849416D01*
X846877Y-231567D01*
X849416Y-229028D01*
X857034D01*
X862112Y-234106D02*
X869730D01*
X872269Y-231567D01*
X869730Y-229028D01*
X864651D01*
X862112Y-226488D01*
X864651Y-223949D01*
X872269D01*
X884965Y-234106D02*
X879886D01*
X877347Y-231567D01*
Y-226488D01*
X879886Y-223949D01*
X884965D01*
X887504Y-226488D01*
Y-229028D01*
X877347D01*
X902739Y-218871D02*
Y-234106D01*
X895122D01*
X892582Y-231567D01*
Y-226488D01*
X895122Y-223949D01*
X902739D01*
X925592Y-234106D02*
X930670D01*
X933209Y-231567D01*
Y-226488D01*
X930670Y-223949D01*
X925592D01*
X923052Y-226488D01*
Y-231567D01*
X925592Y-234106D01*
X938288D02*
Y-223949D01*
X945905D01*
X948444Y-226488D01*
Y-234106D01*
X968758D02*
Y-223949D01*
X973836Y-218871D01*
X978914Y-223949D01*
Y-234106D01*
Y-226488D01*
X968758D01*
X983993Y-223949D02*
Y-234106D01*
Y-229028D01*
X986532Y-226488D01*
X989071Y-223949D01*
X991610D01*
X1009385Y-218871D02*
Y-234106D01*
X1001767D01*
X999228Y-231567D01*
Y-226488D01*
X1001767Y-223949D01*
X1009385D01*
X1014463D02*
Y-231567D01*
X1017002Y-234106D01*
X1024620D01*
Y-223949D01*
X1029698Y-234106D02*
X1034776D01*
X1032237D01*
Y-223949D01*
X1029698D01*
X1042394Y-234106D02*
Y-223949D01*
X1050011D01*
X1052551Y-226488D01*
Y-234106D01*
X1060168D02*
X1065246D01*
X1067786Y-231567D01*
Y-226488D01*
X1065246Y-223949D01*
X1060168D01*
X1057629Y-226488D01*
Y-231567D01*
X1060168Y-234106D01*
X1072864Y-223949D02*
X1075403D01*
Y-226488D01*
X1072864D01*
Y-223949D01*
Y-231567D02*
X1075403D01*
Y-234106D01*
X1072864D01*
Y-231567D01*
X1100795Y-218871D02*
Y-234106D01*
Y-226488D01*
X1103334Y-223949D01*
X1108412D01*
X1110952Y-226488D01*
Y-234106D01*
X1118569Y-221410D02*
Y-223949D01*
X1116030D01*
X1121108D01*
X1118569D01*
Y-231567D01*
X1121108Y-234106D01*
X1131265Y-221410D02*
Y-223949D01*
X1128726D01*
X1133804D01*
X1131265D01*
Y-231567D01*
X1133804Y-234106D01*
X1141422Y-239184D02*
Y-223949D01*
X1149039D01*
X1151579Y-226488D01*
Y-231567D01*
X1149039Y-234106D01*
X1141422D01*
X1156657Y-223949D02*
X1159196D01*
Y-226488D01*
X1156657D01*
Y-223949D01*
Y-231567D02*
X1159196D01*
Y-234106D01*
X1156657D01*
Y-231567D01*
X1169353Y-234106D02*
X1179510Y-223949D01*
X1184588Y-234106D02*
X1194744Y-223949D01*
X1199823D02*
Y-231567D01*
X1202362Y-234106D01*
X1204901Y-231567D01*
X1207440Y-234106D01*
X1209980Y-231567D01*
Y-223949D01*
X1215058D02*
Y-231567D01*
X1217597Y-234106D01*
X1220136Y-231567D01*
X1222675Y-234106D01*
X1225215Y-231567D01*
Y-223949D01*
X1230293D02*
Y-231567D01*
X1232832Y-234106D01*
X1235371Y-231567D01*
X1237911Y-234106D01*
X1240450Y-231567D01*
Y-223949D01*
X1245528Y-234106D02*
Y-231567D01*
X1248067D01*
Y-234106D01*
X1245528D01*
X1260763Y-223949D02*
X1265842D01*
X1268381Y-226488D01*
Y-234106D01*
X1260763D01*
X1258224Y-231567D01*
X1260763Y-229028D01*
X1268381D01*
X1273459Y-223949D02*
Y-234106D01*
Y-229028D01*
X1275998Y-226488D01*
X1278537Y-223949D01*
X1281077D01*
X1298851Y-218871D02*
Y-234106D01*
X1291233D01*
X1288694Y-231567D01*
Y-226488D01*
X1291233Y-223949D01*
X1298851D01*
X1303929D02*
Y-231567D01*
X1306468Y-234106D01*
X1314086D01*
Y-223949D01*
X1319164Y-234106D02*
X1324243D01*
X1321703D01*
Y-223949D01*
X1319164D01*
X1331860Y-234106D02*
Y-223949D01*
X1339478D01*
X1342017Y-226488D01*
Y-234106D01*
X1349634D02*
X1354713D01*
X1357252Y-231567D01*
Y-226488D01*
X1354713Y-223949D01*
X1349634D01*
X1347095Y-226488D01*
Y-231567D01*
X1349634Y-234106D01*
X1362330D02*
Y-231567D01*
X1364870D01*
Y-234106D01*
X1362330D01*
X1385183Y-223949D02*
X1377565D01*
X1375026Y-226488D01*
Y-231567D01*
X1377565Y-234106D01*
X1385183D01*
X1400418Y-223949D02*
X1392800D01*
X1390261Y-226488D01*
Y-231567D01*
X1392800Y-234106D01*
X1400418D01*
X1405496D02*
X1415653Y-223949D01*
X833642Y437129D02*
Y434590D01*
X838720Y429511D01*
X843799Y434590D01*
Y437129D01*
X838720Y429511D02*
Y421894D01*
X851416D02*
X856495D01*
X859034Y424433D01*
Y429511D01*
X856495Y432051D01*
X851416D01*
X848877Y429511D01*
Y424433D01*
X851416Y421894D01*
X864112Y432051D02*
Y424433D01*
X866651Y421894D01*
X874269D01*
Y432051D01*
X897122D02*
X902200D01*
X904739Y429511D01*
Y421894D01*
X897122D01*
X894582Y424433D01*
X897122Y426972D01*
X904739D01*
X909817Y432051D02*
Y421894D01*
Y426972D01*
X912357Y429511D01*
X914896Y432051D01*
X917435D01*
X932670Y421894D02*
X927592D01*
X925052Y424433D01*
Y429511D01*
X927592Y432051D01*
X932670D01*
X935209Y429511D01*
Y426972D01*
X925052D01*
X958062Y421894D02*
Y434590D01*
Y429511D01*
X955523D01*
X960601D01*
X958062D01*
Y434590D01*
X960601Y437129D01*
X968219Y432051D02*
Y421894D01*
Y426972D01*
X970758Y429511D01*
X973297Y432051D01*
X975836D01*
X991071Y421894D02*
X985993D01*
X983454Y424433D01*
Y429511D01*
X985993Y432051D01*
X991071D01*
X993610Y429511D01*
Y426972D01*
X983454D01*
X1006306Y421894D02*
X1001228D01*
X998689Y424433D01*
Y429511D01*
X1001228Y432051D01*
X1006306D01*
X1008845Y429511D01*
Y426972D01*
X998689D01*
X1031698Y434590D02*
Y432051D01*
X1029159D01*
X1034237D01*
X1031698D01*
Y424433D01*
X1034237Y421894D01*
X1044394D02*
X1049472D01*
X1052011Y424433D01*
Y429511D01*
X1049472Y432051D01*
X1044394D01*
X1041855Y429511D01*
Y424433D01*
X1044394Y421894D01*
X1057090Y432051D02*
X1059629D01*
Y429511D01*
X1057090D01*
Y432051D01*
Y424433D02*
X1059629D01*
Y421894D01*
X1057090D01*
Y424433D01*
X844339Y135815D02*
X841799Y138354D01*
X836721D01*
X834182Y135815D01*
Y133276D01*
X836721Y130737D01*
X841799D01*
X844339Y128197D01*
Y125658D01*
X841799Y123119D01*
X836721D01*
X834182Y125658D01*
X849417Y138354D02*
Y123119D01*
Y130737D01*
X851956Y133276D01*
X857035D01*
X859574Y130737D01*
Y123119D01*
X867191Y133276D02*
X872270D01*
X874809Y130737D01*
Y123119D01*
X867191D01*
X864652Y125658D01*
X867191Y128197D01*
X874809D01*
X879887Y133276D02*
Y123119D01*
Y128197D01*
X882426Y130737D01*
X884966Y133276D01*
X887505D01*
X902740Y123119D02*
X897662D01*
X895122Y125658D01*
Y130737D01*
X897662Y133276D01*
X902740D01*
X905279Y130737D01*
Y128197D01*
X895122D01*
X910357Y123119D02*
Y133276D01*
X915436Y138354D01*
X920514Y133276D01*
Y123119D01*
Y130737D01*
X910357D01*
X925592Y123119D02*
X930671D01*
X928132D01*
Y138354D01*
X925592D01*
X938288Y123119D02*
X943367D01*
X940827D01*
Y133276D01*
X938288D01*
X950984Y123119D02*
Y138354D01*
Y128197D02*
X958602Y133276D01*
X950984Y128197D02*
X958602Y123119D01*
X973837D02*
X968758D01*
X966219Y125658D01*
Y130737D01*
X968758Y133276D01*
X973837D01*
X976376Y130737D01*
Y128197D01*
X966219D01*
X996689Y130737D02*
X1006846D01*
X1027160Y138354D02*
X1032238D01*
X1029699D01*
Y123119D01*
X1027160D01*
X1032238D01*
X1042395D02*
Y135815D01*
Y130737D01*
X1039855D01*
X1044934D01*
X1042395D01*
Y135815D01*
X1044934Y138354D01*
X1067786Y133276D02*
Y125658D01*
X1070326Y123119D01*
X1077943D01*
Y120580D01*
X1075404Y118041D01*
X1072865D01*
X1077943Y123119D02*
Y133276D01*
X1085561Y123119D02*
X1090639D01*
X1093178Y125658D01*
Y130737D01*
X1090639Y133276D01*
X1085561D01*
X1083021Y130737D01*
Y125658D01*
X1085561Y123119D01*
X1098257Y133276D02*
Y125658D01*
X1100796Y123119D01*
X1108413D01*
Y133276D01*
X1128727D02*
Y123119D01*
Y128197D01*
X1131266Y130737D01*
X1133805Y133276D01*
X1136344D01*
X1151579Y123119D02*
X1146501D01*
X1143962Y125658D01*
Y130737D01*
X1146501Y133276D01*
X1151579D01*
X1154118Y130737D01*
Y128197D01*
X1143962D01*
X1159197Y123119D02*
Y133276D01*
X1161736D01*
X1164275Y130737D01*
Y123119D01*
Y130737D01*
X1166814Y133276D01*
X1169354Y130737D01*
Y123119D01*
X1174432D02*
X1179510D01*
X1176971D01*
Y133276D01*
X1174432D01*
X1187128D02*
X1197284Y123119D01*
X1192206Y128197D01*
X1197284Y133276D01*
X1187128Y123119D01*
X1204902Y120580D02*
X1207441Y123119D01*
Y125658D01*
X1204902D01*
Y123119D01*
X1207441D01*
X1204902Y120580D01*
X1202363Y118041D01*
X1235372Y135815D02*
Y133276D01*
X1232833D01*
X1237911D01*
X1235372D01*
Y125658D01*
X1237911Y123119D01*
X1245529Y133276D02*
Y123119D01*
Y128197D01*
X1248068Y130737D01*
X1250607Y133276D01*
X1253146D01*
X1263303D02*
X1268382D01*
X1270921Y130737D01*
Y123119D01*
X1263303D01*
X1260764Y125658D01*
X1263303Y128197D01*
X1270921D01*
X1275999Y123119D02*
Y133276D01*
X1283617D01*
X1286156Y130737D01*
Y123119D01*
X1291234D02*
X1298852D01*
X1301391Y125658D01*
X1298852Y128197D01*
X1293773D01*
X1291234Y130737D01*
X1293773Y133276D01*
X1301391D01*
X1309008Y123119D02*
Y135815D01*
Y130737D01*
X1306469D01*
X1311548D01*
X1309008D01*
Y135815D01*
X1311548Y138354D01*
X1321704Y123119D02*
X1326783D01*
X1329322Y125658D01*
Y130737D01*
X1326783Y133276D01*
X1321704D01*
X1319165Y130737D01*
Y125658D01*
X1321704Y123119D01*
X1334400Y133276D02*
Y123119D01*
Y128197D01*
X1336939Y130737D01*
X1339478Y133276D01*
X1342018D01*
X1349635Y123119D02*
Y133276D01*
X1352174D01*
X1354714Y130737D01*
Y123119D01*
Y130737D01*
X1357253Y133276D01*
X1359792Y130737D01*
Y123119D01*
X1367410Y120580D02*
X1369949Y123119D01*
Y125658D01*
X1367410D01*
Y123119D01*
X1369949D01*
X1367410Y120580D01*
X1364870Y118041D01*
X1397880Y123119D02*
X1402958D01*
X1405497Y125658D01*
Y130737D01*
X1402958Y133276D01*
X1397880D01*
X1395340Y130737D01*
Y125658D01*
X1397880Y123119D01*
X1410576Y133276D02*
Y123119D01*
Y128197D01*
X1413115Y130737D01*
X1415654Y133276D01*
X1418193D01*
X1441046Y138354D02*
Y123119D01*
X1448663D01*
X1451202Y125658D01*
Y128197D01*
Y130737D01*
X1448663Y133276D01*
X1441046D01*
X1456281D02*
Y125658D01*
X1458820Y123119D01*
X1466438D01*
Y133276D01*
X1471516Y123119D02*
X1476594D01*
X1474055D01*
Y133276D01*
X1471516D01*
X1484212Y123119D02*
X1489290D01*
X1486751D01*
Y138354D01*
X1484212D01*
X1507064D02*
Y123119D01*
X1499447D01*
X1496908Y125658D01*
Y130737D01*
X1499447Y133276D01*
X1507064D01*
X1527378D02*
Y125658D01*
X1529917Y123119D01*
X1537534D01*
Y133276D01*
X1542613Y118041D02*
Y133276D01*
X1550230D01*
X1552769Y130737D01*
Y125658D01*
X1550230Y123119D01*
X1542613D01*
X1560387D02*
X1565465D01*
X1568005Y125658D01*
Y130737D01*
X1565465Y133276D01*
X1560387D01*
X1557848Y130737D01*
Y125658D01*
X1560387Y123119D01*
X1573083D02*
Y133276D01*
X1580701D01*
X1583240Y130737D01*
Y123119D01*
X1606092Y135815D02*
Y133276D01*
X1603553D01*
X1608631D01*
X1606092D01*
Y125658D01*
X1608631Y123119D01*
X1616249Y138354D02*
Y123119D01*
Y130737D01*
X1618788Y133276D01*
X1623866D01*
X1626406Y130737D01*
Y123119D01*
X1639102D02*
X1634023D01*
X1631484Y125658D01*
Y130737D01*
X1634023Y133276D01*
X1639102D01*
X1641641Y130737D01*
Y128197D01*
X1631484D01*
X1661954Y123119D02*
Y133276D01*
X1664493D01*
X1667032Y130737D01*
Y123119D01*
Y130737D01*
X1669572Y133276D01*
X1672111Y130737D01*
Y123119D01*
X1679728Y133276D02*
X1684807D01*
X1687346Y130737D01*
Y123119D01*
X1679728D01*
X1677189Y125658D01*
X1679728Y128197D01*
X1687346D01*
X1694964Y135815D02*
Y133276D01*
X1692424D01*
X1697503D01*
X1694964D01*
Y125658D01*
X1697503Y123119D01*
X1712738D02*
X1707659D01*
X1705120Y125658D01*
Y130737D01*
X1707659Y133276D01*
X1712738D01*
X1715277Y130737D01*
Y128197D01*
X1705120D01*
X1720355Y133276D02*
Y123119D01*
Y128197D01*
X1722894Y130737D01*
X1725434Y133276D01*
X1727973D01*
X1735590Y123119D02*
X1740669D01*
X1738129D01*
Y133276D01*
X1735590D01*
X1750825D02*
X1755904D01*
X1758443Y130737D01*
Y123119D01*
X1750825D01*
X1748286Y125658D01*
X1750825Y128197D01*
X1758443D01*
X1763521Y123119D02*
X1768600D01*
X1766060D01*
Y138354D01*
X1763521D01*
X1778756Y120580D02*
X1781295Y123119D01*
Y125658D01*
X1778756D01*
Y123119D01*
X1781295D01*
X1778756Y120580D01*
X1776217Y118041D01*
X1806687Y133276D02*
Y125658D01*
X1809227Y123119D01*
X1816844D01*
Y120580D01*
X1814305Y118041D01*
X1811766D01*
X1816844Y123119D02*
Y133276D01*
X1824462Y123119D02*
X1829540D01*
X1832079Y125658D01*
Y130737D01*
X1829540Y133276D01*
X1824462D01*
X1821922Y130737D01*
Y125658D01*
X1824462Y123119D01*
X1837157Y133276D02*
Y125658D01*
X1839697Y123119D01*
X1847314D01*
Y133276D01*
X1867628Y123119D02*
Y133276D01*
X1870167D01*
X1872706Y130737D01*
Y123119D01*
Y130737D01*
X1875245Y133276D01*
X1877784Y130737D01*
Y123119D01*
X1882863Y133276D02*
Y125658D01*
X1885402Y123119D01*
X1893019D01*
Y133276D01*
X1898098Y123119D02*
X1905715D01*
X1908255Y125658D01*
X1905715Y128197D01*
X1900637D01*
X1898098Y130737D01*
X1900637Y133276D01*
X1908255D01*
X1915872Y135815D02*
Y133276D01*
X1913333D01*
X1918411D01*
X1915872D01*
Y125658D01*
X1918411Y123119D01*
X1951420Y138354D02*
Y123119D01*
X1943803D01*
X1941264Y125658D01*
Y130737D01*
X1943803Y133276D01*
X1951420D01*
X1956499Y123119D02*
X1961577D01*
X1959038D01*
Y133276D01*
X1956499D01*
X1969195Y123119D02*
X1976812D01*
X1979352Y125658D01*
X1976812Y128197D01*
X1971734D01*
X1969195Y130737D01*
X1971734Y133276D01*
X1979352D01*
X1986969Y135815D02*
Y133276D01*
X1984430D01*
X1989508D01*
X1986969D01*
Y125658D01*
X1989508Y123119D01*
X1997126Y133276D02*
Y123119D01*
Y128197D01*
X1999665Y130737D01*
X2002204Y133276D01*
X2004743D01*
X2012361Y123119D02*
X2017439D01*
X2014900D01*
Y133276D01*
X2012361D01*
X2025057Y138354D02*
Y123119D01*
X2032674D01*
X2035213Y125658D01*
Y128197D01*
Y130737D01*
X2032674Y133276D01*
X2025057D01*
X2040292D02*
Y125658D01*
X2042831Y123119D01*
X2050448D01*
Y133276D01*
X2058066Y135815D02*
Y133276D01*
X2055527D01*
X2060605D01*
X2058066D01*
Y125658D01*
X2060605Y123119D01*
X2075840D02*
X2070762D01*
X2068223Y125658D01*
Y130737D01*
X2070762Y133276D01*
X2075840D01*
X2078379Y130737D01*
Y128197D01*
X2068223D01*
X2098693Y133276D02*
Y125658D01*
X2101232Y123119D01*
X2108850D01*
Y120580D01*
X2106310Y118041D01*
X2103771D01*
X2108850Y123119D02*
Y133276D01*
X2116467Y123119D02*
X2121546D01*
X2124085Y125658D01*
Y130737D01*
X2121546Y133276D01*
X2116467D01*
X2113928Y130737D01*
Y125658D01*
X2116467Y123119D01*
X2129163Y133276D02*
Y125658D01*
X2131702Y123119D01*
X2139320D01*
Y133276D01*
X2144398D02*
Y123119D01*
Y128197D01*
X2146937Y130737D01*
X2149476Y133276D01*
X2152016D01*
X844339Y108276D02*
X836721D01*
X834182Y105737D01*
Y100658D01*
X836721Y98119D01*
X844339D01*
X851956D02*
X857035D01*
X859574Y100658D01*
Y105737D01*
X857035Y108276D01*
X851956D01*
X849417Y105737D01*
Y100658D01*
X851956Y98119D01*
X864652D02*
Y108276D01*
X872270D01*
X874809Y105737D01*
Y98119D01*
X882426Y110815D02*
Y108276D01*
X879887D01*
X884966D01*
X882426D01*
Y100658D01*
X884966Y98119D01*
X892583Y108276D02*
Y98119D01*
Y103197D01*
X895122Y105737D01*
X897662Y108276D01*
X900201D01*
X907818Y98119D02*
X912896D01*
X910357D01*
Y108276D01*
X907818D01*
X920514Y113354D02*
Y98119D01*
X928132D01*
X930671Y100658D01*
Y103197D01*
Y105737D01*
X928132Y108276D01*
X920514D01*
X935749D02*
Y100658D01*
X938288Y98119D01*
X945906D01*
Y108276D01*
X953523Y110815D02*
Y108276D01*
X950984D01*
X956063D01*
X953523D01*
Y100658D01*
X956063Y98119D01*
X963680D02*
X968758D01*
X966219D01*
Y108276D01*
X963680D01*
X978915Y98119D02*
X983994D01*
X986533Y100658D01*
Y105737D01*
X983994Y108276D01*
X978915D01*
X976376Y105737D01*
Y100658D01*
X978915Y98119D01*
X991611D02*
Y108276D01*
X999229D01*
X1001768Y105737D01*
Y98119D01*
X1006846D02*
X1014464D01*
X1017003Y100658D01*
X1014464Y103197D01*
X1009385D01*
X1006846Y105737D01*
X1009385Y108276D01*
X1017003D01*
X1037316D02*
Y100658D01*
X1039855Y98119D01*
X1047473D01*
Y108276D01*
X1052551Y98119D02*
Y108276D01*
X1060169D01*
X1062708Y105737D01*
Y98119D01*
X1077943Y113354D02*
Y98119D01*
X1070326D01*
X1067786Y100658D01*
Y105737D01*
X1070326Y108276D01*
X1077943D01*
X1090639Y98119D02*
X1085561D01*
X1083021Y100658D01*
Y105737D01*
X1085561Y108276D01*
X1090639D01*
X1093178Y105737D01*
Y103197D01*
X1083021D01*
X1098257Y108276D02*
Y98119D01*
Y103197D01*
X1100796Y105737D01*
X1103335Y108276D01*
X1105874D01*
X1131266Y110815D02*
Y108276D01*
X1128727D01*
X1133805D01*
X1131266D01*
Y100658D01*
X1133805Y98119D01*
X1141423Y113354D02*
Y98119D01*
Y105737D01*
X1143962Y108276D01*
X1149040D01*
X1151579Y105737D01*
Y98119D01*
X1164275D02*
X1159197D01*
X1156658Y100658D01*
Y105737D01*
X1159197Y108276D01*
X1164275D01*
X1166814Y105737D01*
Y103197D01*
X1156658D01*
X1187128Y98119D02*
X1194745D01*
X1197284Y100658D01*
X1194745Y103197D01*
X1189667D01*
X1187128Y105737D01*
X1189667Y108276D01*
X1197284D01*
X1204902D02*
X1209980D01*
X1212520Y105737D01*
Y98119D01*
X1204902D01*
X1202363Y100658D01*
X1204902Y103197D01*
X1212520D01*
X1217598Y98119D02*
Y108276D01*
X1220137D01*
X1222676Y105737D01*
Y98119D01*
Y105737D01*
X1225216Y108276D01*
X1227755Y105737D01*
Y98119D01*
X1240451D02*
X1235372D01*
X1232833Y100658D01*
Y105737D01*
X1235372Y108276D01*
X1240451D01*
X1242990Y105737D01*
Y103197D01*
X1232833D01*
X1263303Y98119D02*
X1268382D01*
X1265842D01*
Y113354D01*
X1263303D01*
X1275999Y98119D02*
X1281077D01*
X1278538D01*
Y108276D01*
X1275999D01*
X1298852D02*
X1291234D01*
X1288695Y105737D01*
Y100658D01*
X1291234Y98119D01*
X1298852D01*
X1311548D02*
X1306469D01*
X1303930Y100658D01*
Y105737D01*
X1306469Y108276D01*
X1311548D01*
X1314087Y105737D01*
Y103197D01*
X1303930D01*
X1319165Y98119D02*
Y108276D01*
X1326783D01*
X1329322Y105737D01*
Y98119D01*
X1334400D02*
X1342018D01*
X1344557Y100658D01*
X1342018Y103197D01*
X1336939D01*
X1334400Y105737D01*
X1336939Y108276D01*
X1344557D01*
X1357253Y98119D02*
X1352174D01*
X1349635Y100658D01*
Y105737D01*
X1352174Y108276D01*
X1357253D01*
X1359792Y105737D01*
Y103197D01*
X1349635D01*
X1382645Y108276D02*
X1387723D01*
X1390262Y105737D01*
Y98119D01*
X1382645D01*
X1380105Y100658D01*
X1382645Y103197D01*
X1390262D01*
X1395340Y98119D02*
X1402958D01*
X1405497Y100658D01*
X1402958Y103197D01*
X1397880D01*
X1395340Y105737D01*
X1397880Y108276D01*
X1405497D01*
X1428350Y110815D02*
Y108276D01*
X1425811D01*
X1430889D01*
X1428350D01*
Y100658D01*
X1430889Y98119D01*
X1438506Y113354D02*
Y98119D01*
Y105737D01*
X1441046Y108276D01*
X1446124D01*
X1448663Y105737D01*
Y98119D01*
X1461359D02*
X1456281D01*
X1453741Y100658D01*
Y105737D01*
X1456281Y108276D01*
X1461359D01*
X1463898Y105737D01*
Y103197D01*
X1453741D01*
X1486751Y98119D02*
X1491829D01*
X1494368Y100658D01*
Y105737D01*
X1491829Y108276D01*
X1486751D01*
X1484212Y105737D01*
Y100658D01*
X1486751Y98119D01*
X1499447Y108276D02*
Y98119D01*
Y103197D01*
X1501986Y105737D01*
X1504525Y108276D01*
X1507064D01*
X1514682Y98119D02*
X1519760D01*
X1517221D01*
Y108276D01*
X1514682D01*
X1532456Y93041D02*
X1534995D01*
X1537534Y95580D01*
Y108276D01*
X1529917D01*
X1527378Y105737D01*
Y100658D01*
X1529917Y98119D01*
X1537534D01*
X1542613D02*
X1547691D01*
X1545152D01*
Y108276D01*
X1542613D01*
X1555309Y98119D02*
Y108276D01*
X1562926D01*
X1565465Y105737D01*
Y98119D01*
X1573083Y108276D02*
X1578161D01*
X1580701Y105737D01*
Y98119D01*
X1573083D01*
X1570544Y100658D01*
X1573083Y103197D01*
X1580701D01*
X1585779Y98119D02*
X1590857D01*
X1588318D01*
Y113354D01*
X1585779D01*
X1598475Y98119D02*
Y100658D01*
X1601014D01*
Y98119D01*
X1598475D01*
X831642Y-173949D02*
Y-181567D01*
X834181Y-184106D01*
X841799D01*
Y-173949D01*
X846877Y-184106D02*
X854495D01*
X857034Y-181567D01*
X854495Y-179028D01*
X849416D01*
X846877Y-176488D01*
X849416Y-173949D01*
X857034D01*
X869730Y-184106D02*
X864651D01*
X862112Y-181567D01*
Y-176488D01*
X864651Y-173949D01*
X869730D01*
X872269Y-176488D01*
Y-179028D01*
X862112D01*
X895122Y-171410D02*
Y-173949D01*
X892582D01*
X897661D01*
X895122D01*
Y-181567D01*
X897661Y-184106D01*
X905278Y-168871D02*
Y-184106D01*
Y-176488D01*
X907817Y-173949D01*
X912896D01*
X915435Y-176488D01*
Y-184106D01*
X928131D02*
X923052D01*
X920513Y-181567D01*
Y-176488D01*
X923052Y-173949D01*
X928131D01*
X930670Y-176488D01*
Y-179028D01*
X920513D01*
X950983Y-184106D02*
Y-173949D01*
X953523D01*
X956062Y-176488D01*
Y-184106D01*
Y-176488D01*
X958601Y-173949D01*
X961140Y-176488D01*
Y-184106D01*
X968758Y-173949D02*
X973836D01*
X976375Y-176488D01*
Y-184106D01*
X968758D01*
X966218Y-181567D01*
X968758Y-179028D01*
X976375D01*
X983993Y-171410D02*
Y-173949D01*
X981453D01*
X986532D01*
X983993D01*
Y-181567D01*
X986532Y-184106D01*
X1001767D02*
X996689D01*
X994149Y-181567D01*
Y-176488D01*
X996689Y-173949D01*
X1001767D01*
X1004306Y-176488D01*
Y-179028D01*
X994149D01*
X1009385Y-173949D02*
Y-184106D01*
Y-179028D01*
X1011924Y-176488D01*
X1014463Y-173949D01*
X1017002D01*
X1024620Y-184106D02*
X1029698D01*
X1027159D01*
Y-173949D01*
X1024620D01*
X1039855D02*
X1044933D01*
X1047472Y-176488D01*
Y-184106D01*
X1039855D01*
X1037316Y-181567D01*
X1039855Y-179028D01*
X1047472D01*
X1052551Y-184106D02*
X1057629D01*
X1055090D01*
Y-168871D01*
X1052551D01*
X1065246Y-184106D02*
Y-181567D01*
X1067786D01*
Y-184106D01*
X1065246D01*
X831642Y-159106D02*
X836720D01*
X834181D01*
Y-148949D01*
X831642D01*
X844338Y-159106D02*
Y-148949D01*
X851955D01*
X854495Y-151489D01*
Y-159106D01*
X862112Y-146410D02*
Y-148949D01*
X859573D01*
X864651D01*
X862112D01*
Y-156567D01*
X864651Y-159106D01*
X879886D02*
X874808D01*
X872269Y-156567D01*
Y-151489D01*
X874808Y-148949D01*
X879886D01*
X882426Y-151489D01*
Y-154028D01*
X872269D01*
X887504Y-159106D02*
Y-148949D01*
X895122D01*
X897661Y-151489D01*
Y-159106D01*
X912896Y-143871D02*
Y-159106D01*
X905278D01*
X902739Y-156567D01*
Y-151489D01*
X905278Y-148949D01*
X912896D01*
X925592Y-159106D02*
X920513D01*
X917974Y-156567D01*
Y-151489D01*
X920513Y-148949D01*
X925592D01*
X928131Y-151489D01*
Y-154028D01*
X917974D01*
X943366Y-143871D02*
Y-159106D01*
X935748D01*
X933209Y-156567D01*
Y-151489D01*
X935748Y-148949D01*
X943366D01*
X963679D02*
Y-156567D01*
X966218Y-159106D01*
X973836D01*
Y-148949D01*
X978914Y-159106D02*
X986532D01*
X989071Y-156567D01*
X986532Y-154028D01*
X981453D01*
X978914Y-151489D01*
X981453Y-148949D01*
X989071D01*
X1001767Y-159106D02*
X996689D01*
X994149Y-156567D01*
Y-151489D01*
X996689Y-148949D01*
X1001767D01*
X1004306Y-151489D01*
Y-154028D01*
X994149D01*
X1009385Y-159106D02*
Y-156567D01*
X1011924D01*
Y-159106D01*
X1009385D01*
X1047472Y-143871D02*
X1037316D01*
Y-151489D01*
X1042394D01*
X1037316D01*
Y-159106D01*
X1055090D02*
X1060168D01*
X1062707Y-156567D01*
Y-151489D01*
X1060168Y-148949D01*
X1055090D01*
X1052551Y-151489D01*
Y-156567D01*
X1055090Y-159106D01*
X1067786Y-148949D02*
Y-159106D01*
Y-154028D01*
X1070325Y-151489D01*
X1072864Y-148949D01*
X1075403D01*
X1105873Y-159106D02*
X1100795D01*
X1098256Y-156567D01*
Y-151489D01*
X1100795Y-148949D01*
X1105873D01*
X1108412Y-151489D01*
Y-154028D01*
X1098256D01*
X1113491Y-148949D02*
X1123648Y-159106D01*
X1118569Y-154028D01*
X1123648Y-148949D01*
X1113491Y-159106D01*
X1131265Y-148949D02*
X1136343D01*
X1138883Y-151489D01*
Y-159106D01*
X1131265D01*
X1128726Y-156567D01*
X1131265Y-154028D01*
X1138883D01*
X1143961Y-159106D02*
Y-148949D01*
X1146500D01*
X1149039Y-151489D01*
Y-159106D01*
Y-151489D01*
X1151579Y-148949D01*
X1154118Y-151489D01*
Y-159106D01*
X1159196Y-164184D02*
Y-148949D01*
X1166814D01*
X1169353Y-151489D01*
Y-156567D01*
X1166814Y-159106D01*
X1159196D01*
X1174431D02*
X1179510D01*
X1176970D01*
Y-143871D01*
X1174431D01*
X1194744Y-159106D02*
X1189666D01*
X1187127Y-156567D01*
Y-151489D01*
X1189666Y-148949D01*
X1194744D01*
X1197284Y-151489D01*
Y-154028D01*
X1187127D01*
X1204901Y-161645D02*
X1207440Y-159106D01*
Y-156567D01*
X1204901D01*
Y-159106D01*
X1207440D01*
X1204901Y-161645D01*
X1202362Y-164184D01*
X1235371Y-159106D02*
X1240450D01*
X1242989Y-156567D01*
Y-151489D01*
X1240450Y-148949D01*
X1235371D01*
X1232832Y-151489D01*
Y-156567D01*
X1235371Y-159106D01*
X1250607Y-146410D02*
Y-148949D01*
X1248067D01*
X1253146D01*
X1250607D01*
Y-156567D01*
X1253146Y-159106D01*
X1260763Y-143871D02*
Y-159106D01*
Y-151489D01*
X1263302Y-148949D01*
X1268381D01*
X1270920Y-151489D01*
Y-159106D01*
X1283616D02*
X1278537D01*
X1275998Y-156567D01*
Y-151489D01*
X1278537Y-148949D01*
X1283616D01*
X1286155Y-151489D01*
Y-154028D01*
X1275998D01*
X1291233Y-148949D02*
Y-159106D01*
Y-154028D01*
X1293772Y-151489D01*
X1296312Y-148949D01*
X1298851D01*
X1321703D02*
Y-159106D01*
Y-154028D01*
X1324243Y-151489D01*
X1326782Y-148949D01*
X1329321D01*
X1336938Y-159106D02*
X1342017D01*
X1339478D01*
Y-148949D01*
X1336938D01*
X1354713Y-164184D02*
X1357252D01*
X1359791Y-161645D01*
Y-148949D01*
X1352174D01*
X1349634Y-151489D01*
Y-156567D01*
X1352174Y-159106D01*
X1359791D01*
X1364870Y-143871D02*
Y-159106D01*
Y-151489D01*
X1367409Y-148949D01*
X1372487D01*
X1375026Y-151489D01*
Y-159106D01*
X1382644Y-146410D02*
Y-148949D01*
X1380105D01*
X1385183D01*
X1382644D01*
Y-156567D01*
X1385183Y-159106D01*
X1392800D02*
X1400418D01*
X1402957Y-156567D01*
X1400418Y-154028D01*
X1395340D01*
X1392800Y-151489D01*
X1395340Y-148949D01*
X1402957D01*
X1423271Y-159106D02*
X1430888D01*
X1433427Y-156567D01*
X1430888Y-154028D01*
X1425810D01*
X1423271Y-151489D01*
X1425810Y-148949D01*
X1433427D01*
X1438506D02*
Y-156567D01*
X1441045Y-159106D01*
X1448662D01*
Y-148949D01*
X1463898D02*
X1456280D01*
X1453741Y-151489D01*
Y-156567D01*
X1456280Y-159106D01*
X1463898D01*
X1468976Y-143871D02*
Y-159106D01*
Y-151489D01*
X1471515Y-148949D01*
X1476593D01*
X1479133Y-151489D01*
Y-159106D01*
X1501985Y-148949D02*
X1507063D01*
X1509603Y-151489D01*
Y-159106D01*
X1501985D01*
X1499446Y-156567D01*
X1501985Y-154028D01*
X1509603D01*
X1514681Y-159106D02*
X1522299D01*
X1524838Y-156567D01*
X1522299Y-154028D01*
X1517220D01*
X1514681Y-151489D01*
X1517220Y-148949D01*
X1524838D01*
X1545151Y-164184D02*
Y-148949D01*
X1552769D01*
X1555308Y-151489D01*
Y-156567D01*
X1552769Y-159106D01*
X1545151D01*
X1560386Y-148949D02*
Y-156567D01*
X1562925Y-159106D01*
X1570543D01*
Y-148949D01*
X1575621Y-143871D02*
Y-159106D01*
X1583239D01*
X1585778Y-156567D01*
Y-154028D01*
Y-151489D01*
X1583239Y-148949D01*
X1575621D01*
X1590856Y-159106D02*
X1595935D01*
X1593396D01*
Y-143871D01*
X1590856D01*
X1603552Y-159106D02*
X1608631D01*
X1606091D01*
Y-148949D01*
X1603552D01*
X1626405D02*
X1618787D01*
X1616248Y-151489D01*
Y-156567D01*
X1618787Y-159106D01*
X1626405D01*
X1631483D02*
X1636562D01*
X1634022D01*
Y-148949D01*
X1631483D01*
X1646718Y-146410D02*
Y-148949D01*
X1644179D01*
X1649258D01*
X1646718D01*
Y-156567D01*
X1649258Y-159106D01*
X1656875Y-148949D02*
Y-156567D01*
X1659414Y-159106D01*
X1667032D01*
Y-161645D01*
X1664492Y-164184D01*
X1661953D01*
X1667032Y-159106D02*
Y-148949D01*
X1674649Y-161645D02*
X1677188Y-159106D01*
Y-156567D01*
X1674649D01*
Y-159106D01*
X1677188D01*
X1674649Y-161645D01*
X1672110Y-164184D01*
X1702580D02*
Y-148949D01*
X1710198D01*
X1712737Y-151489D01*
Y-156567D01*
X1710198Y-159106D01*
X1702580D01*
X1717815Y-148949D02*
Y-159106D01*
Y-154028D01*
X1720354Y-151489D01*
X1722894Y-148949D01*
X1725433D01*
X1733050Y-159106D02*
X1738129D01*
X1735589D01*
Y-148949D01*
X1733050D01*
X1745746D02*
X1750825Y-159106D01*
X1755903Y-148949D01*
X1763521D02*
X1768599D01*
X1771138Y-151489D01*
Y-159106D01*
X1763521D01*
X1760981Y-156567D01*
X1763521Y-154028D01*
X1771138D01*
X1786373Y-148949D02*
X1778756D01*
X1776216Y-151489D01*
Y-156567D01*
X1778756Y-159106D01*
X1786373D01*
X1791452Y-148949D02*
Y-156567D01*
X1793991Y-159106D01*
X1801608D01*
Y-161645D01*
X1799069Y-164184D01*
X1796530D01*
X1801608Y-159106D02*
Y-148949D01*
X1809226Y-161645D02*
X1811765Y-159106D01*
Y-156567D01*
X1809226D01*
Y-159106D01*
X1811765D01*
X1809226Y-161645D01*
X1806687Y-164184D01*
X1839696Y-159106D02*
X1844774D01*
X1847313Y-156567D01*
Y-151489D01*
X1844774Y-148949D01*
X1839696D01*
X1837157Y-151489D01*
Y-156567D01*
X1839696Y-159106D01*
X1852392Y-148949D02*
Y-159106D01*
Y-154028D01*
X1854931Y-151489D01*
X1857470Y-148949D01*
X1860009D01*
X1882862Y-159106D02*
Y-148949D01*
X1885401D01*
X1887940Y-151489D01*
Y-159106D01*
Y-151489D01*
X1890479Y-148949D01*
X1893019Y-151489D01*
Y-159106D01*
X1900636D02*
X1905715D01*
X1908254Y-156567D01*
Y-151489D01*
X1905715Y-148949D01*
X1900636D01*
X1898097Y-151489D01*
Y-156567D01*
X1900636Y-159106D01*
X1913332Y-148949D02*
Y-159106D01*
Y-154028D01*
X1915871Y-151489D01*
X1918410Y-148949D01*
X1920950D01*
X1931106D02*
X1936185D01*
X1938724Y-151489D01*
Y-159106D01*
X1931106D01*
X1928567Y-156567D01*
X1931106Y-154028D01*
X1938724D01*
X1943802Y-159106D02*
X1948880D01*
X1946341D01*
Y-143871D01*
X1943802D01*
X1971733Y-148949D02*
Y-159106D01*
Y-154028D01*
X1974272Y-151489D01*
X1976812Y-148949D01*
X1979351D01*
X1986968Y-159106D02*
X1992047D01*
X1989507D01*
Y-148949D01*
X1986968D01*
X2004742Y-164184D02*
X2007282D01*
X2009821Y-161645D01*
Y-148949D01*
X2002203D01*
X1999664Y-151489D01*
Y-156567D01*
X2002203Y-159106D01*
X2009821D01*
X2014899Y-143871D02*
Y-159106D01*
Y-151489D01*
X2017438Y-148949D01*
X2022517D01*
X2025056Y-151489D01*
Y-159106D01*
X2032673Y-146410D02*
Y-148949D01*
X2030134D01*
X2035213D01*
X2032673D01*
Y-156567D01*
X2035213Y-159106D01*
X2042830D02*
X2050448D01*
X2052987Y-156567D01*
X2050448Y-154028D01*
X2045369D01*
X2042830Y-151489D01*
X2045369Y-148949D01*
X2052987D01*
X2073300Y-159106D02*
Y-148949D01*
X2075840D01*
X2078379Y-151489D01*
Y-159106D01*
Y-151489D01*
X2080918Y-148949D01*
X2083457Y-151489D01*
Y-159106D01*
X2091075Y-148949D02*
X2096153D01*
X2098692Y-151489D01*
Y-159106D01*
X2091075D01*
X2088535Y-156567D01*
X2091075Y-154028D01*
X2098692D01*
X2103770Y-148949D02*
Y-156567D01*
X2106310Y-159106D01*
X2113927D01*
Y-161645D01*
X2111388Y-164184D01*
X2108849D01*
X2113927Y-159106D02*
Y-148949D01*
X2134241Y-159106D02*
X2139319D01*
X2136780D01*
Y-143871D01*
X2134241D01*
X2146936Y-159106D02*
X2152015D01*
X2149476D01*
Y-148949D01*
X2146936D01*
X2159632Y-159106D02*
Y-148949D01*
X2162171D01*
X2164711Y-151489D01*
Y-159106D01*
Y-151489D01*
X2167250Y-148949D01*
X2169789Y-151489D01*
Y-159106D01*
X2174867D02*
X2179946D01*
X2177407D01*
Y-148949D01*
X2174867D01*
X2190103Y-146410D02*
Y-148949D01*
X2187563D01*
X2192642D01*
X2190103D01*
Y-156567D01*
X2192642Y-159106D01*
X2215494Y-143871D02*
Y-159106D01*
Y-151489D01*
X2218033Y-148949D01*
X2223112D01*
X2225651Y-151489D01*
Y-159106D01*
X2233268D02*
X2238347D01*
X2240886Y-156567D01*
Y-151489D01*
X2238347Y-148949D01*
X2233268D01*
X2230729Y-151489D01*
Y-156567D01*
X2233268Y-159106D01*
X2245964Y-148949D02*
Y-156567D01*
X2248504Y-159106D01*
X2251043Y-156567D01*
X2253582Y-159106D01*
X2256121Y-156567D01*
Y-148949D01*
X2276434D02*
Y-156567D01*
X2278974Y-159106D01*
X2286591D01*
Y-161645D01*
X2284052Y-164184D01*
X2281513D01*
X2286591Y-159106D02*
Y-148949D01*
X2294209Y-159106D02*
X2299287D01*
X2301826Y-156567D01*
Y-151489D01*
X2299287Y-148949D01*
X2294209D01*
X2291670Y-151489D01*
Y-156567D01*
X2294209Y-159106D01*
X2306905Y-148949D02*
Y-156567D01*
X2309444Y-159106D01*
X2317061D01*
Y-148949D01*
X831642Y-134106D02*
Y-118871D01*
X841799Y-134106D01*
Y-118871D01*
X849416Y-134106D02*
X854495D01*
X857034Y-131567D01*
Y-126489D01*
X854495Y-123949D01*
X849416D01*
X846877Y-126489D01*
Y-131567D01*
X849416Y-134106D01*
X877347Y-123949D02*
Y-131567D01*
X879886Y-134106D01*
X882426Y-131567D01*
X884965Y-134106D01*
X887504Y-131567D01*
Y-123949D01*
X895122D02*
X900200D01*
X902739Y-126489D01*
Y-134106D01*
X895122D01*
X892582Y-131567D01*
X895122Y-129028D01*
X902739D01*
X907817Y-123949D02*
Y-134106D01*
Y-129028D01*
X910357Y-126489D01*
X912896Y-123949D01*
X915435D01*
X923052D02*
Y-134106D01*
Y-129028D01*
X925592Y-126489D01*
X928131Y-123949D01*
X930670D01*
X940827D02*
X945905D01*
X948444Y-126489D01*
Y-134106D01*
X940827D01*
X938288Y-131567D01*
X940827Y-129028D01*
X948444D01*
X953523Y-134106D02*
Y-123949D01*
X961140D01*
X963679Y-126489D01*
Y-134106D01*
X971297Y-121410D02*
Y-123949D01*
X968758D01*
X973836D01*
X971297D01*
Y-131567D01*
X973836Y-134106D01*
X981453D02*
X986532D01*
X983993D01*
Y-123949D01*
X981453D01*
X1001767Y-134106D02*
X996689D01*
X994149Y-131567D01*
Y-126489D01*
X996689Y-123949D01*
X1001767D01*
X1004306Y-126489D01*
Y-129028D01*
X994149D01*
X1009385Y-134106D02*
X1017002D01*
X1019541Y-131567D01*
X1017002Y-129028D01*
X1011924D01*
X1009385Y-126489D01*
X1011924Y-123949D01*
X1019541D01*
X1042394D02*
X1047472D01*
X1050011Y-126489D01*
Y-134106D01*
X1042394D01*
X1039855Y-131567D01*
X1042394Y-129028D01*
X1050011D01*
X1055090Y-123949D02*
Y-134106D01*
Y-129028D01*
X1057629Y-126489D01*
X1060168Y-123949D01*
X1062707D01*
X1077942Y-134106D02*
X1072864D01*
X1070325Y-131567D01*
Y-126489D01*
X1072864Y-123949D01*
X1077942D01*
X1080481Y-126489D01*
Y-129028D01*
X1070325D01*
X1105873Y-139184D02*
X1108412D01*
X1110952Y-136645D01*
Y-123949D01*
X1103334D01*
X1100795Y-126489D01*
Y-131567D01*
X1103334Y-134106D01*
X1110952D01*
X1116030D02*
X1121108D01*
X1118569D01*
Y-123949D01*
X1116030D01*
X1128726D02*
X1133804Y-134106D01*
X1138883Y-123949D01*
X1151579Y-134106D02*
X1146500D01*
X1143961Y-131567D01*
Y-126489D01*
X1146500Y-123949D01*
X1151579D01*
X1154118Y-126489D01*
Y-129028D01*
X1143961D01*
X1159196Y-134106D02*
Y-123949D01*
X1166814D01*
X1169353Y-126489D01*
Y-134106D01*
X1174431D02*
Y-131567D01*
X1176970D01*
Y-134106D01*
X1174431D01*
X1202362Y-118871D02*
X1212519D01*
X1207440D01*
Y-134106D01*
X1217597Y-118871D02*
Y-134106D01*
Y-126489D01*
X1220136Y-123949D01*
X1225215D01*
X1227754Y-126489D01*
Y-134106D01*
X1240450D02*
X1235371D01*
X1232832Y-131567D01*
Y-126489D01*
X1235371Y-123949D01*
X1240450D01*
X1242989Y-126489D01*
Y-129028D01*
X1232832D01*
X1263302Y-134106D02*
X1268381D01*
X1265842D01*
Y-118871D01*
X1263302D01*
X1275998Y-134106D02*
X1281077D01*
X1278537D01*
Y-123949D01*
X1275998D01*
X1298851D02*
X1291233D01*
X1288694Y-126489D01*
Y-131567D01*
X1291233Y-134106D01*
X1298851D01*
X1311547D02*
X1306468D01*
X1303929Y-131567D01*
Y-126489D01*
X1306468Y-123949D01*
X1311547D01*
X1314086Y-126489D01*
Y-129028D01*
X1303929D01*
X1319164Y-134106D02*
Y-123949D01*
X1326782D01*
X1329321Y-126489D01*
Y-134106D01*
X1334399D02*
X1342017D01*
X1344556Y-131567D01*
X1342017Y-129028D01*
X1336938D01*
X1334399Y-126489D01*
X1336938Y-123949D01*
X1344556D01*
X1357252Y-134106D02*
X1352174D01*
X1349634Y-131567D01*
Y-126489D01*
X1352174Y-123949D01*
X1357252D01*
X1359791Y-126489D01*
Y-129028D01*
X1349634D01*
X1380105Y-134106D02*
Y-123949D01*
X1382644D01*
X1385183Y-126489D01*
Y-134106D01*
Y-126489D01*
X1387722Y-123949D01*
X1390261Y-126489D01*
Y-134106D01*
X1397879Y-123949D02*
X1402957D01*
X1405496Y-126489D01*
Y-134106D01*
X1397879D01*
X1395340Y-131567D01*
X1397879Y-129028D01*
X1405496D01*
X1410575Y-123949D02*
Y-131567D01*
X1413114Y-134106D01*
X1420731D01*
Y-136645D01*
X1418192Y-139184D01*
X1415653D01*
X1420731Y-134106D02*
Y-123949D01*
X1441045Y-134106D02*
Y-123949D01*
X1448662D01*
X1451202Y-126489D01*
Y-134106D01*
X1458819D02*
X1463898D01*
X1466437Y-131567D01*
Y-126489D01*
X1463898Y-123949D01*
X1458819D01*
X1456280Y-126489D01*
Y-131567D01*
X1458819Y-134106D01*
X1474054Y-121410D02*
Y-123949D01*
X1471515D01*
X1476593D01*
X1474054D01*
Y-131567D01*
X1476593Y-134106D01*
X1504524Y-139184D02*
X1507063D01*
X1509603Y-136645D01*
Y-123949D01*
X1501985D01*
X1499446Y-126489D01*
Y-131567D01*
X1501985Y-134106D01*
X1509603D01*
X1514681D02*
X1519759D01*
X1517220D01*
Y-123949D01*
X1514681D01*
X1527377D02*
X1532455Y-134106D01*
X1537534Y-123949D01*
X1550229Y-134106D02*
X1545151D01*
X1542612Y-131567D01*
Y-126489D01*
X1545151Y-123949D01*
X1550229D01*
X1552769Y-126489D01*
Y-129028D01*
X1542612D01*
X1573082Y-123949D02*
Y-131567D01*
X1575621Y-134106D01*
X1583239D01*
Y-136645D01*
X1580700Y-139184D01*
X1578161D01*
X1583239Y-134106D02*
Y-123949D01*
X1590856Y-134106D02*
X1595935D01*
X1598474Y-131567D01*
Y-126489D01*
X1595935Y-123949D01*
X1590856D01*
X1588317Y-126489D01*
Y-131567D01*
X1590856Y-134106D01*
X1603552Y-123949D02*
Y-131567D01*
X1606091Y-134106D01*
X1613709D01*
Y-123949D01*
X1636562D02*
X1641640D01*
X1644179Y-126489D01*
Y-134106D01*
X1636562D01*
X1634022Y-131567D01*
X1636562Y-129028D01*
X1644179D01*
X1649258Y-134106D02*
X1654336D01*
X1651797D01*
Y-118871D01*
X1649258D01*
X1661953Y-134106D02*
X1667032D01*
X1664493D01*
Y-118871D01*
X1661953D01*
X1692424Y-134106D02*
X1697502D01*
X1700041Y-131567D01*
Y-126489D01*
X1697502Y-123949D01*
X1692424D01*
X1689884Y-126489D01*
Y-131567D01*
X1692424Y-134106D01*
X1707659D02*
Y-121410D01*
Y-126489D01*
X1705119D01*
X1710198D01*
X1707659D01*
Y-121410D01*
X1710198Y-118871D01*
X1735589Y-121410D02*
Y-123949D01*
X1733050D01*
X1738129D01*
X1735589D01*
Y-131567D01*
X1738129Y-134106D01*
X1745746Y-118871D02*
Y-134106D01*
Y-126489D01*
X1748285Y-123949D01*
X1753364D01*
X1755903Y-126489D01*
Y-134106D01*
X1768599D02*
X1763521D01*
X1760981Y-131567D01*
Y-126489D01*
X1763521Y-123949D01*
X1768599D01*
X1771138Y-126489D01*
Y-129028D01*
X1760981D01*
X1791452Y-139184D02*
Y-123949D01*
X1799069D01*
X1801608Y-126489D01*
Y-131567D01*
X1799069Y-134106D01*
X1791452D01*
X1814304D02*
X1809226D01*
X1806687Y-131567D01*
Y-126489D01*
X1809226Y-123949D01*
X1814304D01*
X1816843Y-126489D01*
Y-129028D01*
X1806687D01*
X1821922Y-123949D02*
Y-134106D01*
Y-129028D01*
X1824461Y-126489D01*
X1827000Y-123949D01*
X1829539D01*
X1837157Y-134106D02*
Y-123949D01*
X1839696D01*
X1842235Y-126489D01*
Y-134106D01*
Y-126489D01*
X1844774Y-123949D01*
X1847313Y-126489D01*
Y-134106D01*
X1852392D02*
X1857470D01*
X1854931D01*
Y-123949D01*
X1852392D01*
X1865088Y-134106D02*
X1872705D01*
X1875244Y-131567D01*
X1872705Y-129028D01*
X1867627D01*
X1865088Y-126489D01*
X1867627Y-123949D01*
X1875244D01*
X1880323Y-134106D02*
X1887940D01*
X1890479Y-131567D01*
X1887940Y-129028D01*
X1882862D01*
X1880323Y-126489D01*
X1882862Y-123949D01*
X1890479D01*
X1895558Y-134106D02*
X1900636D01*
X1898097D01*
Y-123949D01*
X1895558D01*
X1910793Y-134106D02*
X1915871D01*
X1918410Y-131567D01*
Y-126489D01*
X1915871Y-123949D01*
X1910793D01*
X1908254Y-126489D01*
Y-131567D01*
X1910793Y-134106D01*
X1923489D02*
Y-123949D01*
X1931106D01*
X1933645Y-126489D01*
Y-134106D01*
X1938724D02*
X1946341D01*
X1948880Y-131567D01*
X1946341Y-129028D01*
X1941263D01*
X1938724Y-126489D01*
X1941263Y-123949D01*
X1948880D01*
X1969194Y-134106D02*
Y-123949D01*
X1976812D01*
X1979351Y-126489D01*
Y-134106D01*
X1992047D02*
X1986968D01*
X1984429Y-131567D01*
Y-126489D01*
X1986968Y-123949D01*
X1992047D01*
X1994586Y-126489D01*
Y-129028D01*
X1984429D01*
X2009821Y-123949D02*
X2002203D01*
X1999664Y-126489D01*
Y-131567D01*
X2002203Y-134106D01*
X2009821D01*
X2022517D02*
X2017438D01*
X2014899Y-131567D01*
Y-126489D01*
X2017438Y-123949D01*
X2022517D01*
X2025056Y-126489D01*
Y-129028D01*
X2014899D01*
X2030134Y-134106D02*
X2037752D01*
X2040291Y-131567D01*
X2037752Y-129028D01*
X2032673D01*
X2030134Y-126489D01*
X2032673Y-123949D01*
X2040291D01*
X2045369Y-134106D02*
X2052987D01*
X2055526Y-131567D01*
X2052987Y-129028D01*
X2047908D01*
X2045369Y-126489D01*
X2047908Y-123949D01*
X2055526D01*
X2063144D02*
X2068222D01*
X2070761Y-126489D01*
Y-134106D01*
X2063144D01*
X2060604Y-131567D01*
X2063144Y-129028D01*
X2070761D01*
X2075840Y-123949D02*
Y-134106D01*
Y-129028D01*
X2078379Y-126489D01*
X2080918Y-123949D01*
X2083457D01*
X2091075D02*
Y-131567D01*
X2093614Y-134106D01*
X2101231D01*
Y-136645D01*
X2098692Y-139184D01*
X2096153D01*
X2101231Y-134106D02*
Y-123949D01*
X2124084Y-134106D02*
Y-121410D01*
Y-126489D01*
X2121545D01*
X2126623D01*
X2124084D01*
Y-121410D01*
X2126623Y-118871D01*
X2136780Y-134106D02*
X2141858D01*
X2144397Y-131567D01*
Y-126489D01*
X2141858Y-123949D01*
X2136780D01*
X2134241Y-126489D01*
Y-131567D01*
X2136780Y-134106D01*
X2149476Y-123949D02*
Y-134106D01*
Y-129028D01*
X2152015Y-126489D01*
X2154554Y-123949D01*
X2157093D01*
X2179946D02*
Y-131567D01*
X2182485Y-134106D01*
X2190103D01*
Y-136645D01*
X2187563Y-139184D01*
X2185024D01*
X2190103Y-134106D02*
Y-123949D01*
X2197720Y-134106D02*
X2202798D01*
X2205338Y-131567D01*
Y-126489D01*
X2202798Y-123949D01*
X2197720D01*
X2195181Y-126489D01*
Y-131567D01*
X2197720Y-134106D01*
X2210416Y-123949D02*
Y-131567D01*
X2212955Y-134106D01*
X2220573D01*
Y-123949D01*
X2225651D02*
Y-134106D01*
Y-129028D01*
X2228190Y-126489D01*
X2230729Y-123949D01*
X2233268D01*
X831642Y-73949D02*
Y-81567D01*
X834181Y-84106D01*
X841799D01*
Y-86645D01*
X839259Y-89184D01*
X836720D01*
X841799Y-84106D02*
Y-73949D01*
X849416Y-84106D02*
X854495D01*
X857034Y-81567D01*
Y-76488D01*
X854495Y-73949D01*
X849416D01*
X846877Y-76488D01*
Y-81567D01*
X849416Y-84106D01*
X862112Y-73949D02*
Y-81567D01*
X864651Y-84106D01*
X872269D01*
Y-73949D01*
X877347D02*
Y-84106D01*
Y-79028D01*
X879886Y-76488D01*
X882426Y-73949D01*
X884965D01*
X907817D02*
Y-81567D01*
X910357Y-84106D01*
X917974D01*
Y-73949D01*
X923052Y-84106D02*
X930670D01*
X933209Y-81567D01*
X930670Y-79028D01*
X925592D01*
X923052Y-76488D01*
X925592Y-73949D01*
X933209D01*
X945905Y-84106D02*
X940827D01*
X938288Y-81567D01*
Y-76488D01*
X940827Y-73949D01*
X945905D01*
X948444Y-76488D01*
Y-79028D01*
X938288D01*
X968758Y-84106D02*
X973836D01*
X971297D01*
Y-73949D01*
X968758D01*
X981453Y-84106D02*
X989071D01*
X991610Y-81567D01*
X989071Y-79028D01*
X983993D01*
X981453Y-76488D01*
X983993Y-73949D01*
X991610D01*
X1011924Y-89184D02*
Y-73949D01*
X1019541D01*
X1022080Y-76488D01*
Y-81567D01*
X1019541Y-84106D01*
X1011924D01*
X1034776D02*
X1029698D01*
X1027159Y-81567D01*
Y-76488D01*
X1029698Y-73949D01*
X1034776D01*
X1037316Y-76488D01*
Y-79028D01*
X1027159D01*
X1042394Y-73949D02*
Y-84106D01*
Y-79028D01*
X1044933Y-76488D01*
X1047472Y-73949D01*
X1050011D01*
X1057629Y-84106D02*
Y-73949D01*
X1060168D01*
X1062707Y-76488D01*
Y-84106D01*
Y-76488D01*
X1065246Y-73949D01*
X1067786Y-76488D01*
Y-84106D01*
X1072864D02*
X1077942D01*
X1075403D01*
Y-73949D01*
X1072864D01*
X1088099Y-71410D02*
Y-73949D01*
X1085560D01*
X1090638D01*
X1088099D01*
Y-81567D01*
X1090638Y-84106D01*
X1100795Y-71410D02*
Y-73949D01*
X1098256D01*
X1103334D01*
X1100795D01*
Y-81567D01*
X1103334Y-84106D01*
X1118569D02*
X1113491D01*
X1110952Y-81567D01*
Y-76488D01*
X1113491Y-73949D01*
X1118569D01*
X1121108Y-76488D01*
Y-79028D01*
X1110952D01*
X1136343Y-68871D02*
Y-84106D01*
X1128726D01*
X1126187Y-81567D01*
Y-76488D01*
X1128726Y-73949D01*
X1136343D01*
X1156657Y-68871D02*
Y-84106D01*
X1164274D01*
X1166814Y-81567D01*
Y-79028D01*
Y-76488D01*
X1164274Y-73949D01*
X1156657D01*
X1171892D02*
Y-81567D01*
X1174431Y-84106D01*
X1182049D01*
Y-86645D01*
X1179510Y-89184D01*
X1176970D01*
X1182049Y-84106D02*
Y-73949D01*
X1204901D02*
X1209980D01*
X1212519Y-76488D01*
Y-84106D01*
X1204901D01*
X1202362Y-81567D01*
X1204901Y-79028D01*
X1212519D01*
X1217597Y-84106D02*
Y-73949D01*
X1225215D01*
X1227754Y-76488D01*
Y-84106D01*
X1250607Y-73949D02*
X1255685D01*
X1258224Y-76488D01*
Y-84106D01*
X1250607D01*
X1248067Y-81567D01*
X1250607Y-79028D01*
X1258224D01*
X1263302Y-89184D02*
Y-73949D01*
X1270920D01*
X1273459Y-76488D01*
Y-81567D01*
X1270920Y-84106D01*
X1263302D01*
X1278537Y-89184D02*
Y-73949D01*
X1286155D01*
X1288694Y-76488D01*
Y-81567D01*
X1286155Y-84106D01*
X1278537D01*
X1293772D02*
X1298851D01*
X1296312D01*
Y-68871D01*
X1293772D01*
X1306468Y-84106D02*
X1311547D01*
X1309008D01*
Y-73949D01*
X1306468D01*
X1329321D02*
X1321703D01*
X1319164Y-76488D01*
Y-81567D01*
X1321703Y-84106D01*
X1329321D01*
X1336938Y-73949D02*
X1342017D01*
X1344556Y-76488D01*
Y-84106D01*
X1336938D01*
X1334399Y-81567D01*
X1336938Y-79028D01*
X1344556D01*
X1349634Y-68871D02*
Y-84106D01*
X1357252D01*
X1359791Y-81567D01*
Y-79028D01*
Y-76488D01*
X1357252Y-73949D01*
X1349634D01*
X1364870Y-84106D02*
X1369948D01*
X1367409D01*
Y-68871D01*
X1364870D01*
X1385183Y-84106D02*
X1380105D01*
X1377565Y-81567D01*
Y-76488D01*
X1380105Y-73949D01*
X1385183D01*
X1387722Y-76488D01*
Y-79028D01*
X1377565D01*
X1415653Y-84106D02*
X1410575D01*
X1408035Y-81567D01*
Y-76488D01*
X1410575Y-73949D01*
X1415653D01*
X1418192Y-76488D01*
Y-79028D01*
X1408035D01*
X1423271Y-73949D02*
X1433427Y-84106D01*
X1428349Y-79028D01*
X1433427Y-73949D01*
X1423271Y-84106D01*
X1448662Y-73949D02*
X1441045D01*
X1438506Y-76488D01*
Y-81567D01*
X1441045Y-84106D01*
X1448662D01*
X1461358D02*
X1456280D01*
X1453741Y-81567D01*
Y-76488D01*
X1456280Y-73949D01*
X1461358D01*
X1463898Y-76488D01*
Y-79028D01*
X1453741D01*
X1468976Y-89184D02*
Y-73949D01*
X1476593D01*
X1479133Y-76488D01*
Y-81567D01*
X1476593Y-84106D01*
X1468976D01*
X1486750Y-71410D02*
Y-73949D01*
X1484211D01*
X1489289D01*
X1486750D01*
Y-81567D01*
X1489289Y-84106D01*
X1496907D02*
X1501985D01*
X1499446D01*
Y-73949D01*
X1496907D01*
X1512142Y-84106D02*
X1517220D01*
X1519759Y-81567D01*
Y-76488D01*
X1517220Y-73949D01*
X1512142D01*
X1509603Y-76488D01*
Y-81567D01*
X1512142Y-84106D01*
X1524838D02*
Y-73949D01*
X1532455D01*
X1534994Y-76488D01*
Y-84106D01*
X1557847D02*
X1562925D01*
X1565465Y-81567D01*
Y-76488D01*
X1562925Y-73949D01*
X1557847D01*
X1555308Y-76488D01*
Y-81567D01*
X1557847Y-84106D01*
X1570543Y-73949D02*
Y-84106D01*
Y-79028D01*
X1573082Y-76488D01*
X1575621Y-73949D01*
X1578161D01*
X1601013Y-84106D02*
X1606091D01*
X1603552D01*
Y-68871D01*
X1601013D01*
X1613709Y-84106D02*
X1618787D01*
X1616248D01*
Y-73949D01*
X1613709D01*
X1626405Y-84106D02*
Y-73949D01*
X1628944D01*
X1631483Y-76488D01*
Y-84106D01*
Y-76488D01*
X1634022Y-73949D01*
X1636562Y-76488D01*
Y-84106D01*
X1641640D02*
X1646718D01*
X1644179D01*
Y-73949D01*
X1641640D01*
X1656875Y-71410D02*
Y-73949D01*
X1654336D01*
X1659414D01*
X1656875D01*
Y-81567D01*
X1659414Y-84106D01*
X1669571Y-73949D02*
X1674649D01*
X1677188Y-76488D01*
Y-84106D01*
X1669571D01*
X1667032Y-81567D01*
X1669571Y-79028D01*
X1677188D01*
X1684806Y-71410D02*
Y-73949D01*
X1682267D01*
X1687345D01*
X1684806D01*
Y-81567D01*
X1687345Y-84106D01*
X1694963D02*
X1700041D01*
X1697502D01*
Y-73949D01*
X1694963D01*
X1710198Y-84106D02*
X1715276D01*
X1717815Y-81567D01*
Y-76488D01*
X1715276Y-73949D01*
X1710198D01*
X1707659Y-76488D01*
Y-81567D01*
X1710198Y-84106D01*
X1722894D02*
Y-73949D01*
X1730511D01*
X1733050Y-76488D01*
Y-84106D01*
X1738129D02*
Y-81567D01*
X1740668D01*
Y-84106D01*
X1738129D01*
X831642Y-43871D02*
Y-46410D01*
X836720Y-51488D01*
X841799Y-46410D01*
Y-43871D01*
X836720Y-51488D02*
Y-59106D01*
X849416D02*
X854495D01*
X857034Y-56567D01*
Y-51488D01*
X854495Y-48949D01*
X849416D01*
X846877Y-51488D01*
Y-56567D01*
X849416Y-59106D01*
X862112Y-48949D02*
Y-56567D01*
X864651Y-59106D01*
X872269D01*
Y-48949D01*
X902739Y-43871D02*
Y-59106D01*
X895122D01*
X892582Y-56567D01*
Y-51488D01*
X895122Y-48949D01*
X902739D01*
X910357Y-59106D02*
X915435D01*
X917974Y-56567D01*
Y-51488D01*
X915435Y-48949D01*
X910357D01*
X907817Y-51488D01*
Y-56567D01*
X910357Y-59106D01*
X938288D02*
Y-48949D01*
X945905D01*
X948444Y-51488D01*
Y-59106D01*
X956062D02*
X961140D01*
X963679Y-56567D01*
Y-51488D01*
X961140Y-48949D01*
X956062D01*
X953523Y-51488D01*
Y-56567D01*
X956062Y-59106D01*
X971297Y-46410D02*
Y-48949D01*
X968758D01*
X973836D01*
X971297D01*
Y-56567D01*
X973836Y-59106D01*
X996689Y-43871D02*
Y-59106D01*
Y-51488D01*
X999228Y-48949D01*
X1004306D01*
X1006845Y-51488D01*
Y-59106D01*
X1014463Y-48949D02*
X1019541D01*
X1022080Y-51488D01*
Y-59106D01*
X1014463D01*
X1011924Y-56567D01*
X1014463Y-54028D01*
X1022080D01*
X1027159Y-48949D02*
X1032237Y-59106D01*
X1037316Y-48949D01*
X1050011Y-59106D02*
X1044933D01*
X1042394Y-56567D01*
Y-51488D01*
X1044933Y-48949D01*
X1050011D01*
X1052551Y-51488D01*
Y-54028D01*
X1042394D01*
X1075403Y-46410D02*
Y-48949D01*
X1072864D01*
X1077942D01*
X1075403D01*
Y-56567D01*
X1077942Y-59106D01*
X1088099D02*
X1093177D01*
X1095717Y-56567D01*
Y-51488D01*
X1093177Y-48949D01*
X1088099D01*
X1085560Y-51488D01*
Y-56567D01*
X1088099Y-59106D01*
X1126187Y-48949D02*
X1118569D01*
X1116030Y-51488D01*
Y-56567D01*
X1118569Y-59106D01*
X1126187D01*
X1133804D02*
X1138883D01*
X1141422Y-56567D01*
Y-51488D01*
X1138883Y-48949D01*
X1133804D01*
X1131265Y-51488D01*
Y-56567D01*
X1133804Y-59106D01*
X1146500D02*
Y-48949D01*
X1149039D01*
X1151579Y-51488D01*
Y-59106D01*
Y-51488D01*
X1154118Y-48949D01*
X1156657Y-51488D01*
Y-59106D01*
X1161735Y-64184D02*
Y-48949D01*
X1169353D01*
X1171892Y-51488D01*
Y-56567D01*
X1169353Y-59106D01*
X1161735D01*
X1176970D02*
X1182049D01*
X1179510D01*
Y-43871D01*
X1176970D01*
X1189666Y-48949D02*
Y-56567D01*
X1192205Y-59106D01*
X1199823D01*
Y-61645D01*
X1197284Y-64184D01*
X1194744D01*
X1199823Y-59106D02*
Y-48949D01*
X1220136D02*
Y-56567D01*
X1222675Y-59106D01*
X1225215Y-56567D01*
X1227754Y-59106D01*
X1230293Y-56567D01*
Y-48949D01*
X1235371Y-59106D02*
X1240450D01*
X1237911D01*
Y-48949D01*
X1235371D01*
X1250607Y-46410D02*
Y-48949D01*
X1248067D01*
X1253146D01*
X1250607D01*
Y-56567D01*
X1253146Y-59106D01*
X1260763Y-43871D02*
Y-59106D01*
Y-51488D01*
X1263302Y-48949D01*
X1268381D01*
X1270920Y-51488D01*
Y-59106D01*
X1293772Y-46410D02*
Y-48949D01*
X1291233D01*
X1296312D01*
X1293772D01*
Y-56567D01*
X1296312Y-59106D01*
X1303929Y-43871D02*
Y-59106D01*
Y-51488D01*
X1306468Y-48949D01*
X1311547D01*
X1314086Y-51488D01*
Y-59106D01*
X1326782D02*
X1321703D01*
X1319164Y-56567D01*
Y-51488D01*
X1321703Y-48949D01*
X1326782D01*
X1329321Y-51488D01*
Y-54028D01*
X1319164D01*
X1349634Y-59106D02*
X1354713D01*
X1352174D01*
Y-43871D01*
X1349634D01*
X1362330Y-59106D02*
X1367409D01*
X1364870D01*
Y-48949D01*
X1362330D01*
X1385183D02*
X1377565D01*
X1375026Y-51488D01*
Y-56567D01*
X1377565Y-59106D01*
X1385183D01*
X1397879D02*
X1392800D01*
X1390261Y-56567D01*
Y-51488D01*
X1392800Y-48949D01*
X1397879D01*
X1400418Y-51488D01*
Y-54028D01*
X1390261D01*
X1405496Y-59106D02*
Y-48949D01*
X1413114D01*
X1415653Y-51488D01*
Y-59106D01*
X1420731D02*
X1428349D01*
X1430888Y-56567D01*
X1428349Y-54028D01*
X1423271D01*
X1420731Y-51488D01*
X1423271Y-48949D01*
X1430888D01*
X1443584Y-59106D02*
X1438506D01*
X1435966Y-56567D01*
Y-51488D01*
X1438506Y-48949D01*
X1443584D01*
X1446123Y-51488D01*
Y-54028D01*
X1435966D01*
X1468976Y-59106D02*
Y-46410D01*
Y-51488D01*
X1466437D01*
X1471515D01*
X1468976D01*
Y-46410D01*
X1471515Y-43871D01*
X1481672Y-59106D02*
X1486750D01*
X1489289Y-56567D01*
Y-51488D01*
X1486750Y-48949D01*
X1481672D01*
X1479133Y-51488D01*
Y-56567D01*
X1481672Y-59106D01*
X1494368Y-48949D02*
Y-59106D01*
Y-54028D01*
X1496907Y-51488D01*
X1499446Y-48949D01*
X1501985D01*
X1532455Y-59106D02*
X1527377D01*
X1524838Y-56567D01*
Y-51488D01*
X1527377Y-48949D01*
X1532455D01*
X1534994Y-51488D01*
Y-54028D01*
X1524838D01*
X1540073Y-59106D02*
X1545151D01*
X1542612D01*
Y-43871D01*
X1540073D01*
X1560386Y-59106D02*
X1555308D01*
X1552769Y-56567D01*
Y-51488D01*
X1555308Y-48949D01*
X1560386D01*
X1562925Y-51488D01*
Y-54028D01*
X1552769D01*
X1568004Y-59106D02*
Y-48949D01*
X1570543D01*
X1573082Y-51488D01*
Y-59106D01*
Y-51488D01*
X1575621Y-48949D01*
X1578161Y-51488D01*
Y-59106D01*
X1590856D02*
X1585778D01*
X1583239Y-56567D01*
Y-51488D01*
X1585778Y-48949D01*
X1590856D01*
X1593396Y-51488D01*
Y-54028D01*
X1583239D01*
X1598474Y-59106D02*
Y-48949D01*
X1606091D01*
X1608631Y-51488D01*
Y-59106D01*
X1616248Y-46410D02*
Y-48949D01*
X1613709D01*
X1618787D01*
X1616248D01*
Y-56567D01*
X1618787Y-59106D01*
X1626405D02*
X1634022D01*
X1636562Y-56567D01*
X1634022Y-54028D01*
X1628944D01*
X1626405Y-51488D01*
X1628944Y-48949D01*
X1636562D01*
X1659414Y-59106D02*
X1664492D01*
X1667032Y-56567D01*
Y-51488D01*
X1664492Y-48949D01*
X1659414D01*
X1656875Y-51488D01*
Y-56567D01*
X1659414Y-59106D01*
X1674649D02*
Y-46410D01*
Y-51488D01*
X1672110D01*
X1677188D01*
X1674649D01*
Y-46410D01*
X1677188Y-43871D01*
X1702580Y-46410D02*
Y-48949D01*
X1700041D01*
X1705119D01*
X1702580D01*
Y-56567D01*
X1705119Y-59106D01*
X1712737Y-43871D02*
Y-59106D01*
Y-51488D01*
X1715276Y-48949D01*
X1720354D01*
X1722894Y-51488D01*
Y-59106D01*
X1735589D02*
X1730511D01*
X1727972Y-56567D01*
Y-51488D01*
X1730511Y-48949D01*
X1735589D01*
X1738129Y-51488D01*
Y-54028D01*
X1727972D01*
X1758442Y-59106D02*
Y-48949D01*
X1760981D01*
X1763521Y-51488D01*
Y-59106D01*
Y-51488D01*
X1766060Y-48949D01*
X1768599Y-51488D01*
Y-59106D01*
X1776216Y-48949D02*
X1781295D01*
X1783834Y-51488D01*
Y-59106D01*
X1776216D01*
X1773677Y-56567D01*
X1776216Y-54028D01*
X1783834D01*
X1791452Y-46410D02*
Y-48949D01*
X1788912D01*
X1793991D01*
X1791452D01*
Y-56567D01*
X1793991Y-59106D01*
X1809226D02*
X1804147D01*
X1801608Y-56567D01*
Y-51488D01*
X1804147Y-48949D01*
X1809226D01*
X1811765Y-51488D01*
Y-54028D01*
X1801608D01*
X1816843Y-48949D02*
Y-59106D01*
Y-54028D01*
X1819382Y-51488D01*
X1821922Y-48949D01*
X1824461D01*
X1832078Y-59106D02*
X1837157D01*
X1834617D01*
Y-48949D01*
X1832078D01*
X1847313D02*
X1852392D01*
X1854931Y-51488D01*
Y-59106D01*
X1847313D01*
X1844774Y-56567D01*
X1847313Y-54028D01*
X1854931D01*
X1860009Y-59106D02*
X1865088D01*
X1862548D01*
Y-43871D01*
X1860009D01*
X1887940Y-59106D02*
X1893019D01*
X1890479D01*
Y-48949D01*
X1887940D01*
X1900636Y-59106D02*
Y-48949D01*
X1908254D01*
X1910793Y-51488D01*
Y-59106D01*
X1933645Y-46410D02*
Y-48949D01*
X1931106D01*
X1936185D01*
X1933645D01*
Y-56567D01*
X1936185Y-59106D01*
X1943802Y-43871D02*
Y-59106D01*
Y-51488D01*
X1946341Y-48949D01*
X1951420D01*
X1953959Y-51488D01*
Y-59106D01*
X1966655D02*
X1961576D01*
X1959037Y-56567D01*
Y-51488D01*
X1961576Y-48949D01*
X1966655D01*
X1969194Y-51488D01*
Y-54028D01*
X1959037D01*
X1989507Y-64184D02*
Y-48949D01*
X1997125D01*
X1999664Y-51488D01*
Y-56567D01*
X1997125Y-59106D01*
X1989507D01*
X2004742Y-48949D02*
Y-56567D01*
X2007282Y-59106D01*
X2014899D01*
Y-48949D01*
X2019978Y-43871D02*
Y-59106D01*
X2027595D01*
X2030134Y-56567D01*
Y-54028D01*
Y-51488D01*
X2027595Y-48949D01*
X2019978D01*
X2035213Y-59106D02*
X2040291D01*
X2037752D01*
Y-43871D01*
X2035213D01*
X2047908Y-59106D02*
X2052987D01*
X2050448D01*
Y-48949D01*
X2047908D01*
X2070761D02*
X2063143D01*
X2060604Y-51488D01*
Y-56567D01*
X2063143Y-59106D01*
X2070761D01*
X2101231Y-43871D02*
Y-59106D01*
X2093614D01*
X2091075Y-56567D01*
Y-51488D01*
X2093614Y-48949D01*
X2101231D01*
X2108849Y-59106D02*
X2113927D01*
X2116466Y-56567D01*
Y-51488D01*
X2113927Y-48949D01*
X2108849D01*
X2106310Y-51488D01*
Y-56567D01*
X2108849Y-59106D01*
X2121545D02*
Y-48949D01*
X2124084D01*
X2126623Y-51488D01*
Y-59106D01*
Y-51488D01*
X2129162Y-48949D01*
X2131701Y-51488D01*
Y-59106D01*
X2139319Y-48949D02*
X2144397D01*
X2146936Y-51488D01*
Y-59106D01*
X2139319D01*
X2136780Y-56567D01*
X2139319Y-54028D01*
X2146936D01*
X2152015Y-59106D02*
X2157093D01*
X2154554D01*
Y-48949D01*
X2152015D01*
X2164711Y-59106D02*
Y-48949D01*
X2172328D01*
X2174867Y-51488D01*
Y-59106D01*
X2197720D02*
X2202798D01*
X2205338Y-56567D01*
Y-51488D01*
X2202798Y-48949D01*
X2197720D01*
X2195181Y-51488D01*
Y-56567D01*
X2197720Y-59106D01*
X2210416Y-48949D02*
Y-59106D01*
Y-54028D01*
X2212955Y-51488D01*
X2215494Y-48949D01*
X2218033D01*
X2240886D02*
Y-56567D01*
X2243425Y-59106D01*
X2245964Y-56567D01*
X2248504Y-59106D01*
X2251043Y-56567D01*
Y-48949D01*
X2256121Y-43871D02*
Y-59106D01*
Y-51488D01*
X2258660Y-48949D01*
X2263739D01*
X2266278Y-51488D01*
Y-59106D01*
X2278974D02*
X2273895D01*
X2271356Y-56567D01*
Y-51488D01*
X2273895Y-48949D01*
X2278974D01*
X2281513Y-51488D01*
Y-54028D01*
X2271356D01*
X2286591Y-48949D02*
Y-59106D01*
Y-54028D01*
X2289130Y-51488D01*
X2291670Y-48949D01*
X2294209D01*
X2309444Y-59106D02*
X2304366D01*
X2301826Y-56567D01*
Y-51488D01*
X2304366Y-48949D01*
X2309444D01*
X2311983Y-51488D01*
Y-54028D01*
X2301826D01*
X831642Y-34106D02*
Y-18871D01*
X841799Y-34106D01*
Y-18871D01*
X849416Y-34106D02*
X854495D01*
X857034Y-31567D01*
Y-26488D01*
X854495Y-23949D01*
X849416D01*
X846877Y-26488D01*
Y-31567D01*
X849416Y-34106D01*
X864651Y-21410D02*
Y-23949D01*
X862112D01*
X867190D01*
X864651D01*
Y-31567D01*
X867190Y-34106D01*
X874808D02*
X879886D01*
X877347D01*
Y-23949D01*
X874808D01*
X897661D02*
X890043D01*
X887504Y-26488D01*
Y-31567D01*
X890043Y-34106D01*
X897661D01*
X910357D02*
X905278D01*
X902739Y-31567D01*
Y-26488D01*
X905278Y-23949D01*
X910357D01*
X912896Y-26488D01*
Y-29028D01*
X902739D01*
X917974Y-34106D02*
X925592D01*
X928131Y-31567D01*
X925592Y-29028D01*
X920513D01*
X917974Y-26488D01*
X920513Y-23949D01*
X928131D01*
X933209D02*
X935748D01*
Y-26488D01*
X933209D01*
Y-23949D01*
Y-31567D02*
X935748D01*
Y-34106D01*
X933209D01*
Y-31567D01*
X834181Y28590D02*
Y26051D01*
X831642D01*
X836720D01*
X834181D01*
Y18433D01*
X836720Y15894D01*
X844338Y31129D02*
Y15894D01*
Y23512D01*
X846877Y26051D01*
X851955D01*
X854495Y23512D01*
Y15894D01*
X862112Y26051D02*
X867190D01*
X869730Y23512D01*
Y15894D01*
X862112D01*
X859573Y18433D01*
X862112Y20972D01*
X869730D01*
X877347Y28590D02*
Y26051D01*
X874808D01*
X879886D01*
X877347D01*
Y18433D01*
X879886Y15894D01*
X902739D02*
X907817D01*
X905278D01*
Y31129D01*
X902739D01*
X923052Y15894D02*
X917974D01*
X915435Y18433D01*
Y23512D01*
X917974Y26051D01*
X923052D01*
X925592Y23512D01*
Y20972D01*
X915435D01*
X935748Y10816D02*
X938288D01*
X940827Y13355D01*
Y26051D01*
X933209D01*
X930670Y23512D01*
Y18433D01*
X933209Y15894D01*
X940827D01*
X948444Y26051D02*
X953523D01*
X956062Y23512D01*
Y15894D01*
X948444D01*
X945905Y18433D01*
X948444Y20972D01*
X956062D01*
X961140Y15894D02*
X966218D01*
X963679D01*
Y31129D01*
X961140D01*
X973836Y15894D02*
X978914D01*
X976375D01*
Y31129D01*
X973836D01*
X986532Y26051D02*
Y18433D01*
X989071Y15894D01*
X996689D01*
Y13355D01*
X994149Y10816D01*
X991610D01*
X996689Y15894D02*
Y26051D01*
X1017002D02*
Y15894D01*
Y20972D01*
X1019541Y23512D01*
X1022080Y26051D01*
X1024620D01*
X1039855Y15894D02*
X1034776D01*
X1032237Y18433D01*
Y23512D01*
X1034776Y26051D01*
X1039855D01*
X1042394Y23512D01*
Y20972D01*
X1032237D01*
X1047472Y15894D02*
X1055090D01*
X1057629Y18433D01*
X1055090Y20972D01*
X1050011D01*
X1047472Y23512D01*
X1050011Y26051D01*
X1057629D01*
X1065246Y28590D02*
Y26051D01*
X1062707D01*
X1067786D01*
X1065246D01*
Y18433D01*
X1067786Y15894D01*
X1075403Y26051D02*
Y15894D01*
Y20972D01*
X1077942Y23512D01*
X1080481Y26051D01*
X1083021D01*
X1090638Y15894D02*
X1095716D01*
X1093177D01*
Y26051D01*
X1090638D01*
X1113491D02*
X1105873D01*
X1103334Y23512D01*
Y18433D01*
X1105873Y15894D01*
X1113491D01*
X1121108Y28590D02*
Y26051D01*
X1118569D01*
X1123648D01*
X1121108D01*
Y18433D01*
X1123648Y15894D01*
X1149039D02*
X1154118D01*
X1156657Y18433D01*
Y23512D01*
X1154118Y26051D01*
X1149039D01*
X1146500Y23512D01*
Y18433D01*
X1149039Y15894D01*
X1164274Y28590D02*
Y26051D01*
X1161735D01*
X1166814D01*
X1164274D01*
Y18433D01*
X1166814Y15894D01*
X1174431Y31129D02*
Y15894D01*
Y23512D01*
X1176970Y26051D01*
X1182049D01*
X1184588Y23512D01*
Y15894D01*
X1197284D02*
X1192205D01*
X1189666Y18433D01*
Y23512D01*
X1192205Y26051D01*
X1197284D01*
X1199823Y23512D01*
Y20972D01*
X1189666D01*
X1204901Y26051D02*
Y15894D01*
Y20972D01*
X1207440Y23512D01*
X1209979Y26051D01*
X1212519D01*
X1220136Y15894D02*
X1227754D01*
X1230293Y18433D01*
X1227754Y20972D01*
X1222675D01*
X1220136Y23512D01*
X1222675Y26051D01*
X1230293D01*
X1253146Y15894D02*
Y28590D01*
Y23512D01*
X1250606D01*
X1255685D01*
X1253146D01*
Y28590D01*
X1255685Y31129D01*
X1263302Y26051D02*
Y15894D01*
Y20972D01*
X1265842Y23512D01*
X1268381Y26051D01*
X1270920D01*
X1281077Y15894D02*
X1286155D01*
X1288694Y18433D01*
Y23512D01*
X1286155Y26051D01*
X1281077D01*
X1278537Y23512D01*
Y18433D01*
X1281077Y15894D01*
X1293772D02*
Y26051D01*
X1296312D01*
X1298851Y23512D01*
Y15894D01*
Y23512D01*
X1301390Y26051D01*
X1303929Y23512D01*
Y15894D01*
X1334399Y31129D02*
Y15894D01*
X1326782D01*
X1324243Y18433D01*
Y23512D01*
X1326782Y26051D01*
X1334399D01*
X1342017Y15894D02*
X1347095D01*
X1349634Y18433D01*
Y23512D01*
X1347095Y26051D01*
X1342017D01*
X1339478Y23512D01*
Y18433D01*
X1342017Y15894D01*
X1354713D02*
X1359791D01*
X1357252D01*
Y26051D01*
X1354713D01*
X1367409Y15894D02*
Y26051D01*
X1375026D01*
X1377565Y23512D01*
Y15894D01*
X1387722Y10816D02*
X1390261D01*
X1392800Y13355D01*
Y26051D01*
X1385183D01*
X1382644Y23512D01*
Y18433D01*
X1385183Y15894D01*
X1392800D01*
X1415653Y26051D02*
X1420731D01*
X1423271Y23512D01*
Y15894D01*
X1415653D01*
X1413114Y18433D01*
X1415653Y20972D01*
X1423271D01*
X1428349Y15894D02*
Y26051D01*
X1435966D01*
X1438506Y23512D01*
Y15894D01*
X1443584Y26051D02*
Y18433D01*
X1446123Y15894D01*
X1453741D01*
Y13355D01*
X1451201Y10816D01*
X1448662D01*
X1453741Y15894D02*
Y26051D01*
X1461358Y28590D02*
Y26051D01*
X1458819D01*
X1463897D01*
X1461358D01*
Y18433D01*
X1463897Y15894D01*
X1471515Y31129D02*
Y15894D01*
Y23512D01*
X1474054Y26051D01*
X1479133D01*
X1481672Y23512D01*
Y15894D01*
X1486750D02*
X1491828D01*
X1489289D01*
Y26051D01*
X1486750D01*
X1499446Y15894D02*
Y26051D01*
X1507063D01*
X1509603Y23512D01*
Y15894D01*
X1519759Y10816D02*
X1522298D01*
X1524838Y13355D01*
Y26051D01*
X1517220D01*
X1514681Y23512D01*
Y18433D01*
X1517220Y15894D01*
X1524838D01*
X1547690Y28590D02*
Y26051D01*
X1545151D01*
X1550229D01*
X1547690D01*
Y18433D01*
X1550229Y15894D01*
X1557847Y31129D02*
Y15894D01*
Y23512D01*
X1560386Y26051D01*
X1565464D01*
X1568004Y23512D01*
Y15894D01*
X1580700D02*
X1575621D01*
X1573082Y18433D01*
Y23512D01*
X1575621Y26051D01*
X1580700D01*
X1583239Y23512D01*
Y20972D01*
X1573082D01*
X1603552Y15894D02*
X1608631D01*
X1606091D01*
Y31129D01*
X1603552D01*
X1616248Y15894D02*
X1621326D01*
X1618787D01*
Y26051D01*
X1616248D01*
X1639101D02*
X1631483D01*
X1628944Y23512D01*
Y18433D01*
X1631483Y15894D01*
X1639101D01*
X1651797D02*
X1646718D01*
X1644179Y18433D01*
Y23512D01*
X1646718Y26051D01*
X1651797D01*
X1654336Y23512D01*
Y20972D01*
X1644179D01*
X1659414Y15894D02*
Y26051D01*
X1667032D01*
X1669571Y23512D01*
Y15894D01*
X1674649D02*
X1682267D01*
X1684806Y18433D01*
X1682267Y20972D01*
X1677188D01*
X1674649Y23512D01*
X1677188Y26051D01*
X1684806D01*
X1697502Y15894D02*
X1692424D01*
X1689884Y18433D01*
Y23512D01*
X1692424Y26051D01*
X1697502D01*
X1700041Y23512D01*
Y20972D01*
X1689884D01*
X1720354Y10816D02*
Y26051D01*
X1727972D01*
X1730511Y23512D01*
Y18433D01*
X1727972Y15894D01*
X1720354D01*
X1743207D02*
X1738129D01*
X1735589Y18433D01*
Y23512D01*
X1738129Y26051D01*
X1743207D01*
X1745746Y23512D01*
Y20972D01*
X1735589D01*
X1750825Y26051D02*
Y15894D01*
Y20972D01*
X1753364Y23512D01*
X1755903Y26051D01*
X1758442D01*
X1766060Y15894D02*
Y26051D01*
X1768599D01*
X1771138Y23512D01*
Y15894D01*
Y23512D01*
X1773677Y26051D01*
X1776216Y23512D01*
Y15894D01*
X1781295D02*
X1786373D01*
X1783834D01*
Y26051D01*
X1781295D01*
X1796530Y28590D02*
Y26051D01*
X1793991D01*
X1799069D01*
X1796530D01*
Y18433D01*
X1799069Y15894D01*
X1806687D02*
X1814304D01*
X1816843Y18433D01*
X1814304Y20972D01*
X1809226D01*
X1806687Y23512D01*
X1809226Y26051D01*
X1816843D01*
X1821922Y15894D02*
Y18433D01*
X1824461D01*
Y15894D01*
X1821922D01*
X831642Y40894D02*
Y56129D01*
X841799Y40894D01*
Y56129D01*
X849416Y40894D02*
X854495D01*
X857034Y43433D01*
Y48512D01*
X854495Y51051D01*
X849416D01*
X846877Y48512D01*
Y43433D01*
X849416Y40894D01*
X879886Y51051D02*
X884965D01*
X887504Y48512D01*
Y40894D01*
X879886D01*
X877347Y43433D01*
X879886Y45972D01*
X887504D01*
X902739Y56129D02*
Y40894D01*
X895122D01*
X892582Y43433D01*
Y48512D01*
X895122Y51051D01*
X902739D01*
X917974Y56129D02*
Y40894D01*
X910357D01*
X907817Y43433D01*
Y48512D01*
X910357Y51051D01*
X917974D01*
X923052Y40894D02*
X928131D01*
X925592D01*
Y51051D01*
X923052D01*
X938288Y53590D02*
Y51051D01*
X935748D01*
X940827D01*
X938288D01*
Y43433D01*
X940827Y40894D01*
X948444D02*
X953523D01*
X950983D01*
Y51051D01*
X948444D01*
X963679Y40894D02*
X968758D01*
X971297Y43433D01*
Y48512D01*
X968758Y51051D01*
X963679D01*
X961140Y48512D01*
Y43433D01*
X963679Y40894D01*
X976375D02*
Y51051D01*
X983993D01*
X986532Y48512D01*
Y40894D01*
X994149Y51051D02*
X999228D01*
X1001767Y48512D01*
Y40894D01*
X994149D01*
X991610Y43433D01*
X994149Y45972D01*
X1001767D01*
X1006845Y40894D02*
X1011924D01*
X1009385D01*
Y56129D01*
X1006845D01*
X1034776Y51051D02*
Y40894D01*
Y45972D01*
X1037316Y48512D01*
X1039855Y51051D01*
X1042394D01*
X1057629Y40894D02*
X1052551D01*
X1050011Y43433D01*
Y48512D01*
X1052551Y51051D01*
X1057629D01*
X1060168Y48512D01*
Y45972D01*
X1050011D01*
X1065246Y40894D02*
X1072864D01*
X1075403Y43433D01*
X1072864Y45972D01*
X1067786D01*
X1065246Y48512D01*
X1067786Y51051D01*
X1075403D01*
X1083021Y53590D02*
Y51051D01*
X1080481D01*
X1085560D01*
X1083021D01*
Y43433D01*
X1085560Y40894D01*
X1093177Y51051D02*
Y40894D01*
Y45972D01*
X1095717Y48512D01*
X1098256Y51051D01*
X1100795D01*
X1108412Y40894D02*
X1113491D01*
X1110952D01*
Y51051D01*
X1108412D01*
X1131265D02*
X1123648D01*
X1121108Y48512D01*
Y43433D01*
X1123648Y40894D01*
X1131265D01*
X1138883Y53590D02*
Y51051D01*
X1136343D01*
X1141422D01*
X1138883D01*
Y43433D01*
X1141422Y40894D01*
X1149039D02*
X1154118D01*
X1151579D01*
Y51051D01*
X1149039D01*
X1164274Y40894D02*
X1169353D01*
X1171892Y43433D01*
Y48512D01*
X1169353Y51051D01*
X1164274D01*
X1161735Y48512D01*
Y43433D01*
X1164274Y40894D01*
X1176970D02*
Y51051D01*
X1184588D01*
X1187127Y48512D01*
Y40894D01*
X1192205D02*
X1199823D01*
X1202362Y43433D01*
X1199823Y45972D01*
X1194744D01*
X1192205Y48512D01*
X1194744Y51051D01*
X1202362D01*
X1222675Y48512D02*
X1232832D01*
X1253146Y56129D02*
Y53590D01*
X1258224Y48512D01*
X1263302Y53590D01*
Y56129D01*
X1258224Y48512D02*
Y40894D01*
X1270920D02*
X1275998D01*
X1278537Y43433D01*
Y48512D01*
X1275998Y51051D01*
X1270920D01*
X1268381Y48512D01*
Y43433D01*
X1270920Y40894D01*
X1283616Y51051D02*
Y43433D01*
X1286155Y40894D01*
X1293772D01*
Y51051D01*
X1314086Y40894D02*
Y51051D01*
X1316625D01*
X1319164Y48512D01*
Y40894D01*
Y48512D01*
X1321703Y51051D01*
X1324243Y48512D01*
Y40894D01*
X1331860Y51051D02*
X1336938D01*
X1339478Y48512D01*
Y40894D01*
X1331860D01*
X1329321Y43433D01*
X1331860Y45972D01*
X1339478D01*
X1344556Y51051D02*
Y43433D01*
X1347095Y40894D01*
X1354713D01*
Y38355D01*
X1352174Y35816D01*
X1349634D01*
X1354713Y40894D02*
Y51051D01*
X1375026Y40894D02*
Y51051D01*
X1382644D01*
X1385183Y48512D01*
Y40894D01*
X1392800D02*
X1397879D01*
X1400418Y43433D01*
Y48512D01*
X1397879Y51051D01*
X1392800D01*
X1390261Y48512D01*
Y43433D01*
X1392800Y40894D01*
X1408035Y53590D02*
Y51051D01*
X1405496D01*
X1410575D01*
X1408035D01*
Y43433D01*
X1410575Y40894D01*
X1435966Y51051D02*
X1441045D01*
X1443584Y48512D01*
Y40894D01*
X1435966D01*
X1433427Y43433D01*
X1435966Y45972D01*
X1443584D01*
X1448662Y35816D02*
Y51051D01*
X1456280D01*
X1458819Y48512D01*
Y43433D01*
X1456280Y40894D01*
X1448662D01*
X1463897Y35816D02*
Y51051D01*
X1471515D01*
X1474054Y48512D01*
Y43433D01*
X1471515Y40894D01*
X1463897D01*
X1479133D02*
X1484211D01*
X1481672D01*
Y56129D01*
X1479133D01*
X1491828Y51051D02*
Y43433D01*
X1494368Y40894D01*
X1501985D01*
Y38355D01*
X1499446Y35816D01*
X1496907D01*
X1501985Y40894D02*
Y51051D01*
X1522298Y40894D02*
X1527377D01*
X1524838D01*
Y56129D01*
X1522298D01*
X1542612Y40894D02*
X1537534D01*
X1534994Y43433D01*
Y48512D01*
X1537534Y51051D01*
X1542612D01*
X1545151Y48512D01*
Y45972D01*
X1534994D01*
X1555308Y35816D02*
X1557847D01*
X1560386Y38355D01*
Y51051D01*
X1552769D01*
X1550229Y48512D01*
Y43433D01*
X1552769Y40894D01*
X1560386D01*
X1568004Y51051D02*
X1573082D01*
X1575621Y48512D01*
Y40894D01*
X1568004D01*
X1565465Y43433D01*
X1568004Y45972D01*
X1575621D01*
X1580700Y40894D02*
X1585778D01*
X1583239D01*
Y56129D01*
X1580700D01*
X1611170Y53590D02*
Y51051D01*
X1608631D01*
X1613709D01*
X1611170D01*
Y43433D01*
X1613709Y40894D01*
X1628944D02*
X1623866D01*
X1621326Y43433D01*
Y48512D01*
X1623866Y51051D01*
X1628944D01*
X1631483Y48512D01*
Y45972D01*
X1621326D01*
X1636561Y51051D02*
Y40894D01*
Y45972D01*
X1639101Y48512D01*
X1641640Y51051D01*
X1644179D01*
X1651797Y40894D02*
Y51051D01*
X1654336D01*
X1656875Y48512D01*
Y40894D01*
Y48512D01*
X1659414Y51051D01*
X1661953Y48512D01*
Y40894D01*
X1667032D02*
X1674649D01*
X1677188Y43433D01*
X1674649Y45972D01*
X1669571D01*
X1667032Y48512D01*
X1669571Y51051D01*
X1677188D01*
X1700041Y40894D02*
X1705119D01*
X1707659Y43433D01*
Y48512D01*
X1705119Y51051D01*
X1700041D01*
X1697502Y48512D01*
Y43433D01*
X1700041Y40894D01*
X1712737Y51051D02*
Y40894D01*
Y45972D01*
X1715276Y48512D01*
X1717815Y51051D01*
X1720354D01*
X1745746Y53590D02*
Y51051D01*
X1743207D01*
X1748285D01*
X1745746D01*
Y43433D01*
X1748285Y40894D01*
X1763521D02*
X1758442D01*
X1755903Y43433D01*
Y48512D01*
X1758442Y51051D01*
X1763521D01*
X1766060Y48512D01*
Y45972D01*
X1755903D01*
X1781295Y51051D02*
X1773677D01*
X1771138Y48512D01*
Y43433D01*
X1773677Y40894D01*
X1781295D01*
X1786373Y56129D02*
Y40894D01*
Y48512D01*
X1788912Y51051D01*
X1793991D01*
X1796530Y48512D01*
Y40894D01*
X1801608D02*
Y51051D01*
X1809226D01*
X1811765Y48512D01*
Y40894D01*
X1819382D02*
X1824461D01*
X1827000Y43433D01*
Y48512D01*
X1824461Y51051D01*
X1819382D01*
X1816843Y48512D01*
Y43433D01*
X1819382Y40894D01*
X1832078D02*
X1837157D01*
X1834617D01*
Y56129D01*
X1832078D01*
X1847313Y40894D02*
X1852392D01*
X1854931Y43433D01*
Y48512D01*
X1852392Y51051D01*
X1847313D01*
X1844774Y48512D01*
Y43433D01*
X1847313Y40894D01*
X1865088Y35816D02*
X1867627D01*
X1870166Y38355D01*
Y51051D01*
X1862548D01*
X1860009Y48512D01*
Y43433D01*
X1862548Y40894D01*
X1870166D01*
X1875244D02*
X1880323D01*
X1877784D01*
Y51051D01*
X1875244D01*
X1898097D02*
X1890479D01*
X1887940Y48512D01*
Y43433D01*
X1890479Y40894D01*
X1898097D01*
X1905715Y51051D02*
X1910793D01*
X1913332Y48512D01*
Y40894D01*
X1905715D01*
X1903175Y43433D01*
X1905715Y45972D01*
X1913332D01*
X1918410Y40894D02*
X1923489D01*
X1920950D01*
Y56129D01*
X1918410D01*
X1946341Y40894D02*
Y51051D01*
X1948880D01*
X1951420Y48512D01*
Y40894D01*
Y48512D01*
X1953959Y51051D01*
X1956498Y48512D01*
Y40894D01*
X1969194D02*
X1964116D01*
X1961576Y43433D01*
Y48512D01*
X1964116Y51051D01*
X1969194D01*
X1971733Y48512D01*
Y45972D01*
X1961576D01*
X1979351Y51051D02*
X1984429D01*
X1986968Y48512D01*
Y40894D01*
X1979351D01*
X1976812Y43433D01*
X1979351Y45972D01*
X1986968D01*
X1992047Y40894D02*
X1999664D01*
X2002203Y43433D01*
X1999664Y45972D01*
X1994586D01*
X1992047Y48512D01*
X1994586Y51051D01*
X2002203D01*
X2007282D02*
Y43433D01*
X2009821Y40894D01*
X2017438D01*
Y51051D01*
X2022517D02*
Y40894D01*
Y45972D01*
X2025056Y48512D01*
X2027595Y51051D01*
X2030134D01*
X2045369Y40894D02*
X2040291D01*
X2037752Y43433D01*
Y48512D01*
X2040291Y51051D01*
X2045369D01*
X2047908Y48512D01*
Y45972D01*
X2037752D01*
X2052987Y40894D02*
X2060604D01*
X2063143Y43433D01*
X2060604Y45972D01*
X2055526D01*
X2052987Y48512D01*
X2055526Y51051D01*
X2063143D01*
X833642Y182051D02*
Y174433D01*
X836181Y171894D01*
X838720Y174433D01*
X841260Y171894D01*
X843799Y174433D01*
Y182051D01*
X851416D02*
X856495D01*
X859034Y179512D01*
Y171894D01*
X851416D01*
X848877Y174433D01*
X851416Y176972D01*
X859034D01*
X864112Y182051D02*
Y174433D01*
X866651Y171894D01*
X874269D01*
Y169355D01*
X871730Y166816D01*
X869191D01*
X874269Y171894D02*
Y182051D01*
X897122Y184590D02*
Y182051D01*
X894582D01*
X899661D01*
X897122D01*
Y174433D01*
X899661Y171894D01*
X907278Y187129D02*
Y171894D01*
Y179512D01*
X909817Y182051D01*
X914896D01*
X917435Y179512D01*
Y171894D01*
X925052Y182051D02*
X930131D01*
X932670Y179512D01*
Y171894D01*
X925052D01*
X922513Y174433D01*
X925052Y176972D01*
X932670D01*
X940287Y184590D02*
Y182051D01*
X937748D01*
X942827D01*
X940287D01*
Y174433D01*
X942827Y171894D01*
X965679D02*
X973297D01*
X975836Y174433D01*
X973297Y176972D01*
X968219D01*
X965679Y179512D01*
X968219Y182051D01*
X975836D01*
X980914D02*
Y174433D01*
X983454Y171894D01*
X991071D01*
Y182051D01*
X1001228Y166816D02*
X1003767D01*
X1006306Y169355D01*
Y182051D01*
X998689D01*
X996149Y179512D01*
Y174433D01*
X998689Y171894D01*
X1006306D01*
X1016463Y166816D02*
X1019002D01*
X1021541Y169355D01*
Y182051D01*
X1013924D01*
X1011385Y179512D01*
Y174433D01*
X1013924Y171894D01*
X1021541D01*
X1034237D02*
X1029159D01*
X1026620Y174433D01*
Y179512D01*
X1029159Y182051D01*
X1034237D01*
X1036776Y179512D01*
Y176972D01*
X1026620D01*
X1041855Y171894D02*
X1049472D01*
X1052011Y174433D01*
X1049472Y176972D01*
X1044394D01*
X1041855Y179512D01*
X1044394Y182051D01*
X1052011D01*
X1059629Y184590D02*
Y182051D01*
X1057090D01*
X1062168D01*
X1059629D01*
Y174433D01*
X1062168Y171894D01*
X1069786D02*
X1077403D01*
X1079942Y174433D01*
X1077403Y176972D01*
X1072325D01*
X1069786Y179512D01*
X1072325Y182051D01*
X1079942D01*
X1102795Y184590D02*
Y182051D01*
X1100256D01*
X1105334D01*
X1102795D01*
Y174433D01*
X1105334Y171894D01*
X1112952Y187129D02*
Y171894D01*
Y179512D01*
X1115491Y182051D01*
X1120569D01*
X1123108Y179512D01*
Y171894D01*
X1135804D02*
X1130726D01*
X1128187Y174433D01*
Y179512D01*
X1130726Y182051D01*
X1135804D01*
X1138343Y179512D01*
Y176972D01*
X1128187D01*
X1158657Y171894D02*
X1163735D01*
X1161196D01*
Y187129D01*
X1158657D01*
X1171353Y171894D02*
X1176431D01*
X1173892D01*
Y182051D01*
X1171353D01*
X1194205D02*
X1186588D01*
X1184049Y179512D01*
Y174433D01*
X1186588Y171894D01*
X1194205D01*
X1206901D02*
X1201823D01*
X1199284Y174433D01*
Y179512D01*
X1201823Y182051D01*
X1206901D01*
X1209440Y179512D01*
Y176972D01*
X1199284D01*
X1214519Y171894D02*
Y182051D01*
X1222136D01*
X1224676Y179512D01*
Y171894D01*
X1229754D02*
X1237371D01*
X1239911Y174433D01*
X1237371Y176972D01*
X1232293D01*
X1229754Y179512D01*
X1232293Y182051D01*
X1239911D01*
X1247528Y171894D02*
X1252607D01*
X1255146Y174433D01*
Y179512D01*
X1252607Y182051D01*
X1247528D01*
X1244989Y179512D01*
Y174433D01*
X1247528Y171894D01*
X1260224Y182051D02*
Y171894D01*
Y176972D01*
X1262763Y179512D01*
X1265302Y182051D01*
X1267841D01*
X1298312Y171894D02*
X1293233D01*
X1290694Y174433D01*
Y179512D01*
X1293233Y182051D01*
X1298312D01*
X1300851Y179512D01*
Y176972D01*
X1290694D01*
X1305929Y171894D02*
Y182051D01*
X1313547D01*
X1316086Y179512D01*
Y171894D01*
X1331321Y187129D02*
Y171894D01*
X1323703D01*
X1321164Y174433D01*
Y179512D01*
X1323703Y182051D01*
X1331321D01*
X1338938Y171894D02*
X1344017D01*
X1346556Y174433D01*
Y179512D01*
X1344017Y182051D01*
X1338938D01*
X1336399Y179512D01*
Y174433D01*
X1338938Y171894D01*
X1351634Y182051D02*
Y171894D01*
Y176972D01*
X1354174Y179512D01*
X1356713Y182051D01*
X1359252D01*
X1366870Y171894D02*
X1374487D01*
X1377026Y174433D01*
X1374487Y176972D01*
X1369409D01*
X1366870Y179512D01*
X1369409Y182051D01*
X1377026D01*
X1389722Y171894D02*
X1384644D01*
X1382105Y174433D01*
Y179512D01*
X1384644Y182051D01*
X1389722D01*
X1392261Y179512D01*
Y176972D01*
X1382105D01*
X1397340Y171894D02*
X1404957D01*
X1407496Y174433D01*
X1404957Y176972D01*
X1399879D01*
X1397340Y179512D01*
X1399879Y182051D01*
X1407496D01*
X1427810D02*
Y174433D01*
X1430349Y171894D01*
X1437966D01*
Y169355D01*
X1435427Y166816D01*
X1432888D01*
X1437966Y171894D02*
Y182051D01*
X1445584Y171894D02*
X1450662D01*
X1453202Y174433D01*
Y179512D01*
X1450662Y182051D01*
X1445584D01*
X1443045Y179512D01*
Y174433D01*
X1445584Y171894D01*
X1458280Y182051D02*
Y174433D01*
X1460819Y171894D01*
X1468437D01*
Y182051D01*
X1491289Y171894D02*
X1496368D01*
X1498907Y174433D01*
Y179512D01*
X1496368Y182051D01*
X1491289D01*
X1488750Y179512D01*
Y174433D01*
X1491289Y171894D01*
X1503985Y182051D02*
Y171894D01*
Y176972D01*
X1506524Y179512D01*
X1509064Y182051D01*
X1511603D01*
X1534455D02*
Y174433D01*
X1536994Y171894D01*
X1544612D01*
Y169355D01*
X1542073Y166816D01*
X1539534D01*
X1544612Y171894D02*
Y182051D01*
X1552230Y171894D02*
X1557308D01*
X1559847Y174433D01*
Y179512D01*
X1557308Y182051D01*
X1552230D01*
X1549690Y179512D01*
Y174433D01*
X1552230Y171894D01*
X1564925Y182051D02*
Y174433D01*
X1567465Y171894D01*
X1575082D01*
Y182051D01*
X1580161D02*
Y171894D01*
Y176972D01*
X1582700Y179512D01*
X1585239Y182051D01*
X1587778D01*
X1610631D02*
Y174433D01*
X1613170Y171894D01*
X1620787D01*
Y182051D01*
X1625866Y171894D02*
X1633483D01*
X1636022Y174433D01*
X1633483Y176972D01*
X1628405D01*
X1625866Y179512D01*
X1628405Y182051D01*
X1636022D01*
X1648718Y171894D02*
X1643640D01*
X1641101Y174433D01*
Y179512D01*
X1643640Y182051D01*
X1648718D01*
X1651257Y179512D01*
Y176972D01*
X1641101D01*
X1656336Y171894D02*
Y174433D01*
X1658875D01*
Y171894D01*
X1656336D01*
X833642Y196894D02*
X838720D01*
X836181D01*
Y207051D01*
X833642D01*
X846338Y196894D02*
Y207051D01*
X853955D01*
X856495Y204512D01*
Y196894D01*
X871730Y212129D02*
Y196894D01*
X864112D01*
X861573Y199433D01*
Y204512D01*
X864112Y207051D01*
X871730D01*
X876808Y196894D02*
X881886D01*
X879347D01*
Y207051D01*
X876808D01*
X899661D02*
X892043D01*
X889504Y204512D01*
Y199433D01*
X892043Y196894D01*
X899661D01*
X907278Y207051D02*
X912356D01*
X914896Y204512D01*
Y196894D01*
X907278D01*
X904739Y199433D01*
X907278Y201972D01*
X914896D01*
X922513Y209590D02*
Y207051D01*
X919974D01*
X925052D01*
X922513D01*
Y199433D01*
X925052Y196894D01*
X940287D02*
X935209D01*
X932670Y199433D01*
Y204512D01*
X935209Y207051D01*
X940287D01*
X942827Y204512D01*
Y201972D01*
X932670D01*
X963140Y196894D02*
X968219D01*
X965679D01*
Y207051D01*
X963140D01*
X978375Y196894D02*
Y209590D01*
Y204512D01*
X975836D01*
X980914D01*
X978375D01*
Y209590D01*
X980914Y212129D01*
X1013924Y207051D02*
X1006306D01*
X1003767Y204512D01*
Y199433D01*
X1006306Y196894D01*
X1013924D01*
X1019002Y212129D02*
Y196894D01*
Y204512D01*
X1021541Y207051D01*
X1026620D01*
X1029159Y204512D01*
Y196894D01*
X1036776Y207051D02*
X1041855D01*
X1044394Y204512D01*
Y196894D01*
X1036776D01*
X1034237Y199433D01*
X1036776Y201972D01*
X1044394D01*
X1049472Y196894D02*
Y207051D01*
X1057090D01*
X1059629Y204512D01*
Y196894D01*
X1069786Y191816D02*
X1072325D01*
X1074864Y194355D01*
Y207051D01*
X1067246D01*
X1064707Y204512D01*
Y199433D01*
X1067246Y196894D01*
X1074864D01*
X1087560D02*
X1082482D01*
X1079942Y199433D01*
Y204512D01*
X1082482Y207051D01*
X1087560D01*
X1090099Y204512D01*
Y201972D01*
X1079942D01*
X1095177Y196894D02*
X1102795D01*
X1105334Y199433D01*
X1102795Y201972D01*
X1097717D01*
X1095177Y204512D01*
X1097717Y207051D01*
X1105334D01*
X1125648D02*
Y199433D01*
X1128187Y196894D01*
X1130726Y199433D01*
X1133265Y196894D01*
X1135804Y199433D01*
Y207051D01*
X1148500Y196894D02*
X1143422D01*
X1140883Y199433D01*
Y204512D01*
X1143422Y207051D01*
X1148500D01*
X1151039Y204512D01*
Y201972D01*
X1140883D01*
X1156118Y207051D02*
Y196894D01*
Y201972D01*
X1158657Y204512D01*
X1161196Y207051D01*
X1163735D01*
X1178970Y196894D02*
X1173892D01*
X1171353Y199433D01*
Y204512D01*
X1173892Y207051D01*
X1178970D01*
X1181509Y204512D01*
Y201972D01*
X1171353D01*
X1201823Y196894D02*
Y207051D01*
X1204362D01*
X1206901Y204512D01*
Y196894D01*
Y204512D01*
X1209440Y207051D01*
X1211980Y204512D01*
Y196894D01*
X1219597Y207051D02*
X1224676D01*
X1227215Y204512D01*
Y196894D01*
X1219597D01*
X1217058Y199433D01*
X1219597Y201972D01*
X1227215D01*
X1242450Y212129D02*
Y196894D01*
X1234832D01*
X1232293Y199433D01*
Y204512D01*
X1234832Y207051D01*
X1242450D01*
X1255146Y196894D02*
X1250067D01*
X1247528Y199433D01*
Y204512D01*
X1250067Y207051D01*
X1255146D01*
X1257685Y204512D01*
Y201972D01*
X1247528D01*
X1262763Y196894D02*
Y199433D01*
X1265302D01*
Y196894D01*
X1262763D01*
X1290694Y212129D02*
Y209590D01*
X1295773Y204512D01*
X1300851Y209590D01*
Y212129D01*
X1295773Y204512D02*
Y196894D01*
X1308468D02*
X1313547D01*
X1316086Y199433D01*
Y204512D01*
X1313547Y207051D01*
X1308468D01*
X1305929Y204512D01*
Y199433D01*
X1308468Y196894D01*
X1321164Y207051D02*
Y199433D01*
X1323703Y196894D01*
X1331321D01*
Y207051D01*
X1351634Y196894D02*
Y207051D01*
X1354174D01*
X1356713Y204512D01*
Y196894D01*
Y204512D01*
X1359252Y207051D01*
X1361791Y204512D01*
Y196894D01*
X1369409Y207051D02*
X1374487D01*
X1377026Y204512D01*
Y196894D01*
X1369409D01*
X1366870Y199433D01*
X1369409Y201972D01*
X1377026D01*
X1382105Y207051D02*
Y199433D01*
X1384644Y196894D01*
X1392261D01*
Y194355D01*
X1389722Y191816D01*
X1387183D01*
X1392261Y196894D02*
Y207051D01*
X1422731Y212129D02*
Y196894D01*
X1415114D01*
X1412575Y199433D01*
Y204512D01*
X1415114Y207051D01*
X1422731D01*
X1430349Y196894D02*
X1435427D01*
X1437966Y199433D01*
Y204512D01*
X1435427Y207051D01*
X1430349D01*
X1427810Y204512D01*
Y199433D01*
X1430349Y196894D01*
X1458280D02*
X1465898D01*
X1468437Y199433D01*
X1465898Y201972D01*
X1460819D01*
X1458280Y204512D01*
X1460819Y207051D01*
X1468437D01*
X1476054Y196894D02*
X1481133D01*
X1483672Y199433D01*
Y204512D01*
X1481133Y207051D01*
X1476054D01*
X1473515Y204512D01*
Y199433D01*
X1476054Y196894D01*
X1503985D02*
X1509064D01*
X1506524D01*
Y207051D01*
X1503985D01*
X1516681Y196894D02*
Y207051D01*
X1524299D01*
X1526838Y204512D01*
Y196894D01*
X1549690Y207051D02*
X1554769D01*
X1557308Y204512D01*
Y196894D01*
X1549690D01*
X1547151Y199433D01*
X1549690Y201972D01*
X1557308D01*
X1562386Y196894D02*
Y207051D01*
X1570004D01*
X1572543Y204512D01*
Y196894D01*
X1577621Y207051D02*
Y199433D01*
X1580161Y196894D01*
X1587778D01*
Y194355D01*
X1585239Y191816D01*
X1582700D01*
X1587778Y196894D02*
Y207051D01*
X1608091D02*
Y196894D01*
Y201972D01*
X1610631Y204512D01*
X1613170Y207051D01*
X1615709D01*
X1630944Y196894D02*
X1625866D01*
X1623327Y199433D01*
Y204512D01*
X1625866Y207051D01*
X1630944D01*
X1633483Y204512D01*
Y201972D01*
X1623327D01*
X1641101Y207051D02*
X1646179D01*
X1648718Y204512D01*
Y196894D01*
X1641101D01*
X1638562Y199433D01*
X1641101Y201972D01*
X1648718D01*
X1653797Y196894D02*
X1661414D01*
X1663953Y199433D01*
X1661414Y201972D01*
X1656336D01*
X1653797Y204512D01*
X1656336Y207051D01*
X1663953D01*
X1671571Y196894D02*
X1676649D01*
X1679189Y199433D01*
Y204512D01*
X1676649Y207051D01*
X1671571D01*
X1669032Y204512D01*
Y199433D01*
X1671571Y196894D01*
X1684267D02*
Y207051D01*
X1691884D01*
X1694424Y204512D01*
Y196894D01*
X1702041Y207051D02*
X1707119D01*
X1709659Y204512D01*
Y196894D01*
X1702041D01*
X1699502Y199433D01*
X1702041Y201972D01*
X1709659D01*
X1714737Y212129D02*
Y196894D01*
X1722354D01*
X1724894Y199433D01*
Y201972D01*
Y204512D01*
X1722354Y207051D01*
X1714737D01*
X1729972Y196894D02*
X1735050D01*
X1732511D01*
Y212129D01*
X1729972D01*
X1750285Y196894D02*
X1745207D01*
X1742668Y199433D01*
Y204512D01*
X1745207Y207051D01*
X1750285D01*
X1752825Y204512D01*
Y201972D01*
X1742668D01*
X1773138Y196894D02*
Y207051D01*
X1775677D01*
X1778216Y204512D01*
Y196894D01*
Y204512D01*
X1780756Y207051D01*
X1783295Y204512D01*
Y196894D01*
X1790912Y207051D02*
X1795991D01*
X1798530Y204512D01*
Y196894D01*
X1790912D01*
X1788373Y199433D01*
X1790912Y201972D01*
X1798530D01*
X1803608Y196894D02*
Y207051D01*
X1811226D01*
X1813765Y204512D01*
Y196894D01*
X1818843D02*
Y207051D01*
X1826461D01*
X1829000Y204512D01*
Y196894D01*
X1841696D02*
X1836618D01*
X1834078Y199433D01*
Y204512D01*
X1836618Y207051D01*
X1841696D01*
X1844235Y204512D01*
Y201972D01*
X1834078D01*
X1849313Y207051D02*
Y196894D01*
Y201972D01*
X1851853Y204512D01*
X1854392Y207051D01*
X1856931D01*
X1867088Y194355D02*
X1869627Y196894D01*
Y199433D01*
X1867088D01*
Y196894D01*
X1869627D01*
X1867088Y194355D01*
X1864548Y191816D01*
X1895019Y212129D02*
Y196894D01*
X1902636D01*
X1905175Y199433D01*
Y201972D01*
Y204512D01*
X1902636Y207051D01*
X1895019D01*
X1910254D02*
Y199433D01*
X1912793Y196894D01*
X1920410D01*
Y207051D01*
X1928028Y209590D02*
Y207051D01*
X1925489D01*
X1930567D01*
X1928028D01*
Y199433D01*
X1930567Y196894D01*
X1953420D02*
Y207051D01*
X1961037D01*
X1963577Y204512D01*
Y196894D01*
X1971194D02*
X1976272D01*
X1978812Y199433D01*
Y204512D01*
X1976272Y207051D01*
X1971194D01*
X1968655Y204512D01*
Y199433D01*
X1971194Y196894D01*
X1986429Y209590D02*
Y207051D01*
X1983890D01*
X1988968D01*
X1986429D01*
Y199433D01*
X1988968Y196894D01*
X2011821D02*
X2016899D01*
X2014360D01*
Y207051D01*
X2011821D01*
X2024517Y196894D02*
Y207051D01*
X2032134D01*
X2034673Y204512D01*
Y196894D01*
X2057526Y207051D02*
X2062604D01*
X2065144Y204512D01*
Y196894D01*
X2057526D01*
X2054987Y199433D01*
X2057526Y201972D01*
X2065144D01*
X2070222Y196894D02*
Y207051D01*
X2077840D01*
X2080379Y204512D01*
Y196894D01*
X2085457Y207051D02*
Y199433D01*
X2087996Y196894D01*
X2095614D01*
Y194355D01*
X2093075Y191816D01*
X2090535D01*
X2095614Y196894D02*
Y207051D01*
X833642Y221894D02*
Y232051D01*
X838720Y237129D01*
X843799Y232051D01*
Y221894D01*
Y229512D01*
X833642D01*
X851416Y234590D02*
Y232051D01*
X848877D01*
X853955D01*
X851416D01*
Y224433D01*
X853955Y221894D01*
X864112Y234590D02*
Y232051D01*
X861573D01*
X866651D01*
X864112D01*
Y224433D01*
X866651Y221894D01*
X874269Y232051D02*
Y221894D01*
Y226972D01*
X876808Y229512D01*
X879347Y232051D01*
X881886D01*
X889504Y221894D02*
X894582D01*
X892043D01*
Y232051D01*
X889504D01*
X902200Y237129D02*
Y221894D01*
X909817D01*
X912356Y224433D01*
Y226972D01*
Y229512D01*
X909817Y232051D01*
X902200D01*
X917435D02*
Y224433D01*
X919974Y221894D01*
X927592D01*
Y232051D01*
X935209Y234590D02*
Y232051D01*
X932670D01*
X937748D01*
X935209D01*
Y224433D01*
X937748Y221894D01*
X945366D02*
X950444D01*
X947905D01*
Y232051D01*
X945366D01*
X960601Y221894D02*
X965679D01*
X968219Y224433D01*
Y229512D01*
X965679Y232051D01*
X960601D01*
X958062Y229512D01*
Y224433D01*
X960601Y221894D01*
X973297D02*
Y232051D01*
X980914D01*
X983454Y229512D01*
Y221894D01*
X1003767Y229512D02*
X1013924D01*
X1034237Y237129D02*
Y234590D01*
X1039315Y229512D01*
X1044394Y234590D01*
Y237129D01*
X1039315Y229512D02*
Y221894D01*
X1052011D02*
X1057090D01*
X1059629Y224433D01*
Y229512D01*
X1057090Y232051D01*
X1052011D01*
X1049472Y229512D01*
Y224433D01*
X1052011Y221894D01*
X1064707Y232051D02*
Y224433D01*
X1067246Y221894D01*
X1074864D01*
Y232051D01*
X1095177Y221894D02*
Y232051D01*
X1097717D01*
X1100256Y229512D01*
Y221894D01*
Y229512D01*
X1102795Y232051D01*
X1105334Y229512D01*
Y221894D01*
X1110413Y232051D02*
Y224433D01*
X1112952Y221894D01*
X1120569D01*
Y232051D01*
X1125648Y221894D02*
X1133265D01*
X1135804Y224433D01*
X1133265Y226972D01*
X1128187D01*
X1125648Y229512D01*
X1128187Y232051D01*
X1135804D01*
X1143422Y234590D02*
Y232051D01*
X1140883D01*
X1145961D01*
X1143422D01*
Y224433D01*
X1145961Y221894D01*
X1173892Y216816D02*
X1176431D01*
X1178970Y219355D01*
Y232051D01*
X1171353D01*
X1168814Y229512D01*
Y224433D01*
X1171353Y221894D01*
X1178970D01*
X1184049D02*
X1189127D01*
X1186588D01*
Y232051D01*
X1184049D01*
X1196745D02*
X1201823Y221894D01*
X1206901Y232051D01*
X1219597Y221894D02*
X1214519D01*
X1211980Y224433D01*
Y229512D01*
X1214519Y232051D01*
X1219597D01*
X1222136Y229512D01*
Y226972D01*
X1211980D01*
X1244989Y232051D02*
X1250067D01*
X1252607Y229512D01*
Y221894D01*
X1244989D01*
X1242450Y224433D01*
X1244989Y226972D01*
X1252607D01*
X1257685Y216816D02*
Y232051D01*
X1265302D01*
X1267841Y229512D01*
Y224433D01*
X1265302Y221894D01*
X1257685D01*
X1272920Y216816D02*
Y232051D01*
X1280537D01*
X1283077Y229512D01*
Y224433D01*
X1280537Y221894D01*
X1272920D01*
X1288155Y232051D02*
Y221894D01*
Y226972D01*
X1290694Y229512D01*
X1293233Y232051D01*
X1295773D01*
X1305929Y221894D02*
X1311008D01*
X1313547Y224433D01*
Y229512D01*
X1311008Y232051D01*
X1305929D01*
X1303390Y229512D01*
Y224433D01*
X1305929Y221894D01*
X1318625Y216816D02*
Y232051D01*
X1326243D01*
X1328782Y229512D01*
Y224433D01*
X1326243Y221894D01*
X1318625D01*
X1333860Y232051D02*
Y221894D01*
Y226972D01*
X1336399Y229512D01*
X1338938Y232051D01*
X1341478D01*
X1349095Y221894D02*
X1354174D01*
X1351634D01*
Y232051D01*
X1349095D01*
X1364330D02*
X1369409D01*
X1371948Y229512D01*
Y221894D01*
X1364330D01*
X1361791Y224433D01*
X1364330Y226972D01*
X1371948D01*
X1379565Y234590D02*
Y232051D01*
X1377026D01*
X1382105D01*
X1379565D01*
Y224433D01*
X1382105Y221894D01*
X1397340D02*
X1392261D01*
X1389722Y224433D01*
Y229512D01*
X1392261Y232051D01*
X1397340D01*
X1399879Y229512D01*
Y226972D01*
X1389722D01*
X1430349Y232051D02*
X1422731D01*
X1420192Y229512D01*
Y224433D01*
X1422731Y221894D01*
X1430349D01*
X1435427Y232051D02*
Y221894D01*
Y226972D01*
X1437966Y229512D01*
X1440506Y232051D01*
X1443045D01*
X1458280Y221894D02*
X1453202D01*
X1450662Y224433D01*
Y229512D01*
X1453202Y232051D01*
X1458280D01*
X1460819Y229512D01*
Y226972D01*
X1450662D01*
X1476054Y237129D02*
Y221894D01*
X1468437D01*
X1465897Y224433D01*
Y229512D01*
X1468437Y232051D01*
X1476054D01*
X1481133Y221894D02*
X1486211D01*
X1483672D01*
Y232051D01*
X1481133D01*
X1496368Y234590D02*
Y232051D01*
X1493828D01*
X1498907D01*
X1496368D01*
Y224433D01*
X1498907Y221894D01*
X1509064Y219355D02*
X1511603Y221894D01*
Y224433D01*
X1509064D01*
Y221894D01*
X1511603D01*
X1509064Y219355D01*
X1506524Y216816D01*
X1536994D02*
Y232051D01*
X1544612D01*
X1547151Y229512D01*
Y224433D01*
X1544612Y221894D01*
X1536994D01*
X1552229Y232051D02*
Y221894D01*
Y226972D01*
X1554769Y229512D01*
X1557308Y232051D01*
X1559847D01*
X1570004Y221894D02*
X1575082D01*
X1577621Y224433D01*
Y229512D01*
X1575082Y232051D01*
X1570004D01*
X1567465Y229512D01*
Y224433D01*
X1570004Y221894D01*
X1582700Y232051D02*
X1587778Y221894D01*
X1592856Y232051D01*
X1597935Y221894D02*
X1603013D01*
X1600474D01*
Y232051D01*
X1597935D01*
X1620787Y237129D02*
Y221894D01*
X1613170D01*
X1610631Y224433D01*
Y229512D01*
X1613170Y232051D01*
X1620787D01*
X1633483Y221894D02*
X1628405D01*
X1625866Y224433D01*
Y229512D01*
X1628405Y232051D01*
X1633483D01*
X1636022Y229512D01*
Y226972D01*
X1625866D01*
X1658875Y232051D02*
X1663953D01*
X1666493Y229512D01*
Y221894D01*
X1658875D01*
X1656336Y224433D01*
X1658875Y226972D01*
X1666493D01*
X1686806Y221894D02*
X1691884D01*
X1689345D01*
Y237129D01*
X1686806D01*
X1699502Y221894D02*
X1704580D01*
X1702041D01*
Y232051D01*
X1699502D01*
X1712198Y221894D02*
Y232051D01*
X1719815D01*
X1722354Y229512D01*
Y221894D01*
X1727433D02*
Y237129D01*
Y226972D02*
X1735050Y232051D01*
X1727433Y226972D02*
X1735050Y221894D01*
X1760442Y234590D02*
Y232051D01*
X1757903D01*
X1762981D01*
X1760442D01*
Y224433D01*
X1762981Y221894D01*
X1773138D02*
X1778216D01*
X1780756Y224433D01*
Y229512D01*
X1778216Y232051D01*
X1773138D01*
X1770599Y229512D01*
Y224433D01*
X1773138Y221894D01*
X1803608Y234590D02*
Y232051D01*
X1801069D01*
X1806147D01*
X1803608D01*
Y224433D01*
X1806147Y221894D01*
X1813765Y237129D02*
Y221894D01*
Y229512D01*
X1816304Y232051D01*
X1821382D01*
X1823922Y229512D01*
Y221894D01*
X1836617D02*
X1831539D01*
X1829000Y224433D01*
Y229512D01*
X1831539Y232051D01*
X1836617D01*
X1839157Y229512D01*
Y226972D01*
X1829000D01*
X1859470Y221894D02*
X1864548D01*
X1862009D01*
Y237129D01*
X1859470D01*
X1872166Y221894D02*
X1877244D01*
X1874705D01*
Y232051D01*
X1872166D01*
X1895019D02*
X1887401D01*
X1884862Y229512D01*
Y224433D01*
X1887401Y221894D01*
X1895019D01*
X1907715D02*
X1902636D01*
X1900097Y224433D01*
Y229512D01*
X1902636Y232051D01*
X1907715D01*
X1910254Y229512D01*
Y226972D01*
X1900097D01*
X1915332Y221894D02*
Y232051D01*
X1922950D01*
X1925489Y229512D01*
Y221894D01*
X1930567D02*
X1938185D01*
X1940724Y224433D01*
X1938185Y226972D01*
X1933106D01*
X1930567Y229512D01*
X1933106Y232051D01*
X1940724D01*
X1953420Y221894D02*
X1948341D01*
X1945802Y224433D01*
Y229512D01*
X1948341Y232051D01*
X1953420D01*
X1955959Y229512D01*
Y226972D01*
X1945802D01*
X1963576Y219355D02*
X1966116Y221894D01*
Y224433D01*
X1963576D01*
Y221894D01*
X1966116D01*
X1963576Y219355D01*
X1961037Y216816D01*
X1994047Y232051D02*
X1999125D01*
X2001664Y229512D01*
Y221894D01*
X1994047D01*
X1991507Y224433D01*
X1994047Y226972D01*
X2001664D01*
X2006742Y221894D02*
Y232051D01*
X2014360D01*
X2016899Y229512D01*
Y221894D01*
X2032134Y237129D02*
Y221894D01*
X2024517D01*
X2021978Y224433D01*
Y229512D01*
X2024517Y232051D01*
X2032134D01*
X833642Y262129D02*
Y249433D01*
X836181Y246894D01*
X841260D01*
X843799Y249433D01*
Y262129D01*
X848877Y246894D02*
Y257051D01*
X856495D01*
X859034Y254512D01*
Y246894D01*
X874269Y262129D02*
Y246894D01*
X866651D01*
X864112Y249433D01*
Y254512D01*
X866651Y257051D01*
X874269D01*
X886965Y246894D02*
X881886D01*
X879347Y249433D01*
Y254512D01*
X881886Y257051D01*
X886965D01*
X889504Y254512D01*
Y251972D01*
X879347D01*
X894582Y257051D02*
Y246894D01*
Y251972D01*
X897122Y254512D01*
X899661Y257051D01*
X902200D01*
X927592Y259590D02*
Y257051D01*
X925052D01*
X930131D01*
X927592D01*
Y249433D01*
X930131Y246894D01*
X937748Y262129D02*
Y246894D01*
Y254512D01*
X940287Y257051D01*
X945366D01*
X947905Y254512D01*
Y246894D01*
X960601D02*
X955523D01*
X952983Y249433D01*
Y254512D01*
X955523Y257051D01*
X960601D01*
X963140Y254512D01*
Y251972D01*
X952983D01*
X985993Y246894D02*
Y259590D01*
Y254512D01*
X983454D01*
X988532D01*
X985993D01*
Y259590D01*
X988532Y262129D01*
X998689Y246894D02*
X1003767D01*
X1006306Y249433D01*
Y254512D01*
X1003767Y257051D01*
X998689D01*
X996149Y254512D01*
Y249433D01*
X998689Y246894D01*
X1011385D02*
X1016463D01*
X1013924D01*
Y262129D01*
X1011385D01*
X1024080Y246894D02*
X1029159D01*
X1026620D01*
Y262129D01*
X1024080D01*
X1039315Y246894D02*
X1044394D01*
X1046933Y249433D01*
Y254512D01*
X1044394Y257051D01*
X1039315D01*
X1036776Y254512D01*
Y249433D01*
X1039315Y246894D01*
X1052011Y257051D02*
Y249433D01*
X1054550Y246894D01*
X1057090Y249433D01*
X1059629Y246894D01*
X1062168Y249433D01*
Y257051D01*
X1067246Y246894D02*
X1072325D01*
X1069786D01*
Y257051D01*
X1067246D01*
X1079942Y246894D02*
Y257051D01*
X1087560D01*
X1090099Y254512D01*
Y246894D01*
X1100256Y241816D02*
X1102795D01*
X1105334Y244355D01*
Y257051D01*
X1097717D01*
X1095177Y254512D01*
Y249433D01*
X1097717Y246894D01*
X1105334D01*
X1128187Y259590D02*
Y257051D01*
X1125648D01*
X1130726D01*
X1128187D01*
Y249433D01*
X1130726Y246894D01*
X1145961D02*
X1140883D01*
X1138343Y249433D01*
Y254512D01*
X1140883Y257051D01*
X1145961D01*
X1148500Y254512D01*
Y251972D01*
X1138343D01*
X1153578Y257051D02*
Y246894D01*
Y251972D01*
X1156118Y254512D01*
X1158657Y257051D01*
X1161196D01*
X1168814Y246894D02*
Y257051D01*
X1171353D01*
X1173892Y254512D01*
Y246894D01*
Y254512D01*
X1176431Y257051D01*
X1178970Y254512D01*
Y246894D01*
X1184049D02*
X1191666D01*
X1194205Y249433D01*
X1191666Y251972D01*
X1186588D01*
X1184049Y254512D01*
X1186588Y257051D01*
X1194205D01*
X1199284D02*
X1201823D01*
Y254512D01*
X1199284D01*
Y257051D01*
Y249433D02*
X1201823D01*
Y246894D01*
X1199284D01*
Y249433D01*
X833642Y312129D02*
X843799D01*
X838720D01*
Y296894D01*
X848877Y312129D02*
Y296894D01*
Y304512D01*
X851416Y307051D01*
X856495D01*
X859034Y304512D01*
Y296894D01*
X871730D02*
X866651D01*
X864112Y299433D01*
Y304512D01*
X866651Y307051D01*
X871730D01*
X874269Y304512D01*
Y301972D01*
X864112D01*
X894582Y296894D02*
X899661D01*
X897122D01*
Y312129D01*
X894582D01*
X907278Y296894D02*
X912356D01*
X909817D01*
Y307051D01*
X907278D01*
X930131D02*
X922513D01*
X919974Y304512D01*
Y299433D01*
X922513Y296894D01*
X930131D01*
X942827D02*
X937748D01*
X935209Y299433D01*
Y304512D01*
X937748Y307051D01*
X942827D01*
X945366Y304512D01*
Y301972D01*
X935209D01*
X950444Y296894D02*
Y307051D01*
X958062D01*
X960601Y304512D01*
Y296894D01*
X965679D02*
X973297D01*
X975836Y299433D01*
X973297Y301972D01*
X968219D01*
X965679Y304512D01*
X968219Y307051D01*
X975836D01*
X983454Y296894D02*
X988532D01*
X991071Y299433D01*
Y304512D01*
X988532Y307051D01*
X983454D01*
X980914Y304512D01*
Y299433D01*
X983454Y296894D01*
X996149Y307051D02*
Y296894D01*
Y301972D01*
X998689Y304512D01*
X1001228Y307051D01*
X1003767D01*
X1036776D02*
X1029159D01*
X1026620Y304512D01*
Y299433D01*
X1029159Y296894D01*
X1036776D01*
X1044394Y307051D02*
X1049472D01*
X1052011Y304512D01*
Y296894D01*
X1044394D01*
X1041855Y299433D01*
X1044394Y301972D01*
X1052011D01*
X1057090Y296894D02*
Y307051D01*
X1064707D01*
X1067246Y304512D01*
Y296894D01*
X1072325D02*
Y307051D01*
X1079942D01*
X1082482Y304512D01*
Y296894D01*
X1090099D02*
X1095177D01*
X1097717Y299433D01*
Y304512D01*
X1095177Y307051D01*
X1090099D01*
X1087560Y304512D01*
Y299433D01*
X1090099Y296894D01*
X1105334Y309590D02*
Y307051D01*
X1102795D01*
X1107873D01*
X1105334D01*
Y299433D01*
X1107873Y296894D01*
X1130726Y307051D02*
Y296894D01*
Y301972D01*
X1133265Y304512D01*
X1135804Y307051D01*
X1138343D01*
X1153578Y296894D02*
X1148500D01*
X1145961Y299433D01*
Y304512D01*
X1148500Y307051D01*
X1153578D01*
X1156118Y304512D01*
Y301972D01*
X1145961D01*
X1161196Y307051D02*
X1166274Y296894D01*
X1171353Y307051D01*
X1178970Y296894D02*
X1184049D01*
X1186588Y299433D01*
Y304512D01*
X1184049Y307051D01*
X1178970D01*
X1176431Y304512D01*
Y299433D01*
X1178970Y296894D01*
X1191666D02*
Y312129D01*
Y301972D02*
X1199284Y307051D01*
X1191666Y301972D02*
X1199284Y296894D01*
X1214519D02*
X1209441D01*
X1206901Y299433D01*
Y304512D01*
X1209441Y307051D01*
X1214519D01*
X1217058Y304512D01*
Y301972D01*
X1206901D01*
X1239911Y309590D02*
Y307051D01*
X1237371D01*
X1242450D01*
X1239911D01*
Y299433D01*
X1242450Y296894D01*
X1250067Y312129D02*
Y296894D01*
Y304512D01*
X1252607Y307051D01*
X1257685D01*
X1260224Y304512D01*
Y296894D01*
X1272920D02*
X1267842D01*
X1265302Y299433D01*
Y304512D01*
X1267842Y307051D01*
X1272920D01*
X1275459Y304512D01*
Y301972D01*
X1265302D01*
X1280537Y296894D02*
X1288155D01*
X1290694Y299433D01*
X1288155Y301972D01*
X1283077D01*
X1280537Y304512D01*
X1283077Y307051D01*
X1290694D01*
X1303390Y296894D02*
X1298312D01*
X1295773Y299433D01*
Y304512D01*
X1298312Y307051D01*
X1303390D01*
X1305929Y304512D01*
Y301972D01*
X1295773D01*
X1328782Y296894D02*
Y309590D01*
Y304512D01*
X1326243D01*
X1331321D01*
X1328782D01*
Y309590D01*
X1331321Y312129D01*
X1338938Y307051D02*
Y296894D01*
Y301972D01*
X1341478Y304512D01*
X1344017Y307051D01*
X1346556D01*
X1361791Y296894D02*
X1356713D01*
X1354174Y299433D01*
Y304512D01*
X1356713Y307051D01*
X1361791D01*
X1364330Y304512D01*
Y301972D01*
X1354174D01*
X1377026Y296894D02*
X1371948D01*
X1369409Y299433D01*
Y304512D01*
X1371948Y307051D01*
X1377026D01*
X1379565Y304512D01*
Y301972D01*
X1369409D01*
X1394801Y312129D02*
Y296894D01*
X1387183D01*
X1384644Y299433D01*
Y304512D01*
X1387183Y307051D01*
X1394801D01*
X1402418Y296894D02*
X1407496D01*
X1410036Y299433D01*
Y304512D01*
X1407496Y307051D01*
X1402418D01*
X1399879Y304512D01*
Y299433D01*
X1402418Y296894D01*
X1415114D02*
Y307051D01*
X1417653D01*
X1420192Y304512D01*
Y296894D01*
Y304512D01*
X1422731Y307051D01*
X1425271Y304512D01*
Y296894D01*
X1430349D02*
X1437966D01*
X1440506Y299433D01*
X1437966Y301972D01*
X1432888D01*
X1430349Y304512D01*
X1432888Y307051D01*
X1440506D01*
X1463358D02*
X1468437D01*
X1470976Y304512D01*
Y296894D01*
X1463358D01*
X1460819Y299433D01*
X1463358Y301972D01*
X1470976D01*
X1476054Y296894D02*
X1483672D01*
X1486211Y299433D01*
X1483672Y301972D01*
X1478593D01*
X1476054Y304512D01*
X1478593Y307051D01*
X1486211D01*
X1506524Y296894D02*
X1511603D01*
X1509064D01*
Y312129D01*
X1506524D01*
X1521759Y296894D02*
X1526838D01*
X1529377Y299433D01*
Y304512D01*
X1526838Y307051D01*
X1521759D01*
X1519220Y304512D01*
Y299433D01*
X1521759Y296894D01*
X1534455D02*
Y307051D01*
X1542073D01*
X1544612Y304512D01*
Y296894D01*
X1554769Y291816D02*
X1557308D01*
X1559847Y294355D01*
Y307051D01*
X1552230D01*
X1549690Y304512D01*
Y299433D01*
X1552230Y296894D01*
X1559847D01*
X1582700Y307051D02*
X1587778D01*
X1590317Y304512D01*
Y296894D01*
X1582700D01*
X1580161Y299433D01*
X1582700Y301972D01*
X1590317D01*
X1595396Y296894D02*
X1603013D01*
X1605552Y299433D01*
X1603013Y301972D01*
X1597935D01*
X1595396Y304512D01*
X1597935Y307051D01*
X1605552D01*
X1625866D02*
Y299433D01*
X1628405Y296894D01*
X1636022D01*
Y294355D01*
X1633483Y291816D01*
X1630944D01*
X1636022Y296894D02*
Y307051D01*
X1643640Y296894D02*
X1648718D01*
X1651257Y299433D01*
Y304512D01*
X1648718Y307051D01*
X1643640D01*
X1641101Y304512D01*
Y299433D01*
X1643640Y296894D01*
X1656336Y307051D02*
Y299433D01*
X1658875Y296894D01*
X1666493D01*
Y307051D01*
X1689345Y296894D02*
Y309590D01*
Y304512D01*
X1686806D01*
X1691884D01*
X1689345D01*
Y309590D01*
X1691884Y312129D01*
X1702041Y296894D02*
X1707119D01*
X1709659Y299433D01*
Y304512D01*
X1707119Y307051D01*
X1702041D01*
X1699502Y304512D01*
Y299433D01*
X1702041Y296894D01*
X1714737D02*
X1719815D01*
X1717276D01*
Y312129D01*
X1714737D01*
X1727433Y296894D02*
X1732511D01*
X1729972D01*
Y312129D01*
X1727433D01*
X1742668Y296894D02*
X1747746D01*
X1750285Y299433D01*
Y304512D01*
X1747746Y307051D01*
X1742668D01*
X1740129Y304512D01*
Y299433D01*
X1742668Y296894D01*
X1755364Y307051D02*
Y299433D01*
X1757903Y296894D01*
X1760442Y299433D01*
X1762981Y296894D01*
X1765520Y299433D01*
Y307051D01*
X1788373Y309590D02*
Y307051D01*
X1785834D01*
X1790912D01*
X1788373D01*
Y299433D01*
X1790912Y296894D01*
X1798530Y312129D02*
Y296894D01*
Y304512D01*
X1801069Y307051D01*
X1806147D01*
X1808687Y304512D01*
Y296894D01*
X1821382D02*
X1816304D01*
X1813765Y299433D01*
Y304512D01*
X1816304Y307051D01*
X1821382D01*
X1823922Y304512D01*
Y301972D01*
X1813765D01*
X1844235Y296894D02*
X1849313D01*
X1846774D01*
Y312129D01*
X1844235D01*
X1856931Y296894D02*
X1862009D01*
X1859470D01*
Y307051D01*
X1856931D01*
X1879784D02*
X1872166D01*
X1869627Y304512D01*
Y299433D01*
X1872166Y296894D01*
X1879784D01*
X1892480D02*
X1887401D01*
X1884862Y299433D01*
Y304512D01*
X1887401Y307051D01*
X1892480D01*
X1895019Y304512D01*
Y301972D01*
X1884862D01*
X1900097Y296894D02*
Y307051D01*
X1907715D01*
X1910254Y304512D01*
Y296894D01*
X1915332D02*
X1922950D01*
X1925489Y299433D01*
X1922950Y301972D01*
X1917871D01*
X1915332Y304512D01*
X1917871Y307051D01*
X1925489D01*
X1938185Y296894D02*
X1933106D01*
X1930567Y299433D01*
Y304512D01*
X1933106Y307051D01*
X1938185D01*
X1940724Y304512D01*
Y301972D01*
X1930567D01*
X1963577Y309590D02*
Y307051D01*
X1961037D01*
X1966116D01*
X1963577D01*
Y299433D01*
X1966116Y296894D01*
X1981351D02*
X1976272D01*
X1973733Y299433D01*
Y304512D01*
X1976272Y307051D01*
X1981351D01*
X1983890Y304512D01*
Y301972D01*
X1973733D01*
X1988968Y307051D02*
Y296894D01*
Y301972D01*
X1991507Y304512D01*
X1994047Y307051D01*
X1996586D01*
X2004203Y296894D02*
Y307051D01*
X2006743D01*
X2009282Y304512D01*
Y296894D01*
Y304512D01*
X2011821Y307051D01*
X2014360Y304512D01*
Y296894D01*
X2019438D02*
X2027056D01*
X2029595Y299433D01*
X2027056Y301972D01*
X2021978D01*
X2019438Y304512D01*
X2021978Y307051D01*
X2029595D01*
X2034673Y296894D02*
Y299433D01*
X2037213D01*
Y296894D01*
X2034673D01*
X836181Y346894D02*
Y359590D01*
Y354511D01*
X833642D01*
X838720D01*
X836181D01*
Y359590D01*
X838720Y362129D01*
X848877Y346894D02*
X853955D01*
X856495Y349433D01*
Y354511D01*
X853955Y357051D01*
X848877D01*
X846338Y354511D01*
Y349433D01*
X848877Y346894D01*
X861573Y357051D02*
Y346894D01*
Y351972D01*
X864112Y354511D01*
X866651Y357051D01*
X869191D01*
X894582D02*
X899661D01*
X902200Y354511D01*
Y346894D01*
X894582D01*
X892043Y349433D01*
X894582Y351972D01*
X902200D01*
X907278Y346894D02*
Y357051D01*
X914896D01*
X917435Y354511D01*
Y346894D01*
X922513Y357051D02*
Y349433D01*
X925052Y346894D01*
X932670D01*
Y344355D01*
X930131Y341816D01*
X927592D01*
X932670Y346894D02*
Y357051D01*
X952983Y341816D02*
Y357051D01*
X960601D01*
X963140Y354511D01*
Y349433D01*
X960601Y346894D01*
X952983D01*
X968219Y357051D02*
Y349433D01*
X970758Y346894D01*
X978375D01*
Y357051D01*
X983454D02*
Y346894D01*
Y351972D01*
X985993Y354511D01*
X988532Y357051D01*
X991071D01*
X998689Y341816D02*
Y357051D01*
X1006306D01*
X1008845Y354511D01*
Y349433D01*
X1006306Y346894D01*
X998689D01*
X1016463D02*
X1021541D01*
X1024080Y349433D01*
Y354511D01*
X1021541Y357051D01*
X1016463D01*
X1013924Y354511D01*
Y349433D01*
X1016463Y346894D01*
X1029159D02*
X1036776D01*
X1039315Y349433D01*
X1036776Y351972D01*
X1031698D01*
X1029159Y354511D01*
X1031698Y357051D01*
X1039315D01*
X1052011Y346894D02*
X1046933D01*
X1044394Y349433D01*
Y354511D01*
X1046933Y357051D01*
X1052011D01*
X1054551Y354511D01*
Y351972D01*
X1044394D01*
X1062168Y344355D02*
X1064707Y346894D01*
Y349433D01*
X1062168D01*
Y346894D01*
X1064707D01*
X1062168Y344355D01*
X1059629Y341816D01*
X1097717Y346894D02*
X1092638D01*
X1090099Y349433D01*
Y354511D01*
X1092638Y357051D01*
X1097717D01*
X1100256Y354511D01*
Y351972D01*
X1090099D01*
X1105334Y357051D02*
X1110413Y346894D01*
X1115491Y357051D01*
X1128187Y346894D02*
X1123108D01*
X1120569Y349433D01*
Y354511D01*
X1123108Y357051D01*
X1128187D01*
X1130726Y354511D01*
Y351972D01*
X1120569D01*
X1135804Y346894D02*
Y357051D01*
X1143422D01*
X1145961Y354511D01*
Y346894D01*
X1176431Y357051D02*
X1168814D01*
X1166274Y354511D01*
Y349433D01*
X1168814Y346894D01*
X1176431D01*
X1184049D02*
X1189127D01*
X1191666Y349433D01*
Y354511D01*
X1189127Y357051D01*
X1184049D01*
X1181509Y354511D01*
Y349433D01*
X1184049Y346894D01*
X1196745D02*
Y357051D01*
X1199284D01*
X1201823Y354511D01*
Y346894D01*
Y354511D01*
X1204362Y357051D01*
X1206901Y354511D01*
Y346894D01*
X1211980D02*
Y357051D01*
X1214519D01*
X1217058Y354511D01*
Y346894D01*
Y354511D01*
X1219597Y357051D01*
X1222136Y354511D01*
Y346894D01*
X1234832D02*
X1229754D01*
X1227215Y349433D01*
Y354511D01*
X1229754Y357051D01*
X1234832D01*
X1237371Y354511D01*
Y351972D01*
X1227215D01*
X1242450Y357051D02*
Y346894D01*
Y351972D01*
X1244989Y354511D01*
X1247528Y357051D01*
X1250067D01*
X1267842D02*
X1260224D01*
X1257685Y354511D01*
Y349433D01*
X1260224Y346894D01*
X1267842D01*
X1272920D02*
X1277998D01*
X1275459D01*
Y357051D01*
X1272920D01*
X1288155D02*
X1293233D01*
X1295773Y354511D01*
Y346894D01*
X1288155D01*
X1285616Y349433D01*
X1288155Y351972D01*
X1295773D01*
X1300851Y346894D02*
X1305929D01*
X1303390D01*
Y362129D01*
X1300851D01*
X1313547Y346894D02*
X1318625D01*
X1316086D01*
Y362129D01*
X1313547D01*
X1326243Y357051D02*
Y349433D01*
X1328782Y346894D01*
X1336399D01*
Y344355D01*
X1333860Y341816D01*
X1331321D01*
X1336399Y346894D02*
Y357051D01*
X1341478Y346894D02*
Y349433D01*
X1344017D01*
Y346894D01*
X1341478D01*
X833642Y371894D02*
Y382051D01*
X838720Y387129D01*
X843799Y382051D01*
Y371894D01*
Y379511D01*
X833642D01*
X859034Y387129D02*
Y371894D01*
X851416D01*
X848877Y374433D01*
Y379511D01*
X851416Y382051D01*
X859034D01*
X866651D02*
X871730D01*
X874269Y379511D01*
Y371894D01*
X866651D01*
X864112Y374433D01*
X866651Y376972D01*
X874269D01*
X879347Y366816D02*
Y382051D01*
X886965D01*
X889504Y379511D01*
Y374433D01*
X886965Y371894D01*
X879347D01*
X897122Y384590D02*
Y382051D01*
X894582D01*
X899661D01*
X897122D01*
Y374433D01*
X899661Y371894D01*
X922513Y379511D02*
X932670D01*
X952983Y382051D02*
Y371894D01*
Y376972D01*
X955523Y379511D01*
X958062Y382051D01*
X960601D01*
X975836Y371894D02*
X970758D01*
X968219Y374433D01*
Y379511D01*
X970758Y382051D01*
X975836D01*
X978375Y379511D01*
Y376972D01*
X968219D01*
X983454Y371894D02*
Y382051D01*
X985993D01*
X988532Y379511D01*
Y371894D01*
Y379511D01*
X991071Y382051D01*
X993610Y379511D01*
Y371894D01*
X998689D02*
X1003767D01*
X1001228D01*
Y382051D01*
X998689D01*
X1011385D02*
X1021541Y371894D01*
X1016463Y376972D01*
X1021541Y382051D01*
X1011385Y371894D01*
X1029159Y369355D02*
X1031698Y371894D01*
Y374433D01*
X1029159D01*
Y371894D01*
X1031698D01*
X1029159Y369355D01*
X1026620Y366816D01*
X1059629Y384590D02*
Y382051D01*
X1057090D01*
X1062168D01*
X1059629D01*
Y374433D01*
X1062168Y371894D01*
X1069786Y382051D02*
Y371894D01*
Y376972D01*
X1072325Y379511D01*
X1074864Y382051D01*
X1077403D01*
X1087560D02*
X1092638D01*
X1095177Y379511D01*
Y371894D01*
X1087560D01*
X1085021Y374433D01*
X1087560Y376972D01*
X1095177D01*
X1100256Y371894D02*
Y382051D01*
X1107873D01*
X1110413Y379511D01*
Y371894D01*
X1115491D02*
X1123108D01*
X1125648Y374433D01*
X1123108Y376972D01*
X1118030D01*
X1115491Y379511D01*
X1118030Y382051D01*
X1125648D01*
X1133265Y371894D02*
Y384590D01*
Y379511D01*
X1130726D01*
X1135804D01*
X1133265D01*
Y384590D01*
X1135804Y387129D01*
X1145961Y371894D02*
X1151039D01*
X1153578Y374433D01*
Y379511D01*
X1151039Y382051D01*
X1145961D01*
X1143422Y379511D01*
Y374433D01*
X1145961Y371894D01*
X1158657Y382051D02*
Y371894D01*
Y376972D01*
X1161196Y379511D01*
X1163735Y382051D01*
X1166274D01*
X1173892Y371894D02*
Y382051D01*
X1176431D01*
X1178970Y379511D01*
Y371894D01*
Y379511D01*
X1181509Y382051D01*
X1184049Y379511D01*
Y371894D01*
X1191666Y369355D02*
X1194205Y371894D01*
Y374433D01*
X1191666D01*
Y371894D01*
X1194205D01*
X1191666Y369355D01*
X1189127Y366816D01*
X1222136Y382051D02*
X1227215D01*
X1229754Y379511D01*
Y371894D01*
X1222136D01*
X1219597Y374433D01*
X1222136Y376972D01*
X1229754D01*
X1234832Y371894D02*
Y382051D01*
X1242450D01*
X1244989Y379511D01*
Y371894D01*
X1260224Y387129D02*
Y371894D01*
X1252607D01*
X1250067Y374433D01*
Y379511D01*
X1252607Y382051D01*
X1260224D01*
X1280537Y387129D02*
Y371894D01*
X1288155D01*
X1290694Y374433D01*
Y376972D01*
Y379511D01*
X1288155Y382051D01*
X1280537D01*
X1295773D02*
Y374433D01*
X1298312Y371894D01*
X1305929D01*
Y382051D01*
X1311008Y371894D02*
X1316086D01*
X1313547D01*
Y382051D01*
X1311008D01*
X1323703Y371894D02*
X1328782D01*
X1326243D01*
Y387129D01*
X1323703D01*
X1346556D02*
Y371894D01*
X1338938D01*
X1336399Y374433D01*
Y379511D01*
X1338938Y382051D01*
X1346556D01*
X1366870D02*
Y374433D01*
X1369409Y371894D01*
X1377026D01*
Y382051D01*
X1382105Y366816D02*
Y382051D01*
X1389722D01*
X1392261Y379511D01*
Y374433D01*
X1389722Y371894D01*
X1382105D01*
X1399879D02*
X1404957D01*
X1407496Y374433D01*
Y379511D01*
X1404957Y382051D01*
X1399879D01*
X1397340Y379511D01*
Y374433D01*
X1399879Y371894D01*
X1412575D02*
Y382051D01*
X1420192D01*
X1422731Y379511D01*
Y371894D01*
X1445584Y384590D02*
Y382051D01*
X1443045D01*
X1448123D01*
X1445584D01*
Y374433D01*
X1448123Y371894D01*
X1455741Y387129D02*
Y371894D01*
Y379511D01*
X1458280Y382051D01*
X1463358D01*
X1465898Y379511D01*
Y371894D01*
X1478593D02*
X1473515D01*
X1470976Y374433D01*
Y379511D01*
X1473515Y382051D01*
X1478593D01*
X1481133Y379511D01*
Y376972D01*
X1470976D01*
X1501446Y371894D02*
Y382051D01*
X1503985D01*
X1506524Y379511D01*
Y371894D01*
Y379511D01*
X1509064Y382051D01*
X1511603Y379511D01*
Y371894D01*
X1519220Y382051D02*
X1524299D01*
X1526838Y379511D01*
Y371894D01*
X1519220D01*
X1516681Y374433D01*
X1519220Y376972D01*
X1526838D01*
X1534455Y384590D02*
Y382051D01*
X1531916D01*
X1536994D01*
X1534455D01*
Y374433D01*
X1536994Y371894D01*
X1552229D02*
X1547151D01*
X1544612Y374433D01*
Y379511D01*
X1547151Y382051D01*
X1552229D01*
X1554769Y379511D01*
Y376972D01*
X1544612D01*
X1559847Y382051D02*
Y371894D01*
Y376972D01*
X1562386Y379511D01*
X1564925Y382051D01*
X1567465D01*
X1575082Y371894D02*
X1580161D01*
X1577621D01*
Y382051D01*
X1575082D01*
X1590317D02*
X1595396D01*
X1597935Y379511D01*
Y371894D01*
X1590317D01*
X1587778Y374433D01*
X1590317Y376972D01*
X1597935D01*
X1603013Y371894D02*
X1608091D01*
X1605552D01*
Y387129D01*
X1603013D01*
X843799Y409590D02*
X841260Y412129D01*
X836181D01*
X833642Y409590D01*
Y407051D01*
X836181Y404511D01*
X841260D01*
X843799Y401972D01*
Y399433D01*
X841260Y396894D01*
X836181D01*
X833642Y399433D01*
X848877Y412129D02*
Y396894D01*
Y404511D01*
X851416Y407051D01*
X856495D01*
X859034Y404511D01*
Y396894D01*
X866651Y407051D02*
X871730D01*
X874269Y404511D01*
Y396894D01*
X866651D01*
X864112Y399433D01*
X866651Y401972D01*
X874269D01*
X879347Y407051D02*
Y396894D01*
Y401972D01*
X881886Y404511D01*
X884426Y407051D01*
X886965D01*
X902200Y396894D02*
X897122D01*
X894582Y399433D01*
Y404511D01*
X897122Y407051D01*
X902200D01*
X904739Y404511D01*
Y401972D01*
X894582D01*
X925052Y404511D02*
X935209D01*
X965679Y407051D02*
X958062D01*
X955523Y404511D01*
Y399433D01*
X958062Y396894D01*
X965679D01*
X973297D02*
X978375D01*
X980914Y399433D01*
Y404511D01*
X978375Y407051D01*
X973297D01*
X970758Y404511D01*
Y399433D01*
X973297Y396894D01*
X985993Y391816D02*
Y407051D01*
X993610D01*
X996150Y404511D01*
Y399433D01*
X993610Y396894D01*
X985993D01*
X1001228Y407051D02*
Y399433D01*
X1003767Y396894D01*
X1011385D01*
Y394355D01*
X1008845Y391816D01*
X1006306D01*
X1011385Y396894D02*
Y407051D01*
X1034237D02*
X1039315D01*
X1041855Y404511D01*
Y396894D01*
X1034237D01*
X1031698Y399433D01*
X1034237Y401972D01*
X1041855D01*
X1046933Y396894D02*
Y407051D01*
X1054551D01*
X1057090Y404511D01*
Y396894D01*
X1072325Y412129D02*
Y396894D01*
X1064707D01*
X1062168Y399433D01*
Y404511D01*
X1064707Y407051D01*
X1072325D01*
X1092638D02*
Y396894D01*
Y401972D01*
X1095177Y404511D01*
X1097717Y407051D01*
X1100256D01*
X1115491Y396894D02*
X1110413D01*
X1107873Y399433D01*
Y404511D01*
X1110413Y407051D01*
X1115491D01*
X1118030Y404511D01*
Y401972D01*
X1107873D01*
X1133265Y412129D02*
Y396894D01*
X1125648D01*
X1123108Y399433D01*
Y404511D01*
X1125648Y407051D01*
X1133265D01*
X1138344Y396894D02*
X1143422D01*
X1140883D01*
Y407051D01*
X1138344D01*
X1151039Y396894D02*
X1158657D01*
X1161196Y399433D01*
X1158657Y401972D01*
X1153578D01*
X1151039Y404511D01*
X1153578Y407051D01*
X1161196D01*
X1168814Y409590D02*
Y407051D01*
X1166274D01*
X1171353D01*
X1168814D01*
Y399433D01*
X1171353Y396894D01*
X1178970Y407051D02*
Y396894D01*
Y401972D01*
X1181509Y404511D01*
X1184049Y407051D01*
X1186588D01*
X1194205Y396894D02*
X1199284D01*
X1196745D01*
Y407051D01*
X1194205D01*
X1206901Y412129D02*
Y396894D01*
X1214519D01*
X1217058Y399433D01*
Y401972D01*
Y404511D01*
X1214519Y407051D01*
X1206901D01*
X1222136D02*
Y399433D01*
X1224676Y396894D01*
X1232293D01*
Y407051D01*
X1239911Y409590D02*
Y407051D01*
X1237371D01*
X1242450D01*
X1239911D01*
Y399433D01*
X1242450Y396894D01*
X1257685D02*
X1252607D01*
X1250067Y399433D01*
Y404511D01*
X1252607Y407051D01*
X1257685D01*
X1260224Y404511D01*
Y401972D01*
X1250067D01*
X1283077Y409590D02*
Y407051D01*
X1280537D01*
X1285616D01*
X1283077D01*
Y399433D01*
X1285616Y396894D01*
X1293233Y412129D02*
Y396894D01*
Y404511D01*
X1295773Y407051D01*
X1300851D01*
X1303390Y404511D01*
Y396894D01*
X1316086D02*
X1311008D01*
X1308468Y399433D01*
Y404511D01*
X1311008Y407051D01*
X1316086D01*
X1318625Y404511D01*
Y401972D01*
X1308468D01*
X1338938Y396894D02*
Y407051D01*
X1341478D01*
X1344017Y404511D01*
Y396894D01*
Y404511D01*
X1346556Y407051D01*
X1349095Y404511D01*
Y396894D01*
X1356713Y407051D02*
X1361791D01*
X1364330Y404511D01*
Y396894D01*
X1356713D01*
X1354174Y399433D01*
X1356713Y401972D01*
X1364330D01*
X1371948Y409590D02*
Y407051D01*
X1369409D01*
X1374487D01*
X1371948D01*
Y399433D01*
X1374487Y396894D01*
X1389722D02*
X1384644D01*
X1382105Y399433D01*
Y404511D01*
X1384644Y407051D01*
X1389722D01*
X1392261Y404511D01*
Y401972D01*
X1382105D01*
X1397340Y407051D02*
Y396894D01*
Y401972D01*
X1399879Y404511D01*
X1402418Y407051D01*
X1404957D01*
X1412575Y396894D02*
X1417653D01*
X1415114D01*
Y407051D01*
X1412575D01*
X1427810D02*
X1432888D01*
X1435427Y404511D01*
Y396894D01*
X1427810D01*
X1425271Y399433D01*
X1427810Y401972D01*
X1435427D01*
X1440506Y396894D02*
X1445584D01*
X1443045D01*
Y412129D01*
X1440506D01*
X1468437Y396894D02*
X1473515D01*
X1470976D01*
Y407051D01*
X1468437D01*
X1481133Y396894D02*
Y407051D01*
X1488750D01*
X1491289Y404511D01*
Y396894D01*
X1514142Y407051D02*
X1519220D01*
X1521759Y404511D01*
Y396894D01*
X1514142D01*
X1511603Y399433D01*
X1514142Y401972D01*
X1521759D01*
X1526838Y396894D02*
Y407051D01*
X1534455D01*
X1536994Y404511D01*
Y396894D01*
X1542073Y407051D02*
Y399433D01*
X1544612Y396894D01*
X1552229D01*
Y394355D01*
X1549690Y391816D01*
X1547151D01*
X1552229Y396894D02*
Y407051D01*
X1572543Y396894D02*
Y407051D01*
X1575082D01*
X1577621Y404511D01*
Y396894D01*
Y404511D01*
X1580161Y407051D01*
X1582700Y404511D01*
Y396894D01*
X1595396D02*
X1590317D01*
X1587778Y399433D01*
Y404511D01*
X1590317Y407051D01*
X1595396D01*
X1597935Y404511D01*
Y401972D01*
X1587778D01*
X1613170Y412129D02*
Y396894D01*
X1605552D01*
X1603013Y399433D01*
Y404511D01*
X1605552Y407051D01*
X1613170D01*
X1618248Y396894D02*
X1623327D01*
X1620787D01*
Y407051D01*
X1618248D01*
X1630944D02*
Y399433D01*
X1633483Y396894D01*
X1641101D01*
Y407051D01*
X1646179Y396894D02*
Y407051D01*
X1648718D01*
X1651257Y404511D01*
Y396894D01*
Y404511D01*
X1653797Y407051D01*
X1656336Y404511D01*
Y396894D01*
X1679189D02*
X1684267D01*
X1686806Y399433D01*
Y404511D01*
X1684267Y407051D01*
X1679189D01*
X1676649Y404511D01*
Y399433D01*
X1679189Y396894D01*
X1691884Y407051D02*
Y396894D01*
Y401972D01*
X1694424Y404511D01*
X1696963Y407051D01*
X1699502D01*
X1724894Y396894D02*
Y409590D01*
Y404511D01*
X1722354D01*
X1727433D01*
X1724894D01*
Y409590D01*
X1727433Y412129D01*
X1737590Y396894D02*
X1742668D01*
X1745207Y399433D01*
Y404511D01*
X1742668Y407051D01*
X1737590D01*
X1735050Y404511D01*
Y399433D01*
X1737590Y396894D01*
X1750285Y407051D02*
Y396894D01*
Y401972D01*
X1752825Y404511D01*
X1755364Y407051D01*
X1757903D01*
X1765520Y396894D02*
Y407051D01*
X1768060D01*
X1770599Y404511D01*
Y396894D01*
Y404511D01*
X1773138Y407051D01*
X1775677Y404511D01*
Y396894D01*
X1783295Y407051D02*
X1788373D01*
X1790912Y404511D01*
Y396894D01*
X1783295D01*
X1780756Y399433D01*
X1783295Y401972D01*
X1790912D01*
X1798530Y409590D02*
Y407051D01*
X1795991D01*
X1801069D01*
X1798530D01*
Y399433D01*
X1801069Y396894D01*
X833642Y487129D02*
Y471894D01*
Y479511D01*
X836181Y482051D01*
X841260D01*
X843799Y479511D01*
Y471894D01*
X851416Y484590D02*
Y482051D01*
X848877D01*
X853955D01*
X851416D01*
Y474433D01*
X853955Y471894D01*
X864112Y484590D02*
Y482051D01*
X861573D01*
X866651D01*
X864112D01*
Y474433D01*
X866651Y471894D01*
X874269Y466816D02*
Y482051D01*
X881886D01*
X884426Y479511D01*
Y474433D01*
X881886Y471894D01*
X874269D01*
X889504D02*
X897122D01*
X899661Y474433D01*
X897122Y476972D01*
X892043D01*
X889504Y479511D01*
X892043Y482051D01*
X899661D01*
X904739D02*
X907278D01*
Y479511D01*
X904739D01*
Y482051D01*
Y474433D02*
X907278D01*
Y471894D01*
X904739D01*
Y474433D01*
X917435Y471894D02*
X927592Y482051D01*
X932670Y471894D02*
X942827Y482051D01*
X958062D02*
X950444D01*
X947905Y479511D01*
Y474433D01*
X950444Y471894D01*
X958062D01*
X963140Y482051D02*
Y471894D01*
Y476972D01*
X965679Y479511D01*
X968219Y482051D01*
X970758D01*
X985993Y471894D02*
X980914D01*
X978375Y474433D01*
Y479511D01*
X980914Y482051D01*
X985993D01*
X988532Y479511D01*
Y476972D01*
X978375D01*
X996149Y482051D02*
X1001228D01*
X1003767Y479511D01*
Y471894D01*
X996149D01*
X993610Y474433D01*
X996149Y476972D01*
X1003767D01*
X1011385Y484590D02*
Y482051D01*
X1008845D01*
X1013924D01*
X1011385D01*
Y474433D01*
X1013924Y471894D01*
X1021541D02*
X1026620D01*
X1024080D01*
Y482051D01*
X1021541D01*
X1034237D02*
X1039315Y471894D01*
X1044394Y482051D01*
X1057090Y471894D02*
X1052011D01*
X1049472Y474433D01*
Y479511D01*
X1052011Y482051D01*
X1057090D01*
X1059629Y479511D01*
Y476972D01*
X1049472D01*
X1074864Y482051D02*
X1067246D01*
X1064707Y479511D01*
Y474433D01*
X1067246Y471894D01*
X1074864D01*
X1082482D02*
X1087560D01*
X1090099Y474433D01*
Y479511D01*
X1087560Y482051D01*
X1082482D01*
X1079942Y479511D01*
Y474433D01*
X1082482Y471894D01*
X1095177D02*
Y482051D01*
X1097717D01*
X1100256Y479511D01*
Y471894D01*
Y479511D01*
X1102795Y482051D01*
X1105334Y479511D01*
Y471894D01*
X1110413D02*
Y482051D01*
X1112952D01*
X1115491Y479511D01*
Y471894D01*
Y479511D01*
X1118030Y482051D01*
X1120569Y479511D01*
Y471894D01*
X1128187D02*
X1133265D01*
X1135804Y474433D01*
Y479511D01*
X1133265Y482051D01*
X1128187D01*
X1125648Y479511D01*
Y474433D01*
X1128187Y471894D01*
X1140883D02*
Y482051D01*
X1148500D01*
X1151039Y479511D01*
Y471894D01*
X1156118D02*
X1163735D01*
X1166274Y474433D01*
X1163735Y476972D01*
X1158657D01*
X1156118Y479511D01*
X1158657Y482051D01*
X1166274D01*
X1171353Y471894D02*
Y474433D01*
X1173892D01*
Y471894D01*
X1171353D01*
X1186588D02*
X1191666D01*
X1194205Y474433D01*
Y479511D01*
X1191666Y482051D01*
X1186588D01*
X1184049Y479511D01*
Y474433D01*
X1186588Y471894D01*
X1199284Y482051D02*
Y471894D01*
Y476972D01*
X1201823Y479511D01*
X1204362Y482051D01*
X1206901D01*
X1219597Y466816D02*
X1222136D01*
X1224676Y469355D01*
Y482051D01*
X1217058D01*
X1214519Y479511D01*
Y474433D01*
X1217058Y471894D01*
X1224676D01*
X1229754D02*
X1239911Y482051D01*
X1244989Y471894D02*
X1250067D01*
X1247528D01*
Y487129D01*
X1244989D01*
X1257685Y471894D02*
X1262763D01*
X1260224D01*
Y482051D01*
X1257685D01*
X1280537D02*
X1272920D01*
X1270381Y479511D01*
Y474433D01*
X1272920Y471894D01*
X1280537D01*
X1293233D02*
X1288155D01*
X1285616Y474433D01*
Y479511D01*
X1288155Y482051D01*
X1293233D01*
X1295773Y479511D01*
Y476972D01*
X1285616D01*
X1300851Y471894D02*
Y482051D01*
X1308468D01*
X1311008Y479511D01*
Y471894D01*
X1316086D02*
X1323703D01*
X1326243Y474433D01*
X1323703Y476972D01*
X1318625D01*
X1316086Y479511D01*
X1318625Y482051D01*
X1326243D01*
X1338938Y471894D02*
X1333860D01*
X1331321Y474433D01*
Y479511D01*
X1333860Y482051D01*
X1338938D01*
X1341478Y479511D01*
Y476972D01*
X1331321D01*
X1346556Y471894D02*
X1354174D01*
X1356713Y474433D01*
X1354174Y476972D01*
X1349095D01*
X1346556Y479511D01*
X1349095Y482051D01*
X1356713D01*
X1361791Y471894D02*
X1371948Y482051D01*
X1377026Y487129D02*
Y471894D01*
X1384644D01*
X1387183Y474433D01*
Y476972D01*
Y479511D01*
X1384644Y482051D01*
X1377026D01*
X1392261D02*
Y474433D01*
X1394801Y471894D01*
X1402418D01*
Y469355D01*
X1399879Y466816D01*
X1397340D01*
X1402418Y471894D02*
Y482051D01*
X1407496Y479511D02*
X1417653D01*
X1422731Y471894D02*
X1430349D01*
X1432888Y474433D01*
X1430349Y476972D01*
X1425271D01*
X1422731Y479511D01*
X1425271Y482051D01*
X1432888D01*
X1440506D02*
X1445584D01*
X1448123Y479511D01*
Y471894D01*
X1440506D01*
X1437966Y474433D01*
X1440506Y476972D01*
X1448123D01*
X1453202Y471894D02*
X1463358Y482051D01*
X1468437Y484590D02*
X1470976Y487129D01*
X1476054D01*
X1478593Y484590D01*
Y482051D01*
X1476054Y479511D01*
X1473515D01*
X1476054D01*
X1478593Y476972D01*
Y474433D01*
X1476054Y471894D01*
X1470976D01*
X1468437Y474433D01*
X1483672Y471894D02*
Y474433D01*
X1486211D01*
Y471894D01*
X1483672D01*
X1496368Y484590D02*
X1498907Y487129D01*
X1503985D01*
X1506524Y484590D01*
Y474433D01*
X1503985Y471894D01*
X1498907D01*
X1496368Y474433D01*
Y484590D01*
X1511603Y471894D02*
X1521759Y482051D01*
X1526838Y471894D02*
X1531916D01*
X1529377D01*
Y487129D01*
X1526838D01*
X1547151Y471894D02*
X1542073D01*
X1539534Y474433D01*
Y479511D01*
X1542073Y482051D01*
X1547151D01*
X1549690Y479511D01*
Y476972D01*
X1539534D01*
X1559847Y466816D02*
X1562386D01*
X1564925Y469355D01*
Y482051D01*
X1557308D01*
X1554769Y479511D01*
Y474433D01*
X1557308Y471894D01*
X1564925D01*
X1572543Y482051D02*
X1577621D01*
X1580161Y479511D01*
Y471894D01*
X1572543D01*
X1570004Y474433D01*
X1572543Y476972D01*
X1580161D01*
X1585239Y471894D02*
X1590317D01*
X1587778D01*
Y487129D01*
X1585239D01*
X1608091Y482051D02*
X1600474D01*
X1597935Y479511D01*
Y474433D01*
X1600474Y471894D01*
X1608091D01*
X1615709D02*
X1620787D01*
X1623327Y474433D01*
Y479511D01*
X1620787Y482051D01*
X1615709D01*
X1613170Y479511D01*
Y474433D01*
X1615709Y471894D01*
X1638562Y487129D02*
Y471894D01*
X1630944D01*
X1628405Y474433D01*
Y479511D01*
X1630944Y482051D01*
X1638562D01*
X1651257Y471894D02*
X1646179D01*
X1643640Y474433D01*
Y479511D01*
X1646179Y482051D01*
X1651257D01*
X1653797Y479511D01*
Y476972D01*
X1643640D01*
X833642Y512129D02*
X843799D01*
X838720D01*
Y496894D01*
X848877Y512129D02*
Y496894D01*
Y504511D01*
X851416Y507051D01*
X856495D01*
X859034Y504511D01*
Y496894D01*
X864112D02*
X869191D01*
X866651D01*
Y507051D01*
X864112D01*
X876808Y496894D02*
X884426D01*
X886965Y499433D01*
X884426Y501972D01*
X879347D01*
X876808Y504511D01*
X879347Y507051D01*
X886965D01*
X907278Y496894D02*
X912356D01*
X909817D01*
Y507051D01*
X907278D01*
X919974Y496894D02*
X927592D01*
X930131Y499433D01*
X927592Y501972D01*
X922513D01*
X919974Y504511D01*
X922513Y507051D01*
X930131D01*
X952983D02*
X958062D01*
X960601Y504511D01*
Y496894D01*
X952983D01*
X950444Y499433D01*
X952983Y501972D01*
X960601D01*
X980914Y512129D02*
Y496894D01*
Y504511D01*
X983454Y507051D01*
X988532D01*
X991071Y504511D01*
Y496894D01*
X996149Y507051D02*
Y499433D01*
X998689Y496894D01*
X1006306D01*
Y507051D01*
X1011385Y496894D02*
Y507051D01*
X1013924D01*
X1016463Y504511D01*
Y496894D01*
Y504511D01*
X1019002Y507051D01*
X1021541Y504511D01*
Y496894D01*
X1029159Y507051D02*
X1034237D01*
X1036776Y504511D01*
Y496894D01*
X1029159D01*
X1026620Y499433D01*
X1029159Y501972D01*
X1036776D01*
X1041855Y496894D02*
Y507051D01*
X1049472D01*
X1052011Y504511D01*
Y496894D01*
X1057090Y504511D02*
X1067246D01*
X1072325Y507051D02*
Y496894D01*
Y501972D01*
X1074864Y504511D01*
X1077403Y507051D01*
X1079942D01*
X1095177Y496894D02*
X1090099D01*
X1087560Y499433D01*
Y504511D01*
X1090099Y507051D01*
X1095177D01*
X1097717Y504511D01*
Y501972D01*
X1087560D01*
X1105334Y507051D02*
X1110413D01*
X1112952Y504511D01*
Y496894D01*
X1105334D01*
X1102795Y499433D01*
X1105334Y501972D01*
X1112952D01*
X1128187Y512129D02*
Y496894D01*
X1120569D01*
X1118030Y499433D01*
Y504511D01*
X1120569Y507051D01*
X1128187D01*
X1135804D02*
X1140883D01*
X1143422Y504511D01*
Y496894D01*
X1135804D01*
X1133265Y499433D01*
X1135804Y501972D01*
X1143422D01*
X1148500Y512129D02*
Y496894D01*
X1156118D01*
X1158657Y499433D01*
Y501972D01*
Y504511D01*
X1156118Y507051D01*
X1148500D01*
X1163735Y496894D02*
X1168814D01*
X1166274D01*
Y512129D01*
X1163735D01*
X1184049Y496894D02*
X1178970D01*
X1176431Y499433D01*
Y504511D01*
X1178970Y507051D01*
X1184049D01*
X1186588Y504511D01*
Y501972D01*
X1176431D01*
X1206901Y496894D02*
X1214519D01*
X1217058Y499433D01*
X1214519Y501972D01*
X1209441D01*
X1206901Y504511D01*
X1209441Y507051D01*
X1217058D01*
X1222136D02*
Y499433D01*
X1224676Y496894D01*
X1232293D01*
Y507051D01*
X1237371Y496894D02*
Y507051D01*
X1239911D01*
X1242450Y504511D01*
Y496894D01*
Y504511D01*
X1244989Y507051D01*
X1247528Y504511D01*
Y496894D01*
X1252607D02*
Y507051D01*
X1255146D01*
X1257685Y504511D01*
Y496894D01*
Y504511D01*
X1260224Y507051D01*
X1262763Y504511D01*
Y496894D01*
X1270381Y507051D02*
X1275459D01*
X1277998Y504511D01*
Y496894D01*
X1270381D01*
X1267842Y499433D01*
X1270381Y501972D01*
X1277998D01*
X1283077Y507051D02*
Y496894D01*
Y501972D01*
X1285616Y504511D01*
X1288155Y507051D01*
X1290694D01*
X1298312D02*
Y499433D01*
X1300851Y496894D01*
X1308468D01*
Y494355D01*
X1305929Y491816D01*
X1303390D01*
X1308468Y496894D02*
Y507051D01*
X1331321Y496894D02*
X1336399D01*
X1338939Y499433D01*
Y504511D01*
X1336399Y507051D01*
X1331321D01*
X1328782Y504511D01*
Y499433D01*
X1331321Y496894D01*
X1346556D02*
Y509590D01*
Y504511D01*
X1344017D01*
X1349095D01*
X1346556D01*
Y509590D01*
X1349095Y512129D01*
X1374487Y509590D02*
Y507051D01*
X1371948D01*
X1377026D01*
X1374487D01*
Y499433D01*
X1377026Y496894D01*
X1384644Y512129D02*
Y496894D01*
Y504511D01*
X1387183Y507051D01*
X1392261D01*
X1394801Y504511D01*
Y496894D01*
X1407496D02*
X1402418D01*
X1399879Y499433D01*
Y504511D01*
X1402418Y507051D01*
X1407496D01*
X1410036Y504511D01*
Y501972D01*
X1399879D01*
X1430349Y496894D02*
X1435427D01*
X1432888D01*
Y512129D01*
X1430349D01*
X1443045Y496894D02*
X1448123D01*
X1445584D01*
Y507051D01*
X1443045D01*
X1465898D02*
X1458280D01*
X1455741Y504511D01*
Y499433D01*
X1458280Y496894D01*
X1465898D01*
X1478593D02*
X1473515D01*
X1470976Y499433D01*
Y504511D01*
X1473515Y507051D01*
X1478593D01*
X1481133Y504511D01*
Y501972D01*
X1470976D01*
X1486211Y496894D02*
Y507051D01*
X1493828D01*
X1496368Y504511D01*
Y496894D01*
X1511603Y507051D02*
X1503985D01*
X1501446Y504511D01*
Y499433D01*
X1503985Y496894D01*
X1511603D01*
X1524299D02*
X1519220D01*
X1516681Y499433D01*
Y504511D01*
X1519220Y507051D01*
X1524299D01*
X1526838Y504511D01*
Y501972D01*
X1516681D01*
X1531916Y496894D02*
Y499433D01*
X1534455D01*
Y496894D01*
X1531916D01*
X1559847D02*
Y512129D01*
X1567465D01*
X1570004Y509590D01*
Y504511D01*
X1567465Y501972D01*
X1559847D01*
X1564925D02*
X1570004Y496894D01*
X1582700D02*
X1577621D01*
X1575082Y499433D01*
Y504511D01*
X1577621Y507051D01*
X1582700D01*
X1585239Y504511D01*
Y501972D01*
X1575082D01*
X1592856Y507051D02*
X1597935D01*
X1600474Y504511D01*
Y496894D01*
X1592856D01*
X1590317Y499433D01*
X1592856Y501972D01*
X1600474D01*
X1615709Y512129D02*
Y496894D01*
X1608091D01*
X1605552Y499433D01*
Y504511D01*
X1608091Y507051D01*
X1615709D01*
X1638562Y496894D02*
Y509590D01*
Y504511D01*
X1636022D01*
X1641101D01*
X1638562D01*
Y509590D01*
X1641101Y512129D01*
X1648718Y507051D02*
Y499433D01*
X1651257Y496894D01*
X1658875D01*
Y507051D01*
X1663953Y496894D02*
X1669032D01*
X1666493D01*
Y512129D01*
X1663953D01*
X1676649Y496894D02*
X1681728D01*
X1679189D01*
Y512129D01*
X1676649D01*
X1704580Y496894D02*
X1709659D01*
X1707119D01*
Y512129D01*
X1704580D01*
X1717276Y496894D02*
X1722354D01*
X1719815D01*
Y507051D01*
X1717276D01*
X1740129D02*
X1732511D01*
X1729972Y504511D01*
Y499433D01*
X1732511Y496894D01*
X1740129D01*
X1752825D02*
X1747746D01*
X1745207Y499433D01*
Y504511D01*
X1747746Y507051D01*
X1752825D01*
X1755364Y504511D01*
Y501972D01*
X1745207D01*
X1760442Y496894D02*
Y507051D01*
X1768060D01*
X1770599Y504511D01*
Y496894D01*
X1785834Y507051D02*
X1778216D01*
X1775677Y504511D01*
Y499433D01*
X1778216Y496894D01*
X1785834D01*
X1798530D02*
X1793452D01*
X1790912Y499433D01*
Y504511D01*
X1793452Y507051D01*
X1798530D01*
X1801069Y504511D01*
Y501972D01*
X1790912D01*
X1823922Y507051D02*
X1829000D01*
X1831539Y504511D01*
Y496894D01*
X1823922D01*
X1821382Y499433D01*
X1823922Y501972D01*
X1831539D01*
X1839157Y509590D02*
Y507051D01*
X1836617D01*
X1841696D01*
X1839157D01*
Y499433D01*
X1841696Y496894D01*
X1849313Y507051D02*
X1851853D01*
Y504511D01*
X1849313D01*
Y507051D01*
Y499433D02*
X1851853D01*
Y496894D01*
X1849313D01*
Y499433D01*
X833642Y562129D02*
Y546894D01*
X838720Y551972D01*
X843799Y546894D01*
Y562129D01*
X859034D02*
X848877D01*
Y546894D01*
X859034D01*
X848877Y554511D02*
X853955D01*
X864112Y562129D02*
Y546894D01*
X871730D01*
X874269Y549433D01*
Y551972D01*
X871730Y554511D01*
X864112D01*
X871730D01*
X874269Y557051D01*
Y559590D01*
X871730Y562129D01*
X864112D01*
X889504Y559590D02*
X886965Y562129D01*
X881886D01*
X879347Y559590D01*
Y557051D01*
X881886Y554511D01*
X886965D01*
X889504Y551972D01*
Y549433D01*
X886965Y546894D01*
X881886D01*
X879347Y549433D01*
X894582Y562129D02*
X899661D01*
X897122D01*
Y546894D01*
X894582D01*
X899661D01*
X907278Y562129D02*
X917435D01*
X912356D01*
Y546894D01*
X932670Y562129D02*
X922513D01*
Y546894D01*
X932670D01*
X922513Y554511D02*
X927592D01*
X937748Y557051D02*
X940287D01*
Y554511D01*
X937748D01*
Y557051D01*
Y549433D02*
X940287D01*
Y546894D01*
X937748D01*
Y549433D01*
X965679Y562129D02*
Y546894D01*
Y554511D01*
X968219Y557051D01*
X973297D01*
X975836Y554511D01*
Y546894D01*
X983454Y559590D02*
Y557051D01*
X980914D01*
X985993D01*
X983454D01*
Y549433D01*
X985993Y546894D01*
X996149Y559590D02*
Y557051D01*
X993610D01*
X998689D01*
X996149D01*
Y549433D01*
X998689Y546894D01*
X1006306Y541816D02*
Y557051D01*
X1013924D01*
X1016463Y554511D01*
Y549433D01*
X1013924Y546894D01*
X1006306D01*
X1021541Y557051D02*
X1024080D01*
Y554511D01*
X1021541D01*
Y557051D01*
Y549433D02*
X1024080D01*
Y546894D01*
X1021541D01*
Y549433D01*
X1034237Y546894D02*
X1044394Y557051D01*
X1049472Y546894D02*
X1059629Y557051D01*
X1064707D02*
Y549433D01*
X1067246Y546894D01*
X1069786Y549433D01*
X1072325Y546894D01*
X1074864Y549433D01*
Y557051D01*
X1079942D02*
Y549433D01*
X1082482Y546894D01*
X1085021Y549433D01*
X1087560Y546894D01*
X1090099Y549433D01*
Y557051D01*
X1095177D02*
Y549433D01*
X1097717Y546894D01*
X1100256Y549433D01*
X1102795Y546894D01*
X1105334Y549433D01*
Y557051D01*
X1110413Y546894D02*
Y549433D01*
X1112952D01*
Y546894D01*
X1110413D01*
X1133265D02*
X1123108D01*
X1133265Y557051D01*
Y559590D01*
X1130726Y562129D01*
X1125648D01*
X1123108Y559590D01*
X1138343D02*
X1140883Y562129D01*
X1145961D01*
X1148500Y559590D01*
Y557051D01*
X1145961Y554511D01*
X1148500Y551972D01*
Y549433D01*
X1145961Y546894D01*
X1140883D01*
X1138343Y549433D01*
Y551972D01*
X1140883Y554511D01*
X1138343Y557051D01*
Y559590D01*
X1140883Y554511D02*
X1145961D01*
X1153578Y541816D02*
Y557051D01*
X1161196D01*
X1163735Y554511D01*
Y549433D01*
X1161196Y546894D01*
X1153578D01*
X1168814D02*
X1173892D01*
X1171353D01*
Y557051D01*
X1168814D01*
X1181509Y546894D02*
Y557051D01*
X1189127D01*
X1191666Y554511D01*
Y546894D01*
X1196745D02*
X1204362D01*
X1206901Y549433D01*
X1204362Y551972D01*
X1199284D01*
X1196745Y554511D01*
X1199284Y557051D01*
X1206901D01*
X1211980Y546894D02*
Y549433D01*
X1214519D01*
Y546894D01*
X1211980D01*
X1234832Y557051D02*
X1227215D01*
X1224676Y554511D01*
Y549433D01*
X1227215Y546894D01*
X1234832D01*
X1242450D02*
X1247528D01*
X1250067Y549433D01*
Y554511D01*
X1247528Y557051D01*
X1242450D01*
X1239911Y554511D01*
Y549433D01*
X1242450Y546894D01*
X1255146D02*
Y557051D01*
X1257685D01*
X1260224Y554511D01*
Y546894D01*
Y554511D01*
X1262763Y557051D01*
X1265302Y554511D01*
Y546894D01*
X833642Y571894D02*
Y582051D01*
X838720Y587129D01*
X843799Y582051D01*
Y571894D01*
Y579511D01*
X833642D01*
X848877Y587129D02*
Y574433D01*
X851416Y571894D01*
X856495D01*
X859034Y574433D01*
Y587129D01*
X864112D02*
X874269D01*
X869191D01*
Y571894D01*
X879347Y587129D02*
Y571894D01*
Y579511D01*
X889504D01*
Y587129D01*
Y571894D01*
X902200Y587129D02*
X897122D01*
X894582Y584590D01*
Y574433D01*
X897122Y571894D01*
X902200D01*
X904739Y574433D01*
Y584590D01*
X902200Y587129D01*
X909817Y571894D02*
Y587129D01*
X917435D01*
X919974Y584590D01*
Y579511D01*
X917435Y576972D01*
X909817D01*
X914896D02*
X919974Y571894D01*
X925052Y582051D02*
X927592D01*
Y579511D01*
X925052D01*
Y582051D01*
Y574433D02*
X927592D01*
Y571894D01*
X925052D01*
Y574433D01*
X963140Y587129D02*
X952983D01*
Y579511D01*
X958062D01*
X952983D01*
Y571894D01*
X978375Y587129D02*
X968219D01*
Y571894D01*
X978375D01*
X968219Y579511D02*
X973297D01*
X983454Y587129D02*
Y571894D01*
X991071D01*
X993610Y574433D01*
Y584590D01*
X991071Y587129D01*
X983454D01*
X1008845D02*
X998689D01*
Y571894D01*
X1008845D01*
X998689Y579511D02*
X1003767D01*
X1013924Y587129D02*
Y576972D01*
X1019002Y571894D01*
X1024080Y576972D01*
Y587129D01*
X1039315D02*
X1029159D01*
Y571894D01*
X1039315D01*
X1029159Y579511D02*
X1034237D01*
X1044394Y587129D02*
Y571894D01*
X1054551D01*
X1085021D02*
X1074864D01*
X1085021Y582051D01*
Y584590D01*
X1082482Y587129D01*
X1077403D01*
X1074864Y584590D01*
X1090099D02*
X1092638Y587129D01*
X1097717D01*
X1100256Y584590D01*
Y574433D01*
X1097717Y571894D01*
X1092638D01*
X1090099Y574433D01*
Y584590D01*
X1105334Y571894D02*
X1110413D01*
X1107873D01*
Y587129D01*
X1105334Y584590D01*
X1128187Y587129D02*
X1118030D01*
Y579511D01*
X1123108Y582051D01*
X1125648D01*
X1128187Y579511D01*
Y574433D01*
X1125648Y571894D01*
X1120569D01*
X1118030Y574433D01*
X831642Y632129D02*
Y616894D01*
X841799D01*
X846877Y632129D02*
X851955D01*
X849416D01*
Y616894D01*
X846877D01*
X851955D01*
X869730Y629590D02*
X867190Y632129D01*
X862112D01*
X859573Y629590D01*
Y619433D01*
X862112Y616894D01*
X867190D01*
X869730Y619433D01*
X884965Y632129D02*
X874808D01*
Y616894D01*
X884965D01*
X874808Y624511D02*
X879886D01*
X890043Y616894D02*
Y632129D01*
X900200Y616894D01*
Y632129D01*
X915435Y629590D02*
X912896Y632129D01*
X907817D01*
X905278Y629590D01*
Y619433D01*
X907817Y616894D01*
X912896D01*
X915435Y619433D01*
X930670Y632129D02*
X920513D01*
Y616894D01*
X930670D01*
X920513Y624511D02*
X925592D01*
M02*
