M48
;Layer_Color=9474304
;FILE_FORMAT=4:4
METRIC,LZ
;TYPE=PLATED
T1F00S00C0.3000
T3F00S00C1.0000
T4F00S00C1.1000
T5F00S00C1.5000
T6F00S00C3.2000
;TYPE=NON_PLATED
T7F00S00C3.2000
%
T01
X00326Y00068
X00366Y00075
X00396Y00066
X00409
X0043Y00064
X00443Y00043
X0046325Y0004325
X0045763Y00085834
X0048Y00093
X00455Y00149
X004015Y000875
X0032875Y0017175
X003285Y00255
X00391Y00252
X00597Y00185
X0063Y00182
X00631Y0017
X0066225Y001525
X00671Y00161
X00611Y00071
Y00061
X00316Y00068
X00302Y00084
X0028625Y000685
X0024725Y0011725
X00245Y00172
X0024075Y0019575
X0021525Y0020525
X00197Y00206
X00174Y00205
X0017272Y00193294
X00162Y00207
X00154Y002
X00136Y00181
X00144Y00172
X00136Y00164
X00127Y00173
X00121Y00154
X00111
X00101
X00111Y00144
X0011525Y001905
X0011375Y0021425
X001Y00237
X00081Y00235
X00079Y00251
X0006Y00233
X0005969Y00221488
X00041Y00277
X000825Y00291
X0011075Y0026275
X0015Y00272
X0018275Y002765
X0022Y00309
Y00226
X00250444Y00226822
X00304Y00222
X00303Y0018025
X00194Y00135
X00162Y00143
X00087Y00117
Y00106
X00098Y0032
X0009875Y0037525
X00108458Y00371856
X00117Y00403
Y00418
X00124968Y00411226
X0018775Y0040275
X00205Y00402
X00208Y00421
X0023Y00432
X00227Y00403
X00222Y00476
X00282Y00487
X00295Y00419
X00315Y00429
X00279Y00344
X00063Y00448
X00055Y00522
X00364Y00487
Y00477
X00376
X00375Y00487
X00373Y00394
X00366
Y00386
X00373
X00322Y0042
X0057125Y0042125
X00566Y00411
X00582Y00409
X00578Y00434
X00563Y00394
Y00387
Y0038
X0062225Y0045175
T03
X00599452Y00261218
Y00306218
X00664452
Y00261218
X002435Y000765
X001985
Y000115
X002435
T04
X003302Y000254
X003556
X00381
X004064
X004318
X004572
X00508
X005334
X005588
X005842
X006096
X00635
X0062065Y0012573
X0059525
X0056985
X0054445
X0051905
X0049365
X0046825
X0044285
X0041745
X0039205
X0036665
X0034125
Y0020193
X0036665
X0039205
X0041745
X0044285
X0046825
X0049365
X0051905
X0054445
X0056985
X0059525
X0062065
X0031585
X0029045
Y0012573
X0031585
X003048Y000254
X002794
X00167Y00088
X001416
X001162
X000508Y00316598
Y00341998
X000254
Y00316598
X000256Y00384
Y004094
X00051
X000764
Y00384
X00051
X000508Y0047244
Y0049784
X000762
Y0047244
X000254
Y0049784
X00146Y00446
Y004206
Y003952
Y003698
X0018796Y00508
X0021336
X0023876
X0026416
X0028956
X0031496
X0034036
X0036576
X0039116
X0041656
X004572
X004826
X00508
X005334
X005588
X005842
X006096
X00635
X00662Y00469
Y004436
Y004182
T05
X00021Y00031
X00022Y00138
T06
X006604Y000762
X001397Y000254
X006604Y003556
T07
X001524Y00508
M30
